<svg width="633" height="451" viewBox="0 0 633 451" fill="none" xmlns="http://www.w3.org/2000/svg">
<mask id="mask0_99_195" style="mask-type:luminance" maskUnits="userSpaceOnUse" x="353" y="174" width="55" height="37">
<path d="M353.938 174.135H407.271V210.135H353.938V174.135Z" fill="white"/>
</mask>
<g mask="url(#mask0_99_195)">
<mask id="mask1_99_195" style="mask-type:luminance" maskUnits="userSpaceOnUse" x="316" y="156" width="161" height="157">
<path d="M316.203 187.276L447.76 156.974L476.484 281.714L344.932 312.01L316.203 187.276Z" fill="white"/>
</mask>
<g mask="url(#mask1_99_195)">
<mask id="mask2_99_195" style="mask-type:luminance" maskUnits="userSpaceOnUse" x="316" y="156" width="161" height="157">
<path d="M316.203 187.276L447.76 156.974L476.484 281.714L344.932 312.01L316.203 187.276Z" fill="white"/>
</mask>
<g mask="url(#mask2_99_195)">
<mask id="mask3_99_195" style="mask-type:luminance" maskUnits="userSpaceOnUse" x="316" y="156" width="161" height="157">
<path d="M316.203 187.276L447.76 156.974L476.484 281.714L344.932 312.01L316.203 187.276Z" fill="white"/>
</mask>
<g mask="url(#mask3_99_195)">
<path d="M361.464 185.828C382.714 176.318 391.5 183.49 401.563 176.896C411.63 170.302 404.115 186.516 401.781 189.547C399.443 192.578 377.625 212.521 365.557 209.828C353.484 207.141 349.729 191.078 361.464 185.828Z" fill="#5C913B"/>
</g>
</g>
</g>
</g>
<mask id="mask4_99_195" style="mask-type:luminance" maskUnits="userSpaceOnUse" x="320" y="184" width="68" height="44">
<path d="M320.604 184.802H387.271V227.469H320.604V184.802Z" fill="white"/>
</mask>
<g mask="url(#mask4_99_195)">
<mask id="mask5_99_195" style="mask-type:luminance" maskUnits="userSpaceOnUse" x="316" y="156" width="161" height="157">
<path d="M316.203 187.276L447.76 156.974L476.484 281.714L344.932 312.01L316.203 187.276Z" fill="white"/>
</mask>
<g mask="url(#mask5_99_195)">
<mask id="mask6_99_195" style="mask-type:luminance" maskUnits="userSpaceOnUse" x="316" y="156" width="161" height="157">
<path d="M316.203 187.276L447.76 156.974L476.484 281.714L344.932 312.01L316.203 187.276Z" fill="white"/>
</mask>
<g mask="url(#mask6_99_195)">
<mask id="mask7_99_195" style="mask-type:luminance" maskUnits="userSpaceOnUse" x="316" y="156" width="161" height="157">
<path d="M316.203 187.276L447.76 156.974L476.484 281.714L344.932 312.01L316.203 187.276Z" fill="white"/>
</mask>
<g mask="url(#mask7_99_195)">
<path d="M383.839 226.51C382.797 226.75 381.651 226.516 380.771 225.771C377.688 223.162 374.734 220.083 371.604 216.818C360.807 205.563 348.568 192.802 324.693 192.984C322.745 192.995 321.156 191.427 321.141 189.479C321.125 187.531 322.693 185.943 324.636 185.927C351.552 185.724 365.49 200.255 376.688 211.938C379.688 215.063 382.516 218.01 385.318 220.38C386.807 221.635 386.995 223.865 385.74 225.349C385.229 225.958 384.557 226.344 383.839 226.51Z" fill="#77B255"/>
</g>
</g>
</g>
</g>
<mask id="mask8_99_195" style="mask-type:luminance" maskUnits="userSpaceOnUse" x="0" y="0" width="633" height="451">
<path d="M0 0H632.604V450.458H0V0Z" fill="white"/>
</mask>
<g mask="url(#mask8_99_195)">
<mask id="mask9_99_195" style="mask-type:luminance" maskUnits="userSpaceOnUse" x="0" y="0" width="633" height="451">
<path d="M595.99 450.458H36.4167C16.349 450.458 0 434.109 0 414.042V36.4167C0 16.349 16.349 0 36.4167 0H595.99C616.057 0 632.406 16.349 632.406 36.4167V414.042C632.406 434.109 616.057 450.458 595.99 450.458Z" fill="white"/>
</mask>
<g mask="url(#mask9_99_195)">
<mask id="mask10_99_195" style="mask-type:luminance" maskUnits="userSpaceOnUse" x="-1" y="-1" width="634" height="452">
<path d="M632.604 -0.197876H-0.729126V450.469H632.604V-0.197876Z" fill="white"/>
</mask>
<g mask="url(#mask10_99_195)">
<mask id="mask11_99_195" style="mask-type:luminance" maskUnits="userSpaceOnUse" x="0" y="0" width="633" height="451">
<path d="M0 0H632.443V450.458H0V0Z" fill="white"/>
</mask>
<g mask="url(#mask11_99_195)">
<mask id="mask12_99_195" style="mask-type:luminance" maskUnits="userSpaceOnUse" x="0" y="0" width="633" height="451">
<path d="M595.99 450.458H36.4167C16.349 450.458 0 434.109 0 414.042V36.4167C0 16.349 16.349 0 36.4167 0H595.99C616.057 0 632.406 16.349 632.406 36.4167V414.042C632.406 434.109 616.057 450.458 595.99 450.458Z" fill="white"/>
</mask>
<g mask="url(#mask12_99_195)">
<path d="M0 0H631.698V450.458H0V0Z" fill="#F4F0DE"/>
</g>
</g>
</g>
</g>
</g>
<mask id="mask13_99_195" style="mask-type:luminance" maskUnits="userSpaceOnUse" x="135" y="82" width="90" height="83">
<path d="M135.271 82.6667H224.604V164H135.271V82.6667Z" fill="white"/>
</mask>
<g mask="url(#mask13_99_195)">
<mask id="mask14_99_195" style="mask-type:luminance" maskUnits="userSpaceOnUse" x="48" y="51" width="207" height="219">
<path d="M254.713 123.786L159.88 269.672L48.3694 197.188L143.203 51.3021L254.713 123.786Z" fill="white"/>
</mask>
<g mask="url(#mask14_99_195)">
<mask id="mask15_99_195" style="mask-type:luminance" maskUnits="userSpaceOnUse" x="48" y="51" width="207" height="219">
<path d="M254.713 123.786L159.88 269.672L48.3694 197.188L143.203 51.3021L254.713 123.786Z" fill="white"/>
</mask>
<g mask="url(#mask15_99_195)">
<path d="M197.968 113.516C191.166 112.667 183.161 115.187 183.125 115.203C190.974 82.526 165.729 76.3646 155.781 89.5781C138.323 112.771 136.453 141.187 136.448 141.323L145.843 150.766C149.078 150.995 173.093 166.385 201.39 163.062C231.505 159.521 233.843 119.333 197.968 113.516Z" fill="#80447D"/>
</g>
</g>
</g>
<mask id="mask16_99_195" style="mask-type:luminance" maskUnits="userSpaceOnUse" x="76" y="140" width="80" height="88">
<path d="M76.604 140H155.271V228H76.604V140Z" fill="white"/>
</mask>
<g mask="url(#mask16_99_195)">
<mask id="mask17_99_195" style="mask-type:luminance" maskUnits="userSpaceOnUse" x="48" y="51" width="207" height="219">
<path d="M254.713 123.786L159.88 269.672L48.3696 197.188L143.203 51.3021L254.713 123.786Z" fill="white"/>
</mask>
<g mask="url(#mask17_99_195)">
<mask id="mask18_99_195" style="mask-type:luminance" maskUnits="userSpaceOnUse" x="48" y="51" width="207" height="219">
<path d="M254.713 123.786L159.88 269.672L48.3696 197.188L143.203 51.3021L254.713 123.786Z" fill="white"/>
</mask>
<g mask="url(#mask18_99_195)">
<path d="M104.703 199.198C104.432 192.349 107.62 184.594 107.64 184.552C74.4164 189.615 70.4112 163.932 84.4164 155.141C109.005 139.703 137.474 140.245 137.614 140.255L144.495 147.719C144.567 147.828 159.489 178.885 153.781 206.797C147.708 236.505 107.468 235.438 104.703 199.198Z" fill="#80447D"/>
</g>
</g>
</g>
<mask id="mask19_99_195" style="mask-type:luminance" maskUnits="userSpaceOnUse" x="127" y="132" width="34" height="35">
<path d="M127.271 132H160.604V166.667H127.271V132Z" fill="white"/>
</mask>
<g mask="url(#mask19_99_195)">
<mask id="mask20_99_195" style="mask-type:luminance" maskUnits="userSpaceOnUse" x="48" y="51" width="207" height="219">
<path d="M254.713 123.786L159.88 269.672L48.3694 197.188L143.203 51.3021L254.713 123.786Z" fill="white"/>
</mask>
<g mask="url(#mask20_99_195)">
<mask id="mask21_99_195" style="mask-type:luminance" maskUnits="userSpaceOnUse" x="48" y="51" width="207" height="219">
<path d="M254.713 123.786L159.88 269.672L48.3694 197.188L143.203 51.3021L254.713 123.786Z" fill="white"/>
</mask>
<g mask="url(#mask21_99_195)">
<path d="M148.484 162.182L128.921 136.365C127.973 135.115 127.989 133.521 128.958 132.818C129.723 132.255 130.869 132.417 131.776 133.141L156.703 152.922C160.171 155.672 161.552 160.401 159.791 163.479C158.031 166.563 153.791 166.823 150.328 164.068C149.63 163.521 149.005 162.859 148.484 162.182Z" fill="#3F251B"/>
</g>
</g>
</g>
<mask id="mask22_99_195" style="mask-type:luminance" maskUnits="userSpaceOnUse" x="159" y="160" width="45" height="18">
<path d="M159.271 160H203.271V177.333H159.271V160Z" fill="white"/>
</mask>
<g mask="url(#mask22_99_195)">
<mask id="mask23_99_195" style="mask-type:luminance" maskUnits="userSpaceOnUse" x="48" y="51" width="207" height="219">
<path d="M254.713 123.786L159.88 269.672L48.3694 197.188L143.203 51.3021L254.713 123.786Z" fill="white"/>
</mask>
<g mask="url(#mask23_99_195)">
<mask id="mask24_99_195" style="mask-type:luminance" maskUnits="userSpaceOnUse" x="48" y="51" width="207" height="219">
<path d="M254.713 123.786L159.88 269.672L48.3694 197.188L143.203 51.3021L254.713 123.786Z" fill="white"/>
</mask>
<g mask="url(#mask24_99_195)">
<path d="M159.593 161.151C159.822 160.969 160.151 160.927 160.427 161.068C163.401 162.573 166.349 164.479 169.463 166.505C179.687 173.136 190.25 179.99 201.114 170.953C201.427 170.677 201.932 170.719 202.213 171.052C202.489 171.38 202.442 171.875 202.114 172.146C201.947 172.287 201.791 172.412 201.63 172.542C190.052 181.724 178.671 174.339 168.614 167.813C165.536 165.813 162.625 163.922 159.724 162.458C159.343 162.261 159.187 161.797 159.38 161.412C159.432 161.313 159.505 161.219 159.593 161.151Z" fill="#3F251B"/>
</g>
</g>
</g>
<mask id="mask25_99_195" style="mask-type:luminance" maskUnits="userSpaceOnUse" x="199" y="168" width="6" height="6">
<path d="M199.271 168H204.604V173.333H199.271V168Z" fill="white"/>
</mask>
<g mask="url(#mask25_99_195)">
<mask id="mask26_99_195" style="mask-type:luminance" maskUnits="userSpaceOnUse" x="48" y="51" width="207" height="219">
<path d="M254.713 123.786L159.88 269.672L48.3694 197.188L143.203 51.3021L254.713 123.786Z" fill="white"/>
</mask>
<g mask="url(#mask26_99_195)">
<mask id="mask27_99_195" style="mask-type:luminance" maskUnits="userSpaceOnUse" x="48" y="51" width="207" height="219">
<path d="M254.713 123.786L159.88 269.672L48.3694 197.188L143.203 51.3021L254.713 123.786Z" fill="white"/>
</mask>
<g mask="url(#mask27_99_195)">
<path d="M199.953 171.75C199.296 170.922 199.432 169.719 200.26 169.063C201.093 168.401 202.291 168.542 202.953 169.37C203.609 170.198 203.468 171.401 202.64 172.063C201.812 172.714 200.609 172.578 199.953 171.75Z" fill="#3F251B"/>
</g>
</g>
</g>
<mask id="mask28_99_195" style="mask-type:luminance" maskUnits="userSpaceOnUse" x="155" y="164" width="15" height="46">
<path d="M155.271 164H169.937V209.333H155.271V164Z" fill="white"/>
</mask>
<g mask="url(#mask28_99_195)">
<mask id="mask29_99_195" style="mask-type:luminance" maskUnits="userSpaceOnUse" x="48" y="51" width="207" height="219">
<path d="M254.713 123.786L159.88 269.672L48.3694 197.188L143.203 51.3021L254.713 123.786Z" fill="white"/>
</mask>
<g mask="url(#mask29_99_195)">
<mask id="mask30_99_195" style="mask-type:luminance" maskUnits="userSpaceOnUse" x="48" y="51" width="207" height="219">
<path d="M254.713 123.786L159.88 269.672L48.3694 197.188L143.203 51.3021L254.713 123.786Z" fill="white"/>
</mask>
<g mask="url(#mask30_99_195)">
<path d="M155.651 164.776C155.447 164.995 155.375 165.313 155.5 165.604C156.739 168.688 158.395 171.787 160.151 175.063C165.89 185.813 171.828 196.917 161.901 206.979C161.604 207.266 161.598 207.776 161.906 208.078C162.213 208.386 162.708 208.38 163.01 208.073C163.156 207.922 163.302 207.776 163.442 207.625C173.567 196.865 167.171 184.901 161.526 174.333C159.786 171.094 158.156 168.031 156.932 165.016C156.776 164.62 156.322 164.427 155.927 164.589C155.817 164.63 155.723 164.698 155.651 164.776Z" fill="#3F251B"/>
</g>
</g>
</g>
<mask id="mask31_99_195" style="mask-type:luminance" maskUnits="userSpaceOnUse" x="159" y="205" width="6" height="5">
<path d="M159.271 205.333H164.604V209.333H159.271V205.333Z" fill="white"/>
</mask>
<g mask="url(#mask31_99_195)">
<mask id="mask32_99_195" style="mask-type:luminance" maskUnits="userSpaceOnUse" x="48" y="51" width="207" height="219">
<path d="M254.713 123.786L159.88 269.672L48.3694 197.187L143.203 51.302L254.713 123.786Z" fill="white"/>
</mask>
<g mask="url(#mask32_99_195)">
<mask id="mask33_99_195" style="mask-type:luminance" maskUnits="userSpaceOnUse" x="48" y="51" width="207" height="219">
<path d="M254.713 123.786L159.88 269.672L48.3694 197.187L143.203 51.302L254.713 123.786Z" fill="white"/>
</mask>
<g mask="url(#mask33_99_195)">
<path d="M162.796 205.885C162.026 205.161 160.812 205.198 160.088 205.969C159.364 206.74 159.401 207.948 160.171 208.677C160.942 209.396 162.151 209.365 162.875 208.594C163.599 207.823 163.562 206.615 162.796 205.885Z" fill="#3F251B"/>
</g>
</g>
</g>
<mask id="mask34_99_195" style="mask-type:luminance" maskUnits="userSpaceOnUse" x="251" y="169" width="78" height="88">
<path d="M251.271 169H328.604V257H251.271V169Z" fill="white"/>
</mask>
<g mask="url(#mask34_99_195)">
<mask id="mask35_99_195" style="mask-type:luminance" maskUnits="userSpaceOnUse" x="227" y="143" width="210" height="187">
<path d="M273.599 143.734L436.677 204.411L390.297 329.062L227.219 268.385L273.599 143.734Z" fill="white"/>
</mask>
<g mask="url(#mask35_99_195)">
<mask id="mask36_99_195" style="mask-type:luminance" maskUnits="userSpaceOnUse" x="227" y="143" width="210" height="187">
<path d="M273.599 143.734L436.677 204.411L390.297 329.062L227.219 268.385L273.599 143.734Z" fill="white"/>
</mask>
<g mask="url(#mask36_99_195)">
<mask id="mask37_99_195" style="mask-type:luminance" maskUnits="userSpaceOnUse" x="227" y="143" width="210" height="187">
<path d="M273.599 143.734L436.677 204.411L390.297 329.062L227.219 268.385L273.599 143.734Z" fill="white"/>
</mask>
<g mask="url(#mask37_99_195)">
<path d="M275.922 201.474C276.573 208.312 280.776 215.583 280.802 215.62C247.192 215.125 246.666 241.161 261.739 247.984C288.177 259.958 316.333 255.547 316.463 255.521L323.64 244.26C323.156 241.047 332.953 214.182 323.552 187.245C313.536 158.578 273.791 165.12 275.922 201.474Z" fill="#E59816"/>
</g>
</g>
</g>
</g>
<mask id="mask38_99_195" style="mask-type:luminance" maskUnits="userSpaceOnUse" x="313" y="225" width="91" height="86">
<path d="M313.938 225H403.271V310.333H313.938V225Z" fill="white"/>
</mask>
<g mask="url(#mask38_99_195)">
<mask id="mask39_99_195" style="mask-type:luminance" maskUnits="userSpaceOnUse" x="227" y="145" width="210" height="186">
<path d="M273.599 145.068L436.677 205.745L390.297 330.396L227.219 269.719L273.599 145.068Z" fill="white"/>
</mask>
<g mask="url(#mask39_99_195)">
<mask id="mask40_99_195" style="mask-type:luminance" maskUnits="userSpaceOnUse" x="227" y="145" width="210" height="186">
<path d="M273.599 145.068L436.677 205.745L390.297 330.396L227.219 269.719L273.599 145.068Z" fill="white"/>
</mask>
<g mask="url(#mask40_99_195)">
<mask id="mask41_99_195" style="mask-type:luminance" maskUnits="userSpaceOnUse" x="227" y="145" width="210" height="186">
<path d="M273.599 145.068L436.677 205.745L390.297 330.396L227.219 269.719L273.599 145.068Z" fill="white"/>
</mask>
<g mask="url(#mask41_99_195)">
<path d="M379.885 275.177C373.255 276.948 364.984 275.536 364.943 275.521C377.115 306.896 352.917 316.453 341.281 304.693C320.859 284.042 315.193 256.083 315.167 255.948L320.958 247.578C321.047 247.484 348.12 226.073 376.615 225.516C406.943 224.927 414.662 264.51 379.885 275.177Z" fill="#E59816"/>
</g>
</g>
</g>
</g>
<mask id="mask42_99_195" style="mask-type:luminance" maskUnits="userSpaceOnUse" x="308" y="227" width="29" height="41">
<path d="M308.604 227.667H336.604V267.667H308.604V227.667Z" fill="white"/>
</mask>
<g mask="url(#mask42_99_195)">
<mask id="mask43_99_195" style="mask-type:luminance" maskUnits="userSpaceOnUse" x="227" y="145" width="210" height="186">
<path d="M273.599 145.068L436.677 205.745L390.297 330.396L227.219 269.719L273.599 145.068Z" fill="white"/>
</mask>
<g mask="url(#mask43_99_195)">
<mask id="mask44_99_195" style="mask-type:luminance" maskUnits="userSpaceOnUse" x="227" y="145" width="210" height="186">
<path d="M273.599 145.068L436.677 205.745L390.297 330.396L227.219 269.719L273.599 145.068Z" fill="white"/>
</mask>
<g mask="url(#mask44_99_195)">
<mask id="mask45_99_195" style="mask-type:luminance" maskUnits="userSpaceOnUse" x="227" y="145" width="210" height="186">
<path d="M273.599 145.068L436.677 205.745L390.297 330.396L227.219 269.719L273.599 145.068Z" fill="white"/>
</mask>
<g mask="url(#mask45_99_195)">
<path d="M334.213 240.5L313.26 265.302C312.25 266.505 310.693 266.839 309.791 266.047C309.078 265.422 308.984 264.266 309.495 263.219L323.38 234.5C325.312 230.505 329.625 228.115 333.01 229.162C336.406 230.203 337.588 234.292 335.651 238.281C335.265 239.089 334.76 239.844 334.213 240.5Z" fill="#3F251B"/>
</g>
</g>
</g>
</g>
<mask id="mask46_99_195" style="mask-type:luminance" maskUnits="userSpaceOnUse" x="329" y="185" width="12" height="46">
<path d="M329.938 185H340.604V230.333H329.938V185Z" fill="white"/>
</mask>
<g mask="url(#mask46_99_195)">
<mask id="mask47_99_195" style="mask-type:luminance" maskUnits="userSpaceOnUse" x="227" y="145" width="210" height="186">
<path d="M273.599 145.068L436.677 205.745L390.297 330.396L227.219 269.719L273.599 145.068Z" fill="white"/>
</mask>
<g mask="url(#mask47_99_195)">
<mask id="mask48_99_195" style="mask-type:luminance" maskUnits="userSpaceOnUse" x="227" y="145" width="210" height="186">
<path d="M273.599 145.068L436.677 205.745L390.297 330.396L227.219 269.719L273.599 145.068Z" fill="white"/>
</mask>
<g mask="url(#mask48_99_195)">
<mask id="mask49_99_195" style="mask-type:luminance" maskUnits="userSpaceOnUse" x="227" y="145" width="210" height="186">
<path d="M273.599 145.068L436.677 205.745L390.297 330.396L227.219 269.719L273.599 145.068Z" fill="white"/>
</mask>
<g mask="url(#mask49_99_195)">
<path d="M330.787 229.865C330.557 229.677 330.448 229.37 330.521 229.068C331.344 225.828 332.563 222.531 333.865 219.037C338.109 207.583 342.505 195.755 331.313 187.115C330.979 186.87 330.906 186.365 331.172 186.016C331.432 185.677 331.922 185.615 332.261 185.875C332.432 186.005 332.594 186.13 332.755 186.26C344.24 195.568 339.505 208.313 335.323 219.578C334.042 223.026 332.833 226.292 332.031 229.453C331.922 229.87 331.505 230.12 331.089 230.016C330.974 229.984 330.87 229.938 330.787 229.865Z" fill="#3F251B"/>
</g>
</g>
</g>
</g>
<mask id="mask50_99_195" style="mask-type:luminance" maskUnits="userSpaceOnUse" x="328" y="183" width="6" height="7">
<path d="M328.604 183.667H333.937V189H328.604V183.667Z" fill="white"/>
</mask>
<g mask="url(#mask50_99_195)">
<mask id="mask51_99_195" style="mask-type:luminance" maskUnits="userSpaceOnUse" x="227" y="145" width="210" height="186">
<path d="M273.599 145.068L436.677 205.745L390.297 330.396L227.219 269.719L273.599 145.068Z" fill="white"/>
</mask>
<g mask="url(#mask51_99_195)">
<mask id="mask52_99_195" style="mask-type:luminance" maskUnits="userSpaceOnUse" x="227" y="145" width="210" height="186">
<path d="M273.599 145.068L436.677 205.745L390.297 330.396L227.219 269.719L273.599 145.068Z" fill="white"/>
</mask>
<g mask="url(#mask52_99_195)">
<mask id="mask53_99_195" style="mask-type:luminance" maskUnits="userSpaceOnUse" x="227" y="145" width="210" height="186">
<path d="M273.599 145.068L436.677 205.745L390.297 330.396L227.219 269.719L273.599 145.068Z" fill="white"/>
</mask>
<g mask="url(#mask53_99_195)">
<path d="M332.344 188.073C331.682 188.896 330.474 189.031 329.656 188.365C328.828 187.693 328.703 186.49 329.37 185.661C330.036 184.839 331.239 184.714 332.062 185.38C332.885 186.042 333.01 187.25 332.344 188.073Z" fill="#3F251B"/>
</g>
</g>
</g>
</g>
<mask id="mask54_99_195" style="mask-type:luminance" maskUnits="userSpaceOnUse" x="333" y="213" width="44" height="22">
<path d="M333.938 213H376.604V234.333H333.938V213Z" fill="white"/>
</mask>
<g mask="url(#mask54_99_195)">
<mask id="mask55_99_195" style="mask-type:luminance" maskUnits="userSpaceOnUse" x="227" y="145" width="210" height="186">
<path d="M273.599 145.068L436.677 205.745L390.297 330.396L227.219 269.719L273.599 145.068Z" fill="white"/>
</mask>
<g mask="url(#mask55_99_195)">
<mask id="mask56_99_195" style="mask-type:luminance" maskUnits="userSpaceOnUse" x="227" y="145" width="210" height="186">
<path d="M273.599 145.068L436.677 205.745L390.297 330.396L227.219 269.719L273.599 145.068Z" fill="white"/>
</mask>
<g mask="url(#mask56_99_195)">
<mask id="mask57_99_195" style="mask-type:luminance" maskUnits="userSpaceOnUse" x="227" y="145" width="210" height="186">
<path d="M273.599 145.068L436.677 205.745L390.297 330.396L227.219 269.719L273.599 145.068Z" fill="white"/>
</mask>
<g mask="url(#mask57_99_195)">
<path d="M335.182 232.922C335.438 233.078 335.766 233.073 336.021 232.891C338.766 231 341.432 228.698 344.245 226.266C353.49 218.292 363.037 210.047 375.026 217.542C375.37 217.771 375.87 217.662 376.099 217.292C376.328 216.927 376.214 216.448 375.854 216.219C375.672 216.104 375.5 216 375.318 215.891C362.61 208.354 352.323 217.24 343.235 225.083C340.448 227.495 337.818 229.761 335.141 231.615C334.787 231.859 334.698 232.344 334.938 232.698C335.005 232.792 335.089 232.87 335.182 232.922Z" fill="#3F251B"/>
</g>
</g>
</g>
</g>
<mask id="mask58_99_195" style="mask-type:luminance" maskUnits="userSpaceOnUse" x="372" y="215" width="6" height="7">
<path d="M372.604 215.667H377.937V221H372.604V215.667Z" fill="white"/>
</mask>
<g mask="url(#mask58_99_195)">
<mask id="mask59_99_195" style="mask-type:luminance" maskUnits="userSpaceOnUse" x="227" y="145" width="210" height="186">
<path d="M273.599 145.068L436.677 205.745L390.297 330.396L227.219 269.719L273.599 145.068Z" fill="white"/>
</mask>
<g mask="url(#mask59_99_195)">
<mask id="mask60_99_195" style="mask-type:luminance" maskUnits="userSpaceOnUse" x="227" y="145" width="210" height="186">
<path d="M273.599 145.068L436.677 205.745L390.297 330.396L227.219 269.719L273.599 145.068Z" fill="white"/>
</mask>
<g mask="url(#mask60_99_195)">
<mask id="mask61_99_195" style="mask-type:luminance" maskUnits="userSpaceOnUse" x="227" y="145" width="210" height="186">
<path d="M273.599 145.068L436.677 205.745L390.297 330.396L227.219 269.719L273.599 145.068Z" fill="white"/>
</mask>
<g mask="url(#mask61_99_195)">
<path d="M373.765 216.906C373.224 217.818 373.521 218.995 374.432 219.531C375.344 220.073 376.515 219.771 377.057 218.859C377.594 217.948 377.297 216.771 376.385 216.229C375.479 215.693 374.307 216 373.765 216.906Z" fill="#3F251B"/>
</g>
</g>
</g>
</g>
<mask id="mask62_99_195" style="mask-type:luminance" maskUnits="userSpaceOnUse" x="425" y="132" width="87" height="91">
<path d="M425.937 132H511.271V222.667H425.937V132Z" fill="white"/>
</mask>
<g mask="url(#mask62_99_195)">
<mask id="mask63_99_195" style="mask-type:luminance" maskUnits="userSpaceOnUse" x="394" y="51" width="220" height="209">
<path d="M394.948 149.625L538.625 51.4791L613.646 161.302L469.969 259.448L394.948 149.625Z" fill="white"/>
</mask>
<g mask="url(#mask63_99_195)">
<mask id="mask64_99_195" style="mask-type:luminance" maskUnits="userSpaceOnUse" x="394" y="51" width="220" height="209">
<path d="M394.948 149.625L538.625 51.4791L613.646 161.302L469.969 259.448L394.948 149.625Z" fill="white"/>
</mask>
<g mask="url(#mask64_99_195)">
<path d="M443.364 180.948C449.317 184.349 457.677 185.104 457.718 185.104C437.896 212.239 458.823 227.646 473.093 219.276C498.13 204.594 510.797 179.083 510.849 178.958L505.812 166.63C502.916 165.172 486.677 141.729 459.276 133.901C430.12 125.578 412.495 161.771 443.364 180.948Z" fill="#EC5F5D"/>
</g>
</g>
</g>
<mask id="mask65_99_195" style="mask-type:luminance" maskUnits="userSpaceOnUse" x="504" y="98" width="74" height="91">
<path d="M504.604 98.6667H577.937V188H504.604V98.6667Z" fill="white"/>
</mask>
<g mask="url(#mask65_99_195)">
<mask id="mask66_99_195" style="mask-type:luminance" maskUnits="userSpaceOnUse" x="394" y="51" width="220" height="209">
<path d="M394.948 149.625L538.625 51.4792L613.646 161.302L469.969 259.448L394.948 149.625Z" fill="white"/>
</mask>
<g mask="url(#mask66_99_195)">
<mask id="mask67_99_195" style="mask-type:luminance" maskUnits="userSpaceOnUse" x="394" y="51" width="220" height="209">
<path d="M394.948 149.625L538.625 51.4792L613.646 161.302L469.969 259.448L394.948 149.625Z" fill="white"/>
</mask>
<g mask="url(#mask67_99_195)">
<path d="M562.427 137.761C560.036 144.188 554.115 150.12 554.078 150.151C586.687 158.266 580.5 183.511 564.193 186.234C535.557 191.021 509.49 179.557 509.365 179.5L505.885 169.958C505.865 169.833 504.042 135.427 520.052 111.859C537.088 86.7762 573.823 103.25 562.427 137.761Z" fill="#EC5F5D"/>
</g>
</g>
</g>
<mask id="mask68_99_195" style="mask-type:luminance" maskUnits="userSpaceOnUse" x="495" y="148" width="22" height="43">
<path d="M495.271 148H516.604V190.667H495.271V148Z" fill="white"/>
</mask>
<g mask="url(#mask68_99_195)">
<mask id="mask69_99_195" style="mask-type:luminance" maskUnits="userSpaceOnUse" x="394" y="51" width="220" height="209">
<path d="M394.948 149.625L538.625 51.4791L613.646 161.302L469.969 259.448L394.948 149.625Z" fill="white"/>
</mask>
<g mask="url(#mask69_99_195)">
<mask id="mask70_99_195" style="mask-type:luminance" maskUnits="userSpaceOnUse" x="394" y="51" width="220" height="209">
<path d="M394.948 149.625L538.625 51.4791L613.646 161.302L469.969 259.448L394.948 149.625Z" fill="white"/>
</mask>
<g mask="url(#mask70_99_195)">
<path d="M507.771 155.073L515.89 186.437C516.286 187.953 515.656 189.417 514.489 189.693C513.568 189.922 512.573 189.328 512.01 188.307L496.625 160.463C494.479 156.588 495.021 151.693 497.833 149.531C500.646 147.359 504.656 148.75 506.792 152.625C507.224 153.401 507.552 154.25 507.771 155.073Z" fill="#3F251B"/>
</g>
</g>
</g>
<mask id="mask71_99_195" style="mask-type:luminance" maskUnits="userSpaceOnUse" x="460" y="124" width="38" height="28">
<path d="M460.604 124H497.937V152H460.604V124Z" fill="white"/>
</mask>
<g mask="url(#mask71_99_195)">
<mask id="mask72_99_195" style="mask-type:luminance" maskUnits="userSpaceOnUse" x="394" y="51" width="220" height="209">
<path d="M394.948 149.625L538.625 51.4791L613.646 161.302L469.969 259.448L394.948 149.625Z" fill="white"/>
</mask>
<g mask="url(#mask72_99_195)">
<mask id="mask73_99_195" style="mask-type:luminance" maskUnits="userSpaceOnUse" x="394" y="51" width="220" height="209">
<path d="M394.948 149.625L538.625 51.4791L613.646 161.302L469.969 259.448L394.948 149.625Z" fill="white"/>
</mask>
<g mask="url(#mask73_99_195)">
<path d="M497.12 151.75C496.838 151.833 496.521 151.745 496.318 151.505C494.151 148.974 492.167 146.078 490.073 143.01C483.187 132.958 476.078 122.568 462.568 126.729C462.177 126.859 461.724 126.63 461.594 126.213C461.469 125.802 461.698 125.364 462.109 125.239C462.312 125.172 462.505 125.114 462.708 125.057C476.927 121.042 484.583 132.239 491.354 142.13C493.427 145.161 495.391 148.026 497.5 150.495C497.781 150.823 497.745 151.312 497.417 151.594C497.328 151.667 497.229 151.724 497.12 151.75Z" fill="#3F251B"/>
</g>
</g>
</g>
<mask id="mask74_99_195" style="mask-type:luminance" maskUnits="userSpaceOnUse" x="459" y="124" width="6" height="6">
<path d="M459.271 124H464.604V129.333H459.271V124Z" fill="white"/>
</mask>
<g mask="url(#mask74_99_195)">
<mask id="mask75_99_195" style="mask-type:luminance" maskUnits="userSpaceOnUse" x="394" y="51" width="220" height="209">
<path d="M394.948 149.625L538.625 51.4791L613.646 161.302L469.969 259.448L394.948 149.625Z" fill="white"/>
</mask>
<g mask="url(#mask75_99_195)">
<mask id="mask76_99_195" style="mask-type:luminance" maskUnits="userSpaceOnUse" x="394" y="51" width="220" height="209">
<path d="M394.948 149.625L538.625 51.4791L613.646 161.302L469.969 259.448L394.948 149.625Z" fill="white"/>
</mask>
<g mask="url(#mask76_99_195)">
<path d="M463.948 126.437C464.239 127.453 463.646 128.51 462.63 128.797C461.609 129.088 460.557 128.495 460.265 127.479C459.979 126.458 460.573 125.406 461.588 125.115C462.604 124.828 463.661 125.422 463.948 126.437Z" fill="#3F251B"/>
</g>
</g>
</g>
<mask id="mask77_99_195" style="mask-type:luminance" maskUnits="userSpaceOnUse" x="499" y="106" width="15" height="45">
<path d="M499.271 106.667H513.937V150.667H499.271V106.667Z" fill="white"/>
</mask>
<g mask="url(#mask77_99_195)">
<mask id="mask78_99_195" style="mask-type:luminance" maskUnits="userSpaceOnUse" x="394" y="51" width="220" height="209">
<path d="M394.948 149.625L538.625 51.4792L613.646 161.302L469.969 259.448L394.948 149.625Z" fill="white"/>
</mask>
<g mask="url(#mask78_99_195)">
<mask id="mask79_99_195" style="mask-type:luminance" maskUnits="userSpaceOnUse" x="394" y="51" width="220" height="209">
<path d="M394.948 149.625L538.625 51.4792L613.646 161.302L469.969 259.448L394.948 149.625Z" fill="white"/>
</mask>
<g mask="url(#mask79_99_195)">
<path d="M502.151 149.922C502.427 149.802 502.614 149.537 502.614 149.219C502.656 145.891 502.318 142.396 501.963 138.698C500.797 126.568 499.594 114.037 512.63 108.568C513.01 108.417 513.213 107.948 513.047 107.547C512.88 107.151 512.422 106.964 512.026 107.13C511.833 107.214 511.646 107.292 511.453 107.375C497.969 113.412 499.266 126.917 500.411 138.844C500.771 142.5 501.099 145.953 501.062 149.208C501.057 149.636 501.401 149.99 501.828 149.99C501.943 149.995 502.057 149.969 502.151 149.922Z" fill="#3F251B"/>
</g>
</g>
</g>
<mask id="mask80_99_195" style="mask-type:luminance" maskUnits="userSpaceOnUse" x="509" y="105" width="7" height="6">
<path d="M509.937 105.333H515.271V110.667H509.937V105.333Z" fill="white"/>
</mask>
<g mask="url(#mask80_99_195)">
<mask id="mask81_99_195" style="mask-type:luminance" maskUnits="userSpaceOnUse" x="394" y="51" width="220" height="209">
<path d="M394.948 149.625L538.625 51.4791L613.646 161.302L469.969 259.448L394.948 149.625Z" fill="white"/>
</mask>
<g mask="url(#mask81_99_195)">
<mask id="mask82_99_195" style="mask-type:luminance" maskUnits="userSpaceOnUse" x="394" y="51" width="220" height="209">
<path d="M394.948 149.625L538.625 51.4791L613.646 161.302L469.969 259.448L394.948 149.625Z" fill="white"/>
</mask>
<g mask="url(#mask82_99_195)">
<path d="M511.385 109.229C511.818 110.198 512.948 110.63 513.911 110.198C514.88 109.766 515.307 108.635 514.88 107.667C514.448 106.703 513.318 106.271 512.349 106.703C511.385 107.135 510.953 108.266 511.385 109.229Z" fill="#3F251B"/>
</g>
</g>
</g>
</svg>
