<svg width="212" height="160" viewBox="0 0 212 160" fill="none" xmlns="http://www.w3.org/2000/svg">
<mask id="mask0_25_1584" style="mask-type:luminance" maskUnits="userSpaceOnUse" x="0" y="98" width="212" height="62">
<path d="M0 98.3333H212V160H0V98.3333Z" fill="white"/>
</mask>
<g mask="url(#mask0_25_1584)">
<path d="M212 125.734C212 142.417 164.536 159.948 106 159.948C47.4635 159.948 0 142.62 0 125.937C0 125.771 -6.66827e-07 125.599 0.0104167 125.432C0.15625 123.005 1.30729 120.729 3.36458 118.615C15.0573 107.74 55.8802 99.6979 104.625 99.5417C105.078 99.5417 105.536 99.5417 105.99 99.5417C106.443 99.5417 106.901 99.5417 107.354 99.5417C158.479 99.6979 200.891 108.547 210.12 120.224C211.26 121.849 211.891 123.557 211.979 125.349C212 125.469 212 125.599 212 125.734Z" fill="#AA9974"/>
</g>
<mask id="mask1_25_1584" style="mask-type:luminance" maskUnits="userSpaceOnUse" x="0" y="98" width="212" height="61">
<path d="M0 98.3333H212V158.333H0V98.3333Z" fill="white"/>
</mask>
<g mask="url(#mask1_25_1584)">
<path d="M212 125C212 125.109 212 125.229 211.99 125.339C211.234 139.24 163.651 157.63 105.583 157.63C47.6302 157.63 0.96875 139.302 0.0104167 125.432C-6.66827e-07 125.286 0 125.146 0 125C0 122.786 1.17188 120.646 3.36458 118.615C15.0573 107.74 55.8802 99.6979 104.625 99.5417C105.078 99.5417 105.536 99.5417 105.99 99.5417C106.443 99.5417 106.901 99.5417 107.354 99.5417C158.479 99.6979 200.891 108.547 210.12 120.224C211.354 121.766 212 123.365 212 125Z" fill="#C9B583"/>
</g>
<path d="M191.698 119.766C190.922 134.271 142.979 144.906 106.563 145C69.4533 145.109 21.0679 134.333 20.3023 119.766C19.5471 105.443 64.7606 87.5625 106 87.5625C147.266 87.5469 192.464 105.458 191.698 119.766Z" fill="#AA9974"/>
<path d="M189.235 111.469C188.479 125.974 141.927 136.604 106.552 136.703C70.5054 136.812 23.521 126.036 22.771 111.469C22.7554 111.229 22.7554 111 22.771 110.76V41.6667H189.235V110.76C189.245 110.99 189.245 111.229 189.235 111.469Z" fill="#FFCEA5"/>
<path d="M189.235 85.3021V111.063C189.198 111.083 189.151 111.109 189.115 111.135C188.12 111.734 187.078 112.313 186 112.891C185.99 112.891 185.979 112.901 185.979 112.901C179.49 116.354 171.552 119.359 162.516 121.802C146.5 126.13 127.011 128.667 106 128.667C84.9793 128.667 65.5054 126.13 49.4897 121.802C40.4481 119.359 32.5106 116.354 26.0262 112.901C26.0106 112.901 26.0106 112.891 26.0002 112.891C24.922 112.313 23.8804 111.734 22.8908 111.135C22.8387 111.109 22.8075 111.083 22.771 111.063V85.3021C22.8075 85.3229 22.8543 85.349 22.8908 85.3698C23.896 85.974 24.9377 86.5625 26.0262 87.1406C29.6772 89.0886 33.7918 90.8906 38.3075 92.5261C40.8439 93.4531 43.5158 94.3177 46.2918 95.1354C46.5054 95.1979 46.7345 95.2708 46.9481 95.3281C48.9272 95.8958 50.9585 96.4375 53.0418 96.9531C57.2085 97.974 61.5783 98.8906 66.1252 99.6615C70.2189 100.359 74.4481 100.958 78.8022 101.427C80.37 101.594 81.9533 101.766 83.5575 101.906C84.6564 102.005 85.7814 102.099 86.896 102.188C90.0418 102.427 93.2502 102.604 96.495 102.724C98.0262 102.786 99.5835 102.823 101.141 102.859C102.745 102.88 104.36 102.906 105.99 102.906C107.615 102.906 109.235 102.896 110.849 102.859C113.552 102.813 116.224 102.714 118.87 102.583C119.745 102.531 120.615 102.484 121.49 102.438C125.214 102.208 128.875 101.906 132.458 101.526C136.141 101.125 139.735 100.656 143.229 100.104C144.005 99.9844 144.787 99.8542 145.563 99.7188C146.761 99.5156 147.948 99.3125 149.12 99.0833C149.25 99.0573 149.38 99.0365 149.5 99.0104C152.761 98.3958 155.906 97.7136 158.948 96.9531C162.417 96.099 165.735 95.1615 168.896 94.1511C171.339 93.3698 173.672 92.5521 175.912 91.6875C177.141 91.2031 178.349 90.7136 179.511 90.2188C181.797 89.2344 183.953 88.2083 185.964 87.1406C187.052 86.5625 188.094 85.974 189.099 85.3698C189.151 85.349 189.198 85.3229 189.235 85.3021Z" fill="#EA4C4D"/>
<path d="M189.235 48.375V74.1406C189.198 74.1615 189.151 74.1875 189.115 74.2083C188.12 74.8125 187.078 75.3906 186 75.9688C185.99 75.9688 185.979 75.9792 185.979 75.9792C182.156 78.0104 177.839 79.8854 173.083 81.5833C169.995 82.6875 166.74 83.7135 163.302 84.6615C163.042 84.7344 162.776 84.8073 162.5 84.8802C161.547 85.1406 160.573 85.3854 159.594 85.6354C156.974 86.2865 154.266 86.901 151.49 87.4635C148.136 88.1354 144.677 88.7396 141.11 89.2708C134.959 90.1719 128.516 90.8438 121.849 91.2656C119.083 91.4323 116.281 91.5677 113.448 91.651C110.979 91.724 108.505 91.7604 105.99 91.7604C101.917 91.7604 97.896 91.6615 93.9585 91.4792C91.495 91.3594 89.0627 91.2188 86.6564 91.0365C84.896 90.9062 83.1512 90.75 81.4272 90.5781C76.8908 90.1354 72.4689 89.5573 68.2085 88.8698C66.9897 88.6771 65.7918 88.474 64.5939 88.2604C61.9845 87.7865 59.4481 87.2865 56.9689 86.7292C54.396 86.1667 51.9064 85.5521 49.4741 84.8906C49.3543 84.8542 49.2241 84.8177 49.1043 84.7969C45.9064 83.9271 42.8439 82.9792 39.9481 81.9688C37.3595 81.0677 34.9064 80.1146 32.5731 79.1198C30.2502 78.1198 28.0627 77.0729 26.0106 75.9896C26.0002 75.9896 26.0002 75.9792 25.9897 75.9792C25.7606 75.8594 25.5366 75.7396 25.3075 75.6198C24.4689 75.1615 23.6668 74.7031 22.8752 74.2344C22.8283 74.2083 22.7918 74.1875 22.7554 74.1615V48.375C22.7918 48.401 22.8387 48.4271 22.8752 48.4479C23.1877 48.6406 23.5002 48.8229 23.8231 49.0156C24.5262 49.4219 25.2606 49.8333 26.0002 50.2188C31.8647 53.3438 38.9272 56.1094 46.9377 58.4062C48.9116 58.974 50.9481 59.5156 53.0314 60.0312C57.1981 61.0521 61.5679 61.9687 66.1147 62.7396C69.4429 63.3021 72.8804 63.8073 76.3856 64.2292C77.1877 64.3229 77.9897 64.4219 78.7918 64.5052C81.4481 64.7917 84.1408 65.0469 86.8856 65.2604C91.5158 65.6094 96.2814 65.8385 101.13 65.9375C102.735 65.9583 104.349 65.9844 105.979 65.9844C110.344 65.9844 114.646 65.875 118.86 65.6615C121.656 65.5156 124.412 65.3333 127.13 65.1042C128.912 64.9635 130.682 64.7917 132.432 64.599C136.12 64.2031 139.708 63.7344 143.203 63.1823C145.203 62.8698 147.167 62.5313 149.094 62.1719C152.485 61.5365 155.776 60.8229 158.922 60.0417C162.396 59.1875 165.708 58.25 168.87 57.2396C172.651 56.026 176.208 54.7135 179.49 53.2969C181.776 52.3125 183.927 51.2865 185.943 50.2188C186.693 49.8229 187.427 49.4115 188.13 49.0052C188.453 48.8229 188.766 48.6302 189.078 48.4479C189.151 48.4271 189.198 48.401 189.235 48.375Z" fill="#EA4C4D"/>
<path d="M189.235 43.8333C189.235 43.901 189.235 43.974 189.235 44.0365C189.208 45.7292 188.839 47.3906 188.167 49.0156C181.761 64.3385 147.417 76.0365 106 76.0365C64.5939 76.0365 30.2397 64.3385 23.8335 49.0156C23.1304 47.3333 22.7554 45.599 22.7554 43.8333C22.7554 43.1094 22.8179 42.3906 22.9377 41.6667C22.9481 41.5573 22.9741 41.4635 22.995 41.3542C26.2762 24.7187 62.1877 11.625 106 11.625C143.708 11.625 175.563 21.3281 185.787 34.6302C187.511 36.8802 188.62 39.2396 189.042 41.6667C189.151 42.3177 189.208 42.9635 189.219 43.625C189.235 43.6875 189.235 43.7604 189.235 43.8333Z" fill="#EA4C4D"/>
<path d="M189.235 43.8333C189.235 43.901 189.235 43.974 189.235 44.0365C189.208 45.7292 188.839 47.3906 188.167 49.0156C181.761 64.3385 147.417 76.0365 106 76.0365C64.5939 76.0365 30.2397 64.3385 23.8335 49.0156C23.1304 47.3333 22.7554 45.599 22.7554 43.8333C22.7554 43.1094 22.8179 42.3906 22.9377 41.6667C22.9481 41.5573 22.9741 41.4635 22.995 41.3542C26.2762 24.7187 62.1877 11.625 106 11.625C143.708 11.625 175.563 21.3281 185.787 34.6302C187.511 36.8802 188.62 39.2396 189.042 41.6667C189.151 42.3177 189.208 42.9635 189.219 43.625C189.235 43.6875 189.235 43.7604 189.235 43.8333Z" fill="#601210"/>
<path d="M56.0366 57.3594C57.0314 57.724 58.0366 58.0573 59.0522 58.3698C60.0679 58.6823 61.0731 58.974 62.0939 59.25L62.8595 59.4531C63.1095 59.526 63.3752 59.599 63.6252 59.6562L65.1564 60.0417C66.1877 60.2865 67.2033 60.5365 68.245 60.7552C72.3647 61.6563 76.5158 62.375 80.6825 62.9167C81.7241 63.0365 82.7658 63.1823 83.8075 63.3021L86.9429 63.625C87.9845 63.7135 89.0366 63.7969 90.0783 63.8802L90.4741 63.9167L90.87 63.9375L91.6616 63.9896L93.2293 64.0833L94.0158 64.1302C94.2814 64.1458 94.547 64.1563 94.8075 64.1667L96.3752 64.2292L97.9429 64.2865L99.5262 64.3125L101.104 64.3385L101.896 64.349H102.682L105.833 64.3229C114.224 64.1562 122.63 63.4948 130.958 62.2552C132 62.099 133.042 61.9531 134.083 61.7969L137.198 61.2604C139.281 60.9323 141.349 60.5 143.422 60.1042L144.198 59.9583C144.464 59.9115 144.714 59.8646 144.979 59.8021L146.521 59.4635C147.552 59.25 148.594 59.0208 149.62 58.8021C150.136 58.7083 150.651 58.5625 151.167 58.4427L152.708 58.0833C153.74 57.8437 154.781 57.6042 155.813 57.375C154.818 57.7448 153.823 58.1094 152.818 58.4792L151.323 59.0208C150.818 59.2031 150.318 59.3802 149.813 59.5365C148.807 59.8646 147.792 60.1771 146.771 60.5L145.25 60.9688C145 61.0521 144.74 61.125 144.485 61.1979L143.719 61.4167L140.646 62.2552C140.13 62.401 139.615 62.5313 139.099 62.651L137.542 63.026C136.5 63.276 135.474 63.5208 134.432 63.75C133.391 63.9531 132.349 64.1667 131.297 64.375C122.927 66.0208 114.406 66.8854 105.86 67.0573L102.651 67.0677H101.849L101.047 67.0417L99.4429 67.0052L97.8387 66.9583L94.6304 66.7917C94.3647 66.776 94.0887 66.7656 93.8283 66.7448L93.0262 66.6719C88.7606 66.3438 84.5262 65.8177 80.3231 65.0469C76.12 64.2865 71.9585 63.3021 67.8752 62.0625C67.3595 61.9063 66.8543 61.75 66.3543 61.5833C65.8491 61.4167 65.3387 61.2604 64.8335 61.0781L63.3231 60.5469C62.8231 60.3698 62.3335 60.1771 61.8283 59.9844C59.8804 59.1875 57.9168 58.3594 56.0366 57.3594Z" fill="#FFCEA5"/>
<path d="M189.234 43.8333C189.234 43.901 189.234 43.9739 189.234 44.0364V87.3906C189.234 87.4166 189.234 87.4271 189.219 87.4531C188.672 88.3802 188.036 89.2448 187.281 90.026C184.375 93.0468 179.12 94.1406 175.932 91.6979C175.588 91.4323 175.26 91.1302 174.974 90.7812C172.917 88.3281 173.062 84.8906 173.109 81.5937C173.12 81.0781 173.12 80.5625 173.12 80.0573C173.073 76.3385 171.396 71.7916 167.708 71.5312C164.87 71.3229 162.5 74.0677 162.073 76.8906C161.667 79.5156 162.469 82.151 163.338 84.6614C163.495 85.1198 163.328 85.625 162.922 85.8906C162.01 86.4791 160.656 86.2968 159.63 85.6354C159.271 85.3958 158.937 85.1093 158.698 84.7604C157.583 83.1823 157.521 81.1146 157.224 79.2135C156.911 77.3021 156.099 75.1979 154.292 74.5468C151.739 73.6354 149.14 76.4375 149.01 79.1406C148.88 81.8593 150.265 84.375 151.307 86.8854C151.38 87.0781 151.463 87.2604 151.536 87.4531C152.484 89.9166 153.047 92.6093 152.349 95.1354C151.922 96.6875 150.88 98.1198 149.552 99C148.547 99.6458 147.385 99.9843 146.187 99.8281C145.995 99.8021 145.792 99.7552 145.609 99.7083C143.109 99.0208 141.469 96.2812 141.125 93.6198C140.932 92.1666 141.015 90.7135 141.156 89.2448C141.302 87.8385 141.505 86.4323 141.588 85.0208C141.755 82.151 141.245 78.9739 139.078 77.0989C136.911 75.2448 132.802 75.7968 132.062 78.5416C132.047 78.5625 132.062 78.5989 132.073 78.625C133.068 80.3437 134.083 82.1354 134.333 84.1093C134.588 86.0937 133.88 88.3541 132.12 89.3281C129.463 90.7968 126.015 88.3906 125.25 85.4427C124.495 82.5677 125.479 79.5625 126.484 76.7604C126.521 76.6771 126.432 76.5937 126.349 76.6146C122.484 77.8646 120.974 82.776 121.276 86.875C121.385 88.3281 121.635 89.776 121.896 91.2291C122.39 93.9479 122.917 96.6406 122.542 99.3593C122.401 100.406 122.052 101.453 121.536 102.401C119.995 105.266 117.026 107.344 114.083 106.276C112.51 105.698 111.458 104.396 110.896 102.833C110.312 101.234 110.239 99.3489 110.656 97.6875C111.198 95.5104 112.333 93.5625 113.495 91.625C114.083 90.6406 114.677 89.6666 115.208 88.6666C116.786 85.6718 117.765 81.9427 116.161 78.9739C114.557 75.9896 109.448 75.2343 108.026 78.3021C107.031 80.4427 108.276 82.8802 108.812 85.1927C109.354 87.4896 108.229 90.7708 105.89 90.4375C104.203 90.1927 103.427 88.1354 103.437 86.4323C103.453 84.7083 103.88 82.9166 103.213 81.3281C101.87 78.1927 96.8332 78.4218 94.7603 81.125C92.6769 83.8333 92.9165 87.6823 93.8644 90.9635C93.9113 91.1302 93.9582 91.2864 94.0051 91.4583C94.953 94.5729 96.3644 97.5781 96.5936 100.828C96.6405 101.453 96.6144 102.089 96.5415 102.724C96.2082 105.562 94.6873 108.333 92.0207 109.125C88.2134 110.266 84.3123 106.609 83.6873 102.667C83.6509 102.411 83.6144 102.161 83.5936 101.906C83.2915 98.2291 84.8853 94.5833 86.5623 91.2552C86.5936 91.1666 86.6457 91.0833 86.6821 91.0104C87.9842 88.4479 89.3488 85.7343 89.0519 82.8698C88.7498 79.9218 85.7707 77.0833 83.0155 78.1666C80.6092 79.1198 79.9634 82.2812 80.3488 84.8437C80.6353 86.7552 81.2915 88.6406 81.4373 90.5573C81.4842 91.2031 81.4842 91.8646 81.3748 92.5156C80.8384 96.0052 77.2707 98.7083 73.7863 98.2864C70.3019 97.8698 67.479 94.3802 67.7759 90.8698C67.8384 90.1718 67.9946 89.4948 68.2238 88.8489C68.9373 86.7448 70.2915 84.8073 70.9373 82.651C71.7863 79.8281 70.3644 75.7864 67.4425 76.026C64.2967 76.2812 63.7915 80.7031 64.3644 83.8333C64.6196 85.2031 64.7759 86.8021 64.6196 88.2448C64.4165 90.0729 63.6821 91.625 61.9842 92.1198C59.4009 92.8541 57.0519 89.9427 56.9946 87.25C56.9946 87.0781 56.9946 86.901 56.9946 86.7291C57.0988 84.2291 58.3071 81.8854 58.979 79.4531C59.6978 76.8541 59.5519 73.5989 57.3384 72.0677C54.1925 69.9062 49.8332 73.3333 49.0467 77.0729C48.505 79.5989 48.8905 82.1979 49.1405 84.7968C49.2603 86.0468 49.354 87.2968 49.2967 88.5364C49.1873 90.9739 48.0884 93.6354 46.3175 95.151C45.3071 96.0156 44.078 96.4948 42.6978 96.3646C40.63 96.1458 39.0988 94.5364 38.328 92.5416C37.9009 91.4323 37.7082 90.2083 37.7811 89.0521C37.9478 86.5729 38.9634 84.2656 39.9842 81.9791C40.2915 81.2708 40.604 80.5625 40.8905 79.8489C42.0988 76.8333 42.8175 73.25 41.203 70.4323C39.5884 67.6093 34.7863 66.8021 33.255 69.6666C31.7342 72.5156 34.3228 76.5416 32.6196 79.1302C32.5467 79.2396 32.4634 79.3437 32.38 79.4531C29.1509 83.3021 26.7446 79.3958 25.354 75.6302C24.6717 73.776 24.229 71.9739 24.0519 71.1093C23.7603 69.7604 23.3332 68.4843 22.8175 67.2448C22.8175 67.2343 22.8071 67.2239 22.8071 67.2135V41.7604C22.8071 41.7031 22.854 41.6666 22.9009 41.6666C22.9478 41.6666 22.9946 41.6302 22.9946 41.5833C23.0103 41.5208 23.0207 41.4635 23.0311 41.401C23.0311 41.3802 23.0571 41.3437 23.078 41.3281C26.5259 39.1041 31.0519 38.3229 35.229 37.7343C56.4321 34.7656 77.6405 31.7812 98.8436 28.8073C120.75 25.7448 143.052 22.6666 164.87 26.25C172.38 27.4739 180.125 29.7135 185.807 34.6302C185.823 34.6406 185.823 34.6406 185.833 34.6562C187.531 36.8802 188.646 39.2031 189.062 41.5937C189.078 41.6406 189.114 41.6771 189.161 41.6771C189.219 41.6771 189.255 41.7291 189.255 41.776V43.625C189.234 43.6875 189.234 43.7604 189.234 43.8333Z" fill="#601210"/>
<path d="M52.9688 57.099C53.4844 57.2656 54.0104 57.4219 54.526 57.5781C55.0521 57.724 55.5781 57.8646 56.1094 58.0104L56.5 58.1198C56.6354 58.1563 56.7656 58.1927 56.8958 58.2136L57.6979 58.4063C58.2396 58.5261 58.7656 58.6615 59.3021 58.7813C61.4479 59.2604 63.6146 59.6719 65.7917 60.0208C66.3438 60.1042 66.8802 60.1875 67.4323 60.2708L69.0729 60.5C69.6198 60.5729 70.1719 60.6302 70.7135 60.7031L71.1198 60.7552L71.526 60.8021L72.349 60.8958L72.7604 60.9479C72.8906 60.9583 73.0313 60.9688 73.1667 60.9792L73.9896 61.0677L74.8177 61.1511L75.6406 61.2083L76.4688 61.2813L76.8906 61.3177L77.3073 61.3438L78.9583 61.4479C83.375 61.6927 87.8073 61.75 92.2083 61.6094C92.7604 61.5833 93.3125 61.5729 93.8646 61.5573L95.5156 61.474C96.6146 61.4271 97.7188 61.3438 98.8177 61.2813L99.224 61.2604C99.3698 61.2448 99.5 61.2448 99.6302 61.2344L100.458 61.1615C101.01 61.1146 101.557 61.0781 102.109 61.0313C102.385 61.0052 102.661 60.9792 102.938 60.9583L103.76 60.8854C104.312 60.8386 104.865 60.7865 105.417 60.7396C104.885 60.8386 104.349 60.9323 103.812 61.0313L103.01 61.1719C102.745 61.224 102.469 61.2708 102.208 61.3073C101.667 61.3906 101.13 61.4636 100.589 61.5469L99.776 61.6667C99.6458 61.6927 99.5 61.7031 99.3698 61.7136L98.9635 61.7656L97.3229 61.9531C97.0469 61.9896 96.7708 62.0156 96.4948 62.0417L95.6719 62.1094C95.1198 62.1615 94.5677 62.2188 94.0156 62.2708C93.4688 62.3021 92.9062 62.3542 92.3542 62.3906C87.9115 62.6875 83.4115 62.6875 78.9219 62.4479L77.2344 62.3386L76.8177 62.3177L76.3958 62.2813L75.5573 62.2083L74.724 62.1354L73.0469 61.9688C72.901 61.9531 72.7708 61.9427 72.625 61.9219L72.2083 61.8698C69.9792 61.5938 67.7552 61.2448 65.5625 60.8229C63.375 60.3906 61.2083 59.8854 59.099 59.2865C58.8385 59.2136 58.5729 59.1406 58.3073 59.0573C58.0469 58.974 57.7813 58.9011 57.5208 58.8177L56.7396 58.5625C56.4792 58.4792 56.2292 58.3958 55.9635 58.2969C54.9479 57.9167 53.9427 57.5313 52.9688 57.099Z" fill="#FFCEA5"/>
<path d="M27.6147 78.4323C28.0262 78.7552 28.4064 78.9375 28.7918 79.0573C29.172 79.1771 29.5418 79.2135 29.8908 79.1771C30.2397 79.1406 30.5835 79.0208 30.9325 78.8177C31.2814 78.6146 31.6043 78.349 31.9377 77.9375C32.0575 78.4583 31.8543 79.0208 31.495 79.4531C31.1356 79.8854 30.5991 80.1875 30.0106 80.2604C29.4272 80.3333 28.8283 80.151 28.3856 79.8177C27.9429 79.4687 27.6304 78.9635 27.6147 78.4323Z" fill="#FFCEA5"/>
<path d="M40.1875 92.8281C40.7865 93.151 41.3333 93.3437 41.8958 93.4792C42.4479 93.5989 43 93.6354 43.5 93.5989C44.0052 93.5625 44.5208 93.4271 45.0208 93.2239C45.526 93.0208 46.0052 92.7448 46.4844 92.3229C46.651 92.8542 46.3646 93.4271 45.849 93.875C45.3229 94.3073 44.5417 94.6302 43.6823 94.6927C42.8177 94.7656 41.9583 94.5833 41.3125 94.2344C40.6667 93.8854 40.1979 93.3698 40.1875 92.8281Z" fill="#FFCEA5"/>
<path d="M58.5 89.3386C58.9688 89.5938 59.3854 89.75 59.8281 89.8333C60.2604 89.9323 60.6823 89.9531 61.0729 89.9323C61.4688 89.8958 61.8646 89.7969 62.25 89.6406C62.6406 89.4844 63.0156 89.2708 63.3854 88.9427C63.5156 89.3542 63.2917 89.7969 62.8958 90.1354C62.4896 90.4688 61.8906 90.7136 61.2188 90.7708C60.5469 90.8333 59.8906 90.6875 59.3854 90.4219C58.8698 90.1563 58.5156 89.7604 58.5 89.3386Z" fill="#FFCEA5"/>
<path d="M70.5938 93.8281C71.3698 94.2604 72.0885 94.5104 72.8177 94.6667C73.5365 94.8229 74.2448 94.875 74.901 94.8229C75.5573 94.7656 76.2292 94.6094 76.8906 94.3437C77.5469 94.0677 78.1667 93.7083 78.7917 93.1667C79.0052 93.8646 78.6354 94.6198 77.9531 95.1979C77.2708 95.776 76.2552 96.1823 75.1302 96.2812C74.0052 96.375 72.8906 96.1354 72.0417 95.6771C71.2135 95.2239 70.6042 94.5364 70.5938 93.8281Z" fill="#FFCEA5"/>
<path d="M86.271 104.531C87.0522 104.964 87.771 105.214 88.5002 105.37C89.2189 105.526 89.922 105.578 90.5835 105.526C91.2397 105.469 91.9116 105.312 92.5679 105.047C93.2293 104.771 93.8491 104.411 94.4741 103.87C94.6877 104.568 94.3179 105.323 93.6356 105.901C92.9533 106.479 91.9377 106.885 90.8127 106.984C89.6825 107.078 88.5731 106.839 87.7241 106.38C86.896 105.927 86.2866 105.24 86.271 104.531Z" fill="#FFCEA5"/>
<path d="M112.01 101.885C112.786 102.318 113.505 102.568 114.234 102.724C114.953 102.88 115.661 102.932 116.318 102.88C116.979 102.823 117.646 102.667 118.307 102.401C118.963 102.125 119.588 101.766 120.208 101.224C120.427 101.922 120.052 102.677 119.37 103.255C118.687 103.833 117.672 104.24 116.547 104.339C115.422 104.432 114.307 104.193 113.458 103.734C112.63 103.281 112.021 102.594 112.01 101.885Z" fill="#FFCEA5"/>
<path d="M143.255 95.3906C144.031 95.8229 144.75 96.0729 145.479 96.2344C146.198 96.3906 146.906 96.4375 147.563 96.3906C148.219 96.3281 148.891 96.1719 149.552 95.9062C150.208 95.6302 150.833 95.2708 151.453 94.7292C151.667 95.4271 151.297 96.1823 150.615 96.7604C149.932 97.3385 148.917 97.7448 147.792 97.8437C146.667 97.9375 145.552 97.6979 144.703 97.2396C143.875 96.7864 143.266 96.0989 143.255 95.3906Z" fill="#FFCEA5"/>
<path d="M159.641 84.1667C159.99 84.3489 160.276 84.4323 160.536 84.4479C160.802 84.4583 161.031 84.4114 161.234 84.3021C161.427 84.1927 161.594 84 161.734 83.75C161.88 83.4948 161.974 83.1823 162.047 82.7604C162.286 83.1823 162.359 83.7239 162.286 84.1823C162.214 84.6406 162 85.0208 161.677 85.2135C161.354 85.4062 160.948 85.3854 160.562 85.1927C160.182 85 159.823 84.625 159.641 84.1667Z" fill="#FFCEA5"/>
<path d="M127.906 87.3542C128.458 87.5 128.948 87.5365 129.417 87.5C129.88 87.474 130.312 87.3698 130.708 87.2136C131.094 87.0573 131.464 86.8281 131.797 86.5261C132.146 86.224 132.443 85.8646 132.708 85.3958C132.984 85.8177 132.911 86.3958 132.609 86.9011C132.323 87.4063 131.786 87.875 131.125 88.1354C130.469 88.4011 129.75 88.4479 129.151 88.3177C128.552 88.1719 128.052 87.8386 127.906 87.3542Z" fill="#FFCEA5"/>
<path d="M104.167 87.1511C104.578 87.4636 104.922 87.6302 105.271 87.7188C105.62 87.8021 105.943 87.8021 106.229 87.7188C106.515 87.6302 106.802 87.4531 107.052 87.1771C107.318 86.9115 107.557 86.5625 107.771 86.0677C107.953 86.6354 107.88 87.2969 107.64 87.8229C107.401 88.3542 106.995 88.7656 106.505 88.9063C106.01 89.0521 105.474 88.9323 105.042 88.6094C104.614 88.2813 104.255 87.7552 104.167 87.1511Z" fill="#FFCEA5"/>
<path d="M176.651 88.0521C177.427 88.4844 178.146 88.7396 178.88 88.8958C179.594 89.0521 180.302 89.099 180.958 89.0521C181.62 88.9896 182.292 88.8333 182.948 88.5729C183.604 88.2917 184.229 87.9323 184.849 87.3906C185.068 88.0885 184.698 88.849 184.015 89.4271C183.333 90 182.312 90.4115 181.187 90.5052C180.062 90.6042 178.948 90.3646 178.099 89.9062C177.276 89.4479 176.661 88.7656 176.651 88.0521Z" fill="#FFCEA5"/>
<path d="M63.901 32.2969C63.901 32.3854 63.8177 32.4687 63.651 32.5573C63.4896 32.6406 63.2448 32.7239 62.9219 32.8021C62.5938 32.8854 62.1979 32.9583 61.7292 33.0312C61.2604 33.1041 60.724 33.1719 60.125 33.2344C59.5313 33.2969 58.8802 33.3489 58.1771 33.3958C57.474 33.4479 56.7292 33.4844 55.9479 33.5208C55.1667 33.5521 54.3594 33.5781 53.5312 33.5937C52.7031 33.6146 51.8646 33.6198 51.0208 33.6198C50.1719 33.6198 49.3385 33.6146 48.5052 33.5937C47.6771 33.5781 46.8698 33.5521 46.0885 33.5208C45.3073 33.4844 44.5677 33.4479 43.8646 33.3958C43.1615 33.3489 42.5104 33.2969 41.9115 33.2344C41.3125 33.1719 40.7813 33.1041 40.3125 33.0312C39.8385 32.9583 39.4427 32.8854 39.1198 32.8021C38.7969 32.7239 38.5521 32.6406 38.3854 32.5573C38.224 32.4687 38.1406 32.3854 38.1406 32.2969C38.1406 32.2083 38.224 32.125 38.3854 32.0416C38.5521 31.9531 38.7969 31.8698 39.1198 31.7916C39.4427 31.7135 39.8385 31.6354 40.3125 31.5625C40.7813 31.4896 41.3125 31.4219 41.9115 31.3646C42.5104 31.3021 43.1615 31.2448 43.8646 31.1979C44.5677 31.151 45.3073 31.1094 46.0885 31.0729C46.8698 31.0416 47.6771 31.0156 48.5052 31C49.3385 30.9844 50.1719 30.9739 51.0208 30.9739C51.8646 30.9739 52.7031 30.9844 53.5312 31C54.3594 31.0156 55.1667 31.0416 55.9479 31.0729C56.7292 31.1094 57.474 31.151 58.1771 31.1979C58.8802 31.2448 59.5313 31.3021 60.125 31.3646C60.724 31.4219 61.2604 31.4896 61.7292 31.5625C62.1979 31.6354 62.5938 31.7135 62.9219 31.7916C63.2448 31.8698 63.4896 31.9531 63.651 32.0416C63.8177 32.125 63.901 32.2083 63.901 32.2969Z" fill="#682F14"/>
<path d="M60.7135 32.3594C60.7135 32.3594 41.1926 34.3542 41.1197 31.9583C41.1197 31.901 41.1197 31.8281 41.1197 31.7708C41.1093 29.6614 42.1145 29 42.2187 28.9427C42.2343 28.9427 42.2343 28.9427 42.2343 28.9427C42.2187 28.8958 42.2083 28.8594 42.1874 28.8073C40.9895 25.1562 43.4635 24.1458 43.6458 24.0833C43.6562 24.0833 43.6562 24.0833 43.6562 24.0833C43.6458 24.0364 43.6353 24 43.6197 23.9531C42.3905 19.0312 46.828 17.5417 46.828 17.5417C47.3801 12.0469 52.6249 12.9948 52.6249 12.9948C48.3749 15.1094 55.9166 18.6094 55.9166 18.6094C61.8645 20.0312 58.7551 24.3229 58.3333 24.8542C58.3072 24.8906 58.2864 24.901 58.2864 24.901C58.3072 24.9271 58.3333 24.9479 58.3437 24.9739C61.9374 29.0989 60.7135 32.3594 60.7135 32.3594Z" fill="#EFEFEF"/>
<path d="M46.8281 17.5625C46.901 17.5781 46.9635 17.5885 47.0312 17.599C47.0938 17.6146 47.1667 17.6354 47.224 17.6615C47.3438 17.7083 47.4635 17.7552 47.5729 17.8073C47.8021 17.9115 48.0052 18.0469 48.1927 18.2031C48.3958 18.349 48.5677 18.5156 48.7344 18.6719C48.8177 18.7448 48.901 18.8281 48.9948 18.901C49.0469 18.9375 49.0938 18.974 49.1406 19.0208L49.2969 19.1406C49.2604 19.151 49.2344 19.1667 49.1979 19.1771C49.1667 19.1875 49.1302 19.1875 49.0938 19.1979C49.0208 19.2135 48.9479 19.2135 48.8906 19.1979C48.7448 19.1875 48.6146 19.151 48.4844 19.1042C48.2292 19.0104 48.0156 18.8646 47.8125 18.7188C47.6198 18.5729 47.4271 18.4063 47.2604 18.2135C47.1771 18.1198 47.0938 18.0208 47.0208 17.9115C46.9844 17.8646 46.9479 17.8073 46.9115 17.7448C46.8906 17.6875 46.8646 17.625 46.8281 17.5625Z" fill="white"/>
<path d="M46.0417 25.5C46.0052 25.5156 45.9792 25.526 45.9427 25.5364C45.9063 25.5521 45.8698 25.5521 45.8385 25.5625C45.7656 25.5729 45.6927 25.5729 45.6302 25.5625C45.4896 25.5521 45.3594 25.5156 45.224 25.4687C44.974 25.3698 44.7604 25.2239 44.5573 25.0833C44.3646 24.9375 44.1719 24.7708 44.0052 24.5781C43.9219 24.4791 43.8385 24.3854 43.7656 24.276C43.7292 24.2291 43.6927 24.1666 43.6562 24.1094C43.6458 24.0937 43.6458 24.0833 43.6354 24.0573C43.6458 24.0573 43.6458 24.0573 43.6458 24.0573C43.6354 24.0104 43.6198 23.9739 43.6094 23.9271C43.6563 23.9375 43.7188 23.9531 43.7656 23.9635C43.8229 23.9739 43.8958 24 43.9583 24.0208C44.0781 24.0729 44.1979 24.1198 44.3021 24.1666C44.5312 24.276 44.7344 24.4062 44.9271 24.5625C45.1302 24.7187 45.2969 24.875 45.4635 25.0312C45.5469 25.1041 45.6302 25.1875 45.7292 25.2604C45.776 25.2969 45.8229 25.3333 45.8698 25.3802L46.0417 25.5Z" fill="white"/>
<path d="M44.6146 30.375C44.5781 30.3854 44.5573 30.3958 44.5208 30.4114C44.4844 30.4219 44.4479 30.4219 44.4115 30.4323C44.3385 30.4479 44.2656 30.4479 44.2083 30.4323C44.0625 30.4219 43.9323 30.3854 43.8021 30.3385C43.5521 30.2396 43.3333 30.0989 43.1302 29.9531C42.9375 29.8073 42.75 29.6406 42.5781 29.4479C42.4948 29.3489 42.4115 29.2552 42.3385 29.1458C42.3073 29.0989 42.2708 29.0364 42.2344 28.9792C42.2188 28.9687 42.2188 28.9531 42.2083 28.9427C42.2188 28.9427 42.2188 28.9427 42.2188 28.9427C42.2083 28.8958 42.1979 28.8594 42.1719 28.8073C42.2344 28.8229 42.2812 28.8333 42.3385 28.8437C42.401 28.8594 42.474 28.8802 42.5312 28.9062C42.651 28.9531 42.7708 29 42.8802 29.0521C43.1094 29.1562 43.3125 29.2917 43.5 29.4479C43.7031 29.5937 43.875 29.7604 44.0417 29.9167C44.125 29.9896 44.2083 30.0729 44.3021 30.1458C44.3542 30.1823 44.401 30.2187 44.4479 30.2656L44.6146 30.375Z" fill="white"/>
<path d="M58.3594 24.9844C58.3594 25.0104 58.3438 25.0208 58.3438 25.0469C58.3229 25.1198 58.2969 25.1771 58.276 25.2396C58.2135 25.3594 58.1302 25.4792 58.0365 25.5729C57.8542 25.7812 57.625 25.9219 57.4219 26.0417C57.2083 26.1614 56.9948 26.2708 56.7552 26.3542C56.6354 26.4062 56.5156 26.4271 56.3958 26.4635C56.3333 26.4792 56.2604 26.4896 56.2031 26.5C56.1406 26.5104 56.0729 26.5104 56 26.5104C56.0365 26.4531 56.0729 26.3906 56.1198 26.3437C56.1563 26.2969 56.2031 26.2344 56.2396 26.1875C56.3229 26.0937 56.4167 26.0052 56.5 25.9219C56.6927 25.7552 56.8854 25.6094 57.099 25.4896C57.3177 25.3594 57.5313 25.2604 57.7344 25.1667C57.8438 25.1198 57.9375 25.0677 58.0469 25.0104C58.0937 24.9844 58.1563 24.9479 58.2031 24.9271L58.3333 24.8385C58.3073 24.875 58.2865 24.8906 58.2865 24.8906C58.3229 24.9375 58.3438 24.9635 58.3594 24.9844Z" fill="white"/>
<path d="M172.474 32.2969C172.474 32.3854 172.39 32.4687 172.224 32.5573C172.062 32.6406 171.818 32.7239 171.495 32.8021C171.172 32.8854 170.771 32.9583 170.302 33.0312C169.833 33.1041 169.297 33.1719 168.703 33.2344C168.104 33.2969 167.453 33.3489 166.75 33.3958C166.047 33.4479 165.302 33.4844 164.521 33.5208C163.739 33.5521 162.937 33.5781 162.104 33.5937C161.276 33.6146 160.437 33.6198 159.594 33.6198C158.75 33.6198 157.911 33.6146 157.078 33.5937C156.25 33.5781 155.448 33.5521 154.667 33.5208C153.88 33.4844 153.14 33.4479 152.437 33.3958C151.734 33.3489 151.083 33.2969 150.484 33.2344C149.885 33.1719 149.354 33.1041 148.885 33.0312C148.411 32.9583 148.015 32.8854 147.693 32.8021C147.37 32.7239 147.125 32.6406 146.958 32.5573C146.797 32.4687 146.713 32.3854 146.713 32.2969C146.713 32.2083 146.797 32.125 146.958 32.0416C147.125 31.9531 147.37 31.8698 147.693 31.7916C148.015 31.7135 148.411 31.6354 148.885 31.5625C149.354 31.4896 149.885 31.4219 150.484 31.3646C151.083 31.3021 151.734 31.2448 152.437 31.1979C153.14 31.151 153.88 31.1094 154.667 31.0729C155.448 31.0416 156.25 31.0156 157.078 31C157.911 30.9844 158.75 30.9739 159.594 30.9739C160.437 30.9739 161.276 30.9844 162.104 31C162.937 31.0156 163.739 31.0416 164.521 31.0729C165.302 31.1094 166.047 31.151 166.75 31.1979C167.453 31.2448 168.104 31.3021 168.703 31.3646C169.297 31.4219 169.833 31.4896 170.302 31.5625C170.771 31.6354 171.172 31.7135 171.495 31.7916C171.818 31.8698 172.062 31.9531 172.224 32.0416C172.39 32.125 172.474 32.2083 172.474 32.2969Z" fill="#682F14"/>
<path d="M169.291 32.3594C169.291 32.3594 149.765 34.3542 149.692 31.9583C149.692 31.901 149.692 31.8281 149.692 31.7708C149.682 29.6614 150.687 29 150.797 28.9427C150.807 28.9427 150.807 28.9427 150.807 28.9427C150.797 28.8958 150.781 28.8594 150.76 28.8073C149.562 25.1562 152.041 24.1458 152.219 24.0833C152.229 24.0833 152.229 24.0833 152.229 24.0833C152.219 24.0364 152.208 24 152.198 23.9531C150.963 19.0312 155.401 17.5417 155.401 17.5417C155.953 12.0469 161.198 12.9948 161.198 12.9948C156.948 15.1094 164.489 18.6094 164.489 18.6094C170.437 20.0312 167.328 24.3229 166.906 24.8542C166.885 24.8906 166.859 24.901 166.859 24.901C166.885 24.9271 166.906 24.9479 166.922 24.9739C170.51 29.0989 169.291 32.3594 169.291 32.3594Z" fill="#EFEFEF"/>
<path d="M155.401 17.5625C155.474 17.5781 155.536 17.5885 155.609 17.599C155.667 17.6146 155.739 17.6354 155.797 17.6615C155.917 17.7083 156.036 17.7552 156.146 17.8073C156.375 17.9115 156.578 18.0469 156.765 18.2031C156.974 18.349 157.14 18.5156 157.307 18.6719C157.39 18.7448 157.474 18.8281 157.568 18.901C157.62 18.9375 157.667 18.974 157.713 19.0208L157.87 19.1406C157.833 19.151 157.807 19.1667 157.776 19.1771C157.739 19.1875 157.703 19.1875 157.667 19.1979C157.594 19.2135 157.521 19.2135 157.463 19.1979C157.318 19.1875 157.187 19.151 157.057 19.1042C156.802 19.0104 156.588 18.8646 156.385 18.7188C156.193 18.5729 156 18.4063 155.833 18.2135C155.75 18.1198 155.667 18.0208 155.594 17.9115C155.557 17.8646 155.521 17.8073 155.489 17.7448C155.463 17.6875 155.437 17.625 155.401 17.5625Z" fill="white"/>
<path d="M154.614 25.5C154.578 25.5156 154.552 25.526 154.515 25.5364C154.484 25.5521 154.448 25.5521 154.411 25.5625C154.338 25.5729 154.265 25.5729 154.208 25.5625C154.062 25.5521 153.932 25.5156 153.802 25.4687C153.547 25.3698 153.333 25.2239 153.13 25.0833C152.937 24.9375 152.745 24.7708 152.578 24.5781C152.495 24.4791 152.411 24.3854 152.338 24.276C152.302 24.2291 152.265 24.1666 152.229 24.1094C152.219 24.0937 152.219 24.0833 152.208 24.0573C152.219 24.0573 152.219 24.0573 152.219 24.0573C152.208 24.0104 152.198 23.9739 152.182 23.9271C152.229 23.9375 152.292 23.9531 152.338 23.9635C152.401 23.9739 152.469 24 152.531 24.0208C152.651 24.0729 152.771 24.1198 152.88 24.1666C153.104 24.276 153.307 24.4062 153.5 24.5625C153.703 24.7187 153.87 24.875 154.036 25.0312C154.125 25.1041 154.208 25.1875 154.302 25.2604C154.349 25.2969 154.396 25.3333 154.448 25.3802L154.614 25.5Z" fill="white"/>
<path d="M153.187 30.375C153.151 30.3854 153.13 30.3958 153.094 30.4114C153.057 30.4219 153.021 30.4219 152.984 30.4323C152.911 30.4479 152.844 30.4479 152.781 30.4323C152.64 30.4219 152.505 30.3854 152.375 30.3385C152.125 30.2396 151.906 30.0989 151.703 29.9531C151.515 29.8073 151.323 29.6406 151.156 29.4479C151.068 29.3489 150.984 29.2552 150.917 29.1458C150.88 29.0989 150.844 29.0364 150.807 28.9792C150.797 28.9687 150.797 28.9531 150.781 28.9427C150.797 28.9427 150.797 28.9427 150.797 28.9427C150.781 28.8958 150.771 28.8594 150.745 28.8073C150.807 28.8229 150.854 28.8333 150.917 28.8437C150.974 28.8594 151.047 28.8802 151.104 28.9062C151.224 28.9531 151.344 29 151.453 29.0521C151.682 29.1562 151.885 29.2917 152.078 29.4479C152.281 29.5937 152.448 29.7604 152.614 29.9167C152.698 29.9896 152.781 30.0729 152.88 30.1458C152.927 30.1823 152.974 30.2187 153.021 30.2656L153.187 30.375Z" fill="white"/>
<path d="M166.932 24.9844C166.932 25.0104 166.922 25.0208 166.922 25.0469C166.896 25.1198 166.87 25.1771 166.849 25.2396C166.786 25.3594 166.703 25.4792 166.609 25.5729C166.427 25.7812 166.203 25.9219 166 26.0417C165.781 26.1614 165.568 26.2708 165.328 26.3542C165.208 26.4062 165.088 26.4271 164.969 26.4635C164.906 26.4792 164.838 26.4896 164.776 26.5C164.719 26.5104 164.646 26.5104 164.573 26.5104C164.609 26.4531 164.646 26.3906 164.693 26.3437C164.729 26.2969 164.776 26.2344 164.812 26.1875C164.896 26.0937 164.989 26.0052 165.078 25.9219C165.265 25.7552 165.458 25.6094 165.672 25.4896C165.89 25.3594 166.104 25.2604 166.307 25.1667C166.417 25.1198 166.51 25.0677 166.62 25.0104C166.667 24.9844 166.729 24.9479 166.776 24.9271L166.906 24.8385C166.885 24.875 166.859 24.8906 166.859 24.8906C166.896 24.9375 166.922 24.9635 166.932 24.9844Z" fill="white"/>
<path d="M79.2238 47.6927C79.2238 47.7812 79.1405 47.8646 78.9738 47.9479C78.8123 48.0364 78.5675 48.1198 78.2394 48.1979C77.9165 48.276 77.5207 48.3542 77.0519 48.4271C76.5832 48.5 76.0467 48.5677 75.4478 48.625C74.854 48.6875 74.203 48.7448 73.4998 48.7917C72.7967 48.8385 72.0519 48.8802 71.2707 48.9167C70.4894 48.9479 69.6821 48.9739 68.854 48.9896C68.0259 49.0052 67.1873 49.0156 66.3436 49.0156C65.4946 49.0156 64.6561 49.0052 63.828 48.9896C62.9998 48.9739 62.1925 48.9479 61.4113 48.9167C60.63 48.8802 59.8905 48.8385 59.1873 48.7917C58.4842 48.7448 57.8332 48.6875 57.2342 48.625C56.6353 48.5677 56.104 48.5 55.63 48.4271C55.1613 48.3542 54.7655 48.276 54.4425 48.1979C54.1196 48.1198 53.8748 48.0364 53.7082 47.9479C53.5415 47.8646 53.4634 47.7812 53.4634 47.6927C53.4634 47.6042 53.5415 47.5208 53.7082 47.4323C53.8748 47.3489 54.1196 47.2656 54.4425 47.1875C54.7655 47.1042 55.1613 47.0312 55.63 46.9583C56.104 46.8854 56.6353 46.8177 57.2342 46.7552C57.8332 46.6927 58.4842 46.6406 59.1873 46.5937C59.8905 46.5417 60.63 46.5052 61.4113 46.4687C62.1925 46.4375 62.9998 46.4114 63.828 46.3958C64.6561 46.375 65.4946 46.3698 66.3436 46.3698C67.1873 46.3698 68.0259 46.375 68.854 46.3958C69.6821 46.4114 70.4894 46.4375 71.2707 46.4687C72.0519 46.5052 72.7967 46.5417 73.4998 46.5937C74.203 46.6406 74.854 46.6927 75.4478 46.7552C76.0467 46.8177 76.5832 46.8854 77.0519 46.9583C77.5207 47.0312 77.9165 47.1042 78.2394 47.1875C78.5675 47.2656 78.8123 47.3489 78.9738 47.4323C79.1405 47.5208 79.2238 47.6042 79.2238 47.6927Z" fill="#682F14"/>
<path d="M76.0362 47.75C76.0362 47.75 56.5154 49.75 56.4425 47.3541C56.4425 47.2968 56.4425 47.2239 56.4425 47.1614C56.432 45.0573 57.4373 44.3958 57.5414 44.3385C57.557 44.3385 57.557 44.3385 57.557 44.3385C57.5414 44.2864 57.531 44.25 57.505 44.2031C56.3123 40.5468 58.7862 39.5364 58.9685 39.4791C58.9789 39.4791 58.9789 39.4791 58.9789 39.4791C58.9685 39.4271 58.9581 39.3958 58.9425 39.3437C57.7133 34.4271 62.1508 32.9375 62.1508 32.9375C62.7029 27.4375 67.9477 28.3906 67.9477 28.3906C63.6977 30.5052 71.2393 34.0052 71.2393 34.0052C77.1873 35.4271 74.0727 39.7187 73.656 40.2448C73.63 40.2812 73.6091 40.2968 73.6091 40.2968C73.63 40.3177 73.656 40.3437 73.6664 40.3698C77.2602 44.4948 76.0362 47.75 76.0362 47.75Z" fill="#EFEFEF"/>
<path d="M62.1509 32.9583C62.2238 32.9687 62.2863 32.9844 62.354 32.9948C62.4165 33.0052 62.4894 33.0312 62.5467 33.0573C62.6665 33.1041 62.7863 33.151 62.8957 33.1979C63.1196 33.3073 63.3228 33.4427 63.5155 33.5989C63.7186 33.7396 63.8905 33.9114 64.0571 34.0677C64.1405 34.1354 64.2238 34.2239 64.3175 34.2916C64.3644 34.3281 64.4165 34.3646 64.4634 34.4166L64.6196 34.5364C64.5832 34.5469 64.5571 34.5573 64.5207 34.5729C64.4842 34.5833 64.453 34.5833 64.4165 34.5937C64.3436 34.6041 64.2707 34.6041 64.2134 34.5937C64.0675 34.5833 63.9373 34.5469 63.8019 34.5C63.5519 34.401 63.3384 34.2604 63.1353 34.1146C62.9425 33.9687 62.7498 33.8021 62.5832 33.6094C62.4998 33.5104 62.4165 33.4166 62.3436 33.3073C62.3071 33.2604 62.2707 33.1979 62.2342 33.1406C62.2134 33.0781 62.1873 33.0208 62.1509 32.9583Z" fill="white"/>
<path d="M61.3644 40.8958C61.328 40.9062 61.3019 40.9219 61.2655 40.9323C61.229 40.9427 61.1925 40.9427 61.1561 40.9583C61.0884 40.9687 61.0155 40.9687 60.953 40.9583C60.8123 40.9427 60.6821 40.9062 60.5467 40.8594C60.2967 40.7656 60.0832 40.6198 59.88 40.4739C59.6873 40.3333 59.4946 40.1614 59.328 39.9687C59.2446 39.875 59.1613 39.776 59.0884 39.6719C59.0519 39.6198 59.0155 39.5625 58.979 39.5C58.9686 39.4896 58.9686 39.4792 58.9582 39.4531C58.9686 39.4531 58.9686 39.4531 58.9686 39.4531C58.9582 39.4062 58.9425 39.3698 58.9321 39.3229C58.979 39.3333 59.0415 39.3437 59.0884 39.3594C59.1457 39.3698 59.2186 39.3958 59.2811 39.4167C59.4009 39.4635 59.5207 39.5156 59.6248 39.5625C59.854 39.6719 60.0571 39.8021 60.2498 39.9583C60.453 40.1146 60.6196 40.2708 60.7863 40.4271C60.8696 40.5 60.953 40.5833 61.0519 40.6562C61.0988 40.6927 61.1457 40.7292 61.1925 40.776L61.3644 40.8958Z" fill="white"/>
<path d="M59.9373 45.7656C59.9009 45.7813 59.88 45.7917 59.8436 45.8021C59.8071 45.8177 59.7707 45.8177 59.7342 45.8281C59.6613 45.8385 59.5884 45.8385 59.5311 45.8281C59.3853 45.8177 59.255 45.7813 59.1248 45.7292C58.8696 45.6354 58.6561 45.4896 58.453 45.349C58.2603 45.2031 58.0675 45.0365 57.9009 44.8438C57.8175 44.7448 57.7342 44.651 57.6613 44.5417C57.6248 44.4948 57.5936 44.4323 57.5571 44.375C57.5415 44.3594 57.5415 44.349 57.5311 44.3385C57.5415 44.3385 57.5415 44.3385 57.5415 44.3385C57.5311 44.2865 57.5207 44.25 57.4946 44.2031C57.5571 44.2135 57.604 44.2292 57.6613 44.2396C57.7238 44.25 57.7967 44.276 57.854 44.3021C57.9738 44.349 58.0936 44.3958 58.203 44.4427C58.4269 44.5521 58.6353 44.6875 58.8228 44.8438C59.0259 44.9844 59.1978 45.1563 59.3644 45.3125C59.4478 45.3802 59.5311 45.4687 59.6248 45.5417C59.6717 45.5729 59.7238 45.6094 59.7707 45.6615L59.9373 45.7656Z" fill="white"/>
<path d="M73.6821 40.3802C73.6821 40.401 73.6665 40.4167 73.6665 40.4375C73.6457 40.5104 73.6196 40.5729 73.5936 40.6302C73.5363 40.75 73.453 40.875 73.3592 40.9688C73.1769 41.1719 72.9478 41.3177 72.7446 41.4375C72.5311 41.5573 72.3175 41.6667 72.078 41.75C71.9582 41.7969 71.8384 41.8229 71.7186 41.8594C71.6561 41.8698 71.5832 41.8854 71.5259 41.8958C71.4634 41.9063 71.3957 41.9062 71.3228 41.9062C71.3592 41.849 71.3957 41.7865 71.4425 41.7396C71.479 41.6927 71.5259 41.6302 71.5623 41.5833C71.6457 41.4844 71.7394 41.401 71.8228 41.3177C72.0155 41.151 72.2082 41.0052 72.4217 40.8854C72.6405 40.75 72.854 40.6563 73.0571 40.5625C73.1665 40.5104 73.2603 40.4635 73.3696 40.401C73.4165 40.3802 73.4738 40.3437 73.5259 40.3177L73.6561 40.2344C73.63 40.2708 73.6092 40.2812 73.6092 40.2812C73.6457 40.3333 73.6665 40.3542 73.6821 40.3802Z" fill="white"/>
<path d="M156.193 47.6927C156.193 47.7812 156.109 47.8646 155.948 47.9479C155.781 48.0364 155.536 48.1198 155.213 48.1979C154.89 48.276 154.495 48.3542 154.021 48.4271C153.552 48.5 153.021 48.5677 152.422 48.625C151.823 48.6875 151.172 48.7448 150.469 48.7917C149.765 48.8385 149.026 48.8802 148.245 48.9167C147.463 48.9479 146.656 48.9739 145.828 48.9896C144.995 49.0052 144.161 49.0156 143.312 49.0156C142.469 49.0156 141.63 49.0052 140.802 48.9896C139.969 48.9739 139.167 48.9479 138.385 48.9167C137.604 48.8802 136.859 48.8385 136.156 48.7917C135.453 48.7448 134.802 48.6875 134.203 48.625C133.609 48.5677 133.073 48.5 132.604 48.4271C132.135 48.3542 131.734 48.276 131.411 48.1979C131.088 48.1198 130.844 48.0364 130.682 47.9479C130.515 47.8646 130.432 47.7812 130.432 47.6927C130.432 47.6042 130.515 47.5208 130.682 47.4323C130.844 47.3489 131.088 47.2656 131.411 47.1875C131.734 47.1042 132.135 47.0312 132.604 46.9583C133.073 46.8854 133.609 46.8177 134.203 46.7552C134.802 46.6927 135.453 46.6406 136.156 46.5937C136.859 46.5417 137.604 46.5052 138.385 46.4687C139.167 46.4375 139.969 46.4114 140.802 46.3958C141.63 46.375 142.469 46.3698 143.312 46.3698C144.161 46.3698 144.995 46.375 145.828 46.3958C146.656 46.4114 147.463 46.4375 148.245 46.4687C149.026 46.5052 149.765 46.5417 150.469 46.5937C151.172 46.6406 151.823 46.6927 152.422 46.7552C153.021 46.8177 153.552 46.8854 154.021 46.9583C154.495 47.0312 154.89 47.1042 155.213 47.1875C155.536 47.2656 155.781 47.3489 155.948 47.4323C156.109 47.5208 156.193 47.6042 156.193 47.6927Z" fill="#682F14"/>
<path d="M153.01 47.75C153.01 47.75 133.484 49.75 133.411 47.3541C133.411 47.2968 133.411 47.2239 133.411 47.1614C133.401 45.0573 134.406 44.3958 134.515 44.3385C134.526 44.3385 134.526 44.3385 134.526 44.3385C134.515 44.2864 134.505 44.25 134.479 44.2031C133.281 40.5468 135.76 39.5364 135.937 39.4791C135.953 39.4791 135.953 39.4791 135.953 39.4791C135.937 39.4271 135.927 39.3958 135.916 39.3437C134.682 34.4271 139.125 32.9375 139.125 32.9375C139.672 27.4375 144.916 28.3906 144.916 28.3906C140.666 30.5052 148.208 34.0052 148.208 34.0052C154.156 35.4271 151.047 39.7187 150.625 40.2448C150.604 40.2812 150.578 40.2968 150.578 40.2968C150.604 40.3177 150.625 40.3437 150.64 40.3698C154.229 44.4948 153.01 47.75 153.01 47.75Z" fill="#EFEFEF"/>
<path d="M139.125 32.9583C139.193 32.9687 139.255 32.9844 139.328 32.9948C139.385 33.0052 139.458 33.0312 139.521 33.0573C139.641 33.1041 139.76 33.151 139.865 33.1979C140.094 33.3073 140.297 33.4427 140.49 33.5989C140.693 33.7396 140.859 33.9114 141.026 34.0677C141.109 34.1354 141.193 34.2239 141.292 34.2916C141.339 34.3281 141.385 34.3646 141.432 34.4166L141.589 34.5364C141.552 34.5469 141.531 34.5573 141.495 34.5729C141.458 34.5833 141.422 34.5833 141.385 34.5937C141.312 34.6041 141.245 34.6041 141.182 34.5937C141.036 34.5833 140.906 34.5469 140.776 34.5C140.526 34.401 140.307 34.2604 140.104 34.1146C139.911 33.9687 139.724 33.8021 139.552 33.6094C139.469 33.5104 139.385 33.4166 139.312 33.3073C139.281 33.2604 139.245 33.1979 139.208 33.1406C139.182 33.0781 139.161 33.0208 139.125 32.9583Z" fill="white"/>
<path d="M138.333 40.8958C138.297 40.9062 138.276 40.9219 138.239 40.9323C138.203 40.9427 138.167 40.9427 138.13 40.9583C138.057 40.9687 137.984 40.9687 137.927 40.9583C137.781 40.9427 137.651 40.9062 137.521 40.8594C137.265 40.7656 137.052 40.6198 136.849 40.4739C136.656 40.3333 136.463 40.1614 136.297 39.9687C136.213 39.875 136.13 39.776 136.057 39.6719C136.021 39.6198 135.989 39.5625 135.953 39.5C135.937 39.4896 135.937 39.4792 135.927 39.4531C135.937 39.4531 135.937 39.4531 135.937 39.4531C135.927 39.4062 135.917 39.3698 135.901 39.3229C135.953 39.3333 136.01 39.3437 136.057 39.3594C136.12 39.3698 136.193 39.3958 136.25 39.4167C136.37 39.4635 136.489 39.5156 136.599 39.5625C136.823 39.6719 137.026 39.8021 137.219 39.9583C137.422 40.1146 137.594 40.2708 137.76 40.4271C137.844 40.5 137.927 40.5833 138.021 40.6562C138.068 40.6927 138.12 40.7292 138.167 40.776L138.333 40.8958Z" fill="white"/>
<path d="M136.911 45.7656C136.875 45.7813 136.849 45.7917 136.812 45.8021C136.776 45.8177 136.74 45.8177 136.703 45.8281C136.635 45.8385 136.562 45.8385 136.5 45.8281C136.359 45.8177 136.229 45.7813 136.094 45.7292C135.844 45.6354 135.63 45.4896 135.427 45.349C135.234 45.2031 135.042 45.0365 134.875 44.8438C134.792 44.7448 134.708 44.651 134.635 44.5417C134.599 44.4948 134.563 44.4323 134.526 44.375C134.516 44.3594 134.516 44.349 134.505 44.3385C134.516 44.3385 134.516 44.3385 134.516 44.3385C134.505 44.2865 134.49 44.25 134.469 44.2031C134.526 44.2135 134.573 44.2292 134.635 44.2396C134.693 44.25 134.766 44.276 134.828 44.3021C134.948 44.349 135.068 44.3958 135.172 44.4427C135.401 44.5521 135.604 44.6875 135.797 44.8438C136 44.9844 136.167 45.1563 136.333 45.3125C136.417 45.3802 136.5 45.4687 136.599 45.5417C136.646 45.5729 136.693 45.6094 136.74 45.6615L136.911 45.7656Z" fill="white"/>
<path d="M150.651 40.3802C150.651 40.401 150.64 40.4167 150.64 40.4375C150.614 40.5104 150.594 40.5729 150.568 40.6302C150.505 40.75 150.422 40.875 150.328 40.9688C150.151 41.1719 149.922 41.3177 149.719 41.4375C149.5 41.5573 149.286 41.6667 149.047 41.75C148.927 41.7969 148.807 41.8229 148.687 41.8594C148.63 41.8698 148.557 41.8854 148.495 41.8958C148.437 41.9063 148.364 41.9062 148.292 41.9062C148.328 41.849 148.364 41.7865 148.411 41.7396C148.448 41.6927 148.495 41.6302 148.531 41.5833C148.614 41.4844 148.713 41.401 148.797 41.3177C148.989 41.151 149.177 41.0052 149.396 40.8854C149.609 40.75 149.823 40.6563 150.031 40.5625C150.135 40.5104 150.234 40.4635 150.338 40.401C150.385 40.3802 150.448 40.3437 150.495 40.3177L150.625 40.2344C150.604 40.2708 150.578 40.2812 150.578 40.2812C150.614 40.3333 150.64 40.3542 150.651 40.3802Z" fill="white"/>
<path d="M117.052 54.9063C117.052 54.9948 116.969 55.0833 116.802 55.1667C116.636 55.25 116.391 55.3333 116.068 55.4167C115.745 55.4948 115.349 55.5729 114.88 55.6406C114.412 55.7136 113.875 55.7813 113.276 55.8438C112.677 55.9063 112.026 55.9583 111.323 56.0104C110.62 56.0573 109.88 56.099 109.099 56.1302C108.318 56.1615 107.511 56.1875 106.682 56.2031C105.854 56.224 105.016 56.2292 104.167 56.2292C103.323 56.2292 102.485 56.224 101.656 56.2031C100.828 56.1875 100.021 56.1615 99.2397 56.1302C98.4585 56.099 97.7189 56.0573 97.0158 56.0104C96.3127 55.9583 95.6616 55.9063 95.0627 55.8438C94.4637 55.7813 93.9272 55.7136 93.4585 55.6406C92.9897 55.5729 92.5939 55.4948 92.271 55.4167C91.9481 55.3333 91.7033 55.25 91.5366 55.1667C91.37 55.0833 91.2866 54.9948 91.2866 54.9063C91.2866 54.8229 91.37 54.7344 91.5366 54.6511C91.7033 54.5625 91.9481 54.4844 92.271 54.4011C92.5939 54.3229 92.9897 54.2448 93.4585 54.1719C93.9272 54.099 94.4637 54.0365 95.0627 53.974C95.6616 53.9115 96.3127 53.8542 97.0158 53.8073C97.7189 53.7604 98.4585 53.7188 99.2397 53.6875C100.021 53.6511 100.828 53.625 101.656 53.6094C102.485 53.5938 103.323 53.5833 104.167 53.5833C105.016 53.5833 105.854 53.5938 106.682 53.6094C107.511 53.625 108.318 53.6511 109.099 53.6875C109.88 53.7188 110.62 53.7604 111.323 53.8073C112.026 53.8542 112.677 53.9115 113.276 53.974C113.875 54.0365 114.412 54.099 114.88 54.1719C115.349 54.2448 115.745 54.3229 116.068 54.4011C116.391 54.4844 116.636 54.5625 116.802 54.6511C116.969 54.7344 117.052 54.8229 117.052 54.9063Z" fill="#682F14"/>
<path d="M113.864 54.9687C113.864 54.9687 94.3436 56.9635 94.2707 54.5729C94.2707 54.5104 94.2707 54.4375 94.2707 54.3802C94.2551 52.276 95.2655 51.6146 95.3696 51.5521C95.3801 51.5521 95.3801 51.5521 95.3801 51.5521C95.3696 51.5052 95.3592 51.4687 95.3332 51.4219C94.1353 47.7656 96.6144 46.7552 96.7967 46.6927C96.8071 46.6927 96.8071 46.6927 96.8071 46.6927C96.7967 46.6458 96.7811 46.6094 96.7707 46.5625C95.5363 41.6406 99.979 40.151 99.979 40.151C100.531 34.6562 105.771 35.6042 105.771 35.6042C101.526 37.7239 109.068 41.2239 109.068 41.2239C115.015 42.6406 111.901 46.9323 111.484 47.4635C111.458 47.5 111.437 47.5104 111.437 47.5104C111.458 47.5364 111.484 47.5573 111.495 47.5833C115.088 51.7083 113.864 54.9687 113.864 54.9687Z" fill="#EFEFEF"/>
<path d="M99.979 40.1771C100.052 40.1875 100.109 40.1979 100.182 40.2135C100.245 40.2239 100.312 40.2448 100.375 40.2708C100.495 40.3177 100.614 40.3698 100.724 40.4166C100.948 40.526 101.151 40.6562 101.344 40.8125C101.547 40.9583 101.713 41.125 101.885 41.2812C101.969 41.3541 102.052 41.4375 102.146 41.5104C102.193 41.5469 102.239 41.5833 102.292 41.6302L102.448 41.75C102.411 41.7604 102.385 41.776 102.349 41.7864C102.312 41.7969 102.276 41.7969 102.239 41.8125C102.172 41.8229 102.099 41.8229 102.036 41.8125C101.896 41.7969 101.765 41.7604 101.63 41.7135C101.38 41.6198 101.167 41.4739 100.963 41.3281C100.771 41.1875 100.578 41.0156 100.411 40.8229C100.328 40.7291 100.245 40.6302 100.172 40.526C100.135 40.4739 100.099 40.4166 100.062 40.3541C100.042 40.2969 100.015 40.2344 99.979 40.1771Z" fill="white"/>
<path d="M99.1873 48.1146C99.1509 48.125 99.13 48.1354 99.0936 48.1511C99.0571 48.1615 99.0207 48.1615 98.9842 48.1719C98.9165 48.1875 98.8436 48.1875 98.7811 48.1719C98.6405 48.1615 98.505 48.125 98.3748 48.0781C98.1248 47.9792 97.9061 47.8386 97.703 47.6927C97.5155 47.5469 97.3228 47.3802 97.1561 47.1875C97.0728 47.0886 96.9842 46.9948 96.9165 46.8854C96.88 46.8386 96.8436 46.7761 96.8071 46.7188C96.7967 46.7031 96.7967 46.6927 96.7811 46.6719C96.7967 46.6719 96.7967 46.6719 96.7967 46.6719C96.7811 46.6198 96.7707 46.5833 96.7603 46.5365C96.8071 46.5469 96.8644 46.5625 96.9165 46.5729C96.9738 46.5833 97.0467 46.6094 97.104 46.6354C97.2238 46.6823 97.3436 46.7292 97.453 46.7761C97.6821 46.8854 97.8853 47.0208 98.078 47.1771C98.2811 47.3333 98.4478 47.4896 98.6144 47.6458C98.6978 47.7136 98.7811 47.8021 98.88 47.8698C98.9269 47.9063 98.9738 47.9427 99.0207 47.9948L99.1873 48.1146Z" fill="white"/>
<path d="M97.7655 52.9844C97.729 52.9948 97.703 53.0052 97.6665 53.0208C97.6353 53.0313 97.5988 53.0313 97.5623 53.0417C97.4894 53.0573 97.4165 53.0573 97.3592 53.0417C97.2134 53.0313 97.0832 52.9948 96.953 52.9479C96.6978 52.849 96.4842 52.7083 96.2811 52.5625C96.0884 52.4167 95.8957 52.25 95.729 52.0573C95.6457 51.9635 95.5623 51.8646 95.4894 51.7552C95.453 51.7083 95.4165 51.651 95.38 51.5885C95.3696 51.5781 95.3696 51.5625 95.3592 51.5521C95.3696 51.5521 95.3696 51.5521 95.3696 51.5521C95.3592 51.5052 95.3488 51.4687 95.3228 51.4219C95.38 51.4323 95.4321 51.4427 95.4894 51.4583C95.5519 51.4687 95.6196 51.4948 95.6821 51.5156C95.8019 51.5625 95.9217 51.6146 96.0311 51.6615C96.255 51.7708 96.4582 51.901 96.6509 52.0573C96.854 52.2031 97.0207 52.3698 97.1925 52.526C97.2759 52.599 97.3592 52.6823 97.453 52.7552C97.4998 52.7917 97.5467 52.8281 97.5988 52.875L97.7655 52.9844Z" fill="white"/>
<path d="M111.505 47.5938C111.505 47.6198 111.495 47.6302 111.495 47.6562C111.469 47.7292 111.448 47.7865 111.422 47.849C111.364 47.9687 111.281 48.0885 111.182 48.1875C111.005 48.3906 110.776 48.5312 110.573 48.6562C110.359 48.776 110.14 48.8802 109.901 48.9688C109.781 49.0156 109.661 49.0365 109.542 49.0729C109.484 49.0885 109.411 49.099 109.354 49.1094C109.292 49.125 109.219 49.125 109.151 49.125C109.187 49.0625 109.219 49.0052 109.271 48.9531C109.302 48.9063 109.354 48.849 109.39 48.7969C109.474 48.7031 109.568 48.6198 109.651 48.5312C109.844 48.3646 110.036 48.2187 110.25 48.099C110.463 47.9687 110.682 47.8698 110.885 47.776C110.995 47.7292 111.088 47.6823 111.198 47.6198C111.245 47.5937 111.302 47.5573 111.354 47.5365L111.484 47.4531C111.458 47.4896 111.437 47.5 111.437 47.5C111.469 47.5469 111.495 47.5729 111.505 47.5938Z" fill="white"/>
<path d="M88.1772 25.5625C90.9064 25.0677 93.646 24.8177 96.3752 24.6354C99.1043 24.4687 101.849 24.3854 104.578 24.3854C107.307 24.3854 110.047 24.4687 112.776 24.6354C115.505 24.8177 118.245 25.0677 120.974 25.5625C118.245 26.0573 115.505 26.3073 112.776 26.4896C110.047 26.6562 107.307 26.7396 104.578 26.7396C101.849 26.7396 99.1043 26.6562 96.3752 26.4896C93.6356 26.3073 90.9064 26.0573 88.1772 25.5625Z" fill="#380007"/>
<mask id="mask2_25_1584" style="mask-type:luminance" maskUnits="userSpaceOnUse" x="110" y="0" width="17" height="12">
<path d="M110.182 0H126.182V11.6667H110.182V0Z" fill="white"/>
</mask>
<g mask="url(#mask2_25_1584)">
<path d="M126.026 5.10415L123.958 6.83852C123.156 6.99477 122.364 7.17185 121.609 7.42706C120.614 7.77602 119.692 8.26561 118.797 8.7604C118.125 9.11977 117.458 9.49477 116.797 9.85415C116.093 10.2396 115.396 10.625 114.692 11.0104L114.677 11.0208L114.187 10.276L113.588 9.36456L110.442 4.56248C111.255 2.86977 112.536 1.46352 114.166 0.49998C114.427 0.343729 114.713 0.18748 115.005 0.052063C114.797 1.41144 114.437 2.72394 113.963 3.96352C113.734 4.52602 113.484 5.08331 113.208 5.61977C114.916 4.34894 116.75 3.2031 118.677 2.20831C119 2.03644 119.323 1.86977 119.661 1.71352C119.119 3.77081 118.187 5.65623 116.916 7.28123C116.619 7.66665 116.297 8.05206 115.948 8.40102C115.994 8.39061 116.057 8.37498 116.104 8.36456C118.63 7.8229 120.703 6.36977 123.166 5.68227C123.192 5.68227 123.203 5.67185 123.224 5.67185C123.562 5.5729 123.896 5.49998 124.234 5.43227C124.255 5.43227 124.291 5.41665 124.317 5.41665C124.771 5.33331 125.224 5.24998 125.682 5.17706C125.786 5.14061 125.906 5.11456 126.026 5.10415Z" fill="#7D9B21"/>
</g>
<path d="M125.14 15.75C123.12 16.6875 120.687 16.9739 118.224 16.6041L117.818 15.9531L114.693 11.0104L114.213 10.25L114.104 10.0729C114.63 9.85414 115.172 9.65102 115.698 9.43227C116.64 9.06248 117.599 8.67706 118.547 8.30206C119.526 7.92185 120.51 7.53644 121.385 6.99477C121.708 6.80206 122.015 6.58331 122.318 6.35414C122.63 6.12498 122.917 5.88539 123.213 5.63539C123.359 5.5156 123.5 5.39581 123.646 5.27602C123.932 5.03123 124.208 4.79165 124.495 4.55206C125.057 4.08331 125.609 3.60414 126.172 3.13019C126.458 2.8906 126.76 2.6406 127.151 2.56769C127.25 2.55727 127.354 2.54164 127.463 2.55727C127.786 2.59373 128.125 2.76039 128.302 3.03644C127.547 3.70831 126.792 4.38539 126.042 5.05727C125.958 5.13019 125.885 5.2031 125.802 5.27602C125.213 5.80206 124.614 6.33331 123.969 6.78644C123.958 6.78644 123.958 6.80206 123.943 6.80206C122.255 7.97915 120.198 8.66665 118.448 9.76039C118.078 9.99998 117.708 10.25 117.375 10.5312C119.719 10.3021 122.198 10.4948 124.661 11.0937C125.104 11.2031 125.547 11.3229 126.005 11.4687C124.078 12.3333 122.068 13.0677 119.995 13.6562C119.562 13.776 119.12 13.8958 118.677 14.0052C120.437 14.2344 122.219 14.6562 123.969 15.2552C124.354 15.4375 124.745 15.5937 125.14 15.75Z" fill="#7D9B21"/>
<mask id="mask3_25_1584" style="mask-type:luminance" maskUnits="userSpaceOnUse" x="110" y="0" width="17" height="11">
<path d="M110.182 0H126.182V10.3333H110.182V0Z" fill="white"/>
</mask>
<g mask="url(#mask3_25_1584)">
<path d="M125.406 4.42185L124.208 5.41665L123.333 6.15102C122.989 6.22394 122.651 6.29685 122.307 6.36977C121.859 6.47394 121.417 6.59894 120.989 6.73956C119.995 7.08852 119.073 7.58331 118.177 8.0781C117.349 8.53123 116.521 8.97915 115.698 9.43227C115.208 9.6979 114.703 9.97394 114.213 10.2396C114.203 10.2396 114.187 10.25 114.177 10.25C114.14 10.276 114.104 10.2864 114.057 10.3125L113.469 9.37498C113.505 9.36456 113.542 9.34894 113.578 9.33852L110.432 4.54165C111.245 2.84373 112.526 1.43748 114.151 0.473938C113.818 2.03644 113.281 3.54165 112.562 4.91144C113.015 4.5781 113.469 4.24998 113.937 3.93748C113.708 4.50519 113.458 5.05727 113.182 5.59894C114.896 4.3229 116.724 3.18227 118.656 2.18227C117.937 4.2656 116.797 6.1406 115.312 7.7031C115.864 7.59373 116.39 7.43748 116.906 7.2604C118.823 6.58331 120.557 5.53644 122.531 4.98435C122.557 4.98435 122.568 4.97394 122.594 4.97394C123.213 4.80206 123.849 4.68227 124.495 4.5781C124.677 4.54165 124.864 4.5156 125.047 4.47915C125.167 4.46873 125.286 4.44269 125.406 4.42185Z" fill="#7C9424"/>
</g>
<path d="M123.958 15.3021C122.115 16.026 119.984 16.2552 117.818 15.9427C117.745 15.9271 117.672 15.9167 117.599 15.9062L114.068 10.3229L113.484 9.38541C113.521 9.375 113.552 9.36458 113.589 9.34895C114.427 9.01562 115.266 8.6875 116.104 8.35416C116.714 8.10937 117.323 7.86979 117.938 7.6302C118.917 7.24479 119.901 6.85937 120.771 6.3177C121.432 5.92187 122.016 5.45312 122.604 4.97395C122.75 4.85416 122.891 4.73437 123.036 4.61458C123.875 3.90104 124.724 3.1927 125.562 2.46874C125.849 2.22916 126.146 1.97916 126.542 1.90624C126.938 1.83333 127.453 2 127.693 2.38541C127.62 2.44791 127.547 2.52083 127.474 2.57812C126.792 3.1927 126.109 3.80729 125.427 4.40624C125.344 4.47916 125.271 4.55208 125.188 4.62499C124.901 4.89062 124.615 5.14062 124.318 5.39583C124.005 5.65625 123.693 5.91145 123.359 6.14062C123.344 6.14062 123.344 6.15104 123.333 6.15104C121.297 7.57291 118.714 8.28125 116.812 9.84375C116.797 9.85416 116.776 9.86979 116.76 9.8802C117.323 9.8177 117.885 9.79687 118.464 9.78125C118.089 10.026 117.719 10.276 117.385 10.5521C119.729 10.3229 122.208 10.5156 124.677 11.1198C122.557 12.0208 120.344 12.7656 118.057 13.3542C118.703 13.4375 119.349 13.5469 119.995 13.6823C119.562 13.8021 119.12 13.9219 118.677 14.0312C120.427 14.2812 122.208 14.7031 123.958 15.3021Z" fill="#7C9424"/>
<path d="M112.057 4.22915C109.557 2.48435 106.49 1.56769 103.438 1.66665C102.771 1.68748 102.089 1.74998 101.464 1.97915C100.844 2.19269 100.281 2.56769 99.7397 2.96352C99.0209 3.49477 98.3386 4.08331 97.7553 4.74477C95.9324 6.8229 95.1095 9.57811 94.0053 12.1302C93.3022 13.75 92.4636 15.3177 91.5053 16.8073C90.6772 18.0937 89.7188 19.526 90.0417 21.0156C90.2605 21.9896 91.0157 22.7604 91.8751 23.2396C92.7397 23.7239 93.7188 23.9531 94.6772 24.1666C96.5105 24.5885 98.349 25.0104 100.182 25.4427C101.906 25.8385 103.641 26.2344 105.401 26.4166C107.906 26.6666 110.5 26.4635 112.802 25.4427C115.099 24.4219 117.083 22.5312 117.875 20.125C118.62 17.875 118.245 15.4739 117.635 13.2344C117.396 12.3594 117.339 11.4531 117.099 10.5885C116.76 9.41144 115.984 8.26561 115.255 7.30727C114.37 6.12498 113.281 5.08331 112.057 4.22915Z" fill="#CC111A"/>
<path d="M112.703 8.29166C111.807 6.30728 109.917 4.79166 107.787 4.34895C106.386 4.05728 104.948 4.20312 103.537 4.40624C102.349 4.57812 101.047 4.85416 100.349 5.82812C100.193 6.04166 100.073 6.30728 100.052 6.57291C99.9897 7.28124 100.604 7.90624 101.287 8.10937C101.969 8.3177 102.698 8.19791 103.401 8.06249C104.682 7.83333 106.037 7.58333 107.281 7.96874C107.99 8.18229 108.636 8.59374 109.255 8.98958C109.714 9.27603 110.156 9.5677 110.61 9.85416C111.146 10.2031 111.735 10.5677 112.37 10.5156C113.005 10.4687 113.625 9.80729 113.375 9.21874" fill="#E34245"/>
<path d="M92.88 23.3385C92.8436 23.3854 92.8071 23.4479 92.8071 23.5052C92.8071 23.5417 92.8228 23.5677 92.8332 23.6042C92.9634 23.901 93.3592 24.0104 93.6717 23.9167C93.9842 23.8177 94.2238 23.5677 94.4113 23.3021C94.7134 22.9062 94.2446 22.8333 93.9842 22.8802C93.6457 22.9167 93.0988 23.0469 92.88 23.3385Z" fill="#9B050D"/>
<path d="M93.0991 23.3125C93.0627 23.3594 93.0366 23.4114 93.0366 23.4687C93.0366 23.4948 93.047 23.5312 93.0627 23.5521C93.1825 23.8333 93.5522 23.9271 93.8387 23.8437C94.1252 23.7448 94.3439 23.5156 94.521 23.276C94.797 22.9167 94.3647 22.8437 94.1252 22.8802C93.8022 22.9427 93.3022 23.0469 93.0991 23.3125Z" fill="#DCAF5E"/>
<path d="M99.047 23.6614C99.0106 23.7083 98.9741 23.7708 98.9741 23.8333C98.9741 23.8646 98.9845 23.8906 99.0002 23.9271C99.1304 24.2291 99.5262 24.3333 99.8335 24.2396C100.146 24.1458 100.386 23.8906 100.578 23.625C100.875 23.2291 100.412 23.1562 100.146 23.2031C99.8127 23.2552 99.271 23.3854 99.047 23.6614Z" fill="#9B050D"/>
<path d="M99.2604 23.651C99.224 23.6979 99.2031 23.7448 99.2031 23.8073C99.2031 23.8333 99.2135 23.8646 99.224 23.8906C99.3438 24.1667 99.7187 24.2656 100.005 24.1771C100.292 24.0833 100.505 23.8542 100.688 23.6146C100.964 23.2552 100.531 23.1823 100.292 23.2188C99.9688 23.2656 99.4635 23.3854 99.2604 23.651Z" fill="#DCAF5E"/>
<path d="M105.604 23.6614C105.568 23.7083 105.537 23.7708 105.537 23.8333C105.537 23.8646 105.547 23.8906 105.557 23.9271C105.688 24.2291 106.083 24.3333 106.396 24.2396C106.708 24.1458 106.948 23.8906 107.136 23.625C107.438 23.2291 106.969 23.1562 106.708 23.2031C106.37 23.2396 105.833 23.375 105.604 23.6614Z" fill="#9B050D"/>
<path d="M105.823 23.651C105.786 23.6979 105.76 23.7448 105.76 23.8073C105.76 23.8333 105.771 23.8646 105.786 23.8906C105.906 24.1667 106.276 24.2656 106.562 24.1771C106.849 24.0833 107.068 23.8542 107.245 23.6146C107.521 23.2552 107.088 23.1823 106.849 23.2188C106.526 23.2656 106.026 23.3854 105.823 23.651Z" fill="#DCAF5E"/>
<path d="M110.261 20.2448C110.224 20.2969 110.193 20.3541 110.193 20.4166C110.193 20.4531 110.203 20.4739 110.214 20.5104C110.344 20.8125 110.74 20.9219 111.052 20.8229C111.365 20.7291 111.604 20.4739 111.797 20.2083C112.094 19.8125 111.625 19.7396 111.365 19.7916C111.026 19.8385 110.479 19.9583 110.261 20.2448Z" fill="#9B050D"/>
<path d="M110.464 20.2344C110.432 20.2812 110.406 20.3333 110.406 20.3906C110.406 20.4166 110.417 20.4531 110.432 20.4739C110.552 20.75 110.922 20.8489 111.208 20.7656C111.495 20.6666 111.708 20.4375 111.891 20.1979C112.167 19.8385 111.734 19.7656 111.495 19.8021C111.182 19.8489 110.682 19.9687 110.464 20.2344Z" fill="#DCAF5E"/>
<path d="M112.86 19.0104C112.823 19.0573 112.787 19.1146 112.787 19.1771C112.787 19.2135 112.802 19.2344 112.813 19.2708C112.943 19.5729 113.339 19.6823 113.651 19.5833C113.964 19.4896 114.203 19.2344 114.391 18.9739C114.693 18.5729 114.224 18.5052 113.964 18.5521C113.625 18.5989 113.089 18.7187 112.86 19.0104Z" fill="#9B050D"/>
<path d="M113.073 18.9948C113.042 19.0417 113.016 19.0938 113.016 19.151C113.016 19.1771 113.026 19.2135 113.042 19.2344C113.161 19.5156 113.531 19.6094 113.818 19.526C114.104 19.4271 114.318 19.1979 114.5 18.9583C114.776 18.599 114.344 18.526 114.104 18.5625C113.781 18.6094 113.281 18.7292 113.073 18.9948Z" fill="#DCAF5E"/>
<path d="M109.411 24.0208C109.375 24.0729 109.338 24.1302 109.338 24.1927C109.338 24.2292 109.354 24.25 109.364 24.2865C109.495 24.5885 109.89 24.6979 110.203 24.599C110.515 24.5052 110.755 24.25 110.943 23.9896C111.245 23.5885 110.776 23.5156 110.515 23.5677C110.193 23.6042 109.64 23.7344 109.411 24.0208Z" fill="#9B050D"/>
<path d="M109.63 24C109.594 24.0469 109.568 24.0937 109.568 24.1562C109.568 24.1771 109.578 24.2135 109.594 24.2396C109.714 24.5156 110.083 24.6146 110.37 24.526C110.656 24.4323 110.875 24.2031 111.052 23.9635C111.328 23.6041 110.896 23.5312 110.656 23.5677C110.333 23.625 109.833 23.7344 109.63 24Z" fill="#DCAF5E"/>
<path d="M113.089 22.6875C113.052 22.7343 113.016 22.7968 113.016 22.8541C113.016 22.8906 113.026 22.9166 113.042 22.9531C113.172 23.2552 113.568 23.3593 113.875 23.2656C114.188 23.1718 114.427 22.9166 114.62 22.651C114.917 22.2552 114.453 22.1823 114.188 22.2291C113.854 22.2812 113.312 22.401 113.089 22.6875Z" fill="#9B050D"/>
<path d="M113.302 22.6771C113.265 22.724 113.245 22.7708 113.245 22.8333C113.245 22.8542 113.255 22.8906 113.265 22.9167C113.385 23.1927 113.755 23.2917 114.047 23.2031C114.333 23.1094 114.547 22.8802 114.729 22.6406C115.005 22.2812 114.573 22.2083 114.333 22.2448C114.01 22.2917 113.505 22.4115 113.302 22.6771Z" fill="#DCAF5E"/>
<path d="M99.6198 21.2708C99.5833 21.3177 99.5469 21.375 99.5469 21.4375C99.5469 21.4739 99.5625 21.5 99.5729 21.5312C99.7031 21.8333 100.099 21.9427 100.411 21.8489C100.724 21.75 100.964 21.5 101.151 21.2344C101.453 20.8385 100.984 20.7656 100.724 20.8125C100.385 20.8489 99.8333 20.9791 99.6198 21.2708Z" fill="#9B050D"/>
<path d="M99.8332 21.2552C99.8019 21.3073 99.7759 21.3542 99.7759 21.4115C99.7759 21.4375 99.7863 21.474 99.8019 21.5C99.9217 21.776 100.292 21.8698 100.578 21.7865C100.864 21.6875 101.083 21.4635 101.26 21.2187C101.536 20.8594 101.104 20.7865 100.864 20.8229C100.542 20.8698 100.042 20.9948 99.8332 21.2552Z" fill="#DCAF5E"/>
<path d="M106.146 19.0312C106.109 19.0781 106.073 19.1406 106.073 19.1979C106.073 19.2343 106.083 19.2604 106.099 19.2968C106.229 19.5989 106.625 19.7031 106.932 19.6093C107.245 19.5156 107.484 19.2604 107.677 18.9948C107.974 18.5989 107.51 18.526 107.245 18.5729C106.911 18.6093 106.37 18.7448 106.146 19.0312Z" fill="#9B050D"/>
<path d="M106.36 19.0104C106.323 19.0573 106.302 19.1042 106.302 19.1667C106.302 19.1875 106.313 19.224 106.323 19.25C106.443 19.526 106.813 19.6198 107.104 19.5365C107.391 19.4427 107.604 19.2135 107.787 18.974C108.057 18.6094 107.63 18.5365 107.391 18.5729C107.068 18.6354 106.563 18.7448 106.36 19.0104Z" fill="#DCAF5E"/>
<path d="M111.828 15.0625C111.797 15.1093 111.76 15.1718 111.76 15.2291C111.76 15.2656 111.771 15.2916 111.781 15.3281C111.917 15.6302 112.307 15.7343 112.62 15.6406C112.932 15.5468 113.172 15.2916 113.364 15.026C113.661 14.6302 113.193 14.5573 112.932 14.6041C112.599 14.6562 112.047 14.776 111.828 15.0625Z" fill="#9B050D"/>
<path d="M112.037 15.0521C112 15.099 111.974 15.1458 111.974 15.2083C111.974 15.2292 111.985 15.2656 112 15.2917C112.12 15.5677 112.49 15.6667 112.776 15.5781C113.063 15.4844 113.281 15.2552 113.458 15.0156C113.735 14.6562 113.302 14.5833 113.063 14.6198C112.75 14.6667 112.25 14.7865 112.037 15.0521Z" fill="#DCAF5E"/>
<path d="M106.885 15.7135C106.849 15.7604 106.812 15.8229 106.812 15.8802C106.812 15.9167 106.828 15.9427 106.839 15.9792C106.969 16.276 107.365 16.3854 107.677 16.2917C107.99 16.1927 108.229 15.9427 108.417 15.6771C108.719 15.2812 108.25 15.2083 107.99 15.2552C107.651 15.2917 107.115 15.4219 106.885 15.7135Z" fill="#9B050D"/>
<path d="M107.104 15.6875C107.068 15.7344 107.042 15.7864 107.042 15.8437C107.042 15.8698 107.052 15.9062 107.068 15.9271C107.187 16.2083 107.557 16.3021 107.844 16.2187C108.13 16.1198 108.349 15.8906 108.526 15.651C108.802 15.2917 108.37 15.2187 108.13 15.2552C107.807 15.3177 107.307 15.4219 107.104 15.6875Z" fill="#DCAF5E"/>
<path d="M109.401 17.5989C109.365 17.651 109.328 17.7083 109.328 17.7708C109.328 17.8073 109.339 17.8281 109.354 17.8646C109.484 18.1666 109.88 18.276 110.193 18.1771C110.5 18.0833 110.74 17.8281 110.932 17.5625C111.234 17.1666 110.766 17.0937 110.5 17.1458C110.177 17.1823 109.63 17.3125 109.401 17.5989Z" fill="#9B050D"/>
<path d="M109.614 17.5885C109.578 17.6354 109.557 17.6875 109.557 17.7448C109.557 17.7708 109.568 17.8073 109.578 17.8281C109.698 18.1042 110.073 18.2031 110.359 18.1198C110.646 18.0208 110.859 17.7917 111.042 17.5521C111.318 17.1927 110.885 17.1198 110.646 17.1563C110.323 17.2031 109.833 17.3229 109.614 17.5885Z" fill="#DCAF5E"/>
<path d="M103.823 20.6093C103.786 20.6562 103.75 20.7135 103.75 20.776C103.75 20.8125 103.76 20.8385 103.776 20.8698C103.906 21.1718 104.302 21.2812 104.615 21.1823C104.922 21.0885 105.161 20.8385 105.354 20.5729C105.651 20.1771 105.187 20.1041 104.922 20.151C104.589 20.1979 104.052 20.3177 103.823 20.6093Z" fill="#9B050D"/>
<path d="M104.036 20.5937C104 20.6458 103.979 20.6927 103.979 20.75C103.979 20.776 103.989 20.8125 104 20.8385C104.12 21.1146 104.495 21.2083 104.781 21.125C105.068 21.026 105.281 20.8021 105.463 20.5573C105.739 20.1979 105.307 20.125 105.068 20.1614C104.745 20.2083 104.239 20.3333 104.036 20.5937Z" fill="#DCAF5E"/>
<path d="M115.599 17.276C115.568 17.3229 115.531 17.3854 115.531 17.4427C115.531 17.4792 115.542 17.5052 115.552 17.5417C115.687 17.8437 116.078 17.9479 116.391 17.8542C116.703 17.7552 116.943 17.5052 117.135 17.2396C117.432 16.8437 116.964 16.7708 116.703 16.8177C116.37 16.8698 115.818 16.9896 115.599 17.276Z" fill="#9B050D"/>
<path d="M115.802 17.2656C115.771 17.3125 115.745 17.3594 115.745 17.4219C115.745 17.4427 115.755 17.4792 115.771 17.5052C115.89 17.7812 116.26 17.875 116.547 17.7916C116.833 17.6979 117.052 17.4687 117.229 17.2291C117.505 16.8698 117.073 16.7969 116.833 16.8333C116.521 16.8802 116.021 17 115.802 17.2656Z" fill="#DCAF5E"/>
<path d="M96.4479 20.7396C96.4115 20.7864 96.375 20.8489 96.375 20.9062C96.375 20.9427 96.3906 20.9687 96.401 21.0052C96.5313 21.3073 96.9271 21.4114 97.2396 21.3177C97.5469 21.2187 97.7865 20.9687 97.9792 20.7031C98.2813 20.3073 97.8125 20.2344 97.5469 20.2812C97.2135 20.3333 96.6615 20.4531 96.4479 20.7396Z" fill="#9B050D"/>
<path d="M96.6613 20.7292C96.63 20.776 96.604 20.8229 96.604 20.8854C96.604 20.9063 96.6144 20.9427 96.63 20.9688C96.7498 21.2448 97.1196 21.3438 97.4061 21.2552C97.6925 21.1615 97.9061 20.9323 98.0884 20.6927C98.3644 20.3333 97.9321 20.2604 97.6925 20.2969C97.3696 20.3438 96.8644 20.4635 96.6613 20.7292Z" fill="#DCAF5E"/>
<path d="M102.193 16.9896C102.156 17.0364 102.12 17.0937 102.12 17.1562C102.12 17.1927 102.135 17.2135 102.146 17.25C102.276 17.5521 102.672 17.6614 102.984 17.5625C103.297 17.4687 103.536 17.2135 103.724 16.9531C104.026 16.5521 103.557 16.4843 103.297 16.5312C102.974 16.5677 102.422 16.6979 102.193 16.9896Z" fill="#9B050D"/>
<path d="M102.412 16.974C102.375 17.026 102.349 17.0729 102.349 17.1302C102.349 17.1562 102.36 17.1927 102.375 17.2135C102.495 17.4948 102.865 17.5885 103.151 17.5052C103.438 17.4062 103.656 17.1823 103.833 16.9375C104.11 16.5781 103.677 16.5052 103.438 16.5417C103.115 16.5885 102.615 16.7135 102.412 16.974Z" fill="#DCAF5E"/>
<path d="M98.8908 16.1198C98.8543 16.1719 98.8179 16.2291 98.8179 16.2916C98.8179 16.3281 98.8283 16.3489 98.8439 16.3854C98.9741 16.6875 99.37 16.7969 99.6825 16.6979C99.9897 16.6041 100.229 16.3489 100.422 16.0833C100.724 15.6875 100.255 15.6146 99.9897 15.6666C99.6564 15.7135 99.1043 15.8333 98.8908 16.1198Z" fill="#9B050D"/>
<path d="M99.0938 16.1094C99.0573 16.1562 99.0312 16.2083 99.0312 16.2656C99.0312 16.2916 99.0469 16.3281 99.0573 16.3489C99.1771 16.625 99.5469 16.7239 99.8333 16.6406C100.125 16.5416 100.339 16.3125 100.516 16.0729C100.792 15.7135 100.365 15.6406 100.125 15.6771C99.8125 15.7239 99.3073 15.8437 99.0938 16.1094Z" fill="#DCAF5E"/>
<path d="M103.906 14.3802C103.87 14.4271 103.833 14.4843 103.833 14.5468C103.833 14.5833 103.844 14.6041 103.86 14.6406C103.99 14.9427 104.386 15.0521 104.698 14.9531C105.005 14.8593 105.245 14.6041 105.438 14.3437C105.74 13.9427 105.271 13.875 105.005 13.9218C104.672 13.9583 104.12 14.0885 103.906 14.3802Z" fill="#9B050D"/>
<path d="M104.12 14.3646C104.083 14.4115 104.062 14.4635 104.062 14.5208C104.062 14.5469 104.073 14.5833 104.083 14.6042C104.203 14.8854 104.578 14.9792 104.865 14.8958C105.151 14.7969 105.365 14.5677 105.547 14.3281C105.823 13.9687 105.391 13.8958 105.151 13.9323C104.828 13.9792 104.323 14.099 104.12 14.3646Z" fill="#DCAF5E"/>
<path d="M108.073 13.125C108.036 13.1771 108 13.2344 108 13.2969C108 13.3333 108.01 13.3542 108.026 13.3906C108.156 13.6927 108.552 13.8021 108.859 13.7031C109.172 13.6094 109.411 13.3542 109.604 13.0885C109.901 12.6927 109.437 12.6198 109.172 12.6719C108.849 12.7083 108.297 12.8385 108.073 13.125Z" fill="#9B050D"/>
<path d="M108.286 13.1042C108.25 13.151 108.229 13.1979 108.229 13.2604C108.229 13.2813 108.239 13.3177 108.25 13.3438C108.37 13.6198 108.739 13.7188 109.031 13.6302C109.318 13.5365 109.531 13.3073 109.713 13.0677C109.984 12.7083 109.557 12.6354 109.318 12.6719C108.995 12.7292 108.5 12.8385 108.286 13.1042Z" fill="#DCAF5E"/>
<path d="M110 10.8437C109.964 10.8906 109.927 10.9479 109.927 11.0104C109.927 11.0468 109.938 11.0729 109.953 11.1041C110.083 11.4062 110.479 11.5156 110.787 11.4166C111.099 11.3229 111.339 11.0729 111.531 10.8073C111.828 10.4114 111.365 10.3385 111.099 10.3854C110.766 10.4323 110.224 10.5521 110 10.8437Z" fill="#9B050D"/>
<path d="M110.214 10.8281C110.177 10.8802 110.156 10.9271 110.156 10.9844C110.156 11.0104 110.167 11.0469 110.177 11.0729C110.297 11.3489 110.667 11.4427 110.958 11.3594C111.245 11.2604 111.458 11.0364 111.641 10.7917C111.917 10.4323 111.484 10.3594 111.245 10.3958C110.922 10.4427 110.417 10.5677 110.214 10.8281Z" fill="#DCAF5E"/>
<path d="M114.333 12.6823C114.297 12.7292 114.26 12.7917 114.26 12.8489C114.26 12.8854 114.271 12.9114 114.286 12.9479C114.417 13.2448 114.812 13.3542 115.12 13.2604C115.432 13.1614 115.672 12.9114 115.864 12.6458C116.161 12.25 115.698 12.1771 115.432 12.2239C115.099 12.2604 114.557 12.3958 114.333 12.6823Z" fill="#9B050D"/>
<path d="M114.547 12.6562C114.511 12.7083 114.49 12.7552 114.49 12.8125C114.49 12.8385 114.5 12.875 114.511 12.901C114.63 13.1771 115.005 13.2708 115.292 13.1875C115.578 13.0885 115.792 12.8646 115.974 12.6198C116.25 12.2604 115.818 12.1875 115.578 12.2239C115.255 12.2864 114.75 12.4062 114.547 12.6562Z" fill="#DCAF5E"/>
<path d="M112.61 8.51041C112.573 8.55728 112.537 8.61457 112.537 8.67707C112.537 8.71353 112.547 8.73957 112.563 8.77082C112.693 9.07291 113.089 9.18228 113.401 9.08853C113.708 8.98957 113.948 8.73957 114.141 8.47395C114.438 8.07812 113.974 8.0052 113.708 8.05207C113.375 8.08853 112.839 8.21874 112.61 8.51041Z" fill="#9B050D"/>
<path d="M112.823 8.48436C112.786 8.53123 112.766 8.58332 112.766 8.64061C112.766 8.66665 112.776 8.70311 112.786 8.72394C112.906 8.99998 113.281 9.09894 113.568 9.01561C113.854 8.91665 114.068 8.68748 114.25 8.4479C114.526 8.08852 114.094 8.01561 113.854 8.05207C113.531 8.10936 113.026 8.21873 112.823 8.48436Z" fill="#DCAF5E"/>
<path d="M92.6667 20.8021C92.6302 20.8489 92.5938 20.9062 92.5938 20.9687C92.5938 21.0052 92.6042 21.026 92.6198 21.0625C92.75 21.3646 93.1458 21.4739 93.4531 21.375C93.7656 21.2812 94.0052 21.026 94.1979 20.7656C94.4948 20.3646 94.0313 20.2968 93.7656 20.3437C93.4427 20.3906 92.8906 20.5208 92.6667 20.8021Z" fill="#9B050D"/>
<path d="M92.88 20.7865C92.8436 20.8385 92.8228 20.8854 92.8228 20.9427C92.8228 20.9687 92.8332 21.0052 92.8436 21.026C92.9634 21.3073 93.3332 21.401 93.6248 21.3177C93.9113 21.2187 94.1248 20.9948 94.3071 20.75C94.5832 20.3906 94.1509 20.3177 93.9113 20.3542C93.5884 20.401 93.0832 20.5208 92.88 20.7865Z" fill="#DCAF5E"/>
<path d="M95.7292 17.7187C95.6927 17.7708 95.6562 17.8281 95.6562 17.8906C95.6562 17.9271 95.6719 17.9479 95.6823 17.9844C95.8125 18.2864 96.2083 18.3958 96.5208 18.2969C96.8333 18.2031 97.0729 17.9479 97.2604 17.6875C97.5625 17.2864 97.0938 17.2135 96.8333 17.2656C96.5104 17.3021 95.9583 17.4323 95.7292 17.7187Z" fill="#9B050D"/>
<path d="M95.9478 17.6979C95.9113 17.7448 95.8853 17.7917 95.8853 17.8542C95.8853 17.875 95.8957 17.9115 95.9113 17.9375C96.0311 18.2135 96.4009 18.3125 96.6873 18.224C96.9738 18.1302 97.1925 17.901 97.3696 17.6615C97.6457 17.3021 97.2134 17.2292 96.9738 17.2656C96.6509 17.3229 96.1509 17.4323 95.9478 17.6979Z" fill="#DCAF5E"/>
<path d="M98.0158 12.5364C97.9793 12.5833 97.9429 12.6458 97.9429 12.7083C97.9429 12.7396 97.9585 12.7656 97.9689 12.8021C98.0991 13.1041 98.495 13.2135 98.8075 13.1146C99.12 13.0208 99.3595 12.7656 99.547 12.5C99.8491 12.1041 99.3804 12.0312 99.12 12.0781C98.7814 12.1146 98.2345 12.25 98.0158 12.5364Z" fill="#9B050D"/>
<path d="M98.2344 12.5156C98.1979 12.5625 98.1719 12.6094 98.1719 12.6719C98.1719 12.6927 98.1823 12.7292 98.1979 12.7552C98.3177 13.0312 98.6875 13.125 98.974 13.0417C99.2604 12.9479 99.4792 12.7187 99.6562 12.4792C99.9323 12.1146 99.5 12.0469 99.2604 12.0781C98.9375 12.1406 98.4375 12.2604 98.2344 12.5156Z" fill="#DCAF5E"/>
<path d="M103.25 11.0729C103.214 11.1198 103.177 11.1771 103.177 11.2396C103.177 11.276 103.188 11.2969 103.198 11.3333C103.333 11.6354 103.724 11.7448 104.037 11.6458C104.349 11.5521 104.589 11.2969 104.781 11.0364C105.078 10.6354 104.615 10.5677 104.349 10.6146C104.016 10.6614 103.464 10.7916 103.25 11.0729Z" fill="#9B050D"/>
<path d="M103.463 11.0573C103.427 11.1042 103.401 11.1563 103.401 11.2135C103.401 11.2396 103.417 11.276 103.427 11.2969C103.547 11.5729 103.917 11.6719 104.203 11.5885C104.495 11.4896 104.708 11.2604 104.885 11.0208C105.161 10.6615 104.734 10.5885 104.495 10.625C104.167 10.6875 103.667 10.7917 103.463 11.0573Z" fill="#DCAF5E"/>
<path d="M106.422 9.71352C106.386 9.7604 106.349 9.81769 106.349 9.88019C106.349 9.91665 106.36 9.93748 106.37 9.97394C106.505 10.276 106.901 10.3854 107.208 10.2864C107.521 10.1927 107.761 9.93748 107.953 9.67706C108.25 9.27602 107.787 9.20831 107.521 9.25519C107.188 9.30206 106.636 9.42186 106.422 9.71352Z" fill="#9B050D"/>
<path d="M106.625 9.69792C106.589 9.75 106.562 9.79688 106.562 9.85417C106.562 9.88021 106.573 9.91667 106.589 9.9375C106.708 10.2188 107.078 10.3125 107.365 10.2292C107.651 10.1302 107.87 9.90625 108.047 9.66146C108.323 9.30209 107.891 9.22917 107.651 9.26563C107.344 9.3125 106.839 9.4323 106.625 9.69792Z" fill="#DCAF5E"/>
<path d="M108.672 7.71352C108.636 7.76561 108.599 7.8229 108.599 7.8854C108.599 7.92186 108.61 7.94269 108.62 7.97915C108.755 8.28123 109.151 8.39061 109.458 8.29165C109.771 8.1979 110.011 7.94269 110.203 7.67706C110.5 7.28123 110.037 7.20831 109.771 7.2604C109.438 7.29165 108.886 7.42706 108.672 7.71352Z" fill="#9B050D"/>
<path d="M108.885 7.70311C108.849 7.74998 108.828 7.79686 108.828 7.85936C108.828 7.8854 108.839 7.92186 108.849 7.94269C108.969 8.21873 109.339 8.31769 109.63 8.23436C109.917 8.1354 110.13 7.90623 110.312 7.66665C110.583 7.30728 110.156 7.23436 109.917 7.27082C109.594 7.31769 109.089 7.43748 108.885 7.70311Z" fill="#DCAF5E"/>
<path d="M102.578 8.16144C102.542 8.20831 102.505 8.2656 102.505 8.3281C102.505 8.36456 102.516 8.39061 102.531 8.42706C102.662 8.72394 103.057 8.83331 103.37 8.73956C103.677 8.6406 103.917 8.39061 104.11 8.12498C104.406 7.72915 103.943 7.65623 103.677 7.7031C103.354 7.74998 102.802 7.86977 102.578 8.16144Z" fill="#9B050D"/>
<path d="M102.792 8.14583C102.755 8.19791 102.734 8.24479 102.734 8.30208C102.734 8.32812 102.745 8.36458 102.755 8.39062C102.875 8.66666 103.25 8.76041 103.536 8.67708C103.823 8.58333 104.036 8.35416 104.219 8.10937C104.495 7.74999 104.062 7.67708 103.823 7.71354C103.51 7.76562 103.01 7.88541 102.792 8.14583Z" fill="#DCAF5E"/>
<path d="M105.76 6.61978C105.724 6.66666 105.688 6.72916 105.688 6.78645C105.688 6.82291 105.703 6.84895 105.714 6.88541C105.844 7.18749 106.24 7.29166 106.552 7.19791C106.865 7.10416 107.104 6.84895 107.292 6.58332C107.594 6.18749 107.125 6.11457 106.865 6.16145C106.526 6.21353 105.979 6.34374 105.76 6.61978Z" fill="#9B050D"/>
<path d="M105.979 6.60936C105.943 6.65623 105.917 6.70311 105.917 6.76561C105.917 6.78644 105.927 6.8229 105.943 6.84894C106.062 7.12498 106.432 7.22394 106.719 7.1354C107.005 7.04165 107.224 6.81248 107.401 6.5729C107.677 6.21352 107.245 6.14061 107.005 6.17707C106.682 6.23436 106.182 6.34373 105.979 6.60936Z" fill="#DCAF5E"/>
<path d="M107.052 4.16666C107.021 4.21353 106.984 4.27603 106.984 4.33332C106.984 4.36978 106.995 4.39582 107.005 4.43228C107.135 4.73436 107.531 4.83853 107.844 4.74478C108.156 4.64582 108.396 4.39582 108.589 4.1302C108.885 3.73437 108.417 3.66145 108.156 3.70832C107.818 3.76041 107.271 3.8802 107.052 4.16666Z" fill="#9B050D"/>
<path d="M107.271 4.15623C107.235 4.20311 107.208 4.24998 107.208 4.31248C107.208 4.33332 107.224 4.36978 107.235 4.39582C107.354 4.67186 107.724 4.77082 108.011 4.68228C108.297 4.58852 108.516 4.35936 108.693 4.11978C108.969 3.7604 108.537 3.68748 108.297 3.72394C107.974 3.77082 107.474 3.89061 107.271 4.15623Z" fill="#DCAF5E"/>
<path d="M110.5 5.95831C110.463 6.00519 110.432 6.06769 110.432 6.12498C110.432 6.16144 110.443 6.18748 110.453 6.22394C110.583 6.52602 110.979 6.63019 111.292 6.53644C111.604 6.43748 111.844 6.18748 112.036 5.92185C112.333 5.52602 111.864 5.45311 111.604 5.49998C111.265 5.55206 110.719 5.67185 110.5 5.95831Z" fill="#9B050D"/>
<path d="M110.719 5.94792C110.682 5.9948 110.656 6.04167 110.656 6.10417C110.656 6.125 110.672 6.16146 110.682 6.1875C110.802 6.46355 111.172 6.5625 111.458 6.47396C111.745 6.38021 111.964 6.15104 112.141 5.91146C112.417 5.55209 111.984 5.47917 111.745 5.51563C111.422 5.5625 110.922 5.6823 110.719 5.94792Z" fill="#DCAF5E"/>
<path d="M99.3439 7.54684C99.3075 7.59372 99.271 7.65622 99.271 7.71351C99.271 7.74997 99.2866 7.77601 99.297 7.81247C99.4272 8.10934 99.8231 8.21872 100.136 8.12497C100.448 8.02601 100.688 7.77601 100.875 7.51039C101.177 7.11455 100.708 7.04164 100.448 7.08851C100.11 7.12497 99.5731 7.26039 99.3439 7.54684Z" fill="#9B050D"/>
<path d="M99.5625 7.53645C99.526 7.58332 99.5 7.6302 99.5 7.6927C99.5 7.71353 99.5104 7.74999 99.526 7.77603C99.6458 8.05207 100.016 8.14582 100.302 8.06249C100.589 7.96874 100.807 7.73957 100.984 7.49999C101.26 7.13541 100.828 7.0677 100.589 7.10416C100.266 7.15103 99.7656 7.27082 99.5625 7.53645Z" fill="#DCAF5E"/>
<path d="M97.3436 6.5104C97.3123 6.56248 97.2759 6.61977 97.2759 6.68227C97.2759 6.71873 97.2863 6.73957 97.2967 6.77602C97.4321 7.07811 97.8228 7.18748 98.1353 7.08852C98.4478 6.99477 98.6873 6.73957 98.88 6.47394C99.1769 6.07811 98.7082 6.00519 98.4478 6.05727C98.1144 6.10415 97.5623 6.23436 97.3436 6.5104Z" fill="#9B050D"/>
<path d="M97.5625 6.49998C97.526 6.54686 97.5 6.59894 97.5 6.65623C97.5 6.68227 97.5156 6.71873 97.526 6.73957C97.6458 7.01561 98.0156 7.11457 98.3021 7.03123C98.5885 6.93227 98.8073 6.70311 98.9844 6.46352C99.2604 6.10415 98.8281 6.03123 98.5885 6.06769C98.2656 6.11457 97.7656 6.23436 97.5625 6.49998Z" fill="#DCAF5E"/>
<path d="M100.708 5.24997C100.672 5.29684 100.635 5.35934 100.635 5.41664C100.635 5.4531 100.651 5.47914 100.661 5.51559C100.792 5.81247 101.187 5.92184 101.5 5.82809C101.812 5.72914 102.052 5.47914 102.239 5.21351C102.542 4.81768 102.073 4.74476 101.812 4.79164C101.474 4.83851 100.937 4.97393 100.708 5.24997Z" fill="#9B050D"/>
<path d="M100.927 5.23958C100.891 5.28646 100.865 5.33333 100.865 5.39583C100.865 5.41667 100.875 5.45312 100.891 5.47917C101.011 5.75521 101.38 5.84896 101.667 5.76562C101.953 5.67187 102.172 5.44271 102.349 5.20312C102.625 4.83854 102.193 4.77083 101.953 4.80208C101.63 4.85417 101.13 4.97396 100.927 5.23958Z" fill="#DCAF5E"/>
<path d="M103.964 2.99997C103.932 3.04684 103.896 3.10934 103.896 3.16664C103.896 3.2031 103.906 3.22914 103.917 3.26559C104.052 3.56768 104.443 3.67184 104.755 3.57809C105.068 3.47914 105.307 3.22914 105.5 2.96351C105.797 2.56768 105.328 2.49476 105.068 2.54164C104.735 2.5781 104.182 2.71351 103.964 2.99997Z" fill="#9B050D"/>
<path d="M104.167 2.97397C104.135 3.02605 104.109 3.07292 104.109 3.13022C104.109 3.15626 104.12 3.19272 104.135 3.21876C104.255 3.4948 104.625 3.58855 104.911 3.50522C105.198 3.41147 105.417 3.1823 105.594 2.94272C105.87 2.57813 105.437 2.50521 105.198 2.54167C104.885 2.60417 104.385 2.72397 104.167 2.97397Z" fill="#DCAF5E"/>
<path d="M91.7293 18.3333C91.6981 18.3802 91.6616 18.4427 91.6616 18.5052C91.6616 18.5364 91.672 18.5625 91.6825 18.5989C91.8179 18.901 92.2085 19.0104 92.521 18.9114C92.8335 18.8177 93.0731 18.5625 93.2658 18.2969C93.5627 17.901 93.0991 17.8281 92.8335 17.875C92.5106 17.9271 91.9585 18.0573 91.7293 18.3333Z" fill="#9B050D"/>
<path d="M91.9478 18.3229C91.9113 18.3698 91.8853 18.4167 91.8853 18.4792C91.8853 18.5052 91.9009 18.5365 91.9113 18.5625C92.0311 18.8385 92.4009 18.9375 92.6873 18.8542C92.979 18.7552 93.1925 18.526 93.3696 18.2865C93.6457 17.9271 93.2134 17.8542 92.979 17.8906C92.6665 17.9375 92.1613 18.0573 91.9478 18.3229Z" fill="#DCAF5E"/>
<path d="M94.1717 14.3906C94.1353 14.4375 94.104 14.5 94.104 14.5573C94.104 14.5937 94.1144 14.6198 94.1248 14.6562C94.255 14.9531 94.6509 15.0625 94.9634 14.9687C95.2759 14.8698 95.5155 14.6198 95.7082 14.3541C96.005 13.9583 95.5363 13.8854 95.2759 13.9323C94.9373 13.9791 94.4009 14.1146 94.1717 14.3906Z" fill="#9B050D"/>
<path d="M94.3906 14.3802C94.3542 14.4271 94.3281 14.474 94.3281 14.5365C94.3281 14.5573 94.3438 14.5937 94.3542 14.6198C94.474 14.8958 94.8437 14.9896 95.1302 14.9062C95.4167 14.8125 95.6354 14.5833 95.8125 14.3437C96.0885 13.9792 95.6563 13.9062 95.4167 13.9427C95.0938 14.0052 94.5938 14.1146 94.3906 14.3802Z" fill="#DCAF5E"/>
<path d="M96.651 10.1562C96.6146 10.2031 96.5781 10.2656 96.5781 10.3229C96.5781 10.3593 96.5938 10.3854 96.6042 10.4218C96.7344 10.7239 97.1302 10.8281 97.4427 10.7343C97.7552 10.6354 97.9948 10.3854 98.1823 10.1198C98.4844 9.72393 98.0156 9.65101 97.7552 9.69789C97.4167 9.74997 96.8646 9.88018 96.651 10.1562Z" fill="#9B050D"/>
<path d="M96.8542 10.1458C96.8177 10.1927 96.7969 10.2396 96.7969 10.3021C96.7969 10.3229 96.8073 10.3594 96.8177 10.3854C96.9375 10.6615 97.3125 10.7552 97.599 10.6719C97.8854 10.5781 98.099 10.349 98.2812 10.1094C98.5573 9.74999 98.125 9.67708 97.8854 9.71354C97.5729 9.76041 97.0729 9.8802 96.8542 10.1458Z" fill="#DCAF5E"/>
</svg>
