<svg width="164" height="191" viewBox="0 0 164 191" fill="none" xmlns="http://www.w3.org/2000/svg">
<path d="M115.865 152.151C115.865 152.151 129.797 147.667 137.526 137.214C145.255 126.76 138.292 91.823 142.203 84.4219C146.115 77.0261 166.583 80.3178 162.719 69.8646C158.854 59.4115 139.912 59.9844 129.844 75.2136C120.302 89.724 129.083 115.542 125.979 123.656C122.88 131.818 103.557 129.432 103.557 129.432L115.865 152.151Z" fill="#A34323"/>
<mask id="mask0_99_197" style="mask-type:luminance" maskUnits="userSpaceOnUse" x="0" y="0" width="120" height="191">
<path d="M0 0H120V191H0V0Z" fill="white"/>
</mask>
<g mask="url(#mask0_99_197)">
<path d="M78.125 17.3647L88.4323 1.99487L98.6406 28.0574C98.6406 28.0574 124.833 139.219 118.203 165.849C115.625 176.156 98.7864 181.979 83.2292 186.375C82.7083 186.563 82.1354 189.047 81.6094 189.234C80.1771 189.62 76.6458 187.755 76.6458 187.755C76.6458 187.755 73.401 189.474 72.2552 189.76C69.3958 190.432 70.9219 187.328 68.4896 188.042C66.8177 188.568 66.5312 191.813 61.7604 188.807C57.8021 186.323 57.7031 174.297 57.7031 174.297C57.7031 174.297 57.6562 181.412 55.7969 185.563C54.5104 188.474 51.4531 188.948 50.1198 188.854C46.5885 188.521 41.7187 188.901 38.5729 187.755C37.1406 187.234 35.5208 188.948 34.6146 188.854C32.1771 188.568 32.9896 182.604 32.9896 182.604C32.9896 182.604 4.21874 173.057 1.54686 162.365C-4.41668 138.547 15.8594 22.8542 15.8594 22.8542L19.5833 0.088623L29.6979 15.8386L78.125 17.3647Z" fill="#D56727"/>
</g>
<path d="M55.6508 83.6146C55.3644 83.6146 53.0779 85.5209 49.9269 83.6146C46.8279 81.7032 40.9581 76.073 41.5779 73.5886C42.1977 71.1094 46.6352 63.3751 49.9269 61.7032C53.2186 60.0365 58.8019 58.9844 63.3331 61.8021C67.8696 64.6146 73.9269 68.198 72.2081 73.6355C70.5415 79.0782 69.4425 80.224 64.3852 82.0834C59.3279 83.9011 55.6508 83.6146 55.6508 83.6146Z" fill="#F3A37F"/>
<path d="M19.2029 16.1252C19.2029 16.1252 24.0675 17.8908 25.3071 16.0783C26.5987 14.3075 20.2967 2.28142 20.156 3.90642C20.0102 5.52621 17.4842 15.646 19.2029 16.1252Z" fill="#F3A37F"/>
<path d="M90.9112 17.7449C90.9112 17.7449 82.7081 19.7501 81.5101 17.8907C80.3174 15.9792 88.7653 4.28653 88.8122 5.85945C88.8591 7.3907 92.6768 17.3178 90.9112 17.7449Z" fill="#F3A37F"/>
<path d="M41.3383 36.9792C38.8123 39.3177 38.2862 36.2188 35.2342 36.4583C31.9425 36.6458 30.3175 40.1771 29.1717 38.8906C27.7394 37.3125 27.8852 34.7865 31.9894 33.0677C37.6665 30.6823 43.8696 34.6406 41.3383 36.9792Z" fill="#F3A37F"/>
<path d="M72.3541 35.9325C74.8802 38.271 75.4062 35.1669 78.4583 35.4064C81.7499 35.5991 83.3749 39.1304 84.5208 37.8387C85.9479 36.2658 85.8072 33.7346 81.7031 32.0158C76.0729 29.6304 69.8697 33.5939 72.3541 35.9325Z" fill="#F3A37F"/>
<path d="M25.4529 59.6042C25.5936 61.1303 25.1196 62.4688 24.0206 63.6615C22.9217 64.8542 21.5363 65.5209 19.8696 65.6667C18.1977 65.8074 16.7186 65.3803 15.4321 64.4272C14.1456 63.4688 13.4269 62.1824 13.3331 60.7032C13.1873 59.1772 13.6665 57.8386 14.7654 56.6459C15.8592 55.4532 17.2446 54.7865 18.9165 54.6407C20.5831 54.5001 22.0623 54.9272 23.354 55.8803C24.6404 56.8386 25.3071 58.0782 25.4529 59.6042Z" fill="#F48CB1"/>
<path d="M103.458 59.6042C103.604 61.1303 103.125 62.4688 102.031 63.6615C100.932 64.8542 99.5468 65.5209 97.8801 65.6667C96.2082 65.8074 94.7291 65.3803 93.4426 64.4272C92.1509 63.4688 91.4374 62.1824 91.3437 60.7032C91.1978 59.1772 91.677 57.8386 92.7707 56.6459C93.8697 55.4532 95.2551 54.7865 96.9218 54.6407C98.5937 54.5001 100.073 54.9272 101.359 55.8803C102.604 56.8386 103.318 58.0782 103.458 59.6042Z" fill="#F48CB1"/>
<path d="M51.5988 56.2657C51.5988 56.2657 60.1873 54.4011 63.0936 56.2657C66.0051 58.1251 58.4686 66.1459 56.3228 64.5209C54.1248 62.948 47.5415 58.3647 51.5988 56.2657Z" fill="#F48CB1"/>
<path d="M86.3803 47.6251C86.3803 49.9167 85.5678 51.8751 83.948 53.448C82.323 55.0678 80.3699 55.8803 78.1251 55.8803C75.8334 55.8803 73.8803 55.0678 72.3022 53.448C70.6824 51.823 69.8699 49.8699 69.8699 47.6251C69.8699 45.3803 70.6824 43.3751 72.3022 41.8022C73.9272 40.2292 75.8855 39.3699 78.1251 39.3699C80.4167 39.3699 82.3699 40.1772 83.948 41.8022C85.5209 43.422 86.3803 45.3334 86.3803 47.6251Z" fill="white"/>
<path d="M44.8695 47.6251C44.8695 49.9167 44.057 51.8751 42.4373 53.448C40.8123 55.0678 38.8591 55.8803 36.6143 55.8803C34.3279 55.8803 32.3695 55.0678 30.7966 53.448C29.1716 51.823 28.3591 49.8699 28.3591 47.6251C28.3591 45.3803 29.1716 43.3751 30.7966 41.8022C32.4164 40.1772 34.3748 39.3699 36.6143 39.3699C38.906 39.3699 40.8643 40.1772 42.4373 41.8022C44.057 43.3751 44.8695 45.3334 44.8695 47.6251Z" fill="white"/>
<path d="M56.7031 64.0417C56.7031 64.0417 57.0833 69.2917 56.7968 70.0574C56.5104 70.823 53.4583 71.2501 51.9791 72.1563C50.5 73.1095 46.4947 73.4949 47.3489 74.0678C48.2083 74.6407 50.1666 75.2605 52.0729 74.0678C53.9843 72.8751 57.5156 71.1563 57.5156 71.1563C57.5156 71.1563 61.3802 74.2553 62.526 74.7345C63.7187 75.2605 64.3854 75.4011 64.8125 74.7345C65.2916 74.0678 59.5677 71.1563 59.5677 71.1563L57.9895 70.0574V63.9011L56.7031 64.0417Z" fill="#231F20"/>
<path d="M48.6406 63.6147C48.6406 62.948 39.8593 62.0886 31.3698 60.797C25.1198 59.8907 16.3385 58.6511 13.9531 58.4584C9.84892 58.0313 1.83329 56.2136 1.83329 56.2136C0.786418 57.698 15.7656 59.4115 19.3437 60.1303C21.1562 60.5105 29.8906 61.2292 36.5677 62.323C43.3906 63.422 48.6406 64.7605 48.6406 63.6147Z" fill="#231F20"/>
<path d="M48.8802 65.8594C48.7812 65.1875 40.0052 65.5729 31.3698 65.474C25.0208 65.4271 16.2448 65.474 13.8594 65.5729C9.75519 65.7604 1.54686 65.0469 1.54686 65.0469C0.734361 66.6198 15.7656 66.2396 19.4375 66.4792C21.3021 66.6198 30.0312 66.0937 36.8073 66.2396C43.6771 66.4323 49.0677 67.0521 48.8802 65.8594Z" fill="#231F20"/>
<path d="M48.7812 67.3385C48.5937 66.7187 39.9583 68.1458 31.3698 69.1041C25.0677 69.8177 16.2917 70.9166 13.9531 71.3437C9.89583 72.0156 1.64062 72.302 1.64062 72.302C1.02083 73.9687 15.9115 71.776 19.5833 71.5364C21.4427 71.3958 30.0312 69.8645 36.7604 69.1979C43.6302 68.4843 49.0677 68.4843 48.7812 67.3385Z" fill="#231F20"/>
<path d="M62.9998 63.4688C62.9998 62.8022 71.781 61.9428 80.2706 60.6563C86.5206 59.7501 95.3018 58.5053 97.6873 58.3178C101.791 57.8855 109.807 56.073 109.807 56.073C110.854 57.5522 95.8748 59.2709 92.2966 59.9845C90.4841 60.3699 81.7498 61.0834 75.0727 62.1824C68.2029 63.2813 62.9998 64.6615 62.9998 63.4688Z" fill="#231F20"/>
<path d="M62.6665 65.7136C62.7603 65.047 71.5415 65.4272 80.1769 65.3334C86.5207 65.2865 95.3019 65.3334 97.6873 65.4272C101.792 65.6199 109.995 64.9011 109.995 64.9011C110.807 66.4792 95.7811 66.0938 92.104 66.3334C90.2446 66.4792 81.5103 65.9532 74.7394 66.0938C67.9165 66.2865 62.5259 66.8595 62.6665 65.7136Z" fill="#231F20"/>
<path d="M62.8072 67.1926C62.9999 66.5728 71.6353 68.0051 80.2238 68.9582C86.5207 69.677 95.3019 70.7707 97.6405 71.203C101.693 71.8697 109.948 72.1562 109.948 72.1562C110.568 73.828 95.6822 71.6301 92.0103 71.3957C90.1509 71.2499 81.5624 69.7239 74.8332 69.0572C67.9165 68.3853 62.5259 68.3384 62.8072 67.1926Z" fill="#231F20"/>
<path d="M83.1822 47.6252C83.1822 49.0106 82.7083 50.2033 81.703 51.2033C80.703 52.2085 79.5103 52.6825 78.1249 52.6825C76.7395 52.6825 75.5468 52.2085 74.5468 51.2033C73.5468 50.2033 73.0676 49.0106 73.0676 47.6252C73.0676 46.2397 73.5468 45.047 74.5468 44.047C75.5468 43.0418 76.7395 42.5679 78.1249 42.5679C79.5103 42.5679 80.703 43.0418 81.703 44.047C82.7083 45.0002 83.1822 46.1929 83.1822 47.6252Z" fill="#231F20"/>
<path d="M41.672 47.6252C41.672 49.0106 41.198 50.2033 40.1928 51.2033C39.1928 52.2085 38.0001 52.6825 36.6147 52.6825C35.2345 52.6825 34.0417 52.2085 33.0365 51.2033C32.0365 50.2033 31.5574 49.0106 31.5574 47.6252C31.5574 46.2397 32.0365 45.047 33.0365 44.047C34.0417 43.0418 35.2345 42.5679 36.6147 42.5679C38.0001 42.5679 39.1928 43.0418 40.1928 44.047C41.198 45.0002 41.672 46.1929 41.672 47.6252Z" fill="#231F20"/>
<path d="M36.0417 16.1719C36.0417 16.1719 39.9584 35.7396 43.823 35.7396C47.6876 35.7396 45.4428 35.4063 43.7709 30.5833C41.7709 24.7604 40.0522 21.4219 40.0522 21.4219L39.099 16.4115L36.0417 16.1719Z" fill="#A34323"/>
<path d="M43.9167 16.5054C43.9167 16.5054 47.7813 36.3127 49.7345 36.3127C51.7397 36.3127 52.6459 34.3543 51.2136 32.1147C49.7865 29.87 47.922 23.7606 47.922 21.9012C47.922 19.9897 47.922 16.7918 47.922 16.7918L43.9167 16.5054Z" fill="#A34323"/>
<path d="M52.9324 16.7449C52.9324 16.7449 53.3178 35.6928 55.3178 36.3126C57.2761 36.8855 56.4167 26.7657 56.4167 25.8595C56.4167 25.0001 56.0365 16.7449 56.0365 16.7449H52.9324Z" fill="#A34323"/>
<path d="M74.4999 17.2188C74.4999 17.2188 70.5885 36.4062 66.7239 36.4062C62.8593 36.4062 65.0989 36.0729 66.7708 31.2552C68.776 25.4323 70.4895 22.0885 70.4895 22.0885L71.4478 17.0781L74.4999 17.2188Z" fill="#A34323"/>
<path d="M66.7706 16.9845C66.7706 16.9845 62.9997 36.4063 61.0466 36.4063C59.0883 36.4063 58.1351 34.4532 59.5674 32.2084C60.9945 30.0105 62.8591 23.8542 62.8591 21.9949C62.8591 20.0834 62.8591 16.8855 62.8591 16.8855L66.7706 16.9845Z" fill="#A34323"/>
<path d="M31.5101 140.698C31.5101 140.698 29.1247 181.599 31.5101 182.172C33.8956 182.745 33.5622 182.698 33.5622 182.698C33.5622 182.698 31.7028 167.328 32.7497 161.552C33.8956 155.828 34.5622 138.787 31.5101 140.698Z" fill="#A34323"/>
<path d="M57.0365 155.828C57.0365 155.828 58.6615 180.838 56.5574 184.989C55.4636 187.135 54.0313 189.234 51.7397 189.713C49.5938 190.146 46.6355 189.047 46.6355 189.047C46.6355 189.047 45.2032 190.193 41.8647 189.573C38.8595 189 38.573 187.807 38.573 187.807C38.573 187.807 33.7032 191 32.849 188.661C31.9897 186.375 31.6042 182.265 31.6042 182.265L33.4688 180.786C33.4688 180.786 33.6095 185.229 34.6615 187.568C35.422 189.234 39.4792 185.13 39.4792 185.13C39.4792 185.13 39.672 188.614 43.3438 188.042C46.9688 187.469 47.1147 185.802 47.1147 185.802C47.1147 185.802 47.6876 188.76 51.1199 187.661C54.5574 186.562 55.9376 188.614 55.4636 178.833C54.9376 169.047 56.5105 151.292 56.5105 151.292L57.0365 155.828Z" fill="#A34323"/>
<path d="M83.7553 141.651C83.7553 141.651 86.1407 182.552 83.7553 183.125C81.3698 183.698 81.7032 183.651 81.7032 183.651C81.7032 183.651 83.5625 168.282 82.5157 162.511C81.4636 156.688 80.7032 139.693 83.7553 141.651Z" fill="#A34323"/>
<path d="M58.229 156.734C58.229 156.734 56.6093 181.745 58.7082 185.896C59.802 188.042 61.2343 190.146 63.5259 190.62C65.6718 191.052 68.6301 189.953 68.6301 189.953C68.6301 189.953 70.0624 191.099 73.4009 190.479C76.4061 189.906 76.6926 188.713 76.6926 188.713C76.6926 188.713 81.5624 191.911 82.4218 189.573C83.2759 187.281 83.6613 183.177 83.6613 183.177L81.7968 181.698C81.7968 181.698 81.6561 186.135 80.604 188.474C79.8436 190.146 75.7863 186.036 75.7863 186.036C75.7863 186.036 75.5988 189.521 71.9218 188.948C68.2499 188.375 68.1509 186.708 68.1509 186.708C68.1509 186.708 67.5832 189.667 64.1457 188.568C60.7603 187.469 59.328 189.521 59.802 179.739C60.328 169.953 58.7551 152.198 58.7551 152.198L58.229 156.734Z" fill="#A34323"/>
</svg>
