<svg width="478" height="478" viewBox="0 0 478 478" fill="none" xmlns="http://www.w3.org/2000/svg">
<circle cx="239" cy="239" r="239" fill="#B39CD5"/>
<circle cx="239" cy="239" r="201" fill="#9C6991"/>
<path d="M166.264 279.95C166.264 271.85 167.514 265.05 170.014 259.55C172.514 253.95 175.614 249.45 179.314 246.05C183.014 242.55 187.564 239.1 192.964 235.7C197.764 232.5 201.314 230 203.614 228.2C206.014 226.4 207.964 224.4 209.464 222.2C211.064 219.9 211.864 217.3 211.864 214.4C211.864 210.9 210.464 208.05 207.664 205.85C204.864 203.55 201.364 202.4 197.164 202.4C193.064 202.4 189.414 203.45 186.214 205.55C183.114 207.65 180.764 209.65 179.164 211.55C178.164 212.65 177.214 213.5 176.314 214.1C175.514 214.6 174.364 214.85 172.864 214.85C170.764 214.85 169.014 214.1 167.614 212.6C166.314 211.1 165.664 209.4 165.664 207.5C165.664 206.3 165.964 205.15 166.564 204.05C167.264 202.95 168.564 201.5 170.464 199.7C173.764 196.5 177.664 193.75 182.164 191.45C186.664 189.15 191.664 188 197.164 188C202.764 188 207.764 189.2 212.164 191.6C216.564 193.9 220.014 197.1 222.514 201.2C225.014 205.2 226.264 209.6 226.264 214.4C226.264 219.6 225.114 224.2 222.814 228.2C220.514 232.1 217.714 235.45 214.414 238.25C211.214 240.95 207.064 243.9 201.964 247.1C195.964 251 191.214 254.8 187.714 258.5C184.214 262.2 182.014 266.95 181.114 272.75H220.264C222.164 272.75 223.814 273.45 225.214 274.85C226.714 276.25 227.464 277.95 227.464 279.95C227.464 281.85 226.714 283.5 225.214 284.9C223.814 286.3 222.164 287 220.264 287H166.264V279.95ZM274.871 287.9C268.371 287.9 262.471 285.75 257.171 281.45C251.971 277.05 247.871 271.2 244.871 263.9C241.971 256.6 240.521 248.75 240.521 240.35C240.521 231.25 242.171 222.7 245.471 214.7C248.871 206.6 253.421 200.15 259.121 195.35C264.921 190.45 271.221 188 278.021 188C284.521 188 290.371 190.2 295.571 194.6C300.771 198.9 304.821 204.7 307.721 212C310.721 219.3 312.221 227.2 312.221 235.7C312.221 244.9 310.521 253.5 307.121 261.5C303.821 269.5 299.271 275.9 293.471 280.7C287.771 285.5 281.571 287.9 274.871 287.9ZM274.871 273.5C278.971 273.5 282.771 271.8 286.271 268.4C289.871 265 292.721 260.45 294.821 254.75C297.021 248.95 298.121 242.7 298.121 236C298.121 230.1 297.221 224.6 295.421 219.5C293.721 214.3 291.321 210.15 288.221 207.05C285.121 203.95 281.721 202.4 278.021 202.4C273.921 202.4 270.071 204.1 266.471 207.5C262.871 210.9 260.021 215.5 257.921 221.3C255.821 227.1 254.771 233.35 254.771 240.05C254.771 245.85 255.621 251.35 257.321 256.55C259.021 261.65 261.421 265.75 264.521 268.85C267.621 271.95 271.071 273.5 274.871 273.5Z" fill="#1C3046"/>
</svg>
