<svg width="478" height="478" viewBox="0 0 478 478" fill="none" xmlns="http://www.w3.org/2000/svg">
<circle cx="239" cy="239" r="239" fill="#3898A3"/>
<circle cx="239" cy="239" r="201" fill="#328791"/>
<path d="M139.805 287C137.705 287 135.955 286.3 134.555 284.9C133.255 283.5 132.605 281.8 132.605 279.8C132.605 277.8 133.255 276.1 134.555 274.7C135.955 273.3 137.705 272.6 139.805 272.6H148.505L149.555 213.95L144.605 219.2C143.205 220.6 141.455 221.3 139.355 221.3C137.355 221.3 135.655 220.6 134.255 219.2C132.855 217.8 132.155 216.1 132.155 214.1C132.155 212.4 132.805 210.8 134.105 209.3L151.655 190.25C152.255 189.65 153.055 189.15 154.055 188.75C155.055 188.25 155.955 188 156.755 188C158.955 188 160.705 188.75 162.005 190.25C163.405 191.65 164.105 193.3 164.105 195.2L163.055 272.6H169.205C171.505 272.6 173.305 273.3 174.605 274.7C176.005 276.1 176.705 277.8 176.705 279.8C176.705 281.8 175.955 283.5 174.455 284.9C173.055 286.3 171.405 287 169.505 287H139.805ZM224.041 287.9C217.541 287.9 211.641 285.75 206.341 281.45C201.141 277.05 197.041 271.2 194.041 263.9C191.141 256.6 189.691 248.75 189.691 240.35C189.691 231.25 191.341 222.7 194.641 214.7C198.041 206.6 202.591 200.15 208.291 195.35C214.091 190.45 220.391 188 227.191 188C233.691 188 239.541 190.2 244.741 194.6C249.941 198.9 253.991 204.7 256.891 212C259.891 219.3 261.391 227.2 261.391 235.7C261.391 244.9 259.691 253.5 256.291 261.5C252.991 269.5 248.441 275.9 242.641 280.7C236.941 285.5 230.741 287.9 224.041 287.9ZM224.041 273.5C228.141 273.5 231.941 271.8 235.441 268.4C239.041 265 241.891 260.45 243.991 254.75C246.191 248.95 247.291 242.7 247.291 236C247.291 230.1 246.391 224.6 244.591 219.5C242.891 214.3 240.491 210.15 237.391 207.05C234.291 203.95 230.891 202.4 227.191 202.4C223.091 202.4 219.241 204.1 215.641 207.5C212.041 210.9 209.191 215.5 207.091 221.3C204.991 227.1 203.941 233.35 203.941 240.05C203.941 245.85 204.791 251.35 206.491 256.55C208.191 261.65 210.591 265.75 213.691 268.85C216.791 271.95 220.241 273.5 224.041 273.5ZM309.881 287.9C303.381 287.9 297.481 285.75 292.181 281.45C286.981 277.05 282.881 271.2 279.881 263.9C276.981 256.6 275.531 248.75 275.531 240.35C275.531 231.25 277.181 222.7 280.481 214.7C283.881 206.6 288.431 200.15 294.131 195.35C299.931 190.45 306.231 188 313.031 188C319.531 188 325.381 190.2 330.581 194.6C335.781 198.9 339.831 204.7 342.731 212C345.731 219.3 347.231 227.2 347.231 235.7C347.231 244.9 345.531 253.5 342.131 261.5C338.831 269.5 334.281 275.9 328.481 280.7C322.781 285.5 316.581 287.9 309.881 287.9ZM309.881 273.5C313.981 273.5 317.781 271.8 321.281 268.4C324.881 265 327.731 260.45 329.831 254.75C332.031 248.95 333.131 242.7 333.131 236C333.131 230.1 332.231 224.6 330.431 219.5C328.731 214.3 326.331 210.15 323.231 207.05C320.131 203.95 316.731 202.4 313.031 202.4C308.931 202.4 305.081 204.1 301.481 207.5C297.881 210.9 295.031 215.5 292.931 221.3C290.831 227.1 289.781 233.35 289.781 240.05C289.781 245.85 290.631 251.35 292.331 256.55C294.031 261.65 296.431 265.75 299.531 268.85C302.631 271.95 306.081 273.5 309.881 273.5Z" fill="#1C3046"/>
</svg>
