<svg width="478" height="478" viewBox="0 0 478 478" fill="none" xmlns="http://www.w3.org/2000/svg">
<circle cx="239" cy="239" r="239" fill="#FFCC4D"/>
<circle cx="239" cy="239" r="201" fill="#CFA63F"/>
<path d="M236.844 287.9C231.644 287.9 226.894 286.9 222.594 284.9C218.394 282.9 214.944 280.6 212.244 278C209.644 275.4 207.894 273.1 206.994 271.1C206.494 269.9 206.244 268.75 206.244 267.65C206.244 265.75 206.944 264.1 208.344 262.7C209.844 261.2 211.544 260.45 213.444 260.45C215.044 260.45 216.244 260.75 217.044 261.35C217.844 261.85 218.694 262.75 219.594 264.05C223.894 270.25 229.644 273.35 236.844 273.35C240.344 273.35 243.644 272.3 246.744 270.2C249.844 268 252.294 265.1 254.094 261.5C255.994 257.8 256.944 253.8 256.944 249.5C256.944 244 255.444 239.25 252.444 235.25C249.544 231.25 245.294 229.25 239.694 229.25C233.494 229.25 227.894 231.75 222.894 236.75C221.994 237.65 221.044 238.35 220.044 238.85C219.144 239.25 217.994 239.45 216.594 239.45C214.494 239.45 212.794 238.7 211.494 237.2C210.194 235.7 209.644 233.8 209.844 231.5L213.444 195.35C213.544 193.55 214.294 192.05 215.694 190.85C217.194 189.55 218.844 188.9 220.644 188.9H260.394C262.294 188.9 263.944 189.65 265.344 191.15C266.844 192.55 267.594 194.2 267.594 196.1C267.594 198.2 266.844 199.95 265.344 201.35C263.944 202.75 262.294 203.45 260.394 203.45H227.244L225.744 217.55C230.044 215.75 234.694 214.85 239.694 214.85C245.694 214.85 251.094 216.3 255.894 219.2C260.694 222.1 264.444 226.2 267.144 231.5C269.944 236.7 271.344 242.7 271.344 249.5C271.344 256.4 269.744 262.8 266.544 268.7C263.344 274.6 259.044 279.3 253.644 282.8C248.344 286.2 242.744 287.9 236.844 287.9Z" fill="#1C3046"/>
</svg>
