<svg width="478" height="478" viewBox="0 0 478 478" fill="none" xmlns="http://www.w3.org/2000/svg">
<circle cx="239" cy="239" r="239" fill="#7C9424"/>
<circle cx="239" cy="239" r="201" fill="#6F8A1E"/>
<path d="M182.724 287C180.624 287 178.874 286.3 177.474 284.9C176.174 283.5 175.524 281.8 175.524 279.8C175.524 277.8 176.174 276.1 177.474 274.7C178.874 273.3 180.624 272.6 182.724 272.6H191.424L192.474 213.95L187.524 219.2C186.124 220.6 184.374 221.3 182.274 221.3C180.274 221.3 178.574 220.6 177.174 219.2C175.774 217.8 175.074 216.1 175.074 214.1C175.074 212.4 175.724 210.8 177.024 209.3L194.574 190.25C195.174 189.65 195.974 189.15 196.974 188.75C197.974 188.25 198.874 188 199.674 188C201.874 188 203.624 188.75 204.924 190.25C206.324 191.65 207.024 193.3 207.024 195.2L205.974 272.6H212.124C214.424 272.6 216.224 273.3 217.524 274.7C218.924 276.1 219.624 277.8 219.624 279.8C219.624 281.8 218.874 283.5 217.374 284.9C215.974 286.3 214.324 287 212.424 287H182.724ZM266.961 287.9C260.461 287.9 254.561 285.75 249.261 281.45C244.061 277.05 239.961 271.2 236.961 263.9C234.061 256.6 232.611 248.75 232.611 240.35C232.611 231.25 234.261 222.7 237.561 214.7C240.961 206.6 245.511 200.15 251.211 195.35C257.011 190.45 263.311 188 270.111 188C276.611 188 282.461 190.2 287.661 194.6C292.861 198.9 296.911 204.7 299.811 212C302.811 219.3 304.311 227.2 304.311 235.7C304.311 244.9 302.611 253.5 299.211 261.5C295.911 269.5 291.361 275.9 285.561 280.7C279.861 285.5 273.661 287.9 266.961 287.9ZM266.961 273.5C271.061 273.5 274.861 271.8 278.361 268.4C281.961 265 284.811 260.45 286.911 254.75C289.111 248.95 290.211 242.7 290.211 236C290.211 230.1 289.311 224.6 287.511 219.5C285.811 214.3 283.411 210.15 280.311 207.05C277.211 203.95 273.811 202.4 270.111 202.4C266.011 202.4 262.161 204.1 258.561 207.5C254.961 210.9 252.111 215.5 250.011 221.3C247.911 227.1 246.861 233.35 246.861 240.05C246.861 245.85 247.711 251.35 249.411 256.55C251.111 261.65 253.511 265.75 256.611 268.85C259.711 271.95 263.161 273.5 266.961 273.5Z" fill="#1C3046"/>
</svg>
