<svg width="428" height="253" viewBox="0 0 428 253" fill="none" xmlns="http://www.w3.org/2000/svg">
<path d="M13.724 74.8803C10.7344 74.2813 8.06254 73.6042 6.03129 72.8386C2.82295 71.6251 0.427121 69.2292 0.072953 66.8647C3.69847e-05 66.4011 0.0208697 65.9376 0.125036 65.4792C4.27608 68.8074 9.44795 72.2188 13.724 74.8803Z" fill="#C4E458"/>
<path d="M13.724 250.719C10.7344 250.115 8.06254 249.443 6.03129 248.677C2.82295 247.464 0.427121 245.063 0.072953 242.703C3.69847e-05 242.24 0.0208697 241.776 0.125036 241.318C4.27608 244.646 9.44795 248.057 13.724 250.719Z" fill="#B39CD5"/>
<mask id="mask0_99_196" style="mask-type:luminance" maskUnits="userSpaceOnUse" x="68" y="10" width="141" height="61">
<path d="M68.6667 10.6665H208.667V70.6665H68.6667V10.6665Z" fill="white"/>
</mask>
<g mask="url(#mask0_99_196)">
<mask id="mask1_99_196" style="mask-type:luminance" maskUnits="userSpaceOnUse" x="3" y="-66" width="218" height="217">
<path d="M108.625 -65.4585L220.349 46.2655L115.698 150.917L3.974 39.1926L108.625 -65.4585Z" fill="white"/>
</mask>
<g mask="url(#mask1_99_196)">
<mask id="mask2_99_196" style="mask-type:luminance" maskUnits="userSpaceOnUse" x="3" y="-66" width="218" height="217">
<path d="M108.625 -65.4585L220.349 46.2655L115.698 150.917L3.974 39.1926L108.625 -65.4585Z" fill="white"/>
</mask>
<g mask="url(#mask2_99_196)">
<path d="M207.411 33.3852C207.411 33.3852 188.396 15.2394 161.656 11.4165C134.917 7.59878 71.8854 37.203 69.9739 42.9321C68.0677 48.6613 133.005 70.63 164.521 70.6248C196.036 70.63 207.411 41.0207 207.411 33.3852Z" fill="#80447D"/>
</g>
</g>
</g>
<mask id="mask3_99_196" style="mask-type:luminance" maskUnits="userSpaceOnUse" x="87" y="0" width="82" height="23">
<path d="M87.3333 0H168.667V22.6667H87.3333V0Z" fill="white"/>
</mask>
<g mask="url(#mask3_99_196)">
<mask id="mask4_99_196" style="mask-type:luminance" maskUnits="userSpaceOnUse" x="3" y="-66" width="218" height="217">
<path d="M108.625 -65.4585L220.349 46.2655L115.698 150.917L3.97388 39.1926L108.625 -65.4585Z" fill="white"/>
</mask>
<g mask="url(#mask4_99_196)">
<mask id="mask5_99_196" style="mask-type:luminance" maskUnits="userSpaceOnUse" x="3" y="-66" width="218" height="217">
<path d="M108.625 -65.4585L220.349 46.2655L115.698 150.917L3.97388 39.1926L108.625 -65.4585Z" fill="white"/>
</mask>
<g mask="url(#mask5_99_196)">
<path d="M161.656 11.4165C149.125 9.63006 128.625 15.1769 110.177 22.1717C110.177 22.1717 65.2031 -0.994942 104.354 0.911308C143.51 2.82277 168.24 12.7655 168.24 12.7655L168.214 12.7915C166.094 12.2342 163.922 11.7394 161.656 11.4165Z" fill="#9C6991"/>
</g>
</g>
</g>
<mask id="mask6_99_196" style="mask-type:luminance" maskUnits="userSpaceOnUse" x="68" y="10" width="107" height="61">
<path d="M68.6667 10.6665H174V70.6665H68.6667V10.6665Z" fill="white"/>
</mask>
<g mask="url(#mask6_99_196)">
<mask id="mask7_99_196" style="mask-type:luminance" maskUnits="userSpaceOnUse" x="3" y="-66" width="218" height="217">
<path d="M108.625 -65.4585L220.349 46.2655L115.698 150.917L3.974 39.1926L108.625 -65.4585Z" fill="white"/>
</mask>
<g mask="url(#mask7_99_196)">
<mask id="mask8_99_196" style="mask-type:luminance" maskUnits="userSpaceOnUse" x="3" y="-66" width="218" height="217">
<path d="M108.625 -65.4585L220.349 46.2655L115.698 150.917L3.974 39.1926L108.625 -65.4585Z" fill="white"/>
</mask>
<g mask="url(#mask8_99_196)">
<path d="M69.9739 42.9321C71.8854 37.203 134.917 7.59878 161.656 11.4165C163.917 11.7394 166.104 12.203 168.224 12.7602C168.219 12.7655 168.214 12.7915 168.214 12.7915C168.214 12.7915 147.745 48.5884 173.724 69.8123C170.885 70.328 167.833 70.63 164.521 70.6248C133.005 70.63 68.0677 48.6613 69.9739 42.9321Z" fill="#80447D"/>
</g>
</g>
</g>
<mask id="mask9_99_196" style="mask-type:luminance" maskUnits="userSpaceOnUse" x="159" y="12" width="50" height="59">
<path d="M159.333 12H208.667V70.6667H159.333V12Z" fill="white"/>
</mask>
<g mask="url(#mask9_99_196)">
<mask id="mask10_99_196" style="mask-type:luminance" maskUnits="userSpaceOnUse" x="3" y="-66" width="218" height="217">
<path d="M108.625 -65.4585L220.349 46.2655L115.698 150.917L3.97388 39.1926L108.625 -65.4585Z" fill="white"/>
</mask>
<g mask="url(#mask10_99_196)">
<mask id="mask11_99_196" style="mask-type:luminance" maskUnits="userSpaceOnUse" x="3" y="-66" width="218" height="217">
<path d="M108.625 -65.4585L220.349 46.2655L115.698 150.917L3.97388 39.1926L108.625 -65.4585Z" fill="white"/>
</mask>
<g mask="url(#mask11_99_196)">
<path d="M168.214 12.7915C168.214 12.7915 168.219 12.7655 168.224 12.7603C191.172 18.8019 207.411 33.3853 207.411 33.3853C207.411 40.2186 197.922 65.3957 173.724 69.8123C147.745 48.5884 168.214 12.7915 168.214 12.7915Z" fill="#D0B9E2"/>
</g>
</g>
</g>
<mask id="mask12_99_196" style="mask-type:luminance" maskUnits="userSpaceOnUse" x="34" y="16" width="47" height="52">
<path d="M34 16H80.6667V68H34V16Z" fill="white"/>
</mask>
<g mask="url(#mask12_99_196)">
<mask id="mask13_99_196" style="mask-type:luminance" maskUnits="userSpaceOnUse" x="3" y="-66" width="218" height="217">
<path d="M108.625 -65.4585L220.349 46.2655L115.698 150.917L3.97388 39.1926L108.625 -65.4585Z" fill="white"/>
</mask>
<g mask="url(#mask13_99_196)">
<mask id="mask14_99_196" style="mask-type:luminance" maskUnits="userSpaceOnUse" x="3" y="-66" width="218" height="217">
<path d="M108.625 -65.4585L220.349 46.2655L115.698 150.917L3.97388 39.1926L108.625 -65.4585Z" fill="white"/>
</mask>
<g mask="url(#mask14_99_196)">
<path d="M34.9843 62.9895C38.1927 59.1666 50.875 54.3905 50.875 46.7499C50.875 39.1145 26.0468 17.1458 38.4635 17.1458C50.875 17.1458 79.776 35.9114 79.776 35.9114C74.0885 39.0468 70.4114 41.6197 69.9739 42.9322C69.4895 44.3853 73.3073 46.8801 79.776 49.7968C58.3333 73.8437 31.776 66.8072 34.9843 62.9895Z" fill="#9C6991"/>
</g>
</g>
</g>
<mask id="mask15_99_196" style="mask-type:luminance" maskUnits="userSpaceOnUse" x="182" y="29" width="8" height="9">
<path d="M182 29.3335H190V37.3335H182V29.3335Z" fill="white"/>
</mask>
<g mask="url(#mask15_99_196)">
<mask id="mask16_99_196" style="mask-type:luminance" maskUnits="userSpaceOnUse" x="3" y="-66" width="218" height="217">
<path d="M108.625 -65.4583L220.349 46.2657L115.698 150.917L3.97388 39.1928L108.625 -65.4583Z" fill="white"/>
</mask>
<g mask="url(#mask16_99_196)">
<mask id="mask17_99_196" style="mask-type:luminance" maskUnits="userSpaceOnUse" x="3" y="-66" width="218" height="217">
<path d="M108.625 -65.4583L220.349 46.2657L115.698 150.917L3.97388 39.1928L108.625 -65.4583Z" fill="white"/>
</mask>
<g mask="url(#mask17_99_196)">
<path d="M182.667 33.3803C182.667 35.2292 184.161 36.724 186.01 36.724C187.854 36.724 189.354 35.2292 189.354 33.3855C189.354 31.5365 187.854 30.0417 186.01 30.0417C184.161 30.0417 182.667 31.5365 182.667 33.3803Z" fill="#232121"/>
</g>
</g>
</g>
<mask id="mask18_99_196" style="mask-type:luminance" maskUnits="userSpaceOnUse" x="108" y="49" width="43" height="29">
<path d="M108.667 49.3335H150V77.3335H108.667V49.3335Z" fill="white"/>
</mask>
<g mask="url(#mask18_99_196)">
<mask id="mask19_99_196" style="mask-type:luminance" maskUnits="userSpaceOnUse" x="3" y="-66" width="218" height="217">
<path d="M108.625 -65.4583L220.349 46.2657L115.698 150.917L3.974 39.1928L108.625 -65.4583Z" fill="white"/>
</mask>
<g mask="url(#mask19_99_196)">
<mask id="mask20_99_196" style="mask-type:luminance" maskUnits="userSpaceOnUse" x="3" y="-66" width="218" height="217">
<path d="M108.625 -65.4583L220.349 46.2657L115.698 150.917L3.974 39.1928L108.625 -65.4583Z" fill="white"/>
</mask>
<g mask="url(#mask20_99_196)">
<path d="M149.109 50.0105C149.109 50.0105 145.745 75.4167 119.287 76.7501C97.9792 77.823 114.573 45.5522 149.109 50.0105Z" fill="#D0B9E2"/>
</g>
</g>
</g>
<mask id="mask21_99_196" style="mask-type:luminance" maskUnits="userSpaceOnUse" x="106" y="48" width="6" height="7">
<path d="M106 48H111.333V54.6667H106V48Z" fill="white"/>
</mask>
<g mask="url(#mask21_99_196)">
<mask id="mask22_99_196" style="mask-type:luminance" maskUnits="userSpaceOnUse" x="3" y="-66" width="218" height="217">
<path d="M108.625 -65.4585L220.349 46.2655L115.698 150.917L3.97388 39.1926L108.625 -65.4585Z" fill="white"/>
</mask>
<g mask="url(#mask22_99_196)">
<mask id="mask23_99_196" style="mask-type:luminance" maskUnits="userSpaceOnUse" x="3" y="-66" width="218" height="217">
<path d="M108.625 -65.4585L220.349 46.2655L115.698 150.917L3.97388 39.1926L108.625 -65.4585Z" fill="white"/>
</mask>
<g mask="url(#mask23_99_196)">
<path d="M106.094 51.4425C106.094 52.8019 107.198 53.9009 108.557 53.9009C109.917 53.9009 111.016 52.8019 111.016 51.4425C111.016 50.0832 109.917 48.979 108.557 48.979C107.198 48.979 106.094 50.0832 106.094 51.4425Z" fill="#9C6991"/>
</g>
</g>
</g>
<mask id="mask24_99_196" style="mask-type:luminance" maskUnits="userSpaceOnUse" x="150" y="61" width="7" height="8">
<path d="M150 61.3335H156.667V68.0002H150V61.3335Z" fill="white"/>
</mask>
<g mask="url(#mask24_99_196)">
<mask id="mask25_99_196" style="mask-type:luminance" maskUnits="userSpaceOnUse" x="3" y="-66" width="218" height="217">
<path d="M108.625 -65.4583L220.349 46.2657L115.698 150.917L3.97388 39.1928L108.625 -65.4583Z" fill="white"/>
</mask>
<g mask="url(#mask25_99_196)">
<mask id="mask26_99_196" style="mask-type:luminance" maskUnits="userSpaceOnUse" x="3" y="-66" width="218" height="217">
<path d="M108.625 -65.4583L220.349 46.2657L115.698 150.917L3.97388 39.1928L108.625 -65.4583Z" fill="white"/>
</mask>
<g mask="url(#mask26_99_196)">
<path d="M150.708 64.5157C150.708 65.8751 151.812 66.9793 153.172 66.9793C154.531 66.9793 155.63 65.8751 155.63 64.5157C155.63 63.1564 154.531 62.0574 153.172 62.0574C151.812 62.0522 150.708 63.1564 150.708 64.5157Z" fill="#9C6991"/>
</g>
</g>
</g>
<mask id="mask27_99_196" style="mask-type:luminance" maskUnits="userSpaceOnUse" x="102" y="44" width="4" height="4">
<path d="M102 44H106V48H102V44Z" fill="white"/>
</mask>
<g mask="url(#mask27_99_196)">
<mask id="mask28_99_196" style="mask-type:luminance" maskUnits="userSpaceOnUse" x="3" y="-66" width="218" height="217">
<path d="M108.625 -65.4585L220.349 46.2655L115.698 150.917L3.97388 39.1926L108.625 -65.4585Z" fill="white"/>
</mask>
<g mask="url(#mask28_99_196)">
<mask id="mask29_99_196" style="mask-type:luminance" maskUnits="userSpaceOnUse" x="3" y="-66" width="218" height="217">
<path d="M108.625 -65.4585L220.349 46.2655L115.698 150.917L3.97388 39.1926L108.625 -65.4585Z" fill="white"/>
</mask>
<g mask="url(#mask29_99_196)">
<path d="M102.589 45.7968C102.589 46.677 103.302 47.3905 104.182 47.3905C105.057 47.3905 105.771 46.677 105.771 45.7968C105.771 44.9218 105.062 44.2083 104.182 44.2083C103.302 44.2083 102.589 44.9218 102.589 45.7968Z" fill="#9C6991"/>
</g>
</g>
</g>
<mask id="mask30_99_196" style="mask-type:luminance" maskUnits="userSpaceOnUse" x="155" y="57" width="5" height="6">
<path d="M155.333 57.3335H159.333V62.6668H155.333V57.3335Z" fill="white"/>
</mask>
<g mask="url(#mask30_99_196)">
<mask id="mask31_99_196" style="mask-type:luminance" maskUnits="userSpaceOnUse" x="3" y="-66" width="218" height="217">
<path d="M108.625 -65.4583L220.349 46.2657L115.698 150.917L3.97388 39.1928L108.625 -65.4583Z" fill="white"/>
</mask>
<g mask="url(#mask31_99_196)">
<mask id="mask32_99_196" style="mask-type:luminance" maskUnits="userSpaceOnUse" x="3" y="-66" width="218" height="217">
<path d="M108.625 -65.4583L220.349 46.2657L115.698 150.917L3.97388 39.1928L108.625 -65.4583Z" fill="white"/>
</mask>
<g mask="url(#mask32_99_196)">
<path d="M155.781 59.8699C155.781 60.7501 156.495 61.4584 157.375 61.4584C158.25 61.4584 158.964 60.7501 158.964 59.8699C158.964 58.9897 158.25 58.2761 157.375 58.2761C156.495 58.2761 155.781 58.9897 155.781 59.8699Z" fill="#9C6991"/>
</g>
</g>
</g>
<mask id="mask33_99_196" style="mask-type:luminance" maskUnits="userSpaceOnUse" x="159" y="65" width="3" height="4">
<path d="M159.333 65.3335H162V68.0002H159.333V65.3335Z" fill="white"/>
</mask>
<g mask="url(#mask33_99_196)">
<mask id="mask34_99_196" style="mask-type:luminance" maskUnits="userSpaceOnUse" x="3" y="-66" width="218" height="217">
<path d="M108.625 -65.4583L220.349 46.2657L115.698 150.917L3.97388 39.1928L108.625 -65.4583Z" fill="white"/>
</mask>
<g mask="url(#mask34_99_196)">
<mask id="mask35_99_196" style="mask-type:luminance" maskUnits="userSpaceOnUse" x="3" y="-66" width="218" height="217">
<path d="M108.625 -65.4583L220.349 46.2657L115.698 150.917L3.97388 39.1928L108.625 -65.4583Z" fill="white"/>
</mask>
<g mask="url(#mask35_99_196)">
<path d="M159.557 66.7969C159.557 67.349 160.005 67.7917 160.552 67.7917C161.104 67.7917 161.552 67.3437 161.552 66.7969C161.552 66.2448 161.104 65.7969 160.552 65.7969C160.005 65.7969 159.557 66.2448 159.557 66.7969Z" fill="#9C6991"/>
</g>
</g>
</g>
<mask id="mask36_99_196" style="mask-type:luminance" maskUnits="userSpaceOnUse" x="115" y="48" width="35" height="23">
<path d="M115.333 48H150V70.6667H115.333V48Z" fill="white"/>
</mask>
<g mask="url(#mask36_99_196)">
<mask id="mask37_99_196" style="mask-type:luminance" maskUnits="userSpaceOnUse" x="3" y="-66" width="218" height="217">
<path d="M108.625 -65.4585L220.349 46.2655L115.698 150.917L3.97388 39.1926L108.625 -65.4585Z" fill="white"/>
</mask>
<g mask="url(#mask37_99_196)">
<mask id="mask38_99_196" style="mask-type:luminance" maskUnits="userSpaceOnUse" x="3" y="-66" width="218" height="217">
<path d="M108.625 -65.4585L220.349 46.2655L115.698 150.917L3.97388 39.1926L108.625 -65.4585Z" fill="white"/>
</mask>
<g mask="url(#mask38_99_196)">
<path d="M148.687 49.3071L116.214 69.8123L149.536 50.7134L148.687 49.3071Z" fill="#80447D"/>
</g>
</g>
</g>
<mask id="mask39_99_196" style="mask-type:luminance" maskUnits="userSpaceOnUse" x="111" y="50" width="30" height="21">
<path d="M111.333 50.6665H140.667V70.6665H111.333V50.6665Z" fill="white"/>
</mask>
<g mask="url(#mask39_99_196)">
<mask id="mask40_99_196" style="mask-type:luminance" maskUnits="userSpaceOnUse" x="3" y="-66" width="218" height="217">
<path d="M108.625 -65.4585L220.349 46.2655L115.698 150.917L3.97388 39.1926L108.625 -65.4585Z" fill="white"/>
</mask>
<g mask="url(#mask40_99_196)">
<mask id="mask41_99_196" style="mask-type:luminance" maskUnits="userSpaceOnUse" x="3" y="-66" width="218" height="217">
<path d="M108.625 -65.4585L220.349 46.2655L115.698 150.917L3.97388 39.1926L108.625 -65.4585Z" fill="white"/>
</mask>
<g mask="url(#mask41_99_196)">
<path d="M140.552 51.4426C140.552 51.4426 140.005 51.4791 139.073 51.6458C138.141 51.8228 136.797 52.0676 135.229 52.5103C133.656 52.953 131.839 53.5364 129.953 54.3437C128.057 55.1093 126.109 56.1249 124.219 57.2343C123.312 57.8489 122.354 58.3905 121.505 59.0572C120.635 59.7083 119.781 60.3385 119.031 61.0468C118.26 61.7395 117.516 62.3958 116.906 63.1197C116.281 63.828 115.641 64.4478 115.187 65.1405C114.698 65.8072 114.271 66.427 113.901 66.9791C113.552 67.5468 113.297 68.0676 113.062 68.4843C112.615 69.328 112.385 69.8124 112.385 69.8124C112.385 69.8124 112.745 69.3958 113.333 68.6614C113.625 68.2916 113.964 67.8333 114.385 67.3437C114.849 66.8749 115.359 66.3489 115.896 65.7603C116.411 65.151 117.115 64.6301 117.76 63.9947C118.406 63.3541 119.193 62.7916 119.958 62.1614C120.703 61.5051 121.589 60.9739 122.422 60.3489C123.25 59.7239 124.187 59.2135 125.073 58.6353C125.974 58.0833 126.901 57.5624 127.812 57.0572C128.755 56.6041 129.635 56.0572 130.547 55.6562C132.339 54.7655 134.057 54.026 135.531 53.3958C137.021 52.7864 138.26 52.2603 139.156 51.953C140.042 51.6301 140.552 51.4426 140.552 51.4426Z" fill="#80447D"/>
</g>
</g>
</g>
<mask id="mask42_99_196" style="mask-type:luminance" maskUnits="userSpaceOnUse" x="118" y="57" width="26" height="18">
<path d="M118 57.3335H143.333V74.6668H118V57.3335Z" fill="white"/>
</mask>
<g mask="url(#mask42_99_196)">
<mask id="mask43_99_196" style="mask-type:luminance" maskUnits="userSpaceOnUse" x="3" y="-66" width="218" height="217">
<path d="M108.625 -65.4583L220.349 46.2657L115.698 150.917L3.97388 39.1928L108.625 -65.4583Z" fill="white"/>
</mask>
<g mask="url(#mask43_99_196)">
<mask id="mask44_99_196" style="mask-type:luminance" maskUnits="userSpaceOnUse" x="3" y="-66" width="218" height="217">
<path d="M108.625 -65.4583L220.349 46.2657L115.698 150.917L3.97388 39.1928L108.625 -65.4583Z" fill="white"/>
</mask>
<g mask="url(#mask44_99_196)">
<path d="M143.01 58.2761C143.01 58.2761 142.687 58.6095 142.115 59.198C141.547 59.7813 140.693 60.5678 139.661 61.4897C138.635 62.4167 137.396 63.4428 136.047 64.5001C134.667 65.5261 133.214 66.6355 131.651 67.5782C130.13 68.5886 128.526 69.4636 127.005 70.2553C126.255 70.672 125.49 70.9792 124.781 71.3282C124.068 71.6772 123.38 71.9532 122.74 72.2136C122.094 72.4584 121.521 72.7449 120.99 72.9324C120.453 73.1199 119.99 73.2865 119.604 73.4167C118.839 73.698 118.401 73.8803 118.401 73.8803C118.401 73.8803 118.865 73.8386 119.682 73.7292C120.49 73.6147 121.672 73.4897 123.031 73.1095C123.724 72.9428 124.469 72.7605 125.229 72.4688C125.99 72.1876 126.823 71.9532 127.62 71.5626C128.422 71.1772 129.292 70.8647 130.089 70.3803C130.906 69.9272 131.745 69.4897 132.536 68.9636C133.333 68.4532 134.115 67.9115 134.849 67.3438C135.615 66.8074 136.286 66.172 136.969 65.6095C138.286 64.422 139.437 63.2345 140.333 62.1407C141.255 61.0678 141.901 60.073 142.359 59.3959C142.807 58.7032 143.01 58.2761 143.01 58.2761Z" fill="#80447D"/>
</g>
</g>
</g>
<mask id="mask45_99_196" style="mask-type:luminance" maskUnits="userSpaceOnUse" x="94" y="4" width="58" height="11">
<path d="M94 4H151.333V14.6667H94V4Z" fill="white"/>
</mask>
<g mask="url(#mask45_99_196)">
<mask id="mask46_99_196" style="mask-type:luminance" maskUnits="userSpaceOnUse" x="3" y="-66" width="218" height="217">
<path d="M108.625 -65.4585L220.349 46.2655L115.698 150.917L3.97388 39.1926L108.625 -65.4585Z" fill="white"/>
</mask>
<g mask="url(#mask46_99_196)">
<mask id="mask47_99_196" style="mask-type:luminance" maskUnits="userSpaceOnUse" x="3" y="-66" width="218" height="217">
<path d="M108.625 -65.4585L220.349 46.2655L115.698 150.917L3.97388 39.1926L108.625 -65.4585Z" fill="white"/>
</mask>
<g mask="url(#mask47_99_196)">
<path d="M151.016 11.9998C151.016 11.9998 147.62 10.7029 142.422 9.33833C139.823 8.66646 136.776 7.93208 133.479 7.30708C131.833 6.96854 130.125 6.68208 128.385 6.40083C126.656 6.08833 124.875 5.89563 123.109 5.63521C121.333 5.40604 119.557 5.24458 117.807 5.04667C116.057 4.91125 114.333 4.77583 112.661 4.64563C110.99 4.5675 109.375 4.48938 107.844 4.42167C106.313 4.32792 104.859 4.36438 103.526 4.33833C102.188 4.33833 100.958 4.28625 99.875 4.33833C98.7865 4.36438 97.8385 4.39042 97.0625 4.41125C95.5 4.45292 94.6094 4.47896 94.6094 4.47896C94.6094 4.47896 95.5 4.47896 97.0625 4.47896C97.8385 4.48417 98.7865 4.48417 99.875 4.48938C100.958 4.46854 102.182 4.55708 103.516 4.59354C104.854 4.65604 106.302 4.66646 107.823 4.80188C109.349 4.91125 110.958 5.03625 112.625 5.16125C114.281 5.33833 115.995 5.52063 117.74 5.70813C119.469 5.95813 121.24 6.16646 122.995 6.44771C124.745 6.755 126.505 6.99979 128.219 7.35917C129.938 7.6925 131.625 8.02062 133.245 8.40604C136.5 9.11958 139.495 9.93208 142.052 10.6717C147.167 12.1717 150.406 13.5206 150.406 13.5206L151.016 11.9998Z" fill="#80447D"/>
</g>
</g>
</g>
<mask id="mask48_99_196" style="mask-type:luminance" maskUnits="userSpaceOnUse" x="94" y="6" width="46" height="10">
<path d="M94 6.6665H139.333V15.9998H94V6.6665Z" fill="white"/>
</mask>
<g mask="url(#mask48_99_196)">
<mask id="mask49_99_196" style="mask-type:luminance" maskUnits="userSpaceOnUse" x="3" y="-66" width="218" height="217">
<path d="M108.625 -65.4585L220.349 46.2655L115.698 150.917L3.97388 39.1926L108.625 -65.4585Z" fill="white"/>
</mask>
<g mask="url(#mask49_99_196)">
<mask id="mask50_99_196" style="mask-type:luminance" maskUnits="userSpaceOnUse" x="3" y="-66" width="218" height="217">
<path d="M108.625 -65.4585L220.349 46.2655L115.698 150.917L3.97388 39.1926L108.625 -65.4585Z" fill="white"/>
</mask>
<g mask="url(#mask50_99_196)">
<path d="M138.172 14.474C138.172 14.474 138.01 14.3906 137.714 14.2344C137.406 14.0677 136.974 13.8698 136.411 13.6042C135.286 13.099 133.656 12.4427 131.672 11.7604C130.667 11.4583 129.599 11.0729 128.432 10.7812C127.281 10.4531 126.057 10.1458 124.781 9.86979C122.234 9.28646 119.484 8.85417 116.729 8.50521C115.344 8.38021 113.964 8.21875 112.604 8.125C111.24 8.0625 109.896 7.99479 108.599 7.9375C107.297 7.92708 106.042 7.92708 104.854 7.92188C103.661 7.92708 102.536 8.00521 101.505 8.04167C99.4271 8.09375 97.7083 8.3125 96.5052 8.40625C95.2969 8.51562 94.6094 8.57812 94.6094 8.57812C94.6094 8.57812 95.3021 8.54167 96.5104 8.47917C97.7135 8.42708 99.4375 8.27083 101.51 8.29688C102.547 8.30208 103.667 8.26042 104.854 8.30208C106.036 8.34896 107.281 8.40104 108.578 8.45312C109.865 8.5625 111.193 8.67708 112.542 8.79167C113.891 8.93229 115.255 9.14583 116.615 9.31771C119.333 9.76563 122.031 10.2917 124.516 10.9583C125.76 11.276 126.953 11.625 128.073 11.9896C129.203 12.3177 130.24 12.7344 131.208 13.0677C133.12 13.8021 134.677 14.4948 135.734 15.0208C136.255 15.2917 136.677 15.5052 136.938 15.6562C137.208 15.8125 137.349 15.8958 137.349 15.8958L138.172 14.474Z" fill="#80447D"/>
</g>
</g>
</g>
<mask id="mask51_99_196" style="mask-type:luminance" maskUnits="userSpaceOnUse" x="98" y="10" width="32" height="9">
<path d="M98 10.6665H130V18.6665H98V10.6665Z" fill="white"/>
</mask>
<g mask="url(#mask51_99_196)">
<mask id="mask52_99_196" style="mask-type:luminance" maskUnits="userSpaceOnUse" x="3" y="-66" width="218" height="217">
<path d="M108.625 -65.4585L220.349 46.2655L115.698 150.917L3.97388 39.1926L108.625 -65.4585Z" fill="white"/>
</mask>
<g mask="url(#mask52_99_196)">
<mask id="mask53_99_196" style="mask-type:luminance" maskUnits="userSpaceOnUse" x="3" y="-66" width="218" height="217">
<path d="M108.625 -65.4585L220.349 46.2655L115.698 150.917L3.97388 39.1926L108.625 -65.4585Z" fill="white"/>
</mask>
<g mask="url(#mask53_99_196)">
<path d="M129.755 16.276C129.755 16.276 127.844 15.5885 124.958 14.8333C122.068 14.0573 118.172 13.2343 114.24 12.6614C112.276 12.375 110.302 12.1562 108.453 11.9948C106.599 11.8437 104.87 11.7239 103.385 11.6927C101.901 11.625 100.661 11.6354 99.7969 11.6406C98.9323 11.6406 98.4375 11.6406 98.4375 11.6406C98.4375 11.6406 98.9323 11.6666 99.7969 11.7135C100.661 11.75 101.896 11.8073 103.37 11.9479C104.844 12.0573 106.562 12.2656 108.396 12.5104C110.224 12.7656 112.172 13.0833 114.104 13.4739C117.964 14.2395 121.771 15.25 124.568 16.1614C127.38 17.0573 129.156 17.8073 129.156 17.8073L129.755 16.276Z" fill="#80447D"/>
</g>
</g>
</g>
<mask id="mask54_99_196" style="mask-type:luminance" maskUnits="userSpaceOnUse" x="103" y="14" width="19" height="8">
<path d="M103.333 14.6665H122V21.3332H103.333V14.6665Z" fill="white"/>
</mask>
<g mask="url(#mask54_99_196)">
<mask id="mask55_99_196" style="mask-type:luminance" maskUnits="userSpaceOnUse" x="3" y="-66" width="218" height="217">
<path d="M108.625 -65.4585L220.349 46.2655L115.698 150.917L3.97388 39.1926L108.625 -65.4585Z" fill="white"/>
</mask>
<g mask="url(#mask55_99_196)">
<mask id="mask56_99_196" style="mask-type:luminance" maskUnits="userSpaceOnUse" x="3" y="-66" width="218" height="217">
<path d="M108.625 -65.4585L220.349 46.2655L115.698 150.917L3.97388 39.1926L108.625 -65.4585Z" fill="white"/>
</mask>
<g mask="url(#mask56_99_196)">
<path d="M120.859 18.7448C120.859 18.7448 119.823 18.8125 118.208 18.7292C116.604 18.6563 114.458 18.4375 112.349 18C110.234 17.5781 108.161 16.9271 106.656 16.3125C105.896 16.0156 105.276 15.7292 104.854 15.5104C104.427 15.3021 104.182 15.1875 104.182 15.1875C104.182 15.1875 104.411 15.3281 104.823 15.5729C105.224 15.8333 105.812 16.1771 106.547 16.5469C108.005 17.3073 110.036 18.1615 112.146 18.7917C114.255 19.4427 116.432 19.875 118.078 20.1094C119.719 20.3438 120.865 20.3906 120.865 20.3906L120.859 18.7448Z" fill="#80447D"/>
</g>
</g>
</g>
<mask id="mask57_99_196" style="mask-type:luminance" maskUnits="userSpaceOnUse" x="43" y="21" width="38" height="22">
<path d="M43.3333 21.3335H80.6666V42.6668H43.3333V21.3335Z" fill="white"/>
</mask>
<g mask="url(#mask57_99_196)">
<mask id="mask58_99_196" style="mask-type:luminance" maskUnits="userSpaceOnUse" x="3" y="-66" width="218" height="217">
<path d="M108.625 -65.4583L220.349 46.2657L115.698 150.917L3.97388 39.1928L108.625 -65.4583Z" fill="white"/>
</mask>
<g mask="url(#mask58_99_196)">
<mask id="mask59_99_196" style="mask-type:luminance" maskUnits="userSpaceOnUse" x="3" y="-66" width="218" height="217">
<path d="M108.625 -65.4583L220.349 46.2657L115.698 150.917L3.97388 39.1928L108.625 -65.4583Z" fill="white"/>
</mask>
<g mask="url(#mask59_99_196)">
<path d="M79.9374 40.2085C79.9374 40.2085 77.8749 38.646 74.651 36.5783C71.427 34.5002 67.0312 31.8856 62.4374 29.6408C60.151 28.5158 57.828 27.4481 55.6093 26.5627C54.4999 26.1095 53.427 25.6825 52.3905 25.3283C51.3541 24.9689 50.3905 24.5887 49.4739 24.3283C48.5572 24.047 47.7239 23.7918 46.9791 23.5627C46.2291 23.3752 45.5728 23.2085 45.0312 23.0679C43.953 22.8022 43.3333 22.646 43.3333 22.646C43.3333 22.646 43.9478 22.8231 45.0155 23.1356C45.5468 23.297 46.1926 23.4897 46.9374 23.7085C47.6666 23.9637 48.4895 24.2554 49.3905 24.5679C50.2916 24.8647 51.2395 25.2814 52.2551 25.6825C53.2708 26.0731 54.3228 26.547 55.401 27.0418C57.5728 28.0054 59.8385 29.1616 62.0624 30.37C66.526 32.7762 70.776 35.5418 73.8801 37.7241C76.9947 39.9064 78.927 41.5002 78.927 41.5002L79.9374 40.2085Z" fill="#80447D"/>
</g>
</g>
</g>
<mask id="mask60_99_196" style="mask-type:luminance" maskUnits="userSpaceOnUse" x="46" y="29" width="28" height="16">
<path d="M46 29.3335H74V44.0002H46V29.3335Z" fill="white"/>
</mask>
<g mask="url(#mask60_99_196)">
<mask id="mask61_99_196" style="mask-type:luminance" maskUnits="userSpaceOnUse" x="3" y="-66" width="218" height="217">
<path d="M108.625 -65.4583L220.349 46.2657L115.698 150.917L3.97388 39.1928L108.625 -65.4583Z" fill="white"/>
</mask>
<g mask="url(#mask61_99_196)">
<mask id="mask62_99_196" style="mask-type:luminance" maskUnits="userSpaceOnUse" x="3" y="-66" width="218" height="217">
<path d="M108.625 -65.4583L220.349 46.2657L115.698 150.917L3.97388 39.1928L108.625 -65.4583Z" fill="white"/>
</mask>
<g mask="url(#mask62_99_196)">
<path d="M73.8958 41.6095C73.8958 41.6095 72.1041 41.2084 69.427 40.4063C66.7552 39.6147 63.2135 38.448 59.7708 37.0261C58.052 36.3126 56.3437 35.5678 54.776 34.7917C53.9948 34.4011 53.2343 34.0365 52.5312 33.6459C51.8333 33.2553 51.151 32.922 50.5573 32.547C49.3489 31.8386 48.3593 31.224 47.6875 30.7553C47.0052 30.3022 46.6198 30.0417 46.6198 30.0417C46.6198 30.0417 46.9895 30.3178 47.6458 30.8126C48.2916 31.3178 49.25 31.9897 50.4218 32.7657C51 33.172 51.6614 33.5417 52.3437 33.974C53.026 34.4063 53.7708 34.8178 54.5364 35.2501C56.0677 36.1147 57.7448 36.9636 59.4375 37.7761C62.8281 39.4011 66.3385 40.7709 68.9948 41.724C71.651 42.6772 73.4843 43.198 73.4843 43.198L73.8958 41.6095Z" fill="#80447D"/>
</g>
</g>
</g>
<mask id="mask63_99_196" style="mask-type:luminance" maskUnits="userSpaceOnUse" x="48" y="45" width="32" height="20">
<path d="M48.6667 45.3335H79.3334V64.0002H48.6667V45.3335Z" fill="white"/>
</mask>
<g mask="url(#mask63_99_196)">
<mask id="mask64_99_196" style="mask-type:luminance" maskUnits="userSpaceOnUse" x="3" y="-66" width="218" height="217">
<path d="M108.625 -65.4583L220.349 46.2657L115.698 150.917L3.974 39.1928L108.625 -65.4583Z" fill="white"/>
</mask>
<g mask="url(#mask64_99_196)">
<mask id="mask65_99_196" style="mask-type:luminance" maskUnits="userSpaceOnUse" x="3" y="-66" width="218" height="217">
<path d="M108.625 -65.4583L220.349 46.2657L115.698 150.917L3.974 39.1928L108.625 -65.4583Z" fill="white"/>
</mask>
<g mask="url(#mask65_99_196)">
<path d="M77.0625 45.4219C77.0625 45.4219 77 45.5417 76.8906 45.7604C76.7865 45.9688 76.6094 46.2813 76.375 46.6823C75.8906 47.4687 75.1823 48.6042 74.1719 49.8542C73.6979 50.5052 73.099 51.1354 72.5 51.8385C71.8542 52.4896 71.2031 53.2188 70.4427 53.8802C68.9635 55.2552 67.25 56.5729 65.4167 57.7188C64.5313 58.3385 63.5365 58.7813 62.6146 59.3177C61.6719 59.8125 60.6875 60.1875 59.7656 60.6094C58.8229 61 57.875 61.2656 56.9948 61.5781C56.1198 61.9167 55.2396 62.0417 54.4531 62.2552C53.651 62.4271 52.9323 62.6615 52.2708 62.724C51.6094 62.8177 51.0417 62.901 50.5677 62.9688C49.6198 63.1042 49.0781 63.1823 49.0781 63.1823C49.0781 63.1823 49.625 63.1302 50.5729 63.0365C51.0521 62.9896 51.6302 62.9375 52.2917 62.875C52.9635 62.8385 53.6927 62.6458 54.5052 62.5052C55.3073 62.3333 56.2031 62.2396 57.099 61.9427C58 61.6719 58.974 61.4427 59.9427 61.0938C60.901 60.7083 61.9219 60.375 62.9062 59.9167C63.8646 59.4219 64.9063 59.0156 65.8385 58.4271C67.7604 57.3385 69.5938 56.0729 71.1823 54.724C71.9948 54.0781 72.7031 53.3594 73.4062 52.7135C74.0625 52.0156 74.7135 51.3854 75.2448 50.7344C76.349 49.4844 77.151 48.3281 77.7031 47.5156C77.974 47.1042 78.1823 46.7708 78.3229 46.526C78.4531 46.2969 78.5208 46.1719 78.5208 46.1719L77.0625 45.4219Z" fill="#80447D"/>
</g>
</g>
</g>
<mask id="mask66_99_196" style="mask-type:luminance" maskUnits="userSpaceOnUse" x="39" y="44" width="35" height="22">
<path d="M39.3333 44H73.9999V65.3333H39.3333V44Z" fill="white"/>
</mask>
<g mask="url(#mask66_99_196)">
<mask id="mask67_99_196" style="mask-type:luminance" maskUnits="userSpaceOnUse" x="3" y="-66" width="218" height="217">
<path d="M108.625 -65.4585L220.349 46.2655L115.698 150.917L3.97388 39.1926L108.625 -65.4585Z" fill="white"/>
</mask>
<g mask="url(#mask67_99_196)">
<mask id="mask68_99_196" style="mask-type:luminance" maskUnits="userSpaceOnUse" x="3" y="-66" width="218" height="217">
<path d="M108.625 -65.4585L220.349 46.2655L115.698 150.917L3.97388 39.1926L108.625 -65.4585Z" fill="white"/>
</mask>
<g mask="url(#mask68_99_196)">
<path d="M73.3958 45.0312C73.3958 45.0312 71.151 45.9479 67.8906 47.4688C64.6198 48.9948 60.3177 51.1406 56.1406 53.5156C54.0573 54.7083 52.0052 55.9479 50.1145 57.1771C48.2291 58.401 46.5208 59.6198 45.0729 60.6875C44.3645 61.2448 43.7187 61.7552 43.1458 62.2083C42.5625 62.6458 42.1041 63.099 41.7031 63.4323C40.9166 64.1198 40.4635 64.5156 40.4635 64.5156C40.4635 64.5156 40.9323 64.1406 41.75 63.4844C42.1666 63.1667 42.6354 62.7396 43.2395 62.3281C43.8281 61.901 44.4948 61.4219 45.2239 60.8958C46.7083 59.8958 48.4635 58.7552 50.3906 57.6146C52.3177 56.4792 54.4166 55.3333 56.5364 54.2344C60.7812 52.0573 65.1458 50.1094 68.4479 48.7396C71.7552 47.3646 73.9843 46.5625 73.9843 46.5625L73.3958 45.0312Z" fill="#80447D"/>
</g>
</g>
</g>
<mask id="mask69_99_196" style="mask-type:luminance" maskUnits="userSpaceOnUse" x="54" y="41" width="23" height="10">
<path d="M54 41.3335H76.6667V50.6668H54V41.3335Z" fill="white"/>
</mask>
<g mask="url(#mask69_99_196)">
<mask id="mask70_99_196" style="mask-type:luminance" maskUnits="userSpaceOnUse" x="3" y="-66" width="218" height="217">
<path d="M108.625 -65.4583L220.349 46.2657L115.698 150.917L3.97388 39.1928L108.625 -65.4583Z" fill="white"/>
</mask>
<g mask="url(#mask70_99_196)">
<mask id="mask71_99_196" style="mask-type:luminance" maskUnits="userSpaceOnUse" x="3" y="-66" width="218" height="217">
<path d="M108.625 -65.4583L220.349 46.2657L115.698 150.917L3.97388 39.1928L108.625 -65.4583Z" fill="white"/>
</mask>
<g mask="url(#mask71_99_196)">
<path d="M75.9583 41.6042C75.9583 41.6042 70.4062 43.172 64.9843 45.0886C62.2708 46.0417 59.5833 47.0886 57.6197 47.974C55.651 48.8595 54.4114 49.5886 54.4114 49.5886C54.4114 49.5886 55.6978 48.948 57.7187 48.2136C59.7291 47.4688 62.4687 46.6251 65.2291 45.8751C70.7499 44.3595 76.3437 43.198 76.3437 43.198L75.9583 41.6042Z" fill="#80447D"/>
</g>
</g>
</g>
<mask id="mask72_99_196" style="mask-type:luminance" maskUnits="userSpaceOnUse" x="48" y="37" width="29" height="8">
<path d="M48.6667 37.3335H76.6667V44.0002H48.6667V37.3335Z" fill="white"/>
</mask>
<g mask="url(#mask72_99_196)">
<mask id="mask73_99_196" style="mask-type:luminance" maskUnits="userSpaceOnUse" x="3" y="-66" width="218" height="217">
<path d="M108.625 -65.4583L220.349 46.2657L115.698 150.917L3.974 39.1928L108.625 -65.4583Z" fill="white"/>
</mask>
<g mask="url(#mask73_99_196)">
<mask id="mask74_99_196" style="mask-type:luminance" maskUnits="userSpaceOnUse" x="3" y="-66" width="218" height="217">
<path d="M108.625 -65.4583L220.349 46.2657L115.698 150.917L3.974 39.1928L108.625 -65.4583Z" fill="white"/>
</mask>
<g mask="url(#mask74_99_196)">
<path d="M75.9427 41.6095C75.9427 41.6095 75.8438 41.6356 75.651 41.6877C75.4635 41.7345 75.1875 41.797 74.8333 41.8804C74.1042 42.0262 73.0573 42.2241 71.7708 42.3387C70.4896 42.4585 68.9792 42.547 67.3594 42.4897C66.5469 42.4845 65.7135 42.422 64.8646 42.3491C64.0052 42.3022 63.1563 42.1408 62.2917 42.0366C61.4323 41.9116 60.5833 41.7189 59.7396 41.5627C58.9115 41.3543 58.0938 41.146 57.3021 40.9481C56.5208 40.6981 55.7656 40.4585 55.0521 40.2345C54.3333 40.021 53.6875 39.7137 53.0729 39.4897C52.4687 39.2397 51.8958 39.047 51.4167 38.8022C50.9375 38.5731 50.5156 38.3752 50.1719 38.2137C49.474 37.8856 49.0781 37.6929 49.0781 37.6929C49.0781 37.6929 49.4635 37.9064 50.1354 38.271C50.474 38.4585 50.8854 38.6825 51.3542 38.9377C51.8177 39.2085 52.375 39.4377 52.974 39.7241C53.5729 39.9845 54.2083 40.3335 54.9219 40.5887C55.625 40.8595 56.375 41.146 57.1458 41.4429C57.9375 41.6929 58.75 41.9481 59.5781 42.2137C60.4219 42.4168 61.276 42.6616 62.1406 42.8439C63.0156 43.0002 63.875 43.2137 64.7448 43.3127C65.6094 43.4429 66.4635 43.5522 67.2969 43.6095C68.9583 43.7658 70.526 43.7658 71.8646 43.7189C73.2083 43.6772 74.3281 43.5366 75.1094 43.4272C75.5104 43.3595 75.8229 43.3022 76.0365 43.2658C76.2448 43.2189 76.3594 43.1981 76.3594 43.1981L75.9427 41.6095Z" fill="#80447D"/>
</g>
</g>
</g>
<mask id="mask75_99_196" style="mask-type:luminance" maskUnits="userSpaceOnUse" x="40" y="133" width="147" height="120">
<path d="M40.5886 133.755H186.589V252.755H40.5886V133.755Z" fill="white"/>
</mask>
<g mask="url(#mask75_99_196)">
<mask id="mask76_99_196" style="mask-type:luminance" maskUnits="userSpaceOnUse" x="39" y="133" width="149" height="121">
<path d="M187.333 133.333H39.3334V253.333H187.333V133.333Z" fill="white"/>
</mask>
<g mask="url(#mask76_99_196)">
<path d="M81.7135 208.401C81.5885 207.99 81.2864 207.563 80.7448 207.104C78.8021 205.49 75.9114 204.391 73.7239 203.094C67.7864 199.578 60.7396 196.068 53.8125 195.297C51.0364 194.99 47.8073 195.156 46.0781 197.755C40.9427 205.474 44.0312 236.474 58.1198 231.49C62.3281 230 64.5052 226.182 67.8021 222.636C71.4167 218.75 74.7604 216.49 78.7812 213.287C80.1406 212.203 82.3281 210.412 81.7135 208.401Z" fill="#44B9C5"/>
<path d="M69.7396 220.672C70.75 219.714 71.7552 218.844 72.7709 218.011V218.005C71.7552 218.839 70.75 219.708 69.7396 220.672Z" fill="#E9E9E9"/>
<path d="M69.7396 220.672C70.75 219.708 71.7552 218.839 72.7709 218.005C72.7917 217.896 72.8125 217.781 72.8282 217.661C72.8542 217.526 72.875 217.391 72.9011 217.25C73.0573 216.245 73.1302 215.276 73.1302 214.344C73.1302 213.505 73.0677 212.693 72.9532 211.901C72.75 211.224 72.625 210.589 72.5677 209.979C72.474 209.615 72.3698 209.26 72.2552 208.901C72.2552 208.896 72.2552 208.896 72.25 208.891C71.5886 206.849 70.599 204.932 69.4219 203.036C69.4271 203.036 69.4271 203.042 69.4271 203.047C68.6927 201.854 67.8855 200.677 67.0365 199.474C64.4219 198.214 61.698 197.109 58.9427 196.328C59.5521 196.812 60.1615 197.307 60.7813 197.807C62.2032 198.953 63.5834 200.203 64.8594 201.562C66.5625 202.125 68.2136 203.01 69.1875 204.464C69.2657 204.573 69.1459 204.724 69.0261 204.724C68.9948 204.724 68.9636 204.714 68.9375 204.693C68.0157 203.948 67.0625 203.375 66.0677 202.922C67.8177 204.995 69.2917 207.281 70.2917 209.76C71.3698 212.427 70.9844 215.453 70.5052 218.188C70.349 219.078 70.0834 219.896 69.7396 220.672Z" fill="#3EA9B5"/>
<path d="M53.151 231.734C45.1771 229.313 42.5364 212.729 44.25 203.042C42.5364 212.734 45.1719 229.318 53.151 231.734Z" fill="#D3D2D2"/>
<path d="M55.1771 232.031C56.0938 232.031 57.0729 231.859 58.1042 231.495C57.9427 231.448 57.7865 231.412 57.6302 231.359C51.8698 229.443 48.8438 221.797 47.3021 216.469C45.7188 210.958 45.1823 204.87 48.7552 200.016C50.3333 197.885 52.3906 196.406 54.6927 195.417C54.3958 195.375 54.1042 195.328 53.8125 195.297C53.8021 195.297 53.7969 195.297 53.7865 195.297C53.1771 195.229 52.5417 195.182 51.9115 195.182C51.9115 195.182 51.9115 195.182 51.9063 195.182C49.6771 195.182 47.4323 195.734 46.0885 197.734C46.0833 197.74 46.0781 197.75 46.0781 197.755C45.25 198.995 44.6354 200.839 44.25 203.042C42.5365 212.729 45.1771 229.313 53.151 231.734C53.7917 231.927 54.4688 232.031 55.1771 232.031Z" fill="#3898A3"/>
<path d="M148.292 237.828C130.266 252.792 80.7239 250.573 72.5885 237.375C67.7604 229.542 71.7239 224.807 72.901 217.25C74.0677 209.724 70.5937 204.464 66.4531 198.656C63.0625 193.885 55.8541 187.714 55.1979 182.063C54.25 173.922 62.8802 168.344 68.8906 164.604C76.0521 160.151 83.5625 156.182 90.9531 152.359C96.9948 149.234 104.125 144.031 110.865 142.912C124.729 140.609 146.693 145.151 151.604 160.219L148.292 237.828Z" fill="#44B9C5"/>
<path d="M131.839 245.474C132.141 245.406 132.443 245.333 132.745 245.25C133.776 244.974 137.036 244.057 140.307 242.844C140.026 242.885 139.745 242.922 139.469 242.958C137.099 243.938 134.536 244.776 131.839 245.474Z" fill="#E9E9E9"/>
<path d="M72.25 208.891C71.5937 206.854 70.6042 204.943 69.4271 203.047C69.4271 203.042 69.4271 203.037 69.4219 203.037C70.599 204.932 71.5885 206.849 72.25 208.891Z" fill="#399AA5"/>
<path d="M122.552 246.307C124.042 246.307 125.542 246.255 127.031 246.161C128.656 246.057 130.266 245.839 131.839 245.474C134.536 244.776 137.099 243.938 139.469 242.958C137.13 243.255 134.911 243.443 132.911 243.557C131 243.667 129.042 243.724 127.047 243.724C127.042 243.724 127.042 243.724 127.042 243.724C112.906 243.724 97.1667 240.76 86.901 231.333C86.901 231.328 86.901 231.328 86.901 231.328C86.8542 231.286 86.8073 231.245 86.7604 231.198C86.7396 231.177 86.7135 231.156 86.6927 231.135C81.8854 226.646 78.026 221.724 74.8281 215.99C74.8437 217.198 74.8333 218.417 74.8333 219.667C74.8333 219.854 74.8281 220.036 74.8177 220.224C80.9271 228.068 86.9635 235.344 96.0833 240.13C104.286 244.438 113.37 246.307 122.552 246.307ZM73.2448 205.958C73.8802 204.443 74.9115 202.906 76.1875 201.089L76.2083 201.057C76.2083 201.062 76.2083 201.062 76.2083 201.062C82.5469 192.036 86.6719 181.651 92.625 172.344C101.182 158.964 116.219 145.531 131.391 145.531C133.552 145.531 135.719 145.807 137.865 146.391C134.661 144.906 131.677 144.25 128.667 144.25C125.365 144.25 122.036 145.042 118.37 146.396C98.276 153.823 88.0052 172.745 80.849 188.635C80.2813 189.896 74.125 198.323 71.0781 201.693C71.9271 203.036 72.6667 204.448 73.2448 205.958Z" fill="#3EA9B5"/>
<path d="M108.615 248.182C105.214 247.615 101.896 247.141 98.3646 247.063C94.4271 246.974 90.5417 245.432 86.9583 243.927C81.0156 241.438 73.7656 236.953 73.4792 229.693C73.3542 226.5 74.6719 223.443 74.8177 220.224C74.1563 219.375 73.4948 218.521 72.8281 217.662C72.0417 222.302 70.25 225.885 70.25 229.849C70.25 232.141 70.849 234.557 72.5885 237.375C73.6615 239.115 75.4531 240.667 77.8021 242.01C77.8073 242.01 77.8073 242.016 77.8073 242.016C84.7135 245.969 96.401 248.141 108.615 248.182ZM72.901 217.25C73.1979 215.339 73.1927 213.568 72.9531 211.901C73.0677 212.693 73.1302 213.505 73.1302 214.344C73.1302 215.276 73.0573 216.245 72.901 217.25Z" fill="#3898A3"/>
<path d="M74.8177 220.224C74.8281 220.037 74.8333 219.854 74.8333 219.667C74.8333 218.417 74.8437 217.198 74.8281 215.99C74.6302 215.641 74.4375 215.281 74.2448 214.922C73.6563 213.823 73.2344 212.828 72.9531 211.901C73.1927 213.568 73.1979 215.339 72.901 217.25C72.875 217.391 72.8542 217.526 72.8281 217.662C73.4948 218.521 74.1563 219.375 74.8177 220.224Z" fill="#338B96"/>
<path d="M69.5052 203.078C69.7344 203.078 70.3073 202.547 71.0781 201.693C67.974 196.75 63.4323 192.688 60.3594 187.787C56.1302 181.042 62.7969 173.037 67.4375 168.693C73.2031 163.297 80.4375 160.026 87.2448 156.193C94.401 152.167 101.182 147.526 108.344 143.505C102.37 145.292 96.2448 149.62 90.9531 152.36C83.5625 156.182 76.0521 160.151 68.8906 164.604C63.1823 168.151 55.1198 173.365 55.125 180.839C55.125 181.24 55.151 181.646 55.1979 182.063C55.8542 187.714 63.0625 193.886 66.4531 198.656C67.5104 200.136 68.526 201.589 69.4271 203.047C69.4479 203.068 69.474 203.078 69.5052 203.078Z" fill="#3898A3"/>
<path d="M72.5677 209.979C72.5469 209.729 72.5365 209.485 72.5365 209.245C72.5365 208.099 72.7917 207.031 73.2448 205.958C72.6667 204.448 71.9271 203.037 71.0782 201.693C70.3073 202.547 69.7344 203.078 69.5052 203.078C69.474 203.078 69.448 203.068 69.4271 203.047C70.6042 204.943 71.5938 206.854 72.25 208.891C72.2552 208.896 72.2552 208.896 72.2552 208.901C72.3698 209.261 72.474 209.615 72.5677 209.979Z" fill="#338B96"/>
<path d="M185.333 207.271C185.391 207.125 185.443 206.979 185.474 206.844C186.896 200.912 181.177 202.375 176.943 199.557C172.87 196.844 168.401 191.219 166.109 186.906C160.333 176.047 159.724 163.406 150.849 154.37C130.615 133.771 104.922 153.115 92.625 172.344C86.6667 181.662 82.5365 192.057 76.1875 201.089C72.7031 206.042 71.0417 208.927 74.2448 214.922C77.5521 221.115 81.5938 226.37 86.6927 231.135C98.3854 242.068 117.375 244.438 132.911 243.557C144.406 242.906 163.292 239.672 169.359 228.583C171.604 224.474 174.01 220.25 176.771 216.469C178.458 214.151 184.193 210.005 185.333 207.271Z" fill="#358A99"/>
<path d="M127.042 243.724C112.911 243.724 97.1614 240.761 86.901 231.333C97.1666 240.761 112.906 243.724 127.042 243.724Z" fill="#338B96"/>
<path d="M76.1875 201.089C76.1979 201.078 76.2031 201.073 76.2083 201.063C76.2083 201.063 76.2083 201.063 76.2083 201.057L76.1875 201.089Z" fill="#338B96"/>
<path d="M127.047 243.724C129.037 243.724 131 243.667 132.911 243.557C144.229 242.917 162.703 239.771 169.063 229.094C167.646 231.469 165.625 233.469 163.224 235.151C161.526 234.615 159.88 233.927 158.313 233.094C158.073 232.969 157.833 232.839 157.599 232.703C156.016 233.823 154.344 234.812 152.594 235.599C152.786 235.792 152.974 235.99 153.167 236.188C153.37 236.406 153.167 236.755 152.917 236.755C152.859 236.755 152.802 236.734 152.745 236.693C152.422 236.448 152.099 236.198 151.771 235.948C150.448 236.484 149.078 236.901 147.661 237.172C147.615 237.229 147.547 237.276 147.474 237.276C147.427 237.276 147.38 237.26 147.333 237.229C143.74 237.844 140.37 238.344 137.198 238.729C137.172 238.828 137.099 238.911 136.984 238.911C136.974 238.911 136.964 238.911 136.953 238.911C136.755 238.885 136.557 238.859 136.365 238.828C132.786 239.245 129.458 239.505 126.349 239.599C127.25 239.891 128.162 240.161 129.068 240.427C129.521 240.557 129.401 241.255 128.948 241.255C128.943 241.255 128.932 241.25 128.922 241.25C126.573 241.104 124.172 240.531 121.87 239.615C118.656 239.536 115.688 239.245 112.906 238.734C114.281 239.307 115.703 239.818 117.135 240.286C117.391 240.37 117.333 240.781 117.073 240.781C117.063 240.781 117.052 240.781 117.047 240.781C113.615 240.458 110.339 239.26 107.51 237.391C104.667 236.474 102.016 235.271 99.4896 233.76C100.995 235.411 102.719 236.901 104.094 238.609C104.188 238.724 104.094 238.854 103.984 238.854C103.948 238.854 103.906 238.844 103.875 238.812C101.531 236.708 99.1094 234.776 97.1719 232.271C94.9636 230.74 92.8282 228.953 90.7292 226.901C91.4323 228 92.2709 229.078 93.2813 230.177C93.4115 230.313 93.2344 230.521 93.0625 230.521C93.0209 230.521 92.9792 230.51 92.9427 230.484C90.8021 228.969 89.2813 226.802 88.2344 224.333C87.1198 223.115 86 221.823 84.875 220.443C83.8438 219.177 82.8386 217.974 81.8959 216.714C82.0782 218.161 82.4115 219.635 82.8959 221.161C82.9271 221.271 82.8386 221.339 82.75 221.339C82.698 221.339 82.6459 221.318 82.6198 221.266C81.573 219.318 81.0625 217.328 80.9063 215.318C79.3646 213.042 78.0677 210.484 77.1875 207.057C76.698 209.724 76.9375 212.318 77.6355 215.214C77.6667 215.349 77.5625 215.432 77.4532 215.432C77.3802 215.432 77.3073 215.396 77.2657 215.328C75.5313 212.281 75.6563 208.75 76.8542 205.589C76.573 204.224 76.3542 202.724 76.2084 201.062C76.2032 201.073 76.198 201.078 76.1875 201.089C74.0052 204.193 72.5365 206.49 72.5365 209.245C72.5365 210.078 72.6667 210.948 72.9532 211.901C73.2344 212.828 73.6563 213.823 74.2448 214.922C74.4375 215.281 74.6302 215.641 74.8282 215.99C78.0261 221.724 81.8855 226.646 86.6927 231.135C86.7136 231.156 86.7396 231.177 86.7605 231.198C86.8073 231.245 86.8542 231.286 86.9011 231.328C86.9011 231.328 86.9011 231.328 86.9011 231.333C97.1615 240.76 112.911 243.724 127.042 243.724C127.042 243.724 127.042 243.724 127.047 243.724Z" fill="#2B727E"/>
<path d="M168.74 191.094C167.833 189.833 167.026 188.568 166.37 187.385C167.026 188.568 167.833 189.833 168.734 191.094C168.74 191.094 168.74 191.094 168.74 191.094Z" fill="#D3D2D2"/>
<path d="M166.094 186.88C166.094 186.88 166.094 186.88 166.094 186.875V186.88ZM165.359 185.438C165.359 185.438 165.359 185.432 165.359 185.427C165.359 185.432 165.359 185.432 165.359 185.438Z" fill="#2B727E"/>
<path d="M165.328 185.365C160.26 174.87 159.307 162.979 150.849 154.37C150.156 153.661 149.453 153 148.745 152.38C148.74 152.38 148.734 152.375 148.729 152.37C143.901 148.182 138.812 146.115 133.703 145.641C134.021 145.922 141.51 150.578 147.146 157.078C147.266 157.078 147.38 157.073 147.505 157.073C149.531 157.073 151.984 157.292 153.974 158.146C159.651 166.26 160.964 176.328 165.328 185.365Z" fill="#2B727E"/>
<path d="M157.599 232.703C159.375 231.448 161.047 230.031 162.604 228.562C165.755 225.594 168.271 221.901 171.213 218.688C174.354 215.25 178.328 212.948 181.854 209.964C183.219 208.807 184.505 207.208 185.656 205.833C185.62 206.141 185.562 206.479 185.474 206.844C185.625 206.214 185.698 205.661 185.698 205.188C185.698 201.172 180.729 202.073 176.943 199.557C174.109 197.672 171.088 194.375 168.734 191.094C168.588 191.047 164.323 189.833 158.068 174.531C155.703 168.75 152.88 165.427 150.38 161.411C149.443 159.901 148.333 158.448 147.146 157.078C147 157.083 146.854 157.083 146.708 157.089C142.474 157.203 139.911 160.318 139.255 164.276C138.484 168.901 139.25 173.667 140.323 178.182C140.969 180.917 141.885 183.557 142.391 186.323C143.146 190.49 143.109 194.807 142.953 199.021C142.687 206.161 142.198 212.948 145.198 219.646C147.75 225.344 152.245 229.693 157.599 232.703ZM164.792 199.833C166.552 207.573 166.391 210.323 165.245 212.115C164.266 213.651 162.99 214.271 161.568 214.271C156.776 214.271 150.307 207.271 147.812 204.75C144.49 201.401 144.203 198.104 146.38 193.891C148.156 190.448 150.922 185.964 154.073 183.573C155.333 182.62 156.38 182.156 157.286 182.156C159.312 182.156 160.609 184.464 161.911 188.677C165.021 189.12 167.344 191.891 167.208 195.13C167.125 197.062 166.193 198.745 164.792 199.833Z" fill="#3F91A0"/>
<path d="M163.224 235.151C165.625 233.469 167.646 231.469 169.063 229.094C169.167 228.927 169.26 228.755 169.359 228.583C171.604 224.474 174.01 220.25 176.771 216.469C178.458 214.151 184.193 210.005 185.333 207.271C185.391 207.125 185.443 206.979 185.474 206.844C185.563 206.479 185.62 206.141 185.656 205.833C184.505 207.208 183.219 208.807 181.854 209.964C178.328 212.948 174.354 215.25 171.214 218.688C168.271 221.901 165.755 225.594 162.604 228.563C161.047 230.031 159.375 231.448 157.599 232.703C157.833 232.839 158.073 232.969 158.313 233.094C159.88 233.927 161.526 234.615 163.224 235.151Z" fill="#357A86"/>
<path d="M165.385 185.49C165.385 185.479 165.38 185.469 165.375 185.464C165.38 185.474 165.385 185.479 165.385 185.49Z" fill="white"/>
<path d="M168.734 191.094C167.833 189.833 167.026 188.568 166.37 187.386C166.281 187.224 166.193 187.063 166.109 186.906C166.104 186.896 166.099 186.886 166.094 186.88V186.875C166.089 186.87 166.083 186.859 166.078 186.849C165.839 186.401 165.609 185.943 165.391 185.49C165.391 185.49 165.391 185.49 165.385 185.49C165.385 185.479 165.38 185.474 165.375 185.464C165.375 185.458 165.375 185.458 165.37 185.458C165.37 185.453 165.365 185.443 165.359 185.438C165.359 185.432 165.359 185.432 165.359 185.427C165.354 185.422 165.354 185.417 165.349 185.412C165.349 185.406 165.349 185.406 165.344 185.401C165.344 185.396 165.339 185.391 165.339 185.386C165.333 185.38 165.333 185.375 165.328 185.37C165.328 185.365 165.328 185.365 165.328 185.365C160.964 176.328 159.651 166.26 153.974 158.146C151.984 157.292 149.531 157.073 147.505 157.073C147.38 157.073 147.266 157.078 147.146 157.078C148.333 158.448 149.443 159.901 150.38 161.412C152.88 165.427 155.703 168.75 158.068 174.531C164.323 189.833 168.589 191.047 168.734 191.094Z" fill="#357A86"/>
<path d="M146.38 193.891C148.156 190.448 150.922 185.964 154.073 183.573C159.651 179.349 161.099 184.818 164.094 196.906C166.578 206.917 166.521 210.115 165.245 212.115C160.964 218.818 151.052 208.021 147.813 204.75C144.49 201.401 144.203 198.104 146.38 193.891Z" fill="#266470"/>
<path d="M66.0676 202.922C65.677 202.458 65.276 202.005 64.8593 201.562C64.1093 201.312 63.3489 201.125 62.6301 200.979C59.7812 200.396 56.5937 199.703 53.6197 199.703C53.2395 199.703 52.8645 199.714 52.4947 199.74C52.2812 199.75 52.2083 200.042 52.427 200.12C52.9739 200.318 53.5364 200.469 54.1145 200.594C54.427 200.557 54.7447 200.536 55.0676 200.536C56.1979 200.536 57.3801 200.766 58.552 201.182C59.4687 201.271 60.3801 201.37 61.2604 201.526C62.9843 201.828 64.5729 202.24 66.0676 202.922Z" fill="#82D1DC"/>
<path d="M69.026 204.724C69.1458 204.724 69.2656 204.573 69.1875 204.464C68.2135 203.01 66.5625 202.125 64.8594 201.562C65.276 202.005 65.6771 202.458 66.0677 202.922C67.0625 203.375 68.0156 203.948 68.9375 204.693C68.9635 204.714 68.9948 204.724 69.026 204.724Z" fill="#7DC8D2"/>
<path d="M67.875 206.985C67.9791 206.985 68.0416 206.844 67.9427 206.781C66.9635 206.177 65.901 205.662 64.7916 205.24C65.1666 205.62 65.526 206.016 65.8541 206.417C66.5104 206.62 67.1718 206.813 67.8437 206.979C67.8541 206.985 67.8645 206.985 67.875 206.985Z" fill="#82D1DC"/>
<path d="M67.5938 209.104C68.0209 209.078 68.4427 209.037 68.8646 208.974C68.9427 208.964 68.9427 208.844 68.8698 208.823C68.3542 208.698 67.823 208.599 67.2865 208.51C67.3959 208.708 67.4948 208.906 67.5938 209.104Z" fill="#82D1DC"/>
<path d="M48.4375 219.214C48.4479 219.214 48.4584 219.214 48.474 219.208C49.1511 218.995 49.8125 218.735 50.4584 218.438C50.375 218.188 50.2917 217.938 50.2136 217.688C49.5782 218.099 48.9532 218.526 48.3438 218.964C48.2344 219.037 48.3229 219.214 48.4375 219.214ZM68.25 210.833C68.4532 210.74 68.6459 210.636 68.8386 210.516C68.9323 210.458 68.8959 210.302 68.7865 210.302C68.7761 210.302 68.7657 210.307 68.7604 210.307C68.5521 210.354 68.3438 210.406 68.1354 210.448C68.1771 210.578 68.2136 210.703 68.25 210.833Z" fill="#82D1DC"/>
<path d="M68.526 213.057C68.6614 212.984 68.802 212.922 68.9427 212.854C69.0625 212.797 69.0052 212.604 68.8906 212.604C68.8802 212.604 68.8645 212.604 68.8541 212.609C68.7448 212.646 68.6354 212.682 68.5312 212.719C68.5312 212.828 68.5312 212.943 68.526 213.057Z" fill="#82D1DC"/>
<path d="M56.7135 227.396C56.7292 227.396 56.7448 227.396 56.7656 227.391C60.1354 226.339 63.1979 223.833 65.7031 221.401C68.0989 219.083 69.5989 216.599 70.9531 213.568C70.9739 213.521 70.9271 213.49 70.8906 213.49C70.8698 213.49 70.8489 213.5 70.8385 213.516C68.9271 216.281 67.2812 218.964 64.7552 221.24C64.3125 221.641 63.8594 222.021 63.3958 222.391C61.8594 224.573 59.9375 226.485 57.6823 226.485C57.6354 226.485 57.5937 226.485 57.5469 226.479C57.25 226.677 56.9479 226.88 56.651 227.083C56.5208 227.172 56.5625 227.396 56.7135 227.396Z" fill="#82D1DC"/>
<path d="M164.792 199.833C166.193 198.745 167.125 197.063 167.208 195.13C167.344 191.891 165.021 189.12 161.911 188.677C162.604 190.906 163.292 193.667 164.094 196.906C164.354 197.953 164.589 198.927 164.792 199.833Z" fill="#3F868C"/>
<path d="M161.042 201.125C162.443 201.125 163.75 200.646 164.792 199.833C164.589 198.927 164.354 197.953 164.094 196.906C163.292 193.667 162.604 190.906 161.911 188.677C161.714 188.651 161.51 188.63 161.307 188.62C161.219 188.62 161.13 188.615 161.042 188.615C157.755 188.615 155.021 191.245 154.875 194.604C154.729 198.057 157.37 200.969 160.776 201.12C160.865 201.12 160.953 201.125 161.042 201.125Z" fill="#275D62"/>
<path d="M155.568 194.365C155.427 197.667 157.979 200.458 161.276 200.599C164.568 200.745 167.349 198.177 167.49 194.875C167.63 191.573 165.078 188.781 161.786 188.641C158.49 188.5 155.708 191.063 155.568 194.365Z" fill="white"/>
<path d="M159.651 195.62C159.583 197.229 160.828 198.589 162.432 198.656C164.036 198.724 165.391 197.479 165.458 195.87C165.531 194.26 164.286 192.901 162.682 192.833C161.078 192.76 159.719 194.01 159.651 195.62Z" fill="#231F20"/>
<path d="M159.24 194.922C159.219 195.432 159.615 195.87 160.13 195.896C160.646 195.917 161.078 195.516 161.099 195C161.12 194.484 160.724 194.047 160.208 194.021C159.693 194 159.26 194.401 159.24 194.922Z" fill="white"/>
<path d="M161.052 192.959C161.042 193.266 161.271 193.516 161.578 193.531C161.88 193.542 162.135 193.313 162.146 193.005C162.156 192.703 161.927 192.448 161.625 192.432C161.318 192.422 161.063 192.656 161.052 192.959Z" fill="white"/>
<path d="M151.771 235.948C152.047 235.839 152.318 235.719 152.594 235.599C147.495 230.375 141.62 225.615 139.271 218.396C136.703 210.51 138.677 202.333 138.411 194.255C138.12 185.37 135.797 176.714 135.474 167.828C135.271 162.516 134.995 154.698 141.26 152.849C141.339 152.828 141.312 152.729 141.245 152.729C141.245 152.729 141.24 152.729 141.234 152.734C135.646 153.432 134.88 160.26 134.635 164.787C134.115 174.38 136.703 183.537 137.052 193.073C137.193 196.995 136.849 200.979 136.703 204.943C136.979 205.214 137.141 205.469 137.214 205.719C137.448 206.49 137.135 207.208 136.641 207.844C136.625 211.807 136.979 215.734 138.38 219.542C140.839 226.219 146.229 231.635 151.771 235.948Z" fill="#2B727E"/>
<path d="M152.917 236.755C153.167 236.755 153.37 236.406 153.167 236.188C152.974 235.99 152.787 235.792 152.594 235.599C152.318 235.719 152.047 235.839 151.771 235.948C152.099 236.198 152.422 236.448 152.745 236.693C152.802 236.735 152.859 236.755 152.917 236.755Z" fill="#245D68"/>
<path d="M147.333 237.229C147.443 237.208 147.552 237.193 147.662 237.172C147.719 237.078 147.734 236.948 147.656 236.844C142.755 230.375 133.573 226.38 131.927 217.682C131.583 215.865 131.427 214.031 131.401 212.188C130.922 212.563 130.458 212.943 129.99 213.339C130.063 215.49 130.344 217.63 131.073 219.61C132.396 223.203 134.948 226.365 137.724 228.964C140.76 231.807 143.88 234.896 147.333 237.229ZM132.083 202.224C132.354 199.813 132.641 197.412 132.797 195.037C133.089 190.526 133.156 185.828 132.026 181.412C130.974 177.297 129.74 173.182 129.75 168.891C129.771 164.807 130.677 161.24 132.557 157.636C133.953 154.974 135.604 151.542 138.547 150.354C138.755 150.271 138.656 149.927 138.453 149.927C138.432 149.927 138.412 149.932 138.391 149.938C135.75 150.86 134.057 153.672 132.771 155.995C131.203 158.823 129.734 161.682 129.271 164.927C128.651 169.292 129.026 173.386 130.037 177.656C131.302 183.016 131.839 188.323 131.443 193.828C131.255 196.37 130.984 198.912 130.724 201.448C130.912 201.557 131.099 201.667 131.287 201.781C131.537 201.927 131.807 202.078 132.083 202.224Z" fill="#2B727E"/>
<path d="M147.474 237.276C147.547 237.276 147.615 237.229 147.661 237.172C147.552 237.193 147.443 237.208 147.333 237.229C147.38 237.26 147.427 237.276 147.474 237.276Z" fill="#245D68"/>
<path d="M140.995 237.365C141.146 237.365 141.26 237.162 141.141 237.021C136.719 231.458 127.333 229.807 125.625 222.057C125.359 220.823 125.219 219.573 125.135 218.313C124.682 218.859 124.234 219.396 123.776 219.896C123.938 221.151 124.208 222.365 124.688 223.495C127.604 230.318 135.047 233.469 140.885 237.328C140.922 237.354 140.958 237.365 140.995 237.365ZM124.287 198.172C124.318 197.516 124.349 196.859 124.385 196.193C124.635 191.823 124.552 187.547 124.172 183.193C123.797 178.927 123.224 174.641 123.802 170.359C124.385 166.021 125.755 161.823 127.516 157.823C128.703 155.141 129.641 150.766 132.323 149.24C132.505 149.135 132.432 148.839 132.245 148.839C132.224 148.839 132.203 148.844 132.182 148.849C129.693 149.667 128.932 152.464 128.01 154.662C126.313 158.734 124.318 162.682 123.354 167.026C121.25 176.568 123.651 186.458 123.016 196.13C122.984 196.635 122.953 197.13 122.927 197.625C123.385 197.797 123.833 197.979 124.287 198.172Z" fill="#2B727E"/>
<path d="M136.365 238.828C136.641 238.797 136.922 238.766 137.198 238.729C137.229 238.61 137.182 238.464 137.042 238.417C130.042 236.318 123.766 232.261 120.339 225.583C119.906 224.745 119.521 223.891 119.177 223.026C118.651 223.172 118.151 223.25 117.672 223.261C118.359 225.011 119.214 226.698 120.281 228.276C124.083 233.917 129.63 237.802 136.365 238.828ZM116.74 196.021C116.964 192.026 117.245 188.042 117.333 184.047C117.427 180.104 117.203 176.162 117.333 172.224C117.469 168.063 117.844 163.823 119.125 159.844C120.365 156 122.375 152.938 124.578 149.62C124.635 149.537 124.563 149.443 124.479 149.443C124.453 149.443 124.427 149.453 124.406 149.474C118.432 154.552 116.781 163.854 116.313 171.271C115.995 176.276 116.177 181.297 115.911 186.307C115.745 189.505 115.505 192.708 115.318 195.906C115.688 195.917 116.057 195.943 116.411 195.979C116.438 195.985 116.458 195.985 116.484 195.99C116.49 195.99 116.49 195.99 116.495 195.99C116.552 195.995 116.609 196 116.661 196.011C116.688 196.011 116.714 196.016 116.74 196.021Z" fill="#2B727E"/>
<path d="M136.984 238.912C137.099 238.912 137.172 238.828 137.198 238.729C136.922 238.766 136.641 238.797 136.365 238.828C136.557 238.859 136.755 238.885 136.953 238.912C136.964 238.912 136.974 238.912 136.984 238.912Z" fill="#245D68"/>
<path d="M123.76 239.641C124.604 239.641 125.469 239.625 126.349 239.599C119.833 237.5 113.672 234.479 110.411 227.932C107.719 222.526 108.339 217.005 109.411 211.448C109.224 210.208 109.104 208.948 109.057 207.719C107.406 215.646 105.75 223.333 110.542 230.667C113.12 234.615 117.292 237.797 121.87 239.615C122.49 239.63 123.12 239.641 123.76 239.641ZM110.531 198.177C110.604 198.052 110.677 197.927 110.755 197.813C110.76 197.807 110.766 197.802 110.771 197.792C110.771 197.787 110.771 197.787 110.776 197.781L110.781 197.776C110.786 197.766 110.792 197.755 110.802 197.745C110.802 197.74 110.807 197.74 110.807 197.735C111.042 197.401 111.307 197.125 111.599 196.896C111.771 194.198 111.781 191.485 111.422 188.818C110.786 184.052 109.203 179.235 109.703 174.38C110.51 166.516 113.823 157.948 118.193 151.412C118.224 151.37 118.182 151.318 118.141 151.318C118.13 151.318 118.115 151.323 118.104 151.333C115.385 154.042 113.74 157.464 112.411 161.037C110.974 164.901 109.385 169.156 108.953 173.281C108.422 178.313 109.672 183.042 110.313 187.995C110.745 191.323 110.792 194.771 110.531 198.177Z" fill="#2B727E"/>
<path d="M128.948 241.255C129.401 241.255 129.521 240.557 129.068 240.427C128.161 240.162 127.25 239.891 126.349 239.599C125.469 239.625 124.604 239.641 123.76 239.641C123.12 239.641 122.49 239.63 121.87 239.615C124.172 240.531 126.573 241.104 128.922 241.25C128.932 241.25 128.943 241.255 128.948 241.255Z" fill="#245D68"/>
<path d="M112.906 238.734C107.917 236.656 103.495 233.708 101.203 228.354C98.2552 221.469 99.5469 214.349 101.672 207.438C102.995 203.151 104.547 198.854 105.266 194.406C106.021 189.714 105.802 185.068 105.344 180.359C104.531 172.042 104.443 163.458 109.828 156.49L109.755 156.432C103.75 162.568 103.578 171.224 104.193 179.287C104.661 185.448 105.047 191.359 103.474 197.417C102.188 202.365 100.333 207.156 99.1771 212.13C97.7084 218.464 97.7552 225.63 101.417 231.26C103.01 233.714 105.099 235.797 107.51 237.391C109.229 237.943 111.026 238.391 112.906 238.734Z" fill="#2B727E"/>
<path d="M117.073 240.781C117.333 240.781 117.391 240.37 117.135 240.286C115.703 239.818 114.281 239.307 112.906 238.734C111.026 238.391 109.229 237.943 107.51 237.391C110.339 239.26 113.615 240.458 117.047 240.781C117.052 240.781 117.062 240.781 117.073 240.781Z" fill="#245D68"/>
<path d="M99.4895 233.76C98.6718 232.87 97.9166 231.927 97.3229 230.885C95.6979 228.042 94.5208 224.953 93.9531 221.719C92.7864 214.953 93.3177 208.255 94.8698 201.604C96.3333 195.344 97.75 189.349 98.1198 182.912C98.3125 179.557 98.6666 176.24 99.4375 172.964C100.073 170.266 101.036 167.635 101.521 164.906C101.542 164.76 101.411 164.667 101.281 164.667C101.203 164.667 101.135 164.698 101.094 164.771C97.9635 170.464 97.5156 177.63 97.0312 183.974C96.4948 190.964 94.2656 197.594 93.0573 204.464C91.8958 211.042 91.7083 218.344 93.7083 224.802C94.5052 227.375 95.4791 230.073 97.1354 232.224C97.151 232.24 97.1562 232.255 97.1718 232.271C97.9323 232.797 98.7031 233.292 99.4895 233.76Z" fill="#2B727E"/>
<path d="M103.984 238.854C104.094 238.854 104.188 238.724 104.094 238.61C102.719 236.901 100.995 235.412 99.4896 233.761C98.7031 233.292 97.9323 232.797 97.1719 232.271C99.1094 234.776 101.531 236.708 103.875 238.813C103.906 238.844 103.948 238.854 103.984 238.854Z" fill="#245D68"/>
<path d="M90.7292 226.901C89.1615 224.458 88.2709 221.912 87.7084 218.797C87.0052 214.932 87.0573 210.99 87.724 207.12C89.0886 199.151 93.6875 192.011 92.25 183.74C92.2396 183.677 92.1823 183.646 92.125 183.646C92.0781 183.646 92.0313 183.672 92.0209 183.729C91.5573 186.24 91.9584 188.771 91.3334 191.287C90.7396 193.693 89.8334 195.958 89 198.287C87.5729 202.276 86.5573 206.537 86.2969 210.781C86.0417 214.948 86.4323 220.078 88.2344 224.333C89.0677 225.235 89.8959 226.089 90.7292 226.901Z" fill="#2B727E"/>
<path d="M93.0625 230.521C93.2344 230.521 93.4115 230.313 93.2812 230.177C92.2708 229.078 91.4323 228 90.7292 226.901C89.8958 226.089 89.0677 225.235 88.2344 224.333C89.2813 226.802 90.8021 228.969 92.9427 230.485C92.9792 230.511 93.0208 230.521 93.0625 230.521Z" fill="#245D68"/>
<path d="M81.8958 216.714C81.4427 213.12 81.8645 209.667 82.9166 205.865C84.0052 201.943 85.1458 198.177 84.8177 194.068C84.8125 194.021 84.776 193.995 84.7395 193.995C84.7031 193.995 84.6718 194.016 84.6666 194.063C84.0885 201.01 80.3541 208.318 80.9062 215.318C81.2239 215.792 81.5573 216.255 81.8958 216.714Z" fill="#2B727E"/>
<path d="M82.75 221.339C82.8385 221.339 82.9271 221.271 82.8958 221.162C82.4115 219.636 82.0781 218.162 81.8958 216.714C81.5573 216.255 81.224 215.792 80.9062 215.318C81.0625 217.328 81.5729 219.318 82.6198 221.266C82.6458 221.318 82.6979 221.339 82.75 221.339Z" fill="#245D68"/>
<path d="M77.1875 207.057C77.401 205.912 77.7448 204.755 78.2448 203.557C78.302 203.417 78.1666 203.287 78.0416 203.287C77.9895 203.287 77.9375 203.313 77.901 203.37C77.4948 204.083 77.1406 204.828 76.8541 205.589C76.9583 206.099 77.0677 206.589 77.1875 207.057Z" fill="#2B727E"/>
<path d="M77.4531 215.432C77.5625 215.432 77.6667 215.349 77.6354 215.214C76.9375 212.318 76.6979 209.724 77.1875 207.057C77.0677 206.589 76.9583 206.099 76.8542 205.589C75.6562 208.75 75.5312 212.281 77.2656 215.328C77.3073 215.396 77.3802 215.432 77.4531 215.432Z" fill="#245D68"/>
<path d="M137.214 205.719C137.125 205.411 136.901 205.094 136.495 204.755C135.052 203.552 132.906 202.74 131.286 201.781C126.875 199.167 121.641 196.562 116.495 195.99C114.437 195.76 112.042 195.88 110.755 197.812C106.943 203.547 109.24 226.562 119.693 222.865C122.823 221.755 124.437 218.922 126.885 216.286C129.568 213.401 132.052 211.724 135.042 209.344C136.047 208.542 137.672 207.214 137.214 205.719Z" fill="#44B9C5"/>
<path d="M113.859 221.807C111.505 219.729 110.047 215.688 109.411 211.443C109.411 211.443 109.411 211.443 109.411 211.448C110.047 215.693 111.505 219.729 113.859 221.807ZM109.057 207.719C109.057 207.714 109.057 207.714 109.057 207.714C108.901 203.828 109.411 200.193 110.531 198.177C109.411 200.193 108.896 203.828 109.057 207.719Z" fill="#2B727E"/>
<path d="M109.411 211.448C109.411 211.443 109.411 211.443 109.411 211.443C109.224 210.203 109.104 208.943 109.057 207.714C109.057 207.714 109.057 207.714 109.057 207.719C109.104 208.948 109.224 210.208 109.411 211.448Z" fill="#245D68"/>
<path d="M117.516 223.26C118.198 223.26 118.922 223.135 119.687 222.865C119.568 222.833 119.453 222.802 119.333 222.76C115.057 221.339 112.807 215.667 111.667 211.708C110.49 207.615 110.088 203.094 112.745 199.495C113.911 197.906 115.443 196.812 117.151 196.078C116.99 196.052 116.828 196.031 116.661 196.01C116.609 196 116.552 195.995 116.495 195.99C116.49 195.99 116.49 195.99 116.484 195.99C116.458 195.984 116.437 195.984 116.411 195.979C116.057 195.943 115.687 195.917 115.318 195.906C115.24 195.906 115.161 195.906 115.083 195.906C115.078 195.906 115.078 195.906 115.078 195.906C113.448 195.906 111.812 196.302 110.807 197.734C110.807 197.74 110.802 197.74 110.802 197.745C110.792 197.755 110.786 197.766 110.781 197.776L110.776 197.781C110.771 197.786 110.771 197.786 110.771 197.792C110.766 197.802 110.76 197.807 110.755 197.812C110.677 197.927 110.604 198.052 110.531 198.177C109.411 200.193 108.901 203.828 109.057 207.714C109.104 208.943 109.224 210.203 109.411 211.443C110.047 215.688 111.505 219.729 113.859 221.807C114.901 222.724 116.115 223.26 117.516 223.26Z" fill="#3898A3"/>
<path d="M131.63 205.255C131.734 205.255 131.823 205.109 131.734 205.021C130.771 204.042 129.641 203.344 128.432 202.792C128.578 203.047 128.698 203.302 128.786 203.557C129.76 204 130.693 204.542 131.562 205.229C131.583 205.245 131.609 205.255 131.63 205.255Z" fill="#82D1DC"/>
<path d="M129.443 206.339L129.479 206.266C129.281 206.141 129.073 206.026 128.87 205.917C128.849 205.99 128.833 206.057 128.812 206.125C129.021 206.193 129.234 206.266 129.443 206.339Z" fill="#82D1DC"/>
<path d="M128.156 207.677C128.833 207.531 129.542 207.438 130.286 207.417C130.344 207.412 130.349 207.328 130.286 207.328C129.979 207.297 129.672 207.287 129.365 207.287C129.021 207.287 128.677 207.302 128.333 207.333C128.276 207.448 128.219 207.568 128.156 207.677Z" fill="#82D1DC"/>
<path d="M121.656 216.896C121.677 216.896 121.703 216.891 121.729 216.88C123.536 216.083 125 214.609 126.422 213.281C128.104 211.719 129.771 210.167 131.677 208.865C131.792 208.787 131.734 208.62 131.615 208.62C131.594 208.62 131.573 208.62 131.552 208.635C129.583 209.552 127.938 210.938 126.349 212.401C124.781 213.849 123.115 215.172 121.526 216.589C121.391 216.708 121.505 216.896 121.656 216.896Z" fill="#82D1DC"/>
<path d="M176.214 208.188C176.214 207.771 179.141 208.188 182.755 208.188C183.484 208.188 184.187 208.172 184.844 208.146C184.677 208.396 184.495 208.656 184.281 208.917C183.786 208.932 183.281 208.938 182.755 208.938C179.141 208.938 176.214 208.604 176.214 208.188Z" fill="#266470"/>
<path d="M67.6354 191.932C71.9427 191.932 75.1094 183.562 77.25 180.302C80.2031 175.797 83.6979 171.682 87.0938 167.521C90.1719 163.755 92.7656 159.552 96.9115 156.833C101.057 154.115 104.927 150.865 109.313 148.776C110.094 148.406 113.406 147.714 113.766 147.193C114.599 145.984 113.531 145.609 111.922 145.609C111.682 145.609 111.432 145.62 111.172 145.635C97.7708 146.406 90.3229 159.333 79.099 164.781C71.7188 168.37 55.4375 180.104 63.7656 189.693C65.1458 191.281 66.4375 191.932 67.6354 191.932Z" fill="#50BEC9"/>
<path d="M105.469 246.318C105.474 246.318 105.479 246.318 105.49 246.318C108.099 246.318 107.234 245.443 104.99 244.943C103.318 244.568 99.7605 244.057 96.073 242.688C93.3282 241.667 90.7501 240.37 88.3074 238.755C85.4272 236.854 82.849 234.365 81.0105 231.422C80.4532 230.526 79.9011 229.688 79.4845 228.724C79.3438 228.396 79.172 227.724 78.7397 227.662C78.724 227.662 78.7136 227.662 78.698 227.662C78.2917 227.662 77.5938 228.412 77.5157 228.74C76.9636 231.167 78.3699 233.37 79.6095 235.323C80.6199 236.912 81.974 238.427 83.4167 239.615C86.1772 241.886 89.6095 242.828 92.9636 243.849C97.0261 245.083 101.177 246.318 105.469 246.318Z" fill="#50BEC9"/>
<path d="M118.885 217.99C120.87 217.99 122.672 215.031 123.568 213.698C124.755 211.938 126.948 209.865 128.156 207.677C124.922 208.386 122.333 210.354 119.521 212.229C119.5 212.24 119.484 212.245 119.464 212.245C119.385 212.245 119.333 212.12 119.396 212.052C121.646 209.563 124.948 207.662 128.333 207.333C128.536 206.932 128.698 206.531 128.813 206.125C126.911 205.521 125 205.198 122.99 205.156C122.885 205.156 122.776 205.156 122.672 205.156C121.755 205.156 120.844 205.224 119.932 205.297C119.021 205.37 118.104 205.438 117.188 205.438C117.115 205.438 117.047 205.438 116.974 205.438C116.833 205.438 116.833 205.235 116.958 205.203C118.724 204.807 120.635 204.526 122.536 204.526C124.75 204.526 126.948 204.906 128.87 205.917C129.057 205.136 129.057 204.344 128.786 203.557C124.74 201.714 119.953 201.552 115.859 199.901C115.698 199.833 115.724 199.578 115.911 199.578H115.917C118.984 199.719 122.182 200.708 125.099 201.589C126.24 201.932 127.37 202.302 128.432 202.792C128.177 202.349 127.828 201.912 127.37 201.479C125.625 199.818 121.854 197.505 118.964 197.505C118.453 197.505 117.969 197.578 117.531 197.735L117.411 197.781C112.188 199.927 114.385 209.057 115.417 212.964C115.76 214.25 116.563 216.886 117.734 217.63C118.12 217.88 118.505 217.99 118.885 217.99Z" fill="#50BEC9"/>
<path d="M128.786 203.557C128.698 203.302 128.578 203.047 128.432 202.792C127.37 202.302 126.24 201.932 125.099 201.589C122.182 200.708 118.984 199.719 115.917 199.578H115.911C115.724 199.578 115.698 199.833 115.859 199.901C119.953 201.552 124.74 201.714 128.786 203.557Z" fill="#8CD5DF"/>
<path d="M128.813 206.125C128.833 206.057 128.849 205.99 128.87 205.917C126.948 204.906 124.75 204.526 122.536 204.526C120.635 204.526 118.724 204.807 116.958 205.203C116.833 205.234 116.833 205.438 116.974 205.438C117.047 205.438 117.115 205.438 117.188 205.438C118.104 205.438 119.021 205.37 119.932 205.297C120.844 205.224 121.755 205.156 122.672 205.156C122.776 205.156 122.885 205.156 122.99 205.156C125 205.198 126.911 205.521 128.813 206.125Z" fill="#8CD5DF"/>
<path d="M119.463 212.245C119.484 212.245 119.5 212.24 119.521 212.229C122.333 210.354 124.922 208.386 128.156 207.677C128.219 207.568 128.276 207.448 128.333 207.333C124.948 207.662 121.646 209.563 119.396 212.052C119.333 212.12 119.385 212.245 119.463 212.245Z" fill="#8CD5DF"/>
<path d="M57.5469 226.479C59.5417 225.156 61.5313 223.885 63.3959 222.391C63.4792 222.276 63.5625 222.161 63.6407 222.042C65.5573 219.224 68.0261 217.214 68.4792 213.589C68.5052 213.411 68.5157 213.234 68.5261 213.057C65.9636 214.339 63.7344 216.193 61.6927 218.182C59.6563 220.167 57.974 222.661 55.724 224.401C55.6875 224.432 55.6459 224.443 55.6042 224.443C55.4792 224.443 55.3646 224.313 55.448 224.172C57.0261 221.604 59.3802 219.318 61.5261 217.234C63.5677 215.255 65.8438 213.635 68.5313 212.719C68.5209 212.094 68.4219 211.464 68.25 210.833C67.0157 211.406 65.5677 211.578 64.2709 211.943C62.2344 212.521 60.2292 213.255 58.3073 214.156C55.625 215.411 53.1563 217.208 50.4584 218.438C51.323 220.995 52.4636 223.568 54.4532 225.177C55.5469 226.057 56.5782 226.448 57.5469 226.479ZM50.2136 217.688C52.6719 216.089 55.2969 214.661 57.9115 213.401C61.2136 211.802 64.6302 211.234 68.1355 210.448C68.1198 210.396 68.1042 210.349 68.0834 210.297C67.948 209.896 67.7865 209.5 67.5938 209.104C67.073 209.141 66.5417 209.151 66.0209 209.151C65.4271 209.151 64.8334 209.135 64.2396 209.12C63.6459 209.104 63.0521 209.094 62.4584 209.094C61.6511 209.094 60.8386 209.12 60.0365 209.208C57.1927 209.531 54.3542 210.521 51.5052 210.62C51.5 210.62 51.5 210.62 51.4948 210.62C51.2865 210.62 51.2188 210.297 51.4115 210.214C53.9688 209.078 57.099 208.76 59.8594 208.432C60.9896 208.297 62.1719 208.224 63.3646 208.224C64.6823 208.224 66.0052 208.313 67.2865 208.51C66.8855 207.792 66.4063 207.089 65.8542 206.417C63.6511 205.75 61.5 205.016 59.1563 204.786C57.1927 204.589 55.0886 204.406 53.0365 204.406C52.1094 204.406 51.1927 204.443 50.3021 204.536C50.2917 204.536 50.2865 204.536 50.2761 204.536C50.0782 204.536 49.9323 204.25 50.1615 204.151C51.099 203.74 51.9688 203.63 52.9323 203.63C53.1719 203.63 53.4167 203.635 53.6719 203.646C55.5105 203.724 57.3542 203.771 59.1927 203.938C61.0573 204.109 62.9844 204.547 64.7917 205.24C63.0261 203.448 60.8073 201.979 58.5521 201.182C57.0625 201.036 55.5521 200.906 54.1146 200.594C52.4011 200.802 50.8386 201.609 49.6459 203.193C47.0157 206.693 48.2344 211.307 49.4167 215.109C49.6719 215.927 49.9271 216.802 50.2136 217.688Z" fill="#50BEC9"/>
<path d="M58.5521 201.182C57.3802 200.766 56.198 200.537 55.0677 200.537C54.7448 200.537 54.4271 200.557 54.1146 200.594C55.5521 200.906 57.0625 201.037 58.5521 201.182Z" fill="#8CD5DF"/>
<path d="M65.8542 206.417C65.526 206.016 65.1667 205.62 64.7917 205.24C62.9844 204.547 61.0573 204.11 59.1927 203.938C57.3542 203.771 55.5104 203.724 53.6719 203.646C53.4167 203.636 53.1719 203.63 52.9323 203.63C51.9687 203.63 51.0989 203.74 50.1614 204.151C49.9323 204.25 50.0781 204.537 50.276 204.537C50.2864 204.537 50.2917 204.537 50.3021 204.537C51.1927 204.443 52.1094 204.406 53.0364 204.406C55.0885 204.406 57.1927 204.589 59.1562 204.787C61.5 205.016 63.651 205.75 65.8542 206.417Z" fill="#8CD5DF"/>
<path d="M51.4948 210.62C51.5 210.62 51.5 210.62 51.5052 210.62C54.3542 210.521 57.1927 209.531 60.0364 209.208C60.8385 209.12 61.651 209.094 62.4583 209.094C63.0521 209.094 63.6458 209.104 64.2396 209.12C64.8333 209.136 65.4271 209.151 66.0208 209.151C66.5417 209.151 67.0729 209.141 67.5937 209.104C67.4948 208.906 67.3958 208.708 67.2864 208.511C66.0052 208.313 64.6823 208.224 63.3646 208.224C62.1719 208.224 60.9896 208.297 59.8594 208.432C57.0989 208.761 53.9687 209.078 51.4114 210.214C51.2187 210.297 51.2864 210.62 51.4948 210.62Z" fill="#8CD5DF"/>
<path d="M50.4583 218.438C53.1562 217.208 55.625 215.412 58.3073 214.156C60.2291 213.255 62.2343 212.521 64.2708 211.943C65.5677 211.578 67.0156 211.406 68.25 210.833C68.2135 210.703 68.177 210.578 68.1354 210.448C64.6302 211.234 61.2135 211.802 57.9114 213.401C55.2968 214.662 52.6718 216.089 50.2135 217.688C50.2916 217.938 50.375 218.188 50.4583 218.438Z" fill="#8CD5DF"/>
<path d="M55.6042 224.443C55.6459 224.443 55.6875 224.432 55.724 224.401C57.974 222.661 59.6563 220.167 61.6927 218.182C63.7344 216.193 65.9636 214.339 68.5261 213.057C68.5313 212.943 68.5313 212.828 68.5313 212.719C65.8438 213.635 63.5677 215.255 61.5261 217.234C59.3802 219.318 57.0261 221.604 55.448 224.172C55.3646 224.313 55.4792 224.443 55.6042 224.443Z" fill="#8CD5DF"/>
<path d="M57.6823 226.484C59.9375 226.484 61.8594 224.573 63.3958 222.391C61.5313 223.885 59.5417 225.156 57.5469 226.479C57.5937 226.484 57.6354 226.484 57.6823 226.484Z" fill="#8CD5DF"/>
</g>
</g>
<mask id="mask77_99_196" style="mask-type:luminance" maskUnits="userSpaceOnUse" x="249" y="26" width="179" height="119">
<path d="M249.776 26.3438H427.776V144.344H249.776V26.3438Z" fill="white"/>
</mask>
<g mask="url(#mask77_99_196)">
<mask id="mask78_99_196" style="mask-type:luminance" maskUnits="userSpaceOnUse" x="248" y="25" width="181" height="121">
<path d="M428.667 25.3333H248.667V145.333H428.667V25.3333Z" fill="white"/>
</mask>
<g mask="url(#mask78_99_196)">
<path d="M388.844 77.4584C388.844 77.4584 379.516 74.6251 366.766 66.8438C353.781 58.922 326.87 41.3699 296.989 41.3699C273.969 41.3699 250 86.8907 250 86.8907L253.307 92.0834L250 94.9115C250 94.9115 276.724 131.823 315.052 131.943C350.823 132.057 364.057 113.839 373.141 108.234C379.771 104.146 387.307 103.287 387.307 103.287L388.844 77.4584Z" fill="#F9A72B"/>
<mask id="mask79_99_196" style="mask-type:luminance" maskUnits="userSpaceOnUse" x="300" y="26" width="64" height="36">
<path d="M300.667 26.3438H363.333V61.3333H300.667V26.3438Z" fill="white"/>
</mask>
<g mask="url(#mask79_99_196)">
<path d="M301.948 41.9011C301.948 41.9011 310.187 26.6511 317.359 26.5157C326.646 26.3334 362.068 50.3074 362.338 54.1094C362.515 56.5834 358.088 58.5313 355.521 60.0626C329.75 44.9115 301.948 41.9011 301.948 41.9011Z" fill="#F68712"/>
</g>
<path d="M282.406 116.724C282.406 116.724 292.422 114.656 296.573 100.807C299.38 91.4324 299.052 62.948 299.052 62.948C299.052 62.948 307.677 94.0626 305.073 101.87C300.114 116.724 282.406 116.724 282.406 116.724Z" fill="#F68712"/>
<path d="M369.854 110.594C369.854 110.594 370.823 115.312 369.854 116.724C368.891 118.141 340.198 139.724 335.953 137.953C331.703 136.188 325.349 131.432 325.349 131.432C325.349 131.432 339.141 128.401 351.891 122.031C364.641 115.667 369.854 110.594 369.854 110.594Z" fill="#F68712"/>
<path d="M307.437 41.3697C307.437 41.3697 312.047 31.9947 317.359 31.1145C322.667 30.2291 328.693 32.703 328.693 32.703C328.693 32.703 321.875 31.5468 318.062 33.5884C313.281 36.1457 307.437 41.3697 307.437 41.3697Z" fill="#F47415"/>
<path d="M317.271 43.2863C317.271 43.2863 321.323 35.8436 325.995 35.1405C330.672 34.4374 335.974 36.4061 335.974 36.4061C335.974 36.4061 329.974 35.4895 326.62 37.104C322.417 39.1405 317.271 43.2863 317.271 43.2863Z" fill="#F47415"/>
<path d="M325.349 44.5574C325.349 44.5574 329.401 39.698 334.073 39.2345C338.75 38.7813 344.052 40.0626 344.052 40.0626C344.052 40.0626 338.052 39.4636 334.698 40.5209C330.49 41.849 325.349 44.5574 325.349 44.5574Z" fill="#F47415"/>
<path d="M332.146 47.2135C332.146 47.2135 335.542 43.6927 339.458 43.3593C343.38 43.026 347.818 43.9583 347.818 43.9583C347.818 43.9583 343.542 43.7916 340.734 44.5573C337.208 45.5156 332.146 47.2135 332.146 47.2135Z" fill="#F47415"/>
<path d="M339.984 51.1405C339.984 51.1405 342.906 47.6197 346.281 47.2864C349.661 46.953 353.489 47.8853 353.489 47.8853C353.489 47.8853 349.156 48.0364 346.734 48.802C343.698 49.7603 339.984 51.1405 339.984 51.1405Z" fill="#F47415"/>
<path d="M347.818 54.9063C347.818 54.9063 350.083 51.3959 352.698 51.1875C355.307 50.9792 358.271 51.5625 358.271 51.5625C358.271 51.5625 355.365 51.8594 353.49 52.3386C351.135 52.9375 347.818 54.9063 347.818 54.9063Z" fill="#F47415"/>
<path d="M275.974 76.2813C275.974 80.5782 279.463 84.0626 283.766 84.0626C288.073 84.0626 291.557 80.5782 291.557 76.2813C291.557 71.9792 288.073 68.4949 283.766 68.4949C279.463 68.4949 275.974 71.9792 275.974 76.2813Z" fill="#F47415"/>
<path d="M275.974 76.2813C275.974 79.8595 278.885 82.7605 282.469 82.7605C286.052 82.7605 288.963 79.8595 288.963 76.2813C288.963 72.698 286.052 69.7917 282.469 69.7917C278.885 69.7917 275.974 72.698 275.974 76.2813Z" fill="white"/>
<path d="M279.281 76.2812C279.281 78.0365 280.708 79.4635 282.469 79.4635C284.229 79.4635 285.656 78.0365 285.656 76.2812C285.656 74.5208 284.229 73.0938 282.469 73.0938C280.708 73.0938 279.281 74.5208 279.281 76.2812Z" fill="#45291D"/>
<mask id="mask80_99_196" style="mask-type:luminance" maskUnits="userSpaceOnUse" x="292" y="112" width="40" height="33">
<path d="M292.667 112H331.333V144.344H292.667V112Z" fill="white"/>
</mask>
<g mask="url(#mask80_99_196)">
<path d="M293.984 121.328C293.984 121.328 298.047 135.417 330.276 144.323C317.703 130.005 320.312 123.448 315 116.724C309.687 110.005 299.297 114.958 299.297 114.958L293.984 121.328Z" fill="#F68712"/>
</g>
<path d="M386.245 77.4583C392.266 57.2917 415.286 66.4896 419.896 45.25C427.922 83.4583 413.953 86.3177 415.286 97.2708C423.708 108.219 410.448 119.208 419.896 131.948C394.391 128.646 384.146 103.87 384.146 103.87C384.146 103.87 381.521 90.6667 386.245 77.4583Z" fill="#F68712"/>
</g>
</g>
</svg>
