<svg width="633" height="451" viewBox="0 0 633 451" fill="none" xmlns="http://www.w3.org/2000/svg">
<mask id="mask0_99_194" style="mask-type:luminance" maskUnits="userSpaceOnUse" x="0" y="0" width="633" height="451">
<path d="M0 0H632.604V450.458H0V0Z" fill="white"/>
</mask>
<g mask="url(#mask0_99_194)">
<mask id="mask1_99_194" style="mask-type:luminance" maskUnits="userSpaceOnUse" x="0" y="0" width="633" height="451">
<path d="M595.99 450.458H36.4167C16.349 450.458 0 434.109 0 414.042V36.4167C0 16.349 16.349 0 36.4167 0H595.99C616.057 0 632.406 16.349 632.406 36.4167V414.042C632.406 434.109 616.057 450.458 595.99 450.458Z" fill="white"/>
</mask>
<g mask="url(#mask1_99_194)">
<mask id="mask2_99_194" style="mask-type:luminance" maskUnits="userSpaceOnUse" x="-1" y="-1" width="634" height="452">
<path d="M632.604 -0.197876H-0.729187V450.469H632.604V-0.197876Z" fill="white"/>
</mask>
<g mask="url(#mask2_99_194)">
<mask id="mask3_99_194" style="mask-type:luminance" maskUnits="userSpaceOnUse" x="0" y="0" width="633" height="451">
<path d="M0 0H632.443V450.458H0V0Z" fill="white"/>
</mask>
<g mask="url(#mask3_99_194)">
<mask id="mask4_99_194" style="mask-type:luminance" maskUnits="userSpaceOnUse" x="0" y="0" width="633" height="451">
<path d="M595.99 450.458H36.4167C16.349 450.458 0 434.109 0 414.042V36.4167C0 16.349 16.349 0 36.4167 0H595.99C616.057 0 632.406 16.349 632.406 36.4167V414.042C632.406 434.109 616.057 450.458 595.99 450.458Z" fill="white"/>
</mask>
<g mask="url(#mask4_99_194)">
<path d="M0 0H631.698V450.458H0V0Z" fill="#F4F0DE"/>
</g>
</g>
</g>
</g>
</g>
<mask id="mask5_99_194" style="mask-type:luminance" maskUnits="userSpaceOnUse" x="353" y="97" width="55" height="37">
<path d="M353.938 97.1355H407.271V133.135H353.938V97.1355Z" fill="white"/>
</mask>
<g mask="url(#mask5_99_194)">
<mask id="mask6_99_194" style="mask-type:luminance" maskUnits="userSpaceOnUse" x="316" y="79" width="161" height="157">
<path d="M316.203 110.276L447.76 79.974L476.484 204.714L344.932 235.01L316.203 110.276Z" fill="white"/>
</mask>
<g mask="url(#mask6_99_194)">
<mask id="mask7_99_194" style="mask-type:luminance" maskUnits="userSpaceOnUse" x="316" y="79" width="161" height="157">
<path d="M316.203 110.276L447.76 79.974L476.484 204.714L344.932 235.01L316.203 110.276Z" fill="white"/>
</mask>
<g mask="url(#mask7_99_194)">
<mask id="mask8_99_194" style="mask-type:luminance" maskUnits="userSpaceOnUse" x="316" y="79" width="161" height="157">
<path d="M316.203 110.276L447.76 79.974L476.484 204.714L344.932 235.01L316.203 110.276Z" fill="white"/>
</mask>
<g mask="url(#mask8_99_194)">
<path d="M361.464 108.828C382.714 99.3178 391.5 106.49 401.563 99.8959C411.63 93.3021 404.115 109.516 401.781 112.547C399.443 115.578 377.625 135.521 365.557 132.828C353.484 130.141 349.729 114.078 361.464 108.828Z" fill="#5C913B"/>
</g>
</g>
</g>
</g>
<mask id="mask9_99_194" style="mask-type:luminance" maskUnits="userSpaceOnUse" x="320" y="107" width="68" height="44">
<path d="M320.604 107.802H387.271V150.469H320.604V107.802Z" fill="white"/>
</mask>
<g mask="url(#mask9_99_194)">
<mask id="mask10_99_194" style="mask-type:luminance" maskUnits="userSpaceOnUse" x="316" y="79" width="161" height="157">
<path d="M316.203 110.276L447.76 79.974L476.484 204.714L344.932 235.01L316.203 110.276Z" fill="white"/>
</mask>
<g mask="url(#mask10_99_194)">
<mask id="mask11_99_194" style="mask-type:luminance" maskUnits="userSpaceOnUse" x="316" y="79" width="161" height="157">
<path d="M316.203 110.276L447.76 79.974L476.484 204.714L344.932 235.01L316.203 110.276Z" fill="white"/>
</mask>
<g mask="url(#mask11_99_194)">
<mask id="mask12_99_194" style="mask-type:luminance" maskUnits="userSpaceOnUse" x="316" y="79" width="161" height="157">
<path d="M316.203 110.276L447.76 79.974L476.484 204.714L344.932 235.01L316.203 110.276Z" fill="white"/>
</mask>
<g mask="url(#mask12_99_194)">
<path d="M383.839 149.51C382.797 149.75 381.651 149.516 380.771 148.771C377.688 146.162 374.734 143.083 371.604 139.818C360.807 128.563 348.568 115.802 324.693 115.984C322.745 115.995 321.156 114.427 321.141 112.479C321.125 110.531 322.693 108.943 324.635 108.927C351.552 108.724 365.49 123.255 376.688 134.938C379.688 138.063 382.516 141.01 385.318 143.38C386.807 144.635 386.995 146.865 385.74 148.349C385.229 148.958 384.557 149.344 383.839 149.51Z" fill="#77B255"/>
</g>
</g>
</g>
</g>
<mask id="mask13_99_194" style="mask-type:luminance" maskUnits="userSpaceOnUse" x="351" y="107" width="115" height="107">
<path d="M351.271 107.802H465.938V213.135H351.271V107.802Z" fill="white"/>
</mask>
<g mask="url(#mask13_99_194)">
<mask id="mask14_99_194" style="mask-type:luminance" maskUnits="userSpaceOnUse" x="316" y="79" width="161" height="157">
<path d="M316.203 110.276L447.76 79.974L476.484 204.714L344.932 235.01L316.203 110.276Z" fill="white"/>
</mask>
<g mask="url(#mask14_99_194)">
<mask id="mask15_99_194" style="mask-type:luminance" maskUnits="userSpaceOnUse" x="316" y="79" width="161" height="157">
<path d="M316.203 110.276L447.76 79.974L476.484 204.714L344.932 235.01L316.203 110.276Z" fill="white"/>
</mask>
<g mask="url(#mask15_99_194)">
<mask id="mask16_99_194" style="mask-type:luminance" maskUnits="userSpaceOnUse" x="316" y="79" width="161" height="157">
<path d="M316.203 110.276L447.76 79.974L476.484 204.714L344.932 235.01L316.203 110.276Z" fill="white"/>
</mask>
<g mask="url(#mask16_99_194)">
<path d="M462.432 187.651C462.422 187.589 462.396 187.557 462.385 187.505C467.688 166.969 459.51 133.453 434.182 117.589C409.661 102.234 382.583 108.396 366.5 118.448C361.563 121.807 356.531 120.984 354.156 124.786C351.828 128.51 355.104 134.411 354.729 138.479C347.964 158.87 353.344 185.953 379.099 202.078C400.073 215.214 420.37 217.344 451.568 202.958C451.573 202.948 451.589 202.948 451.594 202.943C455.365 201.286 462.141 202.406 463.771 199.802C466.641 195.214 462.964 191.448 462.432 187.651Z" fill="#FFCC4D"/>
</g>
</g>
</g>
</g>
<mask id="mask17_99_194" style="mask-type:luminance" maskUnits="userSpaceOnUse" x="331" y="122" width="33" height="72">
<path d="M331.271 122.469H363.271V193.135H331.271V122.469Z" fill="white"/>
</mask>
<g mask="url(#mask17_99_194)">
<mask id="mask18_99_194" style="mask-type:luminance" maskUnits="userSpaceOnUse" x="316" y="79" width="161" height="157">
<path d="M316.203 110.276L447.76 79.974L476.484 204.714L344.932 235.01L316.203 110.276Z" fill="white"/>
</mask>
<g mask="url(#mask18_99_194)">
<mask id="mask19_99_194" style="mask-type:luminance" maskUnits="userSpaceOnUse" x="316" y="79" width="161" height="157">
<path d="M316.203 110.276L447.76 79.974L476.484 204.714L344.932 235.01L316.203 110.276Z" fill="white"/>
</mask>
<g mask="url(#mask19_99_194)">
<mask id="mask20_99_194" style="mask-type:luminance" maskUnits="userSpaceOnUse" x="316" y="79" width="161" height="157">
<path d="M316.203 110.276L447.76 79.974L476.484 204.714L344.932 235.01L316.203 110.276Z" fill="white"/>
</mask>
<g mask="url(#mask20_99_194)">
<path d="M353.052 122.51C353.052 122.51 337.917 123.859 333.141 143.745C328.359 163.625 342.365 174.656 344.156 187.016C345.943 199.385 350.536 190.125 352.802 183.412C355.073 176.698 363.458 163.24 362.427 147.641C361.391 132.037 357.073 125.495 353.052 122.51Z" fill="#77B255"/>
</g>
</g>
</g>
</g>
<mask id="mask21_99_194" style="mask-type:luminance" maskUnits="userSpaceOnUse" x="180" y="246" width="112" height="112">
<path d="M180.604 246.469H291.469V357.135H180.604V246.469Z" fill="white"/>
</mask>
<g mask="url(#mask21_99_194)">
<path d="M181.771 302.417C181.771 272.214 206.328 247.724 236.615 247.724C266.906 247.724 291.464 272.208 291.464 302.417C291.464 332.62 266.906 357.104 236.615 357.104C206.328 357.104 181.771 332.62 181.771 302.417Z" fill="#F4900C"/>
</g>
<mask id="mask22_99_194" style="mask-type:luminance" maskUnits="userSpaceOnUse" x="171" y="250" width="41" height="24">
<path d="M171.469 250.469H211.271V273.135H171.469V250.469Z" fill="white"/>
</mask>
<g mask="url(#mask22_99_194)">
<path d="M209.74 262.922C208.854 262.037 207.089 262.271 205.234 263.323C194.266 254.266 176.474 251.214 175.667 251.083C173.854 250.787 172.146 252 171.844 253.802C171.542 255.609 172.76 257.318 174.573 257.62C174.75 257.651 190.974 260.448 200.573 268.094C199.656 269.833 199.495 271.458 200.339 272.297C201.635 273.594 204.792 272.542 207.391 269.953C209.984 267.37 211.036 264.219 209.74 262.922Z" fill="#662113"/>
</g>
<path d="M241.604 241.099C241.604 241.099 231.281 255.406 218.266 258.573C208.365 260.984 195.203 261.214 193.891 258.167C192.583 255.12 199.115 245.115 210.406 240.292C221.698 235.469 241.604 241.099 241.604 241.099Z" fill="#5C913B"/>
<path d="M218.693 91.2449C218.693 91.2449 218.865 91.3074 219.177 91.4272C223.74 93.1667 226.609 97.6042 228.161 101.974C230.115 107.479 231.38 113.365 231.812 119.182C232.161 123.849 232.266 128.896 231.391 133.516C231.271 134.162 231 136.292 230.01 136.162C228.547 135.974 229.604 132.667 229.672 131.932C229.891 129.672 229.781 127.339 229.484 125.094C228.849 120.245 227.37 115.568 225.75 110.969C224.396 107.13 222.771 102.969 219.562 100.281C217.63 98.6615 216.812 98.6095 216.812 98.6095C216.906 98.297 218.771 91.2709 218.693 91.2449Z" fill="#4F090B"/>
<path d="M220.417 95.7084C220.995 93.6928 220.422 91.7605 219.135 91.3907C217.854 91.0261 216.344 92.3595 215.766 94.3803C215.188 96.3959 215.76 98.3282 217.047 98.698C218.328 99.0626 219.839 97.724 220.417 95.7084Z" fill="#320404"/>
<mask id="mask23_99_194" style="mask-type:luminance" maskUnits="userSpaceOnUse" x="172" y="123" width="118" height="103">
<path d="M172.604 123.802H289.938V225.083H172.604V123.802Z" fill="white"/>
</mask>
<g mask="url(#mask23_99_194)">
<path d="M288.37 149.297C291.323 176.833 282.828 223.849 246.38 224.859C239.198 225.057 236.599 221.734 230.833 221.734C225.287 221.734 222.802 225.057 215.745 224.563C182.761 222.24 171.563 175.911 172.974 149.625C174.615 119.141 213.953 122.745 230.833 131.74C252.307 121.109 285.167 119.38 288.37 149.297Z" fill="#CF1E2B"/>
</g>
<path d="M266.719 97.5522C267.854 100.943 261.057 109.052 250.5 112.594C239.948 116.141 229.63 113.781 228.49 110.391C227.354 107.005 233.568 97.1563 244.12 93.6095C254.677 90.0678 265.578 94.1668 266.719 97.5522Z" fill="#80CD3B"/>
<mask id="mask24_99_194" style="mask-type:luminance" maskUnits="userSpaceOnUse" x="363" y="237" width="103" height="117">
<path d="M363.271 237.135H465.938V353.135H363.271V237.135Z" fill="white"/>
</mask>
<g mask="url(#mask24_99_194)">
<mask id="mask25_99_194" style="mask-type:luminance" maskUnits="userSpaceOnUse" x="320" y="211" width="169" height="171">
<path d="M408.979 211.01L488.917 280.625L400.911 381.677L320.974 312.063L408.979 211.01Z" fill="white"/>
</mask>
<g mask="url(#mask25_99_194)">
<mask id="mask26_99_194" style="mask-type:luminance" maskUnits="userSpaceOnUse" x="320" y="211" width="169" height="171">
<path d="M408.979 211.01L488.917 280.625L400.911 381.677L320.974 312.063L408.979 211.01Z" fill="white"/>
</mask>
<g mask="url(#mask26_99_194)">
<mask id="mask27_99_194" style="mask-type:luminance" maskUnits="userSpaceOnUse" x="320" y="211" width="169" height="171">
<path d="M408.979 211.01L488.917 280.625L400.911 381.677L320.974 312.063L408.979 211.01Z" fill="white"/>
</mask>
<g mask="url(#mask27_99_194)">
<path d="M380.88 348.625C392.698 353.552 404.057 354.693 418.667 337.932C427.912 327.328 449.469 325.349 458.865 314.557C467.896 304.182 470.578 276.453 440.307 255.203C409.193 233.354 390.828 232.417 374.531 251.125C363.182 264.162 369.26 285.521 364.896 305.615C362 318.948 362.432 348.104 380.88 348.625Z" fill="#BE1931"/>
</g>
</g>
</g>
</g>
<mask id="mask28_99_194" style="mask-type:luminance" maskUnits="userSpaceOnUse" x="400" y="225" width="64" height="53">
<path d="M400.604 225.135H463.271V277.135H400.604V225.135Z" fill="white"/>
</mask>
<g mask="url(#mask28_99_194)">
<mask id="mask29_99_194" style="mask-type:luminance" maskUnits="userSpaceOnUse" x="320" y="211" width="169" height="171">
<path d="M408.979 211.01L488.917 280.625L400.911 381.677L320.974 312.063L408.979 211.01Z" fill="white"/>
</mask>
<g mask="url(#mask29_99_194)">
<mask id="mask30_99_194" style="mask-type:luminance" maskUnits="userSpaceOnUse" x="320" y="211" width="169" height="171">
<path d="M408.979 211.01L488.917 280.625L400.911 381.677L320.974 312.063L408.979 211.01Z" fill="white"/>
</mask>
<g mask="url(#mask30_99_194)">
<mask id="mask31_99_194" style="mask-type:luminance" maskUnits="userSpaceOnUse" x="320" y="211" width="169" height="171">
<path d="M408.979 211.01L488.917 280.625L400.911 381.677L320.974 312.063L408.979 211.01Z" fill="white"/>
</mask>
<g mask="url(#mask31_99_194)">
<path d="M462.552 274.281C461.573 268.573 457.443 262.625 452.26 257.516C453.068 258.047 453.87 258.568 454.646 259.156C457.365 261.235 467.047 264.224 460.854 259.511C458.146 257.443 455.229 255.813 452.375 254.089C453.354 254.229 454.344 254.386 455.349 254.625C456.885 252.729 446.302 243.516 437.073 243.328C435.974 241.849 436.057 239.245 428.12 232.333C422.828 227.724 413.594 223.99 417.88 228.068C420.214 230.287 423.172 232.677 421.958 233.313C420.083 231.964 410.286 226.104 407.984 228.75C407.167 229.682 415.682 234.651 415.922 235.662C409.88 233.396 403.375 234.042 401.073 236.688C400.099 237.802 408.823 239.599 411.313 240.953C406.365 241.292 403.688 242.229 402.172 244.281C401.177 245.625 408.698 249.547 409.521 249.896C412.318 251.078 422.24 255.12 427.969 253.292C427.625 254.313 432.719 263.667 435.469 266.641C436.734 268.011 441.766 273.401 442.771 269.693C443.063 268.604 442.719 263.651 444.161 260.37C445.385 261.349 463.885 282.089 462.552 274.281Z" fill="#77B255"/>
</g>
</g>
</g>
</g>
<mask id="mask32_99_194" style="mask-type:luminance" maskUnits="userSpaceOnUse" x="379" y="259" width="77" height="80">
<path d="M379.271 259.802H455.271V338.469H379.271V259.802Z" fill="white"/>
</mask>
<g mask="url(#mask32_99_194)">
<mask id="mask33_99_194" style="mask-type:luminance" maskUnits="userSpaceOnUse" x="320" y="211" width="169" height="171">
<path d="M408.979 211.01L488.917 280.625L400.911 381.677L320.974 312.063L408.979 211.01Z" fill="white"/>
</mask>
<g mask="url(#mask33_99_194)">
<mask id="mask34_99_194" style="mask-type:luminance" maskUnits="userSpaceOnUse" x="320" y="211" width="169" height="171">
<path d="M408.979 211.01L488.917 280.625L400.911 381.677L320.974 312.063L408.979 211.01Z" fill="white"/>
</mask>
<g mask="url(#mask34_99_194)">
<mask id="mask35_99_194" style="mask-type:luminance" maskUnits="userSpaceOnUse" x="320" y="211" width="169" height="171">
<path d="M408.979 211.01L488.917 280.625L400.911 381.677L320.974 312.063L408.979 211.01Z" fill="white"/>
</mask>
<g mask="url(#mask35_99_194)">
<path d="M386.161 271.641C389.167 267.469 386.932 257.188 382.297 263.625C379.297 267.802 381.526 278.083 386.161 271.641ZM404.62 290.292C405.87 288.485 406.62 286.49 406.651 284.287C406.688 281.755 404.646 280.849 402.661 282.281C400.323 283.964 398.844 287.104 398.802 289.948L398.797 290.172C399.443 288.292 400.089 286.412 400.724 284.526L400.63 284.667C399.344 286.521 397.698 290.156 399.245 292.328C400.823 294.547 403.708 291.615 404.62 290.292ZM430.995 290.735C434.453 289.307 440.568 280.646 433.297 283.651C429.839 285.078 423.714 293.74 430.995 290.735ZM453.427 303.5C454.172 302.485 455.031 301.266 454.719 299.927C453.552 294.917 442.984 300.677 443.958 304.88C443.984 304.958 444 305.031 444.016 305.11L445.26 301.917C445.219 301.964 445.182 302.011 445.146 302.063C443.974 303.667 442.969 306.573 445.828 307.068C448.531 307.531 451.875 305.615 453.427 303.5ZM430.135 323.063C436.438 321.25 436.641 312.677 428.979 314.88C422.677 316.688 422.474 325.266 430.135 323.063ZM408.26 317.474C413.182 312.745 408.49 304.875 402.76 310.375C397.839 315.104 402.531 322.979 408.26 317.474ZM384.87 291.464L384.729 291.365L386.688 296.391C386.677 296.37 386.682 296.339 386.677 296.307C386.51 294.86 385.594 290.323 383.307 290.62C381 290.922 381.354 295.526 381.516 296.979C381.698 298.594 382.214 301.136 383.615 302.203C387.63 305.266 387.542 293.505 384.87 291.464ZM406.255 337.568C411.276 336.979 417.505 328.526 409.62 329.443C404.599 330.031 398.375 338.49 406.255 337.568ZM402.974 269.755C403.229 269.958 403.495 270.156 403.76 270.349C405.724 271.849 409.766 268.818 411.01 267.589C412.443 266.177 414.25 263.636 412.177 262.057L411.391 261.458C409.422 259.964 405.385 262.99 404.135 264.224C402.703 265.63 400.896 268.177 402.974 269.755ZM388.583 328.193C387.87 331.125 385.51 333.068 383.318 332.531C381.12 332 379.911 329.193 380.625 326.261C381.339 323.328 383.698 321.386 385.891 321.922C388.089 322.458 389.297 325.261 388.583 328.193Z" fill="#F4ABBA"/>
</g>
</g>
</g>
</g>
</svg>
