<svg width="168" height="98" viewBox="0 0 168 98" fill="none" xmlns="http://www.w3.org/2000/svg">
<mask id="mask0_99_40" style="mask-type:luminance" maskUnits="userSpaceOnUse" x="0" y="0" width="168" height="85">
<path d="M0 0H168V84.9792H0V0Z" fill="white"/>
</mask>
<g mask="url(#mask0_99_40)">
<path d="M60.7342 83.7969H153.844C153.844 83.7969 167.812 83.7969 167.812 65.1771C167.812 55.8646 167.812 37.2448 163.156 32.5885C158.5 27.9323 125.911 0 111.948 0H84.0155C70.0467 0 37.4582 32.5885 37.4582 32.5885L18.8384 37.2448C18.8384 37.2448 4.86963 41.901 4.86963 51.2083V65.1771C4.86963 65.1771 0.213379 66.75 0.213379 74.2865C0.213379 83.7969 9.52588 83.7969 9.52588 83.7969H60.7342Z" fill="#008037"/>
</g>
<path d="M93.3226 9.3125H84.0153C74.7028 9.3125 46.7705 37.2448 46.7705 37.2448C46.7705 37.2448 70.0309 36.0208 93.3226 34.8281V9.3125ZM139.88 23.276C135.224 18.6198 116.604 9.3125 107.291 9.3125H102.635V34.3542C121.307 33.401 137.932 32.5885 139.88 32.5885C144.536 32.5885 144.536 27.9323 139.88 23.276Z" fill="#BBDDF5"/>
<mask id="mask1_99_40" style="mask-type:luminance" maskUnits="userSpaceOnUse" x="27" y="59" width="40" height="39">
<path d="M27.4736 59.6458H66.1403V98H27.4736V59.6458Z" fill="white"/>
</mask>
<g mask="url(#mask1_99_40)">
<path d="M65.3903 79.1458C65.3903 80.3646 65.2705 81.5781 65.0309 82.7761C64.7966 83.974 64.4424 85.1406 63.9736 86.2708C63.5049 87.4011 62.932 88.474 62.2549 89.4896C61.5726 90.5052 60.8018 91.4479 59.9372 92.3125C59.0726 93.1771 58.1299 93.9479 57.1143 94.625C56.0986 95.3073 55.0257 95.8802 53.8955 96.349C52.7653 96.8177 51.5986 97.1667 50.4007 97.4063C49.2028 97.6458 47.9893 97.7656 46.7705 97.7656C45.5466 97.7656 44.333 97.6458 43.1351 97.4063C41.9372 97.1667 40.7705 96.8177 39.6403 96.349C38.5153 95.8802 37.4372 95.3073 36.4215 94.625C35.4059 93.9479 34.4632 93.1771 33.5986 92.3125C32.734 91.4479 31.9632 90.5052 31.2861 89.4896C30.6038 88.474 30.0309 87.4011 29.5622 86.2708C29.0986 85.1406 28.7445 83.974 28.5049 82.7761C28.2653 81.5781 28.1455 80.3646 28.1455 79.1458C28.1455 77.9219 28.2653 76.7083 28.5049 75.5104C28.7445 74.3125 29.0986 73.1458 29.5622 72.0156C30.0309 70.8854 30.6038 69.8125 31.2861 68.7969C31.9632 67.7813 32.734 66.8386 33.5986 65.974C34.4632 65.1094 35.4059 64.3386 36.4215 63.6615C37.4372 62.9792 38.5153 62.4063 39.6403 61.9375C40.7705 61.4688 41.9372 61.1198 43.1351 60.8802C44.333 60.6406 45.5466 60.5208 46.7705 60.5208C47.9893 60.5208 49.2028 60.6406 50.4007 60.8802C51.5986 61.1198 52.7653 61.4688 53.8955 61.9375C55.0257 62.4063 56.0986 62.9792 57.1143 63.6615C58.1299 64.3386 59.0726 65.1094 59.9372 65.974C60.8018 66.8386 61.5726 67.7813 62.2549 68.7969C62.932 69.8125 63.5049 70.8854 63.9736 72.0156C64.4424 73.1458 64.7966 74.3125 65.0309 75.5104C65.2705 76.7083 65.3903 77.9219 65.3903 79.1458Z" fill="#292F33"/>
</g>
<path d="M56.0778 79.1458C56.0778 79.7552 56.0205 80.3594 55.9007 80.9583C55.7809 81.5573 55.6038 82.1406 55.3695 82.7083C55.1351 83.2708 54.8486 83.8073 54.5101 84.3177C54.1716 84.8229 53.7861 85.2969 53.3538 85.7292C52.9216 86.1615 52.4476 86.5469 51.9424 86.8854C51.432 87.224 50.8955 87.5104 50.333 87.7448C49.7653 87.9792 49.1872 88.1563 48.583 88.2761C47.984 88.3958 47.3799 88.4531 46.7705 88.4531C46.1559 88.4531 45.5518 88.3958 44.9528 88.2761C44.3538 88.1563 43.7705 87.9792 43.208 87.7448C42.6403 87.5104 42.1038 87.224 41.5934 86.8854C41.0882 86.5469 40.6195 86.1615 40.1872 85.7292C39.7549 85.2969 39.3643 84.8229 39.0257 84.3177C38.6872 83.8073 38.4007 83.2708 38.1663 82.7083C37.932 82.1406 37.7549 81.5573 37.6351 80.9583C37.5153 80.3594 37.458 79.7552 37.458 79.1458C37.458 78.5313 37.5153 77.9271 37.6351 77.3281C37.7549 76.7292 37.932 76.1458 38.1663 75.5781C38.4007 75.0156 38.6872 74.4792 39.0257 73.9688C39.3643 73.4636 39.7549 72.9896 40.1872 72.5573C40.6195 72.125 41.0882 71.7396 41.5934 71.4011C42.1038 71.0625 42.6403 70.7761 43.208 70.5417C43.7705 70.3073 44.3538 70.1302 44.9528 70.0104C45.5518 69.8906 46.1559 69.8333 46.7705 69.8333C47.3799 69.8333 47.984 69.8906 48.583 70.0104C49.1872 70.1302 49.7653 70.3073 50.333 70.5417C50.8955 70.7761 51.432 71.0625 51.9424 71.4011C52.4476 71.7396 52.9216 72.125 53.3538 72.5573C53.7861 72.9896 54.1716 73.4636 54.5101 73.9688C54.8486 74.4792 55.1351 75.0156 55.3695 75.5781C55.6038 76.1458 55.7809 76.7292 55.9007 77.3281C56.0205 77.9271 56.0778 78.5313 56.0778 79.1458Z" fill="#CCD6DD"/>
<mask id="mask2_99_40" style="mask-type:luminance" maskUnits="userSpaceOnUse" x="106" y="59" width="39" height="39">
<path d="M106.141 59.6458H144.807V98H106.141V59.6458Z" fill="white"/>
</mask>
<g mask="url(#mask2_99_40)">
<path d="M144.536 79.1458C144.536 80.3646 144.417 81.5781 144.177 82.7761C143.937 83.974 143.583 85.1406 143.114 86.2708C142.651 87.4011 142.078 88.474 141.396 89.4896C140.719 90.5052 139.943 91.4479 139.078 92.3125C138.213 93.1771 137.276 93.9479 136.26 94.625C135.239 95.3073 134.167 95.8802 133.036 96.349C131.911 96.8177 130.745 97.1667 129.547 97.4063C128.349 97.6458 127.135 97.7656 125.911 97.7656C124.687 97.7656 123.479 97.6458 122.281 97.4063C121.078 97.1667 119.917 96.8177 118.786 96.349C117.656 95.8802 116.583 95.3073 115.568 94.625C114.552 93.9479 113.609 93.1771 112.745 92.3125C111.88 91.4479 111.109 90.5052 110.427 89.4896C109.75 88.474 109.177 87.4011 108.708 86.2708C108.239 85.1406 107.885 83.974 107.646 82.7761C107.411 81.5781 107.292 80.3646 107.292 79.1458C107.292 77.9219 107.411 76.7083 107.646 75.5104C107.885 74.3125 108.239 73.1458 108.708 72.0156C109.177 70.8854 109.75 69.8125 110.427 68.7969C111.109 67.7813 111.88 66.8386 112.745 65.974C113.609 65.1094 114.552 64.3386 115.568 63.6615C116.583 62.9792 117.656 62.4063 118.786 61.9375C119.917 61.4688 121.078 61.1198 122.281 60.8802C123.479 60.6406 124.687 60.5208 125.911 60.5208C127.135 60.5208 128.349 60.6406 129.547 60.8802C130.745 61.1198 131.911 61.4688 133.036 61.9375C134.167 62.4063 135.239 62.9792 136.26 63.6615C137.276 64.3386 138.213 65.1094 139.078 65.974C139.943 66.8386 140.719 67.7813 141.396 68.7969C142.078 69.8125 142.651 70.8854 143.114 72.0156C143.583 73.1458 143.937 74.3125 144.177 75.5104C144.417 76.7083 144.536 77.9219 144.536 79.1458Z" fill="#292F33"/>
</g>
<path d="M135.224 79.1458C135.224 79.7552 135.162 80.3594 135.047 80.9583C134.927 81.5573 134.75 82.1406 134.516 82.7083C134.282 83.2708 133.995 83.8073 133.657 84.3177C133.313 84.8229 132.927 85.2969 132.495 85.7292C132.063 86.1615 131.594 86.5469 131.084 86.8854C130.578 87.224 130.042 87.5104 129.474 87.7448C128.912 87.9792 128.328 88.1563 127.729 88.2761C127.131 88.3958 126.526 88.4531 125.912 88.4531C125.302 88.4531 124.698 88.3958 124.094 88.2761C123.495 88.1563 122.917 87.9792 122.349 87.7448C121.787 87.5104 121.25 87.224 120.74 86.8854C120.229 86.5469 119.761 86.1615 119.328 85.7292C118.896 85.2969 118.511 84.8229 118.172 84.3177C117.834 83.8073 117.547 83.2708 117.313 82.7083C117.078 82.1406 116.901 81.5573 116.782 80.9583C116.662 80.3594 116.604 79.7552 116.604 79.1458C116.604 78.5313 116.662 77.9271 116.782 77.3281C116.901 76.7292 117.078 76.1458 117.313 75.5781C117.547 75.0156 117.834 74.4792 118.172 73.9688C118.511 73.4636 118.896 72.9896 119.328 72.5573C119.761 72.125 120.229 71.7396 120.74 71.4011C121.25 71.0625 121.787 70.7761 122.349 70.5417C122.917 70.3073 123.495 70.1302 124.094 70.0104C124.698 69.8906 125.302 69.8333 125.912 69.8333C126.526 69.8333 127.131 69.8906 127.729 70.0104C128.328 70.1302 128.912 70.3073 129.474 70.5417C130.042 70.7761 130.578 71.0625 131.084 71.4011C131.594 71.7396 132.063 72.125 132.495 72.5573C132.927 72.9896 133.313 73.4636 133.657 73.9688C133.995 74.4792 134.282 75.0156 134.516 75.5781C134.75 76.1458 134.927 76.7292 135.047 77.3281C135.162 77.9271 135.224 78.5313 135.224 79.1458Z" fill="#CCD6DD"/>
</svg>
