<svg width="214" height="137" viewBox="0 0 214 137" fill="none" xmlns="http://www.w3.org/2000/svg">
<mask id="mask0_145_5" style="mask-type:luminance" maskUnits="userSpaceOnUse" x="0" y="10" width="210" height="127">
<path d="M0 10.8019H209.56V136.921H0V10.8019Z" fill="white"/>
</mask>
<g mask="url(#mask0_145_5)">
<path d="M209.429 73.5728C209.429 68.8949 205.997 66.3363 199.415 61.8521C191.594 56.5202 157.788 36.0153 155.114 34.3966C121.793 14.1947 115.521 10.7271 111.354 11.0627C104.252 11.6285 103.245 22.8735 103.245 45.6934C95.1064 45.8008 66.4495 45.5802 52.0022 45.4095C8.49572 44.9012 8.59626 45.8391 5.98792 46.0846C3.48206 46.3205 2.00871 51.1557 1.16182 56.8846C1.12702 56.9326 1.09028 56.9824 1.05548 57.0285C0.388408 61.5644 0.173786 66.9271 0.104179 70.7284C0.0829097 71.722 0.0732422 72.6196 0.0732422 73.3867C0.0732422 73.5248 0.0732422 73.6744 0.0732422 73.8298C0.0732422 73.9851 0.0732422 74.1328 0.0732422 74.2709C0.0732422 75.0381 0.0829097 75.9376 0.104179 76.9311C0.171853 80.7344 0.388408 86.0932 1.05548 90.6292C1.09028 90.6771 1.12702 90.727 1.16182 90.7749C2.01064 96.5039 3.48206 101.339 5.98792 101.575C8.59626 101.819 8.49572 102.756 52.0022 102.25C66.4495 102.079 95.1064 101.859 103.245 101.964C103.245 124.786 104.252 136.029 111.354 136.597C115.521 136.929 121.793 133.465 155.114 113.265C157.788 111.646 191.594 91.1413 199.415 85.8093C205.997 81.3232 209.429 78.7647 209.429 74.0887C209.429 74.0024 209.425 73.918 209.423 73.8317C209.427 73.7435 209.429 73.6591 209.429 73.5728Z" fill="#777777" fill-opacity="0.502"/>
</g>
<mask id="mask1_145_5" style="mask-type:luminance" maskUnits="userSpaceOnUse" x="4" y="0" width="210" height="127">
<path d="M4.1416 0H213.833V126.186H4.1416V0Z" fill="white"/>
</mask>
<g mask="url(#mask1_145_5)">
<path d="M213.773 62.7881C213.773 58.1102 210.339 55.5517 203.76 51.0675C195.936 45.7356 162.131 25.2307 159.458 23.6119C126.136 3.41007 119.863 -0.0575932 115.697 0.278049C108.595 0.843847 107.587 12.0888 107.587 34.9087C99.4512 35.0142 70.7943 34.7955 56.345 34.6248C12.8385 34.1166 12.9391 35.0545 10.3307 35.2999C7.82486 35.5359 6.35344 40.371 5.50461 46.1C5.47174 46.1479 5.43307 46.1959 5.39827 46.2438C4.73313 50.7798 4.51658 56.1424 4.44891 59.9438C4.4257 60.9373 4.41797 61.8349 4.41797 62.6021C4.41797 62.7402 4.41797 62.8898 4.41797 63.0451C4.41797 63.2005 4.41797 63.3482 4.41797 63.4862C4.41797 64.2534 4.4257 65.1529 4.44891 66.1465C4.51465 69.9498 4.73313 75.3085 5.39827 79.8445C5.43307 79.8924 5.47174 79.9423 5.50461 79.9903C6.35537 85.7192 7.82486 90.5544 10.3307 90.7903C12.9391 91.0339 12.8385 91.9717 56.345 91.4654C70.7943 91.2947 99.4512 91.0741 107.587 91.1796C107.587 114.001 108.595 125.244 115.697 125.812C119.863 126.144 126.136 122.68 159.458 102.48C162.131 100.86 195.936 80.3566 203.76 75.0247C210.339 70.5386 213.773 67.98 213.773 63.304C213.773 63.2177 213.768 63.1333 213.766 63.047C213.769 62.9588 213.773 62.8744 213.773 62.7881Z" fill="white"/>
</g>
<path d="M115.326 43.3995C116.691 42.6342 114.384 9.77193 116.724 8.87433C118.443 8.21647 206.289 59.3837 206.289 63.001C206.289 66.3747 118.54 118.852 117.285 118.532C116.148 118.244 116.438 84.5991 115.239 83.7974C113.744 82.7962 15.4996 85.3088 13.8503 84.0966C13.0556 83.5116 12.4736 64.9132 12.4736 62.8015C12.4736 61.1904 12.5722 44.5886 13.3302 44.3143C15.1516 43.6584 113.974 44.159 115.326 43.3995Z" fill="#86ED18"/>
<path d="M206.291 63.0011C206.291 66.3748 118.542 118.852 117.287 118.532C116.15 118.244 116.509 84.5992 115.313 83.7975C113.82 82.7963 15.7297 84.9214 13.8523 84.0967C12.9068 83.6824 12.9725 71.3173 12.4756 63.1737C12.4215 62.2934 206.291 63.0011 206.291 63.0011Z" fill="#67B500"/>
<path d="M167.564 37.8317L204.396 61.3631C204.763 61.7601 204.481 62.4026 203.938 62.4026L59.1045 62.3681C59.1045 62.37 198.232 62.3048 167.564 37.8317Z" fill="#8EFF59"/>
<path d="M70.472 73.168C70.1173 73.168 69.8 73.028 69.52 72.748C69.24 72.468 69.1 72.1507 69.1 71.796L69.128 55.472C69.128 55.0987 69.2493 54.7813 69.492 54.52C69.7533 54.24 70.08 54.1 70.472 54.1C70.696 54.1 70.9107 54.156 71.116 54.268C71.3213 54.3613 71.4893 54.5013 71.62 54.688L80.384 67.372V55.472C80.384 55.0987 80.5147 54.772 80.776 54.492C81.056 54.212 81.392 54.072 81.784 54.072C82.1573 54.072 82.4747 54.212 82.736 54.492C83.016 54.772 83.156 55.0987 83.156 55.472V71.796C83.156 72.188 83.0253 72.5147 82.764 72.776C82.5027 73.0373 82.176 73.168 81.784 73.168C81.5787 73.168 81.364 73.112 81.14 73C80.9347 72.888 80.7667 72.7387 80.636 72.552L71.9 59.924L71.872 71.796C71.872 72.188 71.732 72.5147 71.452 72.776C71.1907 73.0373 70.864 73.168 70.472 73.168ZM88.7656 73C88.3736 73 88.0376 72.8693 87.7576 72.608C87.4963 72.328 87.3656 71.992 87.3656 71.6V55.64C87.3656 55.248 87.4963 54.9213 87.7576 54.66C88.0376 54.38 88.3736 54.24 88.7656 54.24H99.9376C100.33 54.24 100.656 54.38 100.918 54.66C101.179 54.9213 101.31 55.248 101.31 55.64C101.31 56.032 101.179 56.368 100.918 56.648C100.656 56.9093 100.33 57.04 99.9376 57.04H90.1376V61.856H98.6496C99.0416 61.856 99.3683 61.9867 99.6296 62.248C99.891 62.5093 100.022 62.836 100.022 63.228C100.022 63.62 99.891 63.956 99.6296 64.236C99.3683 64.4973 99.0416 64.628 98.6496 64.628H90.1376V70.2H99.8816C100.274 70.2 100.6 70.34 100.862 70.62C101.123 70.8813 101.254 71.208 101.254 71.6C101.254 71.992 101.123 72.328 100.862 72.608C100.6 72.8693 100.274 73 99.8816 73H88.7656ZM104.607 73.168C104.197 73.168 103.861 73.0373 103.599 72.776C103.338 72.496 103.207 72.1693 103.207 71.796C103.207 71.6467 103.235 71.488 103.291 71.32C103.347 71.1333 103.422 70.9933 103.515 70.9L109.759 63.48L104.075 56.34C103.851 56.0413 103.739 55.752 103.739 55.472C103.739 55.0987 103.879 54.7813 104.159 54.52C104.458 54.24 104.794 54.1 105.167 54.1C105.597 54.1 105.951 54.268 106.231 54.604L111.579 61.296L117.207 54.604C117.338 54.436 117.497 54.3147 117.683 54.24C117.889 54.1467 118.085 54.1 118.271 54.1C118.645 54.1 118.971 54.24 119.251 54.52C119.531 54.8 119.671 55.1173 119.671 55.472C119.671 55.7893 119.559 56.088 119.335 56.368L113.343 63.508L119.251 70.956C119.419 71.1613 119.503 71.4413 119.503 71.796C119.503 72.1693 119.373 72.496 119.111 72.776C118.85 73.0373 118.533 73.168 118.159 73.168C117.711 73.168 117.347 73 117.067 72.664L111.495 65.72L105.643 72.664C105.363 73 105.018 73.168 104.607 73.168ZM128.996 73.168C128.623 73.168 128.296 73.0373 128.016 72.776C127.736 72.496 127.596 72.1693 127.596 71.796V57.04H123.2C122.827 57.04 122.5 56.9 122.22 56.62C121.959 56.34 121.828 56.0133 121.828 55.64C121.828 55.248 121.959 54.9213 122.22 54.66C122.5 54.3987 122.827 54.268 123.2 54.268H134.792C135.184 54.268 135.511 54.3987 135.772 54.66C136.033 54.9213 136.164 55.248 136.164 55.64C136.164 56.032 136.033 56.368 135.772 56.648C135.511 56.9093 135.184 57.04 134.792 57.04H130.368V71.796C130.368 72.1693 130.228 72.496 129.948 72.776C129.687 73.0373 129.369 73.168 128.996 73.168Z" fill="#436C0C"/>
</svg>
