<svg width="165" height="106" viewBox="0 0 165 106" fill="none" xmlns="http://www.w3.org/2000/svg">
<mask id="mask0_99_180" style="mask-type:luminance" maskUnits="userSpaceOnUse" x="0" y="0" width="157" height="89">
<path d="M0 0H156.781V88.599H0V0Z" fill="white"/>
</mask>
<g mask="url(#mask0_99_180)">
<path d="M151.172 87.5677C155.75 87.5677 155.75 82.9583 155.75 69.1302C155.75 65.9427 155.75 51.3333 155.562 45.4531C155.474 42.6719 151.854 36.8698 146.594 36.8698H91.6561V9.21875C91.6561 4.34375 90.578 0 82.4998 0H59.6092C45.8748 0 32.1405 36.8698 32.1405 36.8698C32.1405 36.8698 4.6665 36.8698 4.6665 50.6979V69.1302C4.6665 69.1302 0.0883789 70.6927 0.0883789 78.151C0.0883789 85.6146 4.6665 87.5677 9.24463 87.5677H151.172Z" fill="#DD2E44"/>
</g>
<mask id="mask1_99_180" style="mask-type:luminance" maskUnits="userSpaceOnUse" x="22" y="68" width="39" height="38">
<path d="M22.1143 68.599H60.7809V106H22.1143V68.599Z" fill="white"/>
</mask>
<g mask="url(#mask1_99_180)">
<path d="M59.6089 87.5677C59.6089 88.7761 59.4891 89.974 59.2547 91.1615C59.0203 92.349 58.6766 93.5053 58.2131 94.6198C57.7547 95.7396 57.1922 96.8021 56.5203 97.8073C55.8537 98.8177 55.0933 99.7448 54.2443 100.604C53.3953 101.458 52.4683 102.224 51.4683 102.896C50.4683 103.568 49.4162 104.135 48.3016 104.599C47.1922 105.063 46.0464 105.412 44.8693 105.646C43.687 105.885 42.4995 106 41.2964 106C40.0933 106 38.9006 105.885 37.7235 105.646C36.5412 105.412 35.3953 105.063 34.286 104.599C33.1766 104.135 32.1193 103.568 31.1193 102.896C30.1193 102.224 29.1974 101.458 28.3433 100.604C27.4943 99.7448 26.7339 98.8177 26.0672 97.8073C25.4006 96.8021 24.8381 95.7396 24.3745 94.6198C23.9162 93.5053 23.5672 92.349 23.3328 91.1615C23.0985 89.974 22.9839 88.7761 22.9839 87.5677C22.9839 86.3594 23.0985 85.1563 23.3328 83.9688C23.5672 82.7813 23.9162 81.6302 24.3745 80.5105C24.8381 79.3959 25.4006 78.3334 26.0672 77.323C26.7339 76.3177 27.4943 75.3855 28.3433 74.5313C29.1974 73.6771 30.1193 72.9115 31.1193 72.2396C32.1193 71.5677 33.1766 71 34.286 70.5365C35.3953 70.073 36.5412 69.724 37.7235 69.4844C38.9006 69.25 40.0933 69.1302 41.2964 69.1302C42.4995 69.1302 43.687 69.25 44.8693 69.4844C46.0464 69.724 47.1922 70.073 48.3016 70.5365C49.4162 71 50.4683 71.5677 51.4683 72.2396C52.4683 72.9115 53.3953 73.6771 54.2443 74.5313C55.0933 75.3855 55.8537 76.3177 56.5203 77.323C57.1922 78.3334 57.7547 79.3959 58.2131 80.5105C58.6766 81.6302 59.0203 82.7813 59.2547 83.9688C59.4891 85.1563 59.6089 86.3594 59.6089 87.5677Z" fill="#292F33"/>
</g>
<path d="M50.4531 87.5677C50.4531 88.1719 50.3906 88.7709 50.276 89.3646C50.1563 89.9584 49.9844 90.5365 49.7552 91.0938C49.526 91.6563 49.2448 92.1875 48.9063 92.6875C48.5729 93.1927 48.1927 93.6563 47.7708 94.0834C47.3437 94.5105 46.8802 94.8959 46.3802 95.2292C45.8802 95.5677 45.3542 95.849 44.7969 96.0834C44.2448 96.3125 43.6719 96.4896 43.0833 96.6094C42.4896 96.724 41.8958 96.7865 41.2969 96.7865C40.6927 96.7865 40.099 96.724 39.5104 96.6094C38.9167 96.4896 38.349 96.3125 37.7917 96.0834C37.2344 95.849 36.7083 95.5677 36.2083 95.2292C35.7083 94.8959 35.2448 94.5105 34.8229 94.0834C34.3958 93.6563 34.0156 93.1927 33.6823 92.6875C33.349 92.1875 33.0677 91.6563 32.8333 91.0938C32.6042 90.5365 32.4323 89.9584 32.3125 89.3646C32.1979 88.7709 32.1406 88.1719 32.1406 87.5677C32.1406 86.9636 32.1979 86.3646 32.3125 85.7709C32.4323 85.1771 32.6042 84.599 32.8333 84.0417C33.0677 83.4792 33.349 82.948 33.6823 82.448C34.0156 81.9427 34.3958 81.4792 34.8229 81.0521C35.2448 80.6198 35.7083 80.2396 36.2083 79.9011C36.7083 79.5677 37.2344 79.2813 37.7917 79.0521C38.349 78.8177 38.9167 78.6459 39.5104 78.5261C40.099 78.4115 40.6927 78.349 41.2969 78.349C41.8958 78.349 42.4896 78.4115 43.0833 78.5261C43.6719 78.6459 44.2448 78.8177 44.7969 79.0521C45.3542 79.2813 45.8802 79.5677 46.3802 79.9011C46.8802 80.2396 47.3437 80.6198 47.7708 81.0521C48.1927 81.4792 48.5729 81.9427 48.9063 82.448C49.2448 82.948 49.526 83.4792 49.7552 84.0417C49.9844 84.599 50.1563 85.1771 50.276 85.7709C50.3906 86.3646 50.4531 86.9636 50.4531 87.5677Z" fill="#CCD6DD"/>
<mask id="mask2_99_180" style="mask-type:luminance" maskUnits="userSpaceOnUse" x="104" y="68" width="39" height="38">
<path d="M104.781 68.599H142.115V106H104.781V68.599Z" fill="white"/>
</mask>
<g mask="url(#mask2_99_180)">
<path d="M142.016 87.5677C142.016 88.7761 141.901 89.974 141.667 91.1615C141.432 92.349 141.083 93.5053 140.625 94.6198C140.161 95.7396 139.599 96.8021 138.932 97.8073C138.266 98.8177 137.505 99.7448 136.656 100.604C135.802 101.458 134.88 102.224 133.88 102.896C132.88 103.568 131.823 104.135 130.714 104.599C129.604 105.063 128.458 105.412 127.276 105.646C126.099 105.885 124.906 106 123.703 106C122.5 106 121.313 105.885 120.13 105.646C118.953 105.412 117.807 105.063 116.698 104.599C115.583 104.135 114.531 103.568 113.531 102.896C112.531 102.224 111.604 101.458 110.755 100.604C109.906 99.7448 109.146 98.8177 108.479 97.8073C107.807 96.8021 107.245 95.7396 106.786 94.6198C106.323 93.5053 105.979 92.349 105.745 91.1615C105.51 89.974 105.391 88.7761 105.391 87.5677C105.391 86.3594 105.51 85.1563 105.745 83.9688C105.979 82.7813 106.323 81.6302 106.786 80.5105C107.245 79.3959 107.807 78.3334 108.479 77.323C109.146 76.3177 109.906 75.3855 110.755 74.5313C111.604 73.6771 112.531 72.9115 113.531 72.2396C114.531 71.5677 115.583 71 116.698 70.5365C117.807 70.073 118.953 69.724 120.13 69.4844C121.313 69.25 122.5 69.1302 123.703 69.1302C124.906 69.1302 126.099 69.25 127.276 69.4844C128.458 69.724 129.604 70.073 130.714 70.5365C131.823 71 132.88 71.5677 133.88 72.2396C134.88 72.9115 135.802 73.6771 136.656 74.5313C137.505 75.3855 138.266 76.3177 138.932 77.323C139.599 78.3334 140.161 79.3959 140.625 80.5105C141.083 81.6302 141.432 82.7813 141.667 83.9688C141.901 85.1563 142.016 86.3594 142.016 87.5677Z" fill="#292F33"/>
</g>
<path d="M132.859 87.5677C132.859 88.1719 132.802 88.7709 132.688 89.3646C132.568 89.9584 132.396 90.5365 132.161 91.0938C131.932 91.6563 131.651 92.1875 131.318 92.6875C130.984 93.1927 130.604 93.6563 130.177 94.0834C129.755 94.5105 129.292 94.8959 128.792 95.2292C128.292 95.5677 127.766 95.849 127.208 96.0834C126.651 96.3125 126.078 96.4896 125.49 96.6094C124.901 96.724 124.307 96.7865 123.703 96.7865C123.104 96.7865 122.505 96.724 121.917 96.6094C121.328 96.4896 120.755 96.3125 120.198 96.0834C119.646 95.849 119.12 95.5677 118.62 95.2292C118.12 94.8959 117.656 94.5105 117.229 94.0834C116.802 93.6563 116.427 93.1927 116.089 92.6875C115.755 92.1875 115.474 91.6563 115.245 91.0938C115.016 90.5365 114.839 89.9584 114.724 89.3646C114.604 88.7709 114.547 88.1719 114.547 87.5677C114.547 86.9636 114.604 86.3646 114.724 85.7709C114.839 85.1771 115.016 84.599 115.245 84.0417C115.474 83.4792 115.755 82.948 116.089 82.448C116.427 81.9427 116.802 81.4792 117.229 81.0521C117.656 80.6198 118.12 80.2396 118.62 79.9011C119.12 79.5677 119.646 79.2813 120.198 79.0521C120.755 78.8177 121.328 78.6459 121.917 78.5261C122.505 78.4115 123.104 78.349 123.703 78.349C124.307 78.349 124.901 78.4115 125.49 78.5261C126.078 78.6459 126.651 78.8177 127.208 79.0521C127.766 79.2813 128.292 79.5677 128.792 79.9011C129.292 80.2396 129.755 80.6198 130.177 81.0521C130.604 81.4792 130.984 81.9427 131.318 82.448C131.651 82.948 131.932 83.4792 132.161 84.0417C132.396 84.599 132.568 85.1771 132.688 85.7709C132.802 86.3646 132.859 86.9636 132.859 87.5677Z" fill="#CCD6DD"/>
<path d="M45.875 32.2604C45.875 36.8698 47.9271 36.8698 50.4531 36.8698H73.3438C75.875 36.8698 77.9219 34.8073 77.9219 32.2604V13.8281C77.9219 11.2865 75.875 9.21875 73.3438 9.21875H59.6094C55.0312 9.21875 45.875 27.6563 45.875 32.2604Z" fill="#BBDDF5"/>
<mask id="mask3_99_180" style="mask-type:luminance" maskUnits="userSpaceOnUse" x="91" y="36" width="75" height="16">
<path d="M91.4482 36.599H165V51.2657H91.4482V36.599Z" fill="white"/>
</mask>
<g mask="url(#mask3_99_180)">
<path d="M164.912 43.7865C164.912 47.599 161.834 50.6979 158.042 50.6979H91.6567V36.8698H158.042C161.834 36.8698 164.912 39.9636 164.912 43.7865Z" fill="#F492A9"/>
</g>
<path d="M4.66699 50.6979H9.24512V73.7395H4.66699V50.6979Z" fill="#99AAB5"/>
<mask id="mask4_99_180" style="mask-type:luminance" maskUnits="userSpaceOnUse" x="0" y="68" width="161" height="21">
<path d="M0 68.599H160.781V88.599H0V68.599Z" fill="white"/>
</mask>
<g mask="url(#mask4_99_180)">
<path d="M9.24463 87.5677H4.6665C2.15088 87.5677 0.0883789 85.4948 0.0883789 82.9584V73.7396C0.0883789 71.2084 2.15088 69.1302 4.6665 69.1302H9.24463C11.7655 69.1302 13.828 71.2084 13.828 73.7396V82.9584C13.828 85.4948 11.7655 87.5677 9.24463 87.5677ZM155.75 87.5677H151.172C148.656 87.5677 146.594 85.4948 146.594 82.9584V73.7396C146.594 71.2084 148.656 69.1302 151.172 69.1302H155.75C158.271 69.1302 160.328 71.2084 160.328 73.7396V82.9584C160.328 85.4948 158.271 87.5677 155.75 87.5677Z" fill="#CCD6DD"/>
</g>
</svg>
