<svg width="407" height="173" viewBox="0 0 407 173" fill="none" xmlns="http://www.w3.org/2000/svg">
<mask id="mask0_131_277" style="mask-type:luminance" maskUnits="userSpaceOnUse" x="0" y="0" width="407" height="173">
<path d="M0.519043 0.531616H406.848V172.684H0.519043V0.531616Z" fill="white"/>
</mask>
<g mask="url(#mask0_131_277)">
<mask id="mask1_131_277" style="mask-type:luminance" maskUnits="userSpaceOnUse" x="-1" y="-2" width="410" height="175">
<path d="M408.318 -1.0968H-0.120605V172.743H408.318V-1.0968Z" fill="white"/>
</mask>
<g mask="url(#mask1_131_277)">
<mask id="mask2_131_277" style="mask-type:luminance" maskUnits="userSpaceOnUse" x="1" y="0" width="404" height="173">
<path d="M1.56738 0.590942H404.943V172.684H1.56738V0.590942Z" fill="white"/>
</mask>
<g mask="url(#mask2_131_277)">
<path d="M2.477 112.405C1.14525 106.643 0.815614 100.769 7.14473 96.7803C9.472 95.3035 9.65659 92.5345 9.62363 89.5809C9.55111 81.0894 10.7312 72.6308 12.063 64.8051C13.4738 56.4981 17.4295 50.4393 24.497 45.7848C36.2652 38.1041 48.6268 30.6806 61.285 23.7384C62.3201 23.1516 63.4277 22.6308 64.5023 22.1495C66.6845 21.121 68.7943 20.1189 70.6073 18.6421C70.093 18.2729 69.4272 17.9433 68.7943 17.6466C66.9483 16.7632 64.6869 15.616 65.577 12.4053C66.467 9.26712 69.5327 8.93089 72.0511 8.67377C72.3873 8.67377 72.717 8.60125 73.0137 8.56169C107.283 4.09835 135.962 2.0282 163.236 2.0282C190.511 2.0282 190.992 2.61496 204.125 3.76211C219.335 5.09386 235.395 7.42113 249.906 15.2073C272.888 27.5424 294.421 43.0158 313.922 61.2582C316.144 63.3283 318.142 64.2843 320.996 64.6205C338.645 66.7961 355.892 69.163 372.987 74.3647C380.833 76.7711 386.272 80.3839 390.082 85.8164C394.856 92.5741 398.818 100.921 402.22 111.331C405.075 120.086 403.446 130.199 397.968 137.735C393.227 144.268 386.232 148 378.796 148C378.281 148 377.76 148 377.207 147.96C376.317 147.888 375.354 147.888 374.279 147.888C373.211 147.888 371.728 147.927 370.508 147.96C369.249 148 367.957 148.04 366.658 148.04C365.366 148.04 365.847 148.04 365.439 148.04C365.287 148.04 365.181 148.04 365.03 148.04C362.96 148.04 361.661 148.442 360.738 150.584C357.593 157.823 351.521 162.623 345.97 166.387C344.935 168.682 342.825 170.158 340.234 170.488L339.239 170.6C334.795 171.154 330.246 171.747 325.769 171.747C319.216 171.747 313.889 170.488 309.076 167.831C302.635 164.653 297.829 160.223 294.79 154.646C292.014 149.516 288.098 148.442 282.692 148.409C275.473 148.33 268.109 148.33 261.008 148.297C245.719 148.297 229.883 148.257 214.305 147.558C204.349 147.117 193.583 146.932 180.404 146.932C167.232 146.932 164.232 147.004 156.314 147.077C148.436 147.15 140.254 147.222 132.224 147.222C124.194 147.222 129.745 147.222 128.525 147.222H128.486C124.603 147.222 122.157 148.593 120.126 151.989C115.867 159.003 110.468 164.324 104.099 167.759C99.141 170.376 93.7349 171.668 87.4849 171.668C83.6743 171.668 79.4878 171.194 74.2333 170.191C72.3478 169.822 69.7568 169.051 68.3525 166.427C58.9512 160.889 52.8462 153.393 50.1431 144.163C49.4443 141.796 48.3301 141.387 45.8908 141.282C38.3024 140.985 30.9778 139.027 23.9037 137.109C19.5788 135.929 15.1023 134.742 10.6587 133.931C7.51393 133.377 4.92294 131.716 3.43956 129.276C1.89024 126.764 1.59357 123.626 2.55612 120.416C3.36704 117.686 3.14947 115.431 2.477 112.438V112.405Z" fill="white"/>
</g>
<path d="M345.416 165.801C351.488 161.7 357.072 157.085 360.111 150.182C361.259 147.558 362.992 147.15 365.478 147.189C369.401 147.262 373.356 146.853 377.279 147.15C394.823 148.369 407.145 128.65 401.554 111.482C398.818 103.063 394.968 93.9388 389.489 86.1857C385.349 80.3114 379.501 77.0612 372.763 75.0306C355.852 69.8618 338.388 67.462 320.917 65.2864C317.812 64.9172 315.663 63.8096 313.441 61.6999C294.124 43.6817 272.921 28.2809 249.569 15.7611C235.322 8.11999 219.783 5.79272 204.092 4.42801C160.276 0.584387 116.645 3.57753 73.1652 9.22758C70.5346 9.55722 67.1657 9.52426 66.3152 12.5504C65.2076 16.539 69.7567 16.4269 71.7543 18.6092C68.8337 21.3056 65.056 22.5187 61.687 24.3713C49.1475 31.2344 36.898 38.5459 24.9452 46.4111C18.0623 50.9206 14.1725 56.8278 12.8078 64.9502C11.4365 73.1516 10.2894 81.307 10.3619 89.6205C10.3619 92.5741 10.2498 95.7123 7.54676 97.4462C1.59344 101.211 1.92308 106.676 3.18231 112.293C3.84818 115.174 4.14486 117.607 3.25483 120.64C1.4418 126.732 4.55361 132.085 10.8036 133.232C22.6114 135.335 33.8258 140.095 45.9632 140.576C48.4421 140.689 50.0705 141.13 50.8814 143.978C53.7361 153.795 60.2103 160.849 68.9458 165.946C70.0533 168.24 72.1631 169.123 74.3848 169.532C84.373 171.451 94.3281 172.189 103.769 167.165C110.5 163.513 115.61 158.08 119.493 151.659C121.675 148.04 124.339 146.523 128.558 146.523C157.164 146.596 185.81 145.64 214.344 146.853C237.135 147.855 259.894 147.446 282.692 147.67C288.388 147.743 292.495 148.963 295.423 154.316C298.528 160.039 303.453 164.284 309.373 167.165C319.256 172.631 329.725 171.042 340.161 169.717C342.423 169.42 344.42 168.161 345.416 165.834V165.801Z" fill="#1F1F1F"/>
<path d="M52.5098 95.086C55.8787 100.696 59.063 100.954 65.0559 97.2286C92.0338 80.6081 124.602 98.1846 126.376 129.87C126.488 131.716 126.785 133.634 126.488 135.447C125.862 139.653 127.154 141.097 131.703 141.13C155.536 141.242 179.369 141.757 203.202 142.093C228.921 142.462 254.606 142.719 280.325 143.312C285.428 143.425 286.872 142.132 286.799 136.884C286.39 115.84 296.609 100.327 314.258 94.1959C340.346 85.1506 367.396 104.501 368.174 132.382C368.286 136.298 364.997 141.724 369.401 143.939C372.578 145.561 377.464 143.754 381.611 143.609C388.79 143.385 392.673 138.513 396.154 133.265C398.191 130.199 395.264 131.201 393.893 131.05C389.383 131.531 384.979 130.351 380.496 130.384C376.389 130.384 376.468 126.619 376.284 123.963C375.393 111.403 368.141 102.213 360.368 93.3125C356.485 88.8821 351.633 85.8165 346.378 83.265C340.9 80.6477 335.092 79.3555 329.059 79.5401C322.4 79.7247 316.032 78.4325 309.558 76.9161C301.198 74.9976 292.759 72.7824 284.175 76.0261C282.323 78.3534 282.619 81.1224 282.764 83.7859C283.503 98.5208 280.991 112.959 278.809 127.43C277.661 135.039 276.956 135.889 269.256 135.447C244.869 134.043 220.409 135.263 196.095 133.97C177.668 133.008 159.314 133.417 140.92 133.153C136.001 133.08 133.707 131.459 133.074 126.692C130.483 106.94 120.014 93.24 101.396 85.8494C99.4375 85.0781 98.0332 83.4167 96.029 82.7838C82.1907 80.496 69.2753 82.7838 57.4742 90.5435C55.582 91.7632 53.5844 92.9763 52.6218 95.1915L52.5098 95.086Z" fill="#C82F2E"/>
<path d="M338.164 71.2661C327.695 68.5696 316.889 68.385 306.228 66.9082C301.488 66.2423 297.717 64.3963 294.203 61.1131C278.624 46.4902 260.375 35.0055 244.388 21.0419C230.516 8.93088 214.529 8.60124 198.469 7.01237C165.94 3.80166 133.444 6.08937 100.994 9.15504C99.6223 9.30008 97.7697 8.89792 97.328 10.7439C96.1413 15.616 91.8164 16.7236 88.1508 18.2729C67.7987 26.8766 49.8465 39.6205 31.2679 51.2898C28.6835 52.9116 27.2397 55.2785 26.2046 58.5617C33.0875 59.043 39.7858 59.4847 46.4775 59.9264C57.8765 58.8188 69.3151 59.8209 80.7141 59.4847C85.006 59.3726 89.3309 59.4517 93.2536 57.2695C94.8821 54.0588 92.146 54.0918 90.4055 53.6896C86.1532 52.7666 81.7492 52.6941 77.5693 51.4019C71.827 49.6284 70.7194 46.3781 74.4179 41.684C78.044 37.1086 82.5601 33.4496 87.8541 30.8323C106.209 21.6748 125.565 16.2094 146.062 14.4359C168.234 12.5174 190.247 12.9921 212.34 15.616C226.811 17.3499 238.283 24.846 249.458 33.1925C260.896 41.7632 271.998 50.736 283.101 59.7088C286.727 62.6229 289.245 66.3544 291.981 70.0134C293.643 71.4111 295.719 71.7078 297.79 72.0045C308.45 73.6659 319.289 73.3362 329.989 74.3317C332.982 74.6284 336.351 74.7009 338.164 71.2265V71.2661Z" fill="#DF3C39"/>
<path d="M294.315 133.562C294.315 152.688 308.483 166.757 327.504 166.981C346.86 167.205 361.364 150.736 361.292 132.896C361.259 116.13 348.159 99.1076 326.989 99.7735C308.266 100.367 294.315 114.251 294.315 133.601V133.562Z" fill="#434243"/>
<path d="M52.7739 134.188C52.5102 151.692 66.2826 166.467 85.5996 166.757C105.727 167.093 119.566 151.547 119.533 133.707C119.493 113.328 107.283 99.846 85.3359 98.923C69.3153 98.2571 51.9564 114.212 52.7739 134.228V134.188Z" fill="#414143"/>
<path d="M52.5097 95.086C58.6543 92.3499 63.9483 88.1437 70.4225 85.889C78.6371 83.0475 87.0364 84.0034 95.4027 83.7133C97.6574 76.3228 95.9235 69.1959 93.9259 62.1086C80.2326 60.0055 66.4997 58.9309 52.6614 59.9264C51.6263 60.0055 50.7363 60.6319 50.0308 61.4428C51.8834 64.2843 50.6242 66.4665 48.4815 68.4246C46.4443 70.2706 43.8534 71.0419 41.3745 71.9649C35.3816 74.2197 34.4915 77.2853 38.823 81.7553C43.26 86.2977 47.9211 90.616 52.5097 95.0464V95.086Z" fill="#DE3836"/>
<path d="M5.62842 107.342C6.25474 120.969 18.5438 133.522 33.8589 135.744C37.3004 136.219 41.3022 138.473 44.1108 136.588C46.8534 134.742 44.8162 130.424 45.4821 127.246C46.8534 120.488 48.9631 113.843 53.4 108.601C57.659 103.578 56.3602 100.367 51.6991 97.1891C51.0728 97.7033 51.5475 96.7803 51.1783 97.4462C43.7086 110.632 31.4591 107.045 20.0601 106.307C15.1748 105.977 10.25 104.276 5.66138 107.342H5.62842Z" fill="#C42C2A"/>
<path d="M5.62816 107.342C16.7634 107.309 27.8262 108.377 38.856 109.597C40.8932 109.821 42.5216 109.597 43.9259 108.12C47.0377 104.83 50.1429 101.58 51.6593 97.1891C46.8861 92.3895 42.1129 87.6229 37.3792 82.7508C36.0804 81.4191 34.7157 81.0894 32.9357 81.2345C31.0831 81.3861 29.2371 81.3465 27.3845 81.274C23.0926 81.2015 17.8381 79.461 14.7263 81.3465C11.1398 83.4892 13.6582 89.2843 12.9528 93.4246C12.5111 96.2265 11.2518 98.4417 8.91799 100.07C6.39953 101.844 4.73813 104.019 5.54905 107.342H5.62816Z" fill="#D63937"/>
<path d="M338.164 71.266C337.386 71.5957 336.648 72.189 335.87 72.189C321.102 72.189 306.341 72.1165 291.797 68.7937C288.982 66.9477 286.061 65.9852 282.765 67.5345C280.991 70.9694 281.769 73.8504 284.73 76.2173C295.937 75.5844 306.822 77.727 317.555 80.5356C324.399 82.342 331.578 79.9818 338.349 82.342C341.052 83.3046 343.828 84.0429 346.564 84.8934C349.267 84.0429 351.152 86.001 353.447 86.7724C356.295 87.7349 359.261 89.3634 361.701 86.034C361.971 81.63 365.993 79.428 373.766 79.428C362.439 74.4042 350.414 72.4132 338.164 71.2265V71.266Z" fill="#EE6B6D"/>
<path d="M361.701 86.034C357.817 87.6624 354.594 85.7439 351.192 84.2671C349.748 83.6342 347.526 80.9377 346.563 84.9264C362.808 94.6772 373.396 108.305 375.097 127.615C375.466 131.676 377.167 132.599 380.536 132.157C384.98 131.604 389.601 133.489 393.86 131.05C388.566 129.059 383.464 126.764 381.018 121.194C378.684 115.84 380.464 113.328 386.2 113.698C389.272 113.915 392.344 114.469 395.416 114.766C396.596 114.878 398.04 115.207 398.746 113.882C399.524 112.438 398.779 111.113 397.856 109.926C395.858 107.342 393.043 105.832 389.938 105.536C376.838 104.276 367.957 97.1165 361.701 86.034Z" fill="#DE3B3B"/>
<path d="M243.649 17.5345C249.569 21.8924 255.457 26.3228 261.41 30.6477C273.627 39.548 285.467 48.8504 296.312 59.4122C300.341 63.3613 304.784 64.9501 311.595 63.6579C290.425 45.0859 269.11 28.3533 243.649 17.5345Z" fill="#C6C6CC"/>
<path d="M393.861 103.248C392.825 100.4 392.265 98.6263 391.566 96.9319C386.714 85.0055 380.352 81.3069 367.549 82.4541C363.586 82.8233 365.03 84.8539 365.92 86.5878C369.507 93.6421 374.359 99.2921 382.719 100.841C386.127 101.474 389.489 102.285 393.821 103.208L393.861 103.248Z" fill="#E8E9E9"/>
<path d="M19.3939 76.3623C21.319 80.5686 25.1627 78.3204 28.1624 78.9072C32.3423 79.7576 33.1927 77.582 33.529 73.8109C33.8256 70.6398 37.5638 70.8573 39.891 69.7497C42.7457 68.4246 47.9211 68.3455 47.3343 64.581C46.6685 60.6319 41.6711 61.6999 38.3417 61.5153C35.0453 61.3307 31.7159 61.4428 28.4195 61.3307C26.2768 61.2582 24.2792 61.2582 23.2376 63.625C18.6885 66.9082 19.2093 71.6748 19.4269 76.3623H19.3939Z" fill="#DA322F"/>
<path d="M50.0315 61.4823C64.6149 60.4077 79.0861 63.4404 93.6299 62.6624C94.2562 62.2932 94.665 61.7394 94.9221 61.0735C95.2913 59.2671 95.4034 57.5662 93.4783 56.4586C78.4928 58.8188 63.3952 57.2365 48.3306 57.7903C47.4801 57.7903 43.4453 56.1619 46.445 59.9264C47.6251 60.4472 48.8119 60.9615 49.9986 61.4823H50.0315Z" fill="#EA686B"/>
<path d="M69.9414 12.847C78.9736 20.6002 85.3752 20.6727 93.1482 13.8821C93.847 13.2558 94.7766 12.2207 94.6975 11.4427C94.5524 9.66928 92.8844 10.1506 91.7768 10.2626C84.8214 11.0406 77.8989 11.8845 69.9414 12.8075V12.847Z" fill="#DE413D"/>
<path d="M19.3942 76.3623C21.3918 72.3341 20.726 67.5016 23.2049 63.625C23.1323 61.6273 21.8336 61.1856 20.2447 61.5548C12.8409 63.1767 15.9132 69.8618 14.654 74.1471C13.5068 78.0962 17.7658 75.5118 19.3942 76.3623Z" fill="#F2EEEC"/>
<path d="M26.1651 50.0306C24.2796 51.2173 22.2028 52.1733 20.5415 53.6171C19.1701 54.8302 16.9154 56.7882 18.8339 58.6013C20.5415 60.1901 22.6116 58.7134 23.8313 56.7553C25.2751 54.5401 26.7585 52.3579 28.2023 50.1427C27.5364 49.6614 26.8706 49.6284 26.1651 50.0306Z" fill="#CC3738"/>
<path d="M14.9109 130.977C12.2145 127.687 9.62348 124.589 7.0325 121.484C4.69864 126.804 6.95998 129.646 14.9109 130.977Z" fill="#CABEC2"/>
<path d="M26.165 50.0305C26.8309 50.0701 27.5363 50.1097 28.2022 50.1426C33.938 46.266 39.7067 42.3895 45.4425 38.5129C38.2629 41.1302 31.6766 44.7497 26.165 50.0305Z" fill="#BFABA9"/>
<path d="M65.5376 25.1097C62.9466 26.5469 60.3556 27.9842 56.2153 30.2785C61.4698 30.1268 63.54 27.4304 66.4276 26.4348C66.1309 25.9931 65.8343 25.5514 65.5376 25.1097Z" fill="#928A8A"/>
<path d="M94.1109 61.3307C93.9593 61.7724 93.8142 62.1812 93.6626 62.6229C94.256 69.6442 94.8098 76.659 95.4031 83.7133C97.0711 85.2626 98.6995 86.7394 100.915 87.5899C118.9 94.4201 128.783 107.784 131.149 126.58C131.967 133.008 134.334 134.814 140.92 134.814C175.743 134.926 210.567 135.408 245.35 136.298C254.455 136.515 263.56 136.772 272.664 137.254C277.101 137.478 278.809 135.816 279.62 131.571C283.213 113.289 285.059 94.8618 284.729 76.2107C284.433 73.4087 282.653 70.7848 283.398 67.8312C282.138 66.7961 281.248 67.6466 280.358 68.4575C280.029 69.0113 279.844 69.5651 279.772 70.198C279.844 72.4462 280.655 74.5493 280.919 76.7711C282.171 93.8663 279.508 110.632 276.475 127.318C275.664 131.604 272.737 132.751 268.775 132.863C244.098 133.562 219.447 131.828 194.803 131.604C189.845 131.571 189.028 128.61 189.067 124.701C189.582 106.492 191.138 88.2888 188.731 70.1189C187.953 67.6862 187.953 64.8776 185.257 63.4404C184.479 63.3283 183.773 63.5129 183.18 63.9942C182.554 64.9897 182.442 66.0973 182.593 67.2379C184.663 85.8164 184.888 104.428 183.035 123.04C182.666 131.643 182.666 131.861 174.339 131.643C163.197 131.347 152.095 129.87 140.96 130.424C135.738 130.681 135.151 126.844 134.334 123.152C131.116 107.639 123.64 94.7893 108.912 87.9591C100.473 84.043 96.7349 78.7621 97.9545 69.7497C98.1787 68.1279 97.9941 66.4665 97.737 64.8051C97.4733 63.5129 96.9195 62.3658 95.8844 61.5153C95.291 61.1131 94.6977 61.1131 94.1109 61.4428V61.3307Z" fill="#4E2325"/>
<path d="M280.951 68.8267C281.769 68.4971 282.58 68.1279 283.43 67.7916C286.173 68.7146 288.948 69.0509 291.829 68.7542C292.462 65.7281 290.201 64.1788 288.428 62.5899C271.444 47.3736 253.532 33.3045 234.248 21.0814C226.218 15.9852 216.968 14.1392 207.646 13.2558C178.631 10.5593 149.655 10.1901 121.049 16.7961C106.835 20.0859 93.4052 25.4789 81.0107 33.265C77.1604 35.6648 73.4948 38.5854 71.6093 42.9433C69.3875 48.112 70.8709 50.9931 76.1979 52.9512C81.8216 54.9818 88.0782 53.6896 93.5172 56.419C93.7018 58.0474 93.8864 59.7088 94.1106 61.3307C94.4798 61.3307 94.8094 61.3307 95.1786 61.3702C97.9938 59.0429 101.211 57.9353 104.916 58.3441C124.563 60.4472 144.328 61.0735 164.014 62.88C170.561 63.4733 177.187 63.0712 183.74 63.8096C184.182 63.8096 184.591 63.8096 185.032 63.8096C200.281 65.2072 215.564 65.6555 230.773 67.0203C241.058 67.9433 251.462 67.8312 261.707 69.2355C268.148 69.5321 274.55 69.6772 280.951 68.7937V68.8267Z" fill="#1C1E1F"/>
<path d="M327.431 157.012C340.089 157.012 351.633 146.484 351.376 134.3C351.079 119.532 341.566 110.151 327.246 109.893C313.962 109.636 303.268 120.488 303.084 133.819C302.932 146.009 314.515 157.045 327.431 157.012Z" fill="#1D2021"/>
<path d="M110.091 133.265C110.091 120.416 99.0682 109.781 85.7837 109.821C72.7892 109.821 61.4298 120.712 61.5418 132.935C61.6869 145.93 72.7892 156.973 85.7441 157.012C98.9561 157.045 110.091 146.194 110.091 133.265Z" fill="#1E2021"/>
<path d="M280.952 68.8268C274.774 66.394 268.333 67.9763 262.043 67.6071C255.385 71.4903 248.126 71.009 240.874 70.3431C225.223 68.9388 209.492 69.2685 193.913 67.0928C191.507 66.7632 188.916 66.7962 186.991 68.8993C188.843 87.4779 187.769 106.05 187.399 124.628C188.995 126.211 191.026 126.58 193.102 126.547C218.524 126.323 243.834 128.465 269.223 129.092C272.295 129.171 275.473 129.461 278.064 127.134C281.618 109.893 284.65 92.5741 281.954 74.8856C279.139 72.855 275.77 73.2967 272.697 72.5583C274.807 70.5673 278.249 70.9694 280.358 68.6817L280.952 68.7938V68.8268Z" fill="#DE3835"/>
<path d="M96.293 63.8425C96.293 65.5039 96.405 67.1653 96.2205 68.7938C95.1458 78.8742 98.3631 85.2956 108.727 89.548C122.717 95.2706 129.191 108.008 132.778 122.15C134.109 123.705 135.962 124.108 137.815 124.035C151.172 123.666 164.417 126.138 177.813 125.4C180.299 125.255 182.778 125.255 184.775 123.442C186.437 104.355 187.254 85.2626 183.885 66.2423C169.638 65.1018 155.391 64.2117 141.144 63.2558C130.187 62.5108 119.196 63.3283 108.246 62.0361C104.283 61.5548 99.919 60.8494 96.293 63.77V63.8425Z" fill="#DE3835"/>
<path d="M278.063 127.213C247.829 127.285 217.673 123.963 187.399 124.701C186.845 133.377 186.845 133.305 195.614 133.45C220.409 133.858 245.205 134.116 270 134.893C276.105 135.078 278.248 132.784 278.063 127.213Z" fill="#C12C2A"/>
<path d="M96.2932 63.8425C117.977 64.693 139.7 65.3589 161.351 66.4995C168.9 66.9082 176.376 69.1234 183.846 66.2819C183.813 65.471 183.74 64.6535 183.661 63.8425C182.923 62.0361 181.446 61.6274 179.626 61.5548C153.539 60.5593 127.563 58.3771 101.548 56.3465C97.77 56.0498 94.8823 56.6432 95.1065 61.3702C95.4757 62.1812 95.8449 62.9921 96.2536 63.8425H96.2932Z" fill="#E86664"/>
<path d="M184.775 123.481C167.417 124.292 150.137 121.635 132.817 122.149C133.813 132.197 133.813 132.085 143.326 132.269C153.875 132.454 164.384 133.153 174.932 133.232C185.811 133.305 184.736 135.408 184.808 123.521L184.775 123.481Z" fill="#C22A29"/>
<path d="M186.99 68.9388C204.646 70.0859 222.262 71.2661 239.911 72.3011C245.053 72.5978 250.235 72.5583 255.417 72.5187C258.786 72.5187 260.342 69.9343 262.043 67.5741C246.761 66.3544 231.512 65.1018 216.229 63.9942C207.751 63.4008 199.279 63.0316 190.808 62.6954C188.882 62.6229 186.621 61.7724 185.032 63.77C185.698 65.471 186.364 67.1653 187.03 68.8663L186.99 68.9388Z" fill="#E5686A"/>
<path d="M280.358 68.7147C276.251 68.3455 272.921 69.8288 270.034 73.1121C274.036 74.813 277.958 75.2152 281.954 74.9185C282.211 72.6704 281.176 70.7123 280.358 68.7147Z" fill="#E96F7A"/>
<path d="M114.944 32.6782C115.386 38.6579 116.019 44.6442 116.164 50.6239C116.236 53.6896 117.608 54.5005 120.232 54.6851C137.182 55.7927 154.132 56.9728 171.082 58.1595C173.673 58.3441 174.781 57.7508 174.484 54.7576C173.337 42.8312 172.262 30.9048 171.563 18.9388C171.339 15.0227 169.862 14.2513 166.269 14.3238C151.099 14.693 136.147 16.6511 121.273 19.5651C115.979 20.6002 113.019 22.5187 114.68 28.3929C115.056 29.7576 114.872 31.274 114.944 32.7112C114.944 32.7112 114.944 32.7112 114.905 32.7112L114.944 32.6782Z" fill="#BBC4D2"/>
<path d="M193.768 15.2468C190.142 14.1788 186.476 14.5084 182.593 14.693C184.848 28.617 187.102 42.2049 189.252 55.8322C189.66 58.5287 190.807 59.6363 193.656 59.8209C213.711 61.0735 233.733 62.4778 253.756 63.77C255.048 63.8425 258.529 65.0226 255.786 61.3702C235.322 46.7803 214.931 32.0849 194.209 17.8707C193.207 17.1653 190.623 16.684 193.768 15.2864V15.2468Z" fill="#BBC4D0"/>
<path d="M255.569 60.1506C255.859 51.1052 257.006 49.9251 267.779 48.8109C260.487 43.1608 254.158 37.8866 247.427 33.1595C237.689 26.2502 227.998 19.1234 215.676 17.2444C212.821 16.7961 210.046 15.9852 207.125 16.7632C202.279 18.4575 204.903 20.7518 207.013 22.2616C212.716 26.3623 218.188 30.7927 224.075 34.6363C231.182 39.2513 237.881 44.4596 245.093 48.923C249.754 51.804 252.088 56.419 255.602 60.111L255.569 60.1506Z" fill="#BBC4D0"/>
<path d="M255.569 60.1506C253.756 49.7734 244.018 47.077 237.208 41.7961C227.958 34.5968 218.003 28.2808 208.345 21.5957C206.499 20.3431 204.053 19.275 207.164 16.7961C202.721 16.0248 198.389 14.6205 193.801 15.2468C192.469 15.471 191.137 15.6885 189.285 15.9852C204.87 27.0612 220.04 37.847 235.21 48.5933C241.058 52.727 247.018 56.7552 252.866 60.9285C253.901 61.6999 254.606 62.7349 255.826 61.3307C255.754 60.9285 255.674 60.5198 255.641 60.111L255.569 60.1506Z" fill="#DEE8F0"/>
<path d="M174.82 26.0327C174.484 35.9285 177.042 45.6002 177.444 55.4235C177.595 58.8979 180.371 58.8188 182.962 58.8188C185.995 58.8188 186.252 56.7552 185.955 54.6126C184.327 42.8707 183.404 30.9773 180.074 19.5321C179.441 17.3169 178.743 14.4359 176.079 15.0226C173.633 15.5764 175.077 18.5696 174.853 20.4881C174.668 22.3341 174.82 24.1867 174.853 26.0656L174.82 26.0327Z" fill="#414242"/>
<path d="M112.577 42.0203C112.241 37.1086 112.017 32.1574 111.503 27.2458C111.351 25.736 112.683 23.0395 109.69 23C107.468 23 104.877 23.7054 104.138 26.1777C101.765 34.0825 100.249 42.1653 99.7674 50.3998C99.5828 53.7225 102.398 52.9116 104.211 53.1687C113.052 54.3884 113.052 54.3555 112.65 45.7123C112.577 44.4926 112.538 43.2399 112.465 42.0203C112.465 42.0203 112.498 42.0203 112.538 42.0203H112.577Z" fill="#BBC4D0"/>
<path d="M271.662 63.8425C274.662 63.8425 278.103 63.915 279.105 60.6648C280.213 57.0519 276.33 56.0894 274.141 54.5005C270.37 51.7711 265.814 52.3974 261.522 52.6149C258.931 52.7666 258.378 54.9092 258.345 57.1574C258.305 60.0055 259.597 61.9965 262.412 62.5503C265.445 63.1437 268.517 63.4404 271.59 63.8425H271.662Z" fill="#DA3739"/>
<path d="M99.029 26.7711C96.2204 27.7995 93.4449 28.9862 92.6669 32.5662C91.5923 37.5899 90.333 42.5345 89.2255 47.5187C88.6651 50.0701 89.1859 52.1007 92.1461 52.582C94.8491 53.0237 96.1413 52.2128 96.5896 49.1076C97.5522 42.6466 99.1015 36.2581 100.512 29.8697C100.809 28.4325 101.62 26.9886 99.029 26.7711Z" fill="#424143"/>
<path d="M90.2206 31.386C83.931 34.2276 79.1578 37.9921 75.3076 42.8708C74.1605 44.3475 73.0133 46.2265 74.5692 47.9275C76.9756 50.5514 80.4896 50.6635 83.786 50.9931C86.0803 51.2173 86.0803 49.1471 86.4495 47.5583C87.6296 42.3895 88.8559 37.2207 90.2206 31.419V31.386Z" fill="#C0C8D1"/>
<path d="M327.655 154.388C330.8 153.65 337.426 154.461 337.314 150.439C337.202 146.411 332.982 141.836 328.987 138.803C327.431 137.623 325.803 139.284 324.807 140.504C322.513 143.385 320.515 146.484 318.254 149.444C316.995 151.066 317.515 151.877 319.183 152.615C321.662 153.723 324.214 154.388 327.655 154.388Z" fill="#CDC9CA"/>
<path d="M309.525 132.045C306.229 131.274 306.413 133.489 306.558 135.665C306.934 141.13 309.446 145.528 313.553 148.963C314.483 149.734 323.99 137.478 323.845 135.632C323.693 133.562 317.588 132.012 309.525 132.012V132.045Z" fill="#C6C4C5"/>
<path d="M327.246 112.254C325.249 112.695 323.436 113.065 321.662 113.434C318.511 114.1 318.036 115.656 320.034 118.128C320.548 118.754 320.845 119.565 321.399 120.158C323.805 123 324.88 129.646 327.8 128.578C332.316 126.949 333.391 120.528 336.015 116.209C336.944 114.653 335.389 113.988 334.314 113.697C331.947 113.065 329.541 112.662 327.246 112.221V112.254Z" fill="#CAC9CB"/>
<path d="M342.528 132.823C340.234 133.819 334.129 131.307 332.316 135.335C330.912 138.473 336.239 141.572 337.94 145.046C340.57 150.367 342.865 148.963 345.199 144.822C346.636 142.277 347.75 139.693 348.231 136.739C348.746 133.489 348.455 131.234 342.568 132.784L342.528 132.823Z" fill="#CAC7C7"/>
<path d="M331.618 130.496C335.244 131.676 337.94 130.127 340.755 129.797C348.825 128.835 349.155 127.951 344.454 121.378C340.089 115.28 339.351 115.319 336.055 121.853C334.683 124.589 333.246 127.285 331.618 130.496Z" fill="#C4C1C2"/>
<path d="M323.212 130.311C322.216 125.657 318.887 122.413 316.85 118.53C315.927 116.796 314.595 116.869 313.369 118.128C312.109 119.453 310.89 120.857 309.927 122.413C306.268 128.353 306.525 128.986 313.296 129.573C316.481 129.83 319.625 131.274 323.212 130.351V130.311Z" fill="#C1BFC1"/>
<path d="M86.1861 153.907C89.8122 153.426 93.847 154.059 96.2534 150.439C96.8863 149.477 86.9641 137.92 85.8169 138.032C84.5973 138.144 75.6047 149.549 76.2705 150.551C78.6374 154.092 82.6722 153.426 86.1861 153.947V153.907Z" fill="#CDCBCB"/>
<path d="M99.4378 149.147C101.805 147.743 102.991 146.042 103.954 144.235C105.912 140.616 108.543 136.331 106.169 132.751C104.356 130.054 100.104 132.751 96.9194 132.896C95.8843 132.968 94.8822 133.265 93.8471 133.265C88.8564 133.265 89.4102 135.592 91.5924 138.546C94.1438 142.02 96.7348 145.488 99.4378 149.108V149.147Z" fill="#C7C6C7"/>
<path d="M69.9415 132.415C66.8363 132.085 64.9837 131.973 65.0563 135.223C65.1288 139.469 69.5328 148.257 72.0512 148.442C73.2709 148.554 82.191 137.478 81.5251 136.001C78.8616 130.384 72.9742 134.445 69.9811 132.382L69.9415 132.415Z" fill="#CAC9C9"/>
<path d="M85.8565 112.326C82.448 112.735 78.5649 112.181 77.009 116.17C76.4156 117.719 84.9665 129.019 86.0807 128.874C86.9312 128.762 94.3283 117.053 93.9262 115.801C92.5878 111.667 88.8167 112.88 85.8895 112.366L85.8565 112.326Z" fill="#C7C6C7"/>
<path d="M89.812 131.122C95.5478 130.054 100.73 129.092 105.912 128.136C105.912 127.503 106.024 127.028 105.912 126.692C104.099 122.558 102.47 117.205 97.8091 116.724C94.8819 116.427 94.3677 122.077 92.4425 124.846C91.2954 126.507 89.8911 128.096 89.8516 131.122H89.812Z" fill="#C8C7C7"/>
<path d="M81.5975 130.753C80.4899 126.474 78.044 123.89 76.1255 121.042C75.1629 119.638 74.9387 115.543 71.794 117.976C68.5767 120.455 66.1703 123.963 66.2428 128.353C66.2428 129.355 67.8317 129.355 68.8668 129.461C72.9411 129.87 76.9759 130.278 81.5975 130.753Z" fill="#C8C6C7"/>
<path d="M205.833 81.6036C209.09 80.7531 214.826 83.4166 215.043 78.3204C215.267 72.967 209.419 75.5514 206.235 74.813C203.868 74.2592 201.35 74.1076 198.871 74.1471C197.058 74.1471 194.948 74.5888 194.691 76.9557C194.394 79.5401 196.28 80.6806 198.429 81.0498C200.836 81.4915 203.347 81.4586 205.866 81.6036H205.833Z" fill="#3B272E"/>
<path d="M113.724 68.8267C112.056 68.8267 110.428 68.8267 108.76 68.8267C106.617 68.8267 104.283 69.0113 104.211 71.7803C104.171 74.0351 105.767 75.9536 107.982 76.0656C112.907 76.3228 117.864 76.2173 122.822 75.9536C124.49 75.8415 125.822 74.4438 125.749 72.5187C125.677 70.8244 124.49 69.9014 122.974 69.6772C119.941 69.2355 116.869 68.9388 113.797 68.6092C113.797 68.6817 113.797 68.7938 113.797 68.8663L113.724 68.8267Z" fill="#3C262B"/>
<path d="M197.763 77.4699C202.464 79.8301 207.422 78.7621 212.307 78.4325C207.646 75.6964 202.721 76.5469 197.763 77.4699Z" fill="#CC3630"/>
<path d="M107.316 72.044C112.017 74.846 116.974 73.4812 121.899 72.9274C117.166 70.3826 112.241 71.5627 107.316 72.044Z" fill="#CE3536"/>
</g>
</g>
</svg>
