<svg width="1997" height="694" viewBox="0 0 1997 694" fill="none" xmlns="http://www.w3.org/2000/svg">
<mask id="mask0_145_2" style="mask-type:luminance" maskUnits="userSpaceOnUse" x="0" y="0" width="1856" height="694">
<path d="M0 0H1855.03V693.359H0V0Z" fill="white"/>
</mask>
<g mask="url(#mask0_145_2)">
<path d="M1242.54 693.201C1142.61 693.201 1061.31 611.904 1061.31 511.981V211.597C1061.31 142.998 1005.5 87.19 936.896 87.19C868.292 87.19 812.48 142.998 812.48 211.597V222.359C812.48 308.776 742.172 379.087 655.742 379.087H599.541C554.043 379.087 517.033 416.095 517.033 461.59C517.033 555.034 441.004 631.058 347.554 631.058H-0.52002V544.099H347.554C393.051 544.099 430.061 507.084 430.061 461.59C430.061 368.145 506.09 292.121 599.541 292.121H655.742C694.212 292.121 725.516 260.826 725.516 222.359V211.597C725.516 155.139 747.503 102.061 787.424 62.1351C827.352 22.2164 880.434 0.23114 936.896 0.23114C993.357 0.23114 1046.44 22.2164 1086.37 62.1351C1126.29 102.061 1148.28 155.139 1148.28 211.597V511.981C1148.28 563.954 1190.57 606.242 1242.54 606.242C1294.52 606.242 1336.8 563.954 1336.8 511.981V484.947C1336.8 354.112 1439.06 245.948 1569.6 238.711L1570.9 238.638L1854.99 239.931L1854.59 326.897L1573.19 325.612C1489.31 330.899 1423.77 400.653 1423.77 484.947V511.981C1423.77 611.904 1342.47 693.201 1242.54 693.201Z" fill="#545454"/>
</g>
<mask id="mask1_145_2" style="mask-type:luminance" maskUnits="userSpaceOnUse" x="0" y="40" width="1856" height="615">
<path d="M0 40.2871H1855.03V654.141H0V40.2871Z" fill="white"/>
</mask>
<g mask="url(#mask1_145_2)">
<path d="M1242.51 652.617C1237.14 652.617 1231.71 652.314 1226.4 651.7L1227.06 645.944C1232.16 646.529 1237.36 646.825 1242.51 646.825C1243.05 646.839 1243.54 646.818 1244.05 646.81L1244.12 652.61C1243.58 652.617 1243.06 652.632 1242.51 652.617ZM1261.81 651.31L1261.02 645.568C1266.62 644.795 1272.24 643.661 1277.69 642.188L1279.2 647.786C1273.51 649.324 1267.66 650.501 1261.81 651.31ZM1208.93 648.573C1203.21 647.164 1197.51 645.373 1192 643.25L1194.09 637.84C1199.37 639.877 1204.83 641.596 1210.32 642.939L1208.93 648.573ZM1296.01 642.08L1293.8 636.721C1299.03 634.568 1304.18 632.055 1309.09 629.253L1311.97 634.294C1306.83 637.219 1301.47 639.834 1296.01 642.08ZM1175.9 635.839C1170.71 633.037 1165.65 629.881 1160.85 626.45L1164.22 621.734C1168.82 625.02 1173.68 628.046 1178.65 630.733L1175.9 635.839ZM1326.8 624.558L1323.32 619.921C1327.85 616.527 1332.21 612.814 1336.27 608.878L1340.3 613.045C1336.06 617.148 1331.52 621.026 1326.8 624.558ZM1147.1 615.248C1142.77 611.24 1138.65 606.928 1134.85 602.407L1139.29 598.68C1142.93 603.006 1146.88 607.152 1151.03 610.987L1147.1 615.248ZM1352.26 599.936L1347.74 596.311C1351.28 591.898 1354.57 587.225 1357.53 582.407L1362.47 585.441C1359.39 590.461 1355.95 595.343 1352.26 599.936ZM347.554 590.475H347.352V584.675H347.554C353.152 584.675 358.785 584.3 364.297 583.549L365.077 589.298C359.305 590.078 353.412 590.475 347.554 590.475ZM329.959 590.475H312.566V584.675H329.959V590.475ZM295.166 590.475H277.773V584.675H295.166V590.475ZM260.38 590.475H242.987V584.675H260.38V590.475ZM225.594 590.475H208.201V584.675H225.594V590.475ZM190.809 590.475H173.416V584.675H190.809V590.475ZM156.023 590.475H138.63V584.675H156.023V590.475ZM121.237 590.475H103.837V584.675H121.237V590.475ZM86.4442 590.475H69.0514V584.675H86.4442V590.475ZM51.6585 590.475H34.2657V584.675H51.6585V590.475ZM16.8728 590.475H-0.52002V584.675H16.8728V590.475ZM1124.31 588.135C1121.1 583.173 1118.18 577.966 1115.64 572.65L1120.86 570.144C1123.31 575.236 1126.11 580.234 1129.18 584.993L1124.31 588.135ZM382.484 585.687L380.909 580.104C386.348 578.58 391.729 576.651 396.908 574.391L399.234 579.699C393.817 582.075 388.176 584.083 382.484 585.687ZM414.987 571.451L411.946 566.511C416.757 563.557 421.401 560.234 425.764 556.638L429.455 561.116C424.883 564.878 420.022 568.352 414.987 571.451ZM1370.78 569.775L1365.5 567.385C1367.82 562.235 1369.85 556.876 1371.5 551.474L1377.05 553.171C1375.32 558.812 1373.21 564.395 1370.78 569.775ZM1109 556.183C1107.14 550.585 1105.62 544.807 1104.5 539.008L1110.19 537.895C1111.27 543.457 1112.72 548.996 1114.5 554.363L1109 556.183ZM442.362 548.895L438.101 544.973C441.922 540.82 445.497 536.364 448.718 531.727L453.478 535.035C450.105 539.889 446.364 544.554 442.362 548.895ZM1381.16 535.909L1375.44 534.927C1376.4 529.365 1377 523.674 1377.26 518.019L1383.05 518.272C1382.79 524.18 1382.15 530.109 1381.16 535.909ZM1102.21 521.414C1102 518.293 1101.9 515.123 1101.9 511.981V503.841H1107.7V511.981C1107.7 515 1107.8 518.041 1107.99 521.031L1102.21 521.414ZM462.586 519.781L457.415 517.159C459.964 512.125 462.189 506.86 464.017 501.523L469.506 503.408C467.585 508.998 465.259 514.502 462.586 519.781ZM1383.19 500.75H1377.39V484.947C1377.39 484.413 1377.39 483.878 1377.39 483.344L1383.19 483.38C1383.19 483.907 1383.19 484.427 1383.19 484.947V500.75ZM1107.7 486.449H1101.9V469.058H1107.7V486.449ZM474.093 486.233L468.401 485.128C469.47 479.603 470.163 473.933 470.467 468.285L476.259 468.595C475.942 474.511 475.212 480.448 474.093 486.233ZM1384.05 466.27L1378.27 465.735C1378.81 459.892 1379.61 454.013 1380.64 448.264L1386.35 449.29C1385.35 454.88 1384.57 460.593 1384.05 466.27ZM1107.7 451.666H1101.9V434.274H1107.7V451.666ZM476.866 451.305L471.088 450.828C471.579 444.927 472.482 439.012 473.775 433.263L479.43 434.527C478.195 440.023 477.336 445.671 476.866 451.305ZM1390.11 432.577L1384.51 431.067C1386.04 425.412 1387.83 419.757 1389.84 414.261L1395.29 416.247C1393.34 421.591 1391.59 427.081 1390.11 432.577ZM484.291 418.255L478.86 416.211C480.94 410.685 483.432 405.24 486.27 400.047L491.355 402.813C488.654 407.782 486.278 412.975 484.291 418.255ZM1107.7 416.875H1101.9V399.483H1107.7V416.875ZM1401.85 400.415L1396.6 397.967C1399.07 392.658 1401.81 387.393 1404.73 382.316L1409.76 385.212C1406.91 390.145 1404.26 395.258 1401.85 400.415ZM500.492 388.498L495.826 385.053C499.337 380.3 503.215 375.75 507.347 371.518L511.493 375.57C507.549 379.607 503.844 383.962 500.492 388.498ZM1107.7 382.092H1101.9V364.7H1107.7V382.092ZM1418.93 370.738L1414.17 367.423C1417.52 362.613 1421.11 357.896 1424.86 353.389L1429.31 357.095C1425.68 361.471 1422.19 366.065 1418.93 370.738ZM524.169 364.274L520.616 359.695C525.289 356.069 530.251 352.739 535.372 349.793L538.261 354.819C533.371 357.629 528.633 360.807 524.169 364.274ZM553.509 347.402L551.342 342.021C556.824 339.811 562.516 337.962 568.251 336.532L569.652 342.158C564.177 343.523 558.745 345.286 553.509 347.402ZM1107.7 347.308H1101.9V329.916H1107.7V347.308ZM1440.82 344.39L1436.69 340.317C1440.8 336.142 1445.15 332.098 1449.59 328.298L1453.36 332.704C1449.03 336.402 1444.81 340.331 1440.82 344.39ZM586.366 339.197L585.752 333.434C590.295 332.95 594.94 332.704 599.541 332.704H603.419V338.504H599.541C595.142 338.504 590.707 338.735 586.366 339.197ZM655.742 338.504H655.605V332.704H655.742C661.355 332.704 666.989 332.278 672.485 331.44L673.359 337.175C667.574 338.056 661.644 338.504 655.742 338.504ZM638.212 338.504H620.819V332.704H638.212V338.504ZM690.716 333.152L688.975 327.62C694.349 325.922 699.629 323.799 704.685 321.3L707.256 326.493C701.94 329.129 696.371 331.368 690.716 333.152ZM1466.84 322.13L1463.46 317.421C1468.22 314.005 1473.18 310.755 1478.21 307.765L1481.17 312.748C1476.29 315.652 1471.47 318.815 1466.84 322.13ZM722.576 317.378L719.232 312.64C723.833 309.397 728.232 305.772 732.291 301.857L736.314 306.039C732.038 310.148 727.416 313.969 722.576 317.378ZM1107.7 312.525H1101.9V295.133H1107.7V312.525ZM1496.26 304.623L1493.73 299.409C1499.01 296.852 1504.45 294.504 1509.91 292.41L1511.99 297.827C1506.67 299.856 1501.38 302.146 1496.26 304.623ZM748.167 292.735L743.552 289.218C746.975 284.74 750.067 279.966 752.754 275.018L757.846 277.792C755.022 282.992 751.764 288.019 748.167 292.735ZM1528.24 292.41L1526.64 286.834C1532.28 285.224 1538.04 283.844 1543.79 282.725L1544.89 288.409C1539.31 289.499 1533.71 290.843 1528.24 292.41ZM1854.77 286.314L1839.77 286.249L1839.8 280.449L1854.8 280.514L1854.77 286.314ZM1822.38 286.17L1804.99 286.083L1805.01 280.291L1822.41 280.37L1822.38 286.17ZM1787.59 286.011L1770.2 285.931L1770.23 280.132L1787.62 280.211L1787.59 286.011ZM1561.84 285.859L1561.22 280.096C1564.73 279.713 1568.3 279.424 1571.84 279.229H1572.02L1578.9 279.258L1578.87 285.057L1572.08 285.021C1568.66 285.216 1565.22 285.498 1561.84 285.859ZM1752.81 285.852L1735.41 285.772L1735.44 279.973L1752.84 280.052L1752.81 285.852ZM1718.02 285.693L1700.63 285.614L1700.65 279.814L1718.05 279.893L1718.02 285.693ZM1683.24 285.534L1665.84 285.455L1665.86 279.655L1683.26 279.734L1683.24 285.534ZM1648.45 285.375L1631.06 285.296L1631.08 279.496L1648.47 279.576L1648.45 285.375ZM1613.66 285.216L1596.26 285.137L1596.29 279.337L1613.69 279.417L1613.66 285.216ZM1107.7 277.741H1101.9V260.349H1107.7V277.741ZM765.127 261.541L759.666 259.584C761.566 254.29 763.061 248.793 764.123 243.261L769.822 244.351C768.702 250.18 767.12 255.965 765.127 261.541ZM1107.7 242.958H1101.9V225.559H1107.7V242.958ZM771.815 226.656L766.022 226.44C766.073 225.096 766.102 223.717 766.102 222.352V211.597C766.102 210.767 766.102 209.943 766.116 209.113L771.916 209.2C771.902 209.994 771.895 210.796 771.895 211.597V222.359C771.895 223.789 771.873 225.234 771.815 226.656ZM1101.86 208.225C1101.74 202.54 1101.34 196.806 1100.65 191.194L1106.4 190.479C1107.12 196.293 1107.54 202.23 1107.66 208.109L1101.86 208.225ZM773.029 192.154L767.272 191.476C767.958 185.64 768.955 179.775 770.241 174.048L775.896 175.319C774.654 180.851 773.693 186.514 773.029 192.154ZM1097.68 174.373C1096.41 168.84 1094.83 163.315 1092.98 157.956L1098.47 156.071C1100.37 161.625 1102.01 167.345 1103.33 173.073L1097.68 174.373ZM780.497 158.873L775.008 157.017C776.878 151.456 779.074 145.923 781.523 140.579L786.796 142.991C784.426 148.155 782.31 153.492 780.497 158.873ZM1086.6 142.117C1084.2 136.975 1081.51 131.897 1078.6 127.029L1083.57 124.046C1086.59 129.095 1089.38 134.346 1091.85 139.669L1086.6 142.117ZM794.705 127.853L789.714 124.899C792.697 119.85 795.983 114.888 799.479 110.158L804.138 113.61C800.765 118.174 797.587 122.963 794.705 127.853ZM1069.08 112.844C1065.69 108.301 1062.01 103.881 1058.16 99.7138L1062.42 95.7775C1066.4 100.097 1070.21 104.668 1073.73 109.37L1069.08 112.844ZM814.987 100.414L810.703 96.507C814.669 92.1663 818.894 87.9845 823.279 84.0771L827.143 88.4034C822.903 92.1807 818.815 96.2181 814.987 100.414ZM1045.94 87.775C1041.69 84.0193 1037.18 80.4442 1032.56 77.1507L1035.92 72.4344C1040.7 75.8434 1045.36 79.5341 1049.78 83.4198L1045.94 87.775ZM840.462 77.7068L837.067 73.005C841.834 69.5671 846.825 66.3459 851.918 63.4135L854.807 68.4404C849.888 71.2716 845.063 74.3845 840.462 77.7068ZM1018.15 67.9709C1013.21 65.1686 1008.07 62.5974 1002.87 60.3295L1005.2 55.0138C1010.58 57.3611 1015.9 60.0262 1021.01 62.9224L1018.15 67.9709ZM870.033 60.7123L867.685 55.4182C873.052 53.0348 878.606 50.9042 884.197 49.0986L885.988 54.6093C880.585 56.3572 875.219 58.4156 870.033 60.7123ZM986.886 54.3132C981.483 52.6015 975.921 51.1497 970.359 50.0014L971.53 44.3245C977.286 45.509 983.043 47.0113 988.641 48.788L986.886 54.3132ZM902.485 50.2036L901.279 44.5267C907.021 43.3133 912.894 42.3816 918.744 41.7677L919.351 47.5313C913.703 48.1235 908.025 49.0263 902.485 50.2036ZM953.472 47.4302C948.004 46.8812 942.428 46.6068 936.896 46.6068H936.412L936.397 40.8071H936.896C942.623 40.8071 948.394 41.096 954.05 41.6594L953.472 47.4302Z" fill="#D9D9D9"/>
</g>
<mask id="mask2_145_2" style="mask-type:luminance" maskUnits="userSpaceOnUse" x="1841" y="0" width="156" height="694">
<path d="M1841.12 0H1997V693.359H1841.12V0Z" fill="white"/>
</mask>
<g mask="url(#mask2_145_2)">
<mask id="mask3_145_2" style="mask-type:luminance" maskUnits="userSpaceOnUse" x="1839" y="-1" width="158" height="696">
<path d="M1997 -0.390015H1839.83V694.818H1997V-0.390015Z" fill="white"/>
</mask>
<g mask="url(#mask3_145_2)">
<mask id="mask4_145_2" style="mask-type:luminance" maskUnits="userSpaceOnUse" x="1841" y="0" width="156" height="694">
<path d="M1841.12 0H1997V693.359H1841.12V0Z" fill="white"/>
</mask>
<g mask="url(#mask4_145_2)">
<path d="M2453.57 693.201C2553.5 693.201 2634.79 611.904 2634.79 511.981V211.597C2634.79 142.998 2690.61 87.19 2759.21 87.19C2827.81 87.19 2883.62 142.998 2883.62 211.597V222.359C2883.62 308.776 2953.94 379.087 3040.36 379.087H3096.56C3142.06 379.087 3179.08 416.095 3179.08 461.59C3179.08 555.034 3255.11 631.058 3348.56 631.058H3696.63V544.099H3348.56C3303.06 544.099 3266.04 507.084 3266.04 461.59C3266.04 368.145 3190.01 292.121 3096.56 292.121H3040.36C3001.89 292.121 2970.6 260.826 2970.6 222.359V211.597C2970.6 155.139 2948.61 102.061 2908.68 62.1351C2868.76 22.2164 2815.67 0.23114 2759.21 0.23114C2702.75 0.23114 2649.67 22.2164 2609.74 62.1351C2569.82 102.061 2547.83 155.139 2547.83 211.597V511.981C2547.83 563.954 2505.55 606.242 2453.57 606.242C2401.59 606.242 2359.3 563.954 2359.3 511.981V484.947C2359.3 354.112 2257.05 245.948 2126.51 238.711L2125.21 238.638L1841.12 239.931L1841.52 326.897L2122.92 325.612C2206.8 330.899 2272.34 400.653 2272.34 484.947V511.981C2272.34 611.904 2353.64 693.201 2453.57 693.201Z" fill="#545454"/>
</g>
<mask id="mask5_145_2" style="mask-type:luminance" maskUnits="userSpaceOnUse" x="1841" y="40" width="156" height="615">
<path d="M1841.12 40.2871H1997V654.141H1841.12V40.2871Z" fill="white"/>
</mask>
<g mask="url(#mask5_145_2)">
<path d="M2453.59 652.617C2458.97 652.617 2464.39 652.314 2469.71 651.7L2469.05 645.944C2463.95 646.529 2458.75 646.825 2453.59 646.825C2453.06 646.839 2452.57 646.818 2452.06 646.81L2451.99 652.61C2452.52 652.617 2453.05 652.632 2453.59 652.617ZM2434.3 651.31L2435.09 645.568C2429.48 644.795 2423.88 643.661 2418.42 642.188L2416.91 647.786C2422.6 649.324 2428.46 650.501 2434.3 651.31ZM2487.17 648.573C2492.9 647.164 2498.6 645.373 2504.1 643.25L2502.02 637.84C2496.74 639.877 2491.28 641.596 2485.79 642.939L2487.17 648.573ZM2400.1 642.08L2402.3 636.721C2397.08 634.568 2391.93 632.055 2387.01 629.253L2384.14 634.294C2389.27 637.219 2394.64 639.834 2400.1 642.08ZM2520.21 635.839C2525.4 633.037 2530.46 629.881 2535.25 626.45L2531.88 621.734C2527.29 625.02 2522.43 628.046 2517.46 630.733L2520.21 635.839ZM2369.3 624.558L2372.78 619.921C2368.26 616.527 2363.9 612.814 2359.84 608.878L2355.81 613.045C2360.04 617.148 2364.58 621.026 2369.3 624.558ZM2549.01 615.248C2553.33 611.24 2557.46 606.928 2561.26 602.407L2556.81 598.68C2553.17 603.006 2549.22 607.152 2545.07 610.987L2549.01 615.248ZM2343.85 599.936L2348.37 596.311C2344.84 591.898 2341.53 587.225 2338.58 582.407L2333.64 585.441C2336.72 590.461 2340.16 595.343 2343.85 599.936ZM3348.56 590.475H3348.76V584.675H3348.56C3342.96 584.675 3337.33 584.3 3331.81 583.549L3331.03 589.298C3336.81 590.078 3342.7 590.475 3348.56 590.475ZM3366.15 590.475H3383.55V584.675H3366.15V590.475ZM3400.94 590.475H3418.33V584.675H3400.94V590.475ZM3435.72 590.475H3453.12V584.675H3435.72V590.475ZM3470.51 590.475H3487.91V584.675H3470.51V590.475ZM3505.3 590.475H3522.7V584.675H3505.3V590.475ZM3540.09 590.475H3557.48V584.675H3540.09V590.475ZM3574.87 590.475H3592.27V584.675H3574.87V590.475ZM3609.66 590.475H3627.05V584.675H3609.66V590.475ZM3644.45 590.475H3661.84V584.675H3644.45V590.475ZM3679.24 590.475H3696.63V584.675H3679.24V590.475ZM2571.8 588.135C2575 583.173 2577.92 577.966 2580.47 572.65L2575.24 570.144C2572.8 575.236 2570 580.234 2566.93 584.993L2571.8 588.135ZM3313.63 585.687L3315.19 580.104C3309.76 578.58 3304.37 576.651 3299.2 574.391L3296.88 579.699C3302.29 582.075 3307.93 584.083 3313.63 585.687ZM3281.12 571.451L3284.16 566.511C3279.35 563.557 3274.7 560.234 3270.34 556.638L3266.66 561.116C3271.22 564.878 3276.09 568.352 3281.12 571.451ZM2325.33 569.775L2330.61 567.385C2328.28 562.235 2326.27 556.876 2324.6 551.474L2319.06 553.171C2320.79 558.812 2322.9 564.395 2325.33 569.775ZM2587.11 556.183C2588.97 550.585 2590.48 544.807 2591.61 539.008L2585.92 537.895C2584.84 543.457 2583.39 548.996 2581.61 554.363L2587.11 556.183ZM3253.74 548.895L3258.01 544.973C3254.18 540.82 3250.61 536.364 3247.39 531.727L3242.63 535.035C3246 539.889 3249.74 544.554 3253.74 548.895ZM2314.95 535.909L2320.67 534.927C2319.71 529.365 2319.1 523.674 2318.85 518.019L2313.06 518.272C2313.32 524.18 2313.96 530.109 2314.95 535.909ZM2593.9 521.414C2594.11 518.293 2594.21 515.123 2594.21 511.981V503.841H2588.41V511.981C2588.41 515 2588.31 518.041 2588.11 521.031L2593.9 521.414ZM3233.52 519.781L3238.7 517.159C3236.14 512.125 3233.91 506.86 3232.09 501.523L3226.61 503.408C3228.52 508.998 3230.85 514.502 3233.52 519.781ZM2312.92 500.75H2318.72V484.947C2318.72 484.413 2318.72 483.878 2318.72 483.344L2312.92 483.38C2312.92 483.907 2312.92 484.427 2312.92 484.947V500.75ZM2588.41 486.449H2594.21V469.058H2588.41V486.449ZM3222.02 486.233L3227.71 485.128C3226.64 479.603 3225.94 473.933 3225.64 468.285L3219.85 468.595C3220.17 474.511 3220.9 480.448 3222.02 486.233ZM2312.06 466.27L2317.84 465.735C2317.29 459.892 2316.5 454.013 2315.46 448.264L2309.76 449.29C2310.76 454.88 2311.54 460.593 2312.06 466.27ZM2588.41 451.666H2594.21V434.274H2588.41V451.666ZM3219.24 451.305L3225.02 450.828C3224.53 444.927 3223.63 439.012 3222.34 433.263L3216.68 434.527C3217.91 440.023 3218.78 445.671 3219.24 451.305ZM2306 432.577L2311.6 431.067C2310.07 425.412 2308.28 419.757 2306.27 414.261L2300.83 416.247C2302.78 421.591 2304.52 427.081 2306 432.577ZM3211.82 418.255L3217.24 416.211C3215.16 410.685 3212.67 405.24 3209.84 400.047L3204.75 402.813C3207.46 407.782 3209.83 412.975 3211.82 418.255ZM2588.41 416.875H2594.21V399.483H2588.41V416.875ZM2294.25 400.415L2299.51 397.967C2297.03 392.658 2294.3 387.393 2291.37 382.316L2286.35 385.212C2289.19 390.145 2291.85 395.258 2294.25 400.415ZM3195.62 388.498L3200.28 385.053C3196.77 380.3 3192.89 375.75 3188.76 371.518L3184.61 375.57C3188.56 379.607 3192.27 383.962 3195.62 388.498ZM2588.41 382.092H2594.21V364.7H2588.41V382.092ZM2277.17 370.738L2281.93 367.423C2278.59 362.613 2275 357.896 2271.26 353.389L2266.79 357.095C2270.43 361.471 2273.92 366.065 2277.17 370.738ZM3171.94 364.274L3175.5 359.695C3170.82 356.069 3165.85 352.739 3160.74 349.793L3157.85 354.819C3162.73 357.629 3167.48 360.807 3171.94 364.274ZM3142.6 347.402L3144.76 342.021C3139.28 339.811 3133.6 337.962 3127.85 336.532L3126.45 342.158C3131.93 343.523 3137.36 345.286 3142.6 347.402ZM2588.41 347.308H2594.21V329.916H2588.41V347.308ZM2255.29 344.39L2259.42 340.317C2255.31 336.142 2250.97 332.098 2246.52 328.298L2242.75 332.704C2247.07 336.402 2251.29 340.331 2255.29 344.39ZM3109.74 339.197L3110.35 333.434C3105.81 332.95 3101.17 332.704 3096.56 332.704H3092.68V338.504H3096.56C3100.96 338.504 3105.4 338.735 3109.74 339.197ZM3040.36 338.504H3040.51V332.704H3040.36C3034.75 332.704 3029.12 332.278 3023.62 331.44L3022.74 337.175C3028.54 338.056 3034.46 338.504 3040.36 338.504ZM3057.9 338.504H3075.29V332.704H3057.9V338.504ZM3005.39 333.152L3007.14 327.62C3001.76 325.922 2996.48 323.799 2991.43 321.3L2988.85 326.493C2994.17 329.129 2999.73 331.368 3005.39 333.152ZM2229.27 322.13L2232.65 317.421C2227.89 314.005 2222.93 310.755 2217.9 307.765L2214.93 312.748C2219.82 315.652 2224.64 318.815 2229.27 322.13ZM2973.53 317.378L2976.87 312.64C2972.27 309.397 2967.88 305.772 2963.81 301.857L2959.8 306.039C2964.07 310.148 2968.7 313.969 2973.53 317.378ZM2588.41 312.525H2594.21V295.133H2588.41V312.525ZM2199.84 304.623L2202.37 299.409C2197.1 296.852 2191.66 294.504 2186.19 292.41L2184.12 297.827C2189.43 299.856 2194.73 302.146 2199.84 304.623ZM2947.94 292.735L2952.55 289.218C2949.14 284.74 2946.04 279.966 2943.35 275.018L2938.26 277.792C2941.09 282.992 2944.35 288.019 2947.94 292.735ZM2167.87 292.41L2169.46 286.834C2163.84 285.224 2158.06 283.844 2152.32 282.725L2151.21 288.409C2156.79 289.499 2162.4 290.843 2167.87 292.41ZM1841.33 286.314L1856.33 286.249L1856.31 280.449L1841.31 280.514L1841.33 286.314ZM1873.73 286.17L1891.12 286.083L1891.1 280.291L1873.7 280.37L1873.73 286.17ZM1908.51 286.011L1925.9 285.931L1925.88 280.132L1908.49 280.211L1908.51 286.011ZM2134.27 285.859L2134.89 280.096C2131.38 279.713 2127.8 279.424 2124.26 279.229H2124.09L2117.21 279.258L2117.23 285.057L2124.03 285.021C2127.44 285.216 2130.88 285.498 2134.27 285.859ZM1943.3 285.852L1960.7 285.772L1960.67 279.973L1943.28 280.052L1943.3 285.852ZM1978.09 285.693L1995.48 285.614L1995.45 279.814L1978.06 279.893L1978.09 285.693ZM2012.88 285.534L2030.27 285.455L2030.24 279.655L2012.85 279.734L2012.88 285.534ZM2047.66 285.375L2065.05 285.296L2065.03 279.496L2047.63 279.576L2047.66 285.375ZM2082.45 285.216L2099.84 285.137L2099.82 279.337L2082.42 279.417L2082.45 285.216ZM2588.41 277.741H2594.21V260.349H2588.41V277.741ZM2930.98 261.541L2936.44 259.584C2934.55 254.29 2933.04 248.793 2931.98 243.261L2926.29 244.351C2927.41 250.18 2928.98 255.965 2930.98 261.541ZM2588.41 242.958H2594.21V225.559H2588.41V242.958ZM2924.29 226.656L2930.08 226.44C2930.03 225.096 2930.01 223.717 2930.01 222.352V211.597C2930.01 210.767 2930 209.943 2929.99 209.113L2924.2 209.2C2924.2 209.994 2924.21 210.796 2924.21 211.597V222.359C2924.21 223.789 2924.24 225.234 2924.29 226.656ZM2594.24 208.225C2594.36 202.54 2594.77 196.806 2595.46 191.194L2589.71 190.479C2588.99 196.293 2588.57 202.23 2588.45 208.109L2594.24 208.225ZM2923.08 192.154L2928.84 191.476C2928.15 185.64 2927.15 179.775 2925.87 174.048L2920.21 175.319C2921.45 180.851 2922.42 186.514 2923.08 192.154ZM2598.43 174.373C2599.7 168.84 2601.29 163.315 2603.13 157.956L2597.65 156.071C2595.74 161.625 2594.1 167.345 2592.78 173.073L2598.43 174.373ZM2915.61 158.873L2921.1 157.017C2919.23 151.456 2917.04 145.923 2914.59 140.579L2909.32 142.991C2911.68 148.155 2913.79 153.492 2915.61 158.873ZM2609.51 142.117C2611.9 136.975 2614.59 131.897 2617.51 127.029L2612.53 124.046C2609.51 129.095 2606.73 134.346 2604.25 139.669L2609.51 142.117ZM2901.41 127.853L2906.4 124.899C2903.41 119.85 2900.13 114.888 2896.63 110.158L2891.97 113.61C2895.35 118.174 2898.52 122.963 2901.41 127.853ZM2627.02 112.844C2630.42 108.301 2634.1 103.881 2637.95 99.7138L2633.69 95.7775C2629.7 100.097 2625.9 104.668 2622.38 109.37L2627.02 112.844ZM2881.12 100.414L2885.4 96.507C2881.44 92.1663 2877.21 87.9845 2872.83 84.0771L2868.97 88.4034C2873.21 92.1807 2877.3 96.2181 2881.12 100.414ZM2650.16 87.775C2654.43 84.0193 2658.93 80.4442 2663.55 77.1507L2660.18 72.4344C2655.4 75.8434 2650.74 79.5341 2646.34 83.4198L2650.16 87.775ZM2855.65 77.7068L2859.04 73.005C2854.28 69.5671 2849.28 66.3459 2844.19 63.4135L2841.3 68.4404C2846.22 71.2716 2851.05 74.3845 2855.65 77.7068ZM2677.96 67.9709C2682.9 65.1686 2688.03 62.5974 2693.23 60.3295L2690.92 55.0138C2685.53 57.3611 2680.21 60.0262 2675.1 62.9224L2677.96 67.9709ZM2826.07 60.7123L2828.43 55.4182C2823.05 53.0348 2817.5 50.9042 2811.91 49.0986L2810.12 54.6093C2815.52 56.3572 2820.89 58.4156 2826.07 60.7123ZM2709.23 54.3132C2714.63 52.6015 2720.19 51.1497 2725.75 50.0014L2724.58 44.3245C2718.83 45.509 2713.06 47.0113 2707.47 48.788L2709.23 54.3132ZM2793.63 50.2036L2794.82 44.5267C2789.09 43.3133 2783.21 42.3816 2777.37 41.7677L2776.75 47.5313C2782.4 48.1235 2788.08 49.0263 2793.63 50.2036ZM2742.63 47.4302C2748.1 46.8812 2753.68 46.6068 2759.21 46.6068H2759.7L2759.71 40.8071H2759.21C2753.49 40.8071 2747.72 41.096 2742.06 41.6594L2742.63 47.4302Z" fill="#D9D9D9"/>
</g>
</g>
</g>
</svg>
