<svg width="129" height="119" viewBox="0 0 129 119" fill="none" xmlns="http://www.w3.org/2000/svg">
<mask id="mask0_97_9" style="mask-type:luminance" maskUnits="userSpaceOnUse" x="0" y="0" width="129" height="119">
<path d="M0 0H128.017V118.406H0V0Z" fill="white"/>
</mask>
<g mask="url(#mask0_97_9)">
<path d="M31.0055 107.957C30.5943 113.768 34.6956 118.09 40.4364 117.809C50.073 117.323 58.0299 111.352 63.6854 111.427C68.2831 111.492 77.4834 116.13 82.1262 117.534C85.5456 118.567 96.3453 120.978 97.4383 107.957C107.416 108.604 141.861 100.236 121.906 76.6612C125.596 76.942 136.531 45.1444 107.28 40.9529C112.745 16.6209 91.4719 6.27241 81.0332 14.485C73.2267 -6.74843 54.7859 -2.28615 47.1349 12.7853C32.7804 8.16261 17.9746 14.475 19.6592 40.4716C7.56092 42.3467 -5.59529 57.1324 5.64565 77.3631C-7.10445 92.8457 1.91037 106.513 31.0055 107.957Z" fill="#6965B9"/>
</g>
<path d="M54.1094 101.406C44.6852 91.8203 21.2531 55.3209 20.9815 46.406C6.96866 48.1602 2.87892 66.2434 11.9129 75.0688C17.4696 80.4903 45.4063 98.0865 54.1094 101.406Z" fill="#857DC6"/>
<path d="M36.1094 85.406C35.7398 85.1787 35.3702 84.9464 34.9956 84.7141C25.8121 79.0121 17.7778 73.4565 15.4591 71.209C13.8947 69.6989 12.8215 67.6838 12.3608 65.3858C11.9102 63.1282 12.0672 60.6686 12.8164 58.4565C13.4948 56.4464 14.6238 54.704 16.0868 53.4212C16.5172 53.0424 16.9728 52.704 17.4588 52.406C18.1372 54.2191 19.1143 56.4666 20.5166 59.2797C22.9112 64.0929 26.2424 69.9515 30.1507 76.2191C31.9732 79.1434 34.0033 82.2797 36.1094 85.406Z" fill="#B39CD5"/>
<path d="M58.1094 96.406C54.19 83.3904 44.1858 28.6321 46.0034 18.9139C34.3531 10.0611 20.2434 26.4587 25.0887 39.8921C27.7245 47.2081 48.4922 88.9308 58.1094 96.406Z" fill="#857DC6"/>
<path d="M48.1094 73.406C46.6563 70.9547 45.1435 68.3194 43.5809 65.5001C36.833 53.3727 31.0057 41.3299 29.7964 38.0382C29.0948 36.1239 28.9305 34.0555 29.3038 31.8975C29.667 29.8241 30.508 27.8003 31.7422 26.0402C32.7723 24.5733 34.0313 23.3651 35.3749 22.5496C36.6289 21.7889 37.888 21.406 39.1171 21.406C39.7093 21.406 40.3065 21.5005 40.8937 21.6845C40.8738 24.1358 41.0629 27.855 41.7297 33.7522C42.4463 40.1167 43.6307 48.2065 45.1484 57.1616C46.084 62.6659 47.0992 68.21 48.1094 73.406Z" fill="#B39CD5"/>
<path d="M41.1094 54.406C36.7896 46.3378 33.4599 39.5089 32.6105 37.2579C32.0947 35.8871 31.9748 34.3847 32.2614 32.7863C32.548 31.1777 33.2254 29.5994 34.2207 28.2236C35.0179 27.1158 35.9663 26.2255 36.9511 25.6438C37.1023 25.5578 37.2482 25.4768 37.3888 25.406C37.5191 27.9251 37.7901 30.9248 38.2017 34.4707C38.8427 40.0249 39.8431 46.8538 41.1094 54.406Z" fill="#D0B9E2"/>
<path d="M70.1094 96.406C74.149 83.3904 84.4423 28.6321 82.5713 18.9139C94.5692 10.0611 109.089 26.4587 104.101 39.8921C101.388 47.2081 80.0093 88.9308 70.1094 96.406Z" fill="#857DC6"/>
<path d="M80.1094 73.406C81.1727 68.21 82.2413 62.6709 83.2261 57.1616C84.829 48.2065 86.0705 40.1167 86.8248 33.7522C87.5267 27.855 87.7258 24.1358 87.7049 21.6894C88.3282 21.5005 88.9516 21.406 89.5749 21.406C90.8688 21.406 92.194 21.7889 93.5141 22.5496C94.9336 23.3651 96.2537 24.5733 97.338 26.0402C98.6371 27.8003 99.5276 29.8241 99.9048 31.8975C100.298 34.0555 100.125 36.1239 99.3862 38.0382C98.1133 41.3299 91.9845 53.3727 84.8814 65.5001C83.2314 68.3194 81.6389 70.9547 80.1094 73.406Z" fill="#B39CD5"/>
<path d="M88.1094 54.406C89.2395 46.8538 90.1242 40.0249 90.6986 34.4707C91.0645 30.9248 91.3007 27.9251 91.4165 25.406C91.5416 25.4768 91.6713 25.5578 91.8056 25.6438C92.6856 26.2255 93.524 27.1208 94.2327 28.2236C95.1174 29.5994 95.7195 31.1777 95.9742 32.7863C96.229 34.3847 96.1225 35.8871 95.6639 37.2579C94.9089 39.5089 91.9492 46.3378 88.1094 54.406Z" fill="#D0B9E2"/>
<path d="M74.1094 101.406C83.5378 91.8203 106.968 55.3209 107.235 46.406C121.252 48.1651 125.341 66.2434 116.303 75.0688C110.746 80.4903 82.8167 98.0865 74.1094 101.406Z" fill="#857DC6"/>
<path d="M92.1094 85.406C94.2152 82.2797 96.2451 79.1434 98.0674 76.2191C101.975 69.9515 105.306 64.0929 107.701 59.2797C109.103 56.4666 110.08 54.2191 110.763 52.406C111.244 52.704 111.7 53.0373 112.13 53.4161C113.593 54.704 114.727 56.4464 115.405 58.4565C116.149 60.6686 116.311 63.1282 115.856 65.3858C115.395 67.6838 114.322 69.6989 112.763 71.209C110.444 73.4565 102.406 79.0121 93.223 84.7141C92.8484 84.9464 92.4789 85.1787 92.1094 85.406Z" fill="#B39CD5"/>
<path d="M77.1094 105.406C86.4479 102.065 111.774 88.1866 119.427 80.406C128.096 86.8719 123.645 96.1487 114.885 99.3424C105.338 102.821 84.7883 104.253 77.1094 105.406Z" fill="#857DC6"/>
<path d="M105.109 96.406C109.173 93.8581 114.081 90.5922 118.021 87.406C118.12 87.8448 118.135 88.2886 118.071 88.7323C117.734 90.996 115.461 93.2897 112.415 94.4514C110.488 95.1844 107.952 95.8326 105.109 96.406Z" fill="#B39CD5"/>
<path d="M51.1094 105.406C41.7706 102.065 16.4493 88.1866 8.79046 80.406C0.121624 86.8719 4.57785 96.1487 13.333 99.3424C22.8798 102.821 43.4303 104.253 51.1094 105.406Z" fill="#857DC6"/>
<path d="M23.1094 96.406C20.2713 95.8276 17.7349 95.1844 15.8066 94.4514C12.7609 93.2897 10.4866 90.991 10.1504 88.7323C10.0811 88.2886 10.1009 87.8448 10.1998 87.406C14.1404 90.5922 19.0501 93.8581 23.1094 96.406Z" fill="#B39CD5"/>
<path d="M64.2434 95.406C67.6024 89.2577 72.8943 65.1312 75.737 45.0451C77.5961 31.9354 78.4715 23.664 77.9698 17.0088C77.3403 8.64207 70.1746 4.40601 63.9384 4.40601C57.6432 4.40601 50.2169 8.5718 50.1136 17.0088C50.0349 23.664 51.0677 34.2843 52.6415 45.1204C55.6612 65.9092 60.84 88.8662 64.2434 95.406Z" fill="#857DC6"/>
<path d="M64.2312 78.406C63.8946 77.0583 63.558 75.6454 63.2165 74.1774C61.0682 64.8836 59.0735 54.2219 57.6034 44.1615C55.9452 32.8486 55.0394 22.9184 55.1136 16.9112C55.1384 14.6166 56.0046 12.838 57.7618 11.4602C59.4051 10.1726 61.7117 9.40601 63.9342 9.40601C67.3298 9.40601 72.5419 11.4952 72.9825 17.2419C73.4577 23.4796 72.5716 31.4958 70.7699 44.1064C69.384 53.8061 67.3743 64.7182 65.2558 74.0422C64.9093 75.5652 64.5678 77.0232 64.2312 78.406Z" fill="#B39CD5"/>
<path d="M64.2154 62.406C62.9071 56.161 61.7153 49.6741 60.7407 43.4191C58.9927 32.2145 58.0392 22.4211 58.1134 16.5542C58.1293 15.2992 58.5477 14.4826 59.5436 13.7518C60.6718 12.9201 62.3509 12.406 63.9241 12.406C64.9835 12.406 66.5779 12.7084 67.8915 13.5703C69.1734 14.407 69.862 15.5663 69.9838 17.1036C70.4658 23.0612 69.5335 30.9342 67.6478 43.3737C66.7209 49.4725 65.5291 56.0502 64.2154 62.406Z" fill="#D0B9E2"/>
</svg>
