<svg width="129" height="119" viewBox="0 0 129 119" fill="none" xmlns="http://www.w3.org/2000/svg">
<mask id="mask0_97_6" style="mask-type:luminance" maskUnits="userSpaceOnUse" x="0" y="0" width="129" height="119">
<path d="M0 0H128.017V118.406H0V0Z" fill="white"/>
</mask>
<g mask="url(#mask0_97_6)">
<path d="M31.0055 107.957C30.5943 113.768 34.6956 118.09 40.4364 117.814C50.073 117.323 58.0299 111.352 63.6854 111.427C68.2831 111.492 77.4834 116.13 82.1262 117.534C85.5456 118.567 96.3453 120.978 97.4383 107.957C107.416 108.604 141.861 100.236 121.906 76.6612C125.596 76.942 136.531 45.1444 107.28 40.9529C112.745 16.6209 91.4719 6.27742 81.0332 14.485C73.2267 -6.74843 54.7859 -2.28615 47.1349 12.7853C32.7804 8.16261 17.9746 14.475 19.6592 40.4716C7.56092 42.3467 -5.59529 57.1374 5.64565 77.3631C-7.10445 92.8457 1.91037 106.513 31.0055 107.957Z" fill="#7A9C27"/>
</g>
<path d="M54.1094 101.677C44.6852 92.0913 21.2531 55.5919 20.9815 46.677C6.96866 48.4361 2.87892 66.5144 11.9129 75.3398C17.4696 80.7613 45.4063 98.3575 54.1094 101.677Z" fill="#A6D820"/>
<path d="M36.1094 85.677C35.7398 85.4497 35.3702 85.2225 34.9956 84.9901C25.8121 79.2831 17.7778 73.7275 15.4591 71.4851C13.8947 69.9699 12.8215 67.9548 12.3608 65.6568C11.9102 63.3992 12.0672 60.9396 12.8164 58.7275C13.4948 56.7174 14.6238 54.975 16.0868 53.6922C16.5172 53.3134 16.9728 52.975 17.4588 52.677C18.1372 54.4901 19.1143 56.7376 20.5166 59.5507C22.9112 64.3639 26.2424 70.2225 30.1507 76.4901C31.9732 79.4144 34.0033 82.5507 36.1094 85.677Z" fill="#C4E458"/>
<path d="M58.1094 96.677C54.19 83.4987 44.1858 28.0559 46.0034 18.2162C34.3531 9.25272 20.2434 25.8553 25.0887 39.4617C27.7245 46.8641 48.4922 89.1084 58.1094 96.677Z" fill="#A6D820"/>
<path d="M48.1094 73.677C46.6563 71.2257 45.1435 68.5904 43.5809 65.7761C36.833 53.6437 31.0057 41.6009 29.7964 38.3092C29.0948 36.3949 28.9305 34.3314 29.3038 32.1685C29.667 30.0951 30.508 28.0713 31.7422 26.3112C32.7723 24.8443 34.0313 23.6361 35.3749 22.8206C36.6289 22.0599 37.888 21.677 39.1171 21.677C39.7093 21.677 40.3065 21.7715 40.8937 21.9604C40.8738 24.4068 41.0629 28.126 41.7297 34.0231C42.4463 40.3877 43.6307 48.4825 45.1484 57.4326C46.084 62.9419 47.0992 68.481 48.1094 73.677Z" fill="#C4E458"/>
<path d="M41.1094 53.677C36.7896 45.6074 33.4599 38.7773 32.6105 36.5259C32.0947 35.1548 31.9748 33.6522 32.2614 32.0535C32.548 30.4446 33.2254 28.8661 34.2207 27.49C35.0179 26.3871 35.9663 25.4916 36.9511 24.9097C37.1023 24.8237 37.2482 24.7478 37.3888 24.677C37.5191 27.1965 37.7901 30.1967 38.2017 33.7433C38.8427 39.2934 39.8431 46.1234 41.1094 53.677Z" fill="#EAF5BB"/>
<path d="M70.1094 96.677C74.149 83.4987 84.4423 28.0559 82.5713 18.2162C94.5692 9.25272 109.089 25.8553 104.101 39.4617C101.388 46.8641 80.0093 89.1084 70.1094 96.677Z" fill="#A6D820"/>
<path d="M80.1094 73.677C81.1727 68.481 82.2413 62.9419 83.2261 57.4326C84.829 48.4825 86.0705 40.3877 86.8248 34.0231C87.5267 28.126 87.7258 24.4068 87.7049 21.9604C88.3282 21.7715 88.9516 21.677 89.5749 21.677C90.8688 21.677 92.194 22.0599 93.5141 22.8206C94.9336 23.6361 96.2537 24.8443 97.338 26.3112C98.6371 28.0713 99.5276 30.0951 99.9048 32.1685C100.298 34.3314 100.125 36.3949 99.3862 38.3092C98.1133 41.6009 91.9845 53.6437 84.8814 65.7761C83.2314 68.5904 81.6389 71.2257 80.1094 73.677Z" fill="#C4E458"/>
<path d="M88.1094 53.677C89.2395 46.1197 90.1242 39.2908 90.6986 33.7417C91.0645 30.1907 91.3007 27.1961 91.4165 24.677C91.5416 24.7478 91.6713 24.8237 91.8056 24.9097C92.6856 25.4914 93.524 26.3868 94.2327 27.4895C95.1174 28.8654 95.7195 30.4436 95.9742 32.0522C96.229 33.6507 96.1225 35.153 95.6639 36.5239C94.9089 38.7749 91.9492 45.6037 88.1094 53.677Z" fill="#EAF5BB"/>
<path d="M74.1094 101.677C83.5378 92.0913 106.968 55.5919 107.235 46.677C121.252 48.4361 125.341 66.5144 116.303 75.3398C110.746 80.7613 82.8167 98.3575 74.1094 101.677Z" fill="#A6D820"/>
<path d="M92.1094 85.677C94.2152 82.5507 96.2451 79.4144 98.0674 76.4901C101.975 70.2225 105.306 64.3639 107.701 59.5507C109.103 56.7376 110.08 54.4901 110.763 52.677C111.244 52.975 111.7 53.3134 112.13 53.6922C113.593 54.975 114.727 56.7174 115.405 58.7275C116.149 60.9396 116.311 63.3992 115.856 65.6568C115.395 67.9548 114.322 69.9699 112.763 71.4851C110.444 73.7275 102.406 79.2831 93.223 84.9901C92.8484 85.2174 92.4789 85.4497 92.1094 85.677Z" fill="#C4E458"/>
<path d="M77.1094 105.677C86.4479 102.336 111.774 88.4576 119.427 80.677C128.096 87.1429 123.645 96.4197 114.885 99.6134C105.338 103.092 84.7883 104.529 77.1094 105.677Z" fill="#A6D820"/>
<path d="M105.109 96.677C109.173 94.1291 114.081 90.8632 118.021 87.677C118.12 88.1158 118.135 88.5596 118.071 89.0083C117.734 91.267 115.461 93.5607 112.415 94.7224C110.488 95.4554 107.952 96.1036 105.109 96.677Z" fill="#C4E458"/>
<path d="M51.1094 105.677C41.7706 102.336 16.4493 88.4576 8.79046 80.677C0.121624 87.1429 4.57785 96.4197 13.333 99.6134C22.8798 103.092 43.4303 104.529 51.1094 105.677Z" fill="#A6D820"/>
<path d="M23.1094 96.677C20.2713 96.1036 17.7349 95.4554 15.8066 94.7224C12.7609 93.5607 10.4866 91.267 10.1504 89.0033C10.0811 88.5596 10.1009 88.1158 10.1998 87.677C14.1404 90.8632 19.0501 94.1291 23.1094 96.677Z" fill="#C4E458"/>
<path d="M64.2434 94.677C67.6024 88.5287 72.8943 64.4022 75.737 44.3161C77.5961 31.2064 78.4715 22.935 77.9698 16.2798C77.3403 7.91306 70.1746 3.677 63.9384 3.677C57.6432 3.677 50.2169 7.84781 50.1136 16.2798C50.0349 22.935 51.0677 33.5553 52.6415 44.3914C55.6612 65.1802 60.84 88.1372 64.2434 94.677Z" fill="#A6D820"/>
<path d="M64.2312 78.677C63.8946 77.3097 63.558 75.8764 63.2165 74.3871C61.0682 64.9586 59.0735 54.1424 57.6034 43.9362C55.9452 32.4593 55.0394 22.3852 55.1136 16.291C55.1384 13.9682 56.0046 12.1587 57.7618 10.7609C59.4051 9.45975 61.7117 8.677 63.9342 8.677C67.3298 8.677 72.5419 10.7965 72.9825 16.6265C73.4577 22.9545 72.5716 31.087 70.7699 43.8803C69.384 53.7206 67.3743 64.7909 65.2558 74.2499C64.9093 75.7951 64.5678 77.2742 64.2312 78.677Z" fill="#C4E458"/>
<path d="M64.2154 62.677C62.9071 56.432 61.7153 49.9451 60.7407 43.6901C58.9927 32.4855 58.0392 22.6921 58.1134 16.8252C58.1293 15.5701 58.5477 14.7587 59.5436 14.0228C60.6718 13.1911 62.3509 12.677 63.9241 12.677C64.9835 12.677 66.5779 12.9845 67.8915 13.8413C69.1734 14.678 69.862 15.8373 69.9838 17.3796C70.4658 23.3373 69.5335 31.2052 67.6478 43.6447C66.7209 49.7435 65.5291 56.3212 64.2154 62.677Z" fill="#EAF5BB"/>
</svg>
