<svg width="128" height="118" viewBox="0 0 128 118" fill="none" xmlns="http://www.w3.org/2000/svg">
<mask id="mask0_97_8" style="mask-type:luminance" maskUnits="userSpaceOnUse" x="0" y="0" width="128" height="118">
<path d="M0 0H127.07V117.433H0V0Z" fill="white"/>
</mask>
<g mask="url(#mask0_97_8)">
<path d="M30.7748 107.07C30.3687 112.836 34.4399 117.122 40.1355 116.847C49.7019 116.36 57.6036 110.439 63.2141 110.514C67.7766 110.574 76.9068 115.177 81.5195 116.571C84.9138 117.594 95.6283 119.985 96.7163 107.07C106.624 107.716 140.813 99.4136 121.003 76.0342C124.668 76.31 135.523 44.7732 106.483 40.6167C111.913 16.4803 90.795 6.22204 80.4315 14.3695C72.6852 -6.69352 54.3848 -2.27135 46.7838 12.6798C32.5396 8.0972 17.8442 14.3594 19.5138 40.1404C7.50572 42.0005 -5.55022 56.6659 5.60549 76.7261C-7.04934 92.0834 1.89528 105.641 30.7748 107.07Z" fill="#D74624"/>
</g>
<path d="M54.0547 100.624C44.6295 91.034 21.1958 54.5377 20.9271 45.624C6.91372 47.3777 2.82316 65.4605 11.8602 74.2839C17.4188 79.7053 45.3511 97.3021 54.0547 100.624Z" fill="#EF6A26"/>
<path d="M35.0547 84.624C34.6979 84.4018 34.3412 84.1796 33.9845 83.9574C25.1831 78.4216 17.4862 73.0388 15.2627 70.8611C13.7673 69.3895 12.7411 67.4388 12.2964 65.2117C11.8614 63.0191 12.0178 60.6339 12.7313 58.4907C13.3812 56.5401 14.4661 54.8512 15.8687 53.6067C16.2792 53.2364 16.719 52.9104 17.1784 52.624C17.8332 54.382 18.7666 56.5598 20.1105 59.2907C22.4074 63.9574 25.5985 69.6364 29.3419 75.7154C31.0914 78.55 33.0364 81.5919 35.0547 84.624Z" fill="#F79517"/>
<path d="M58.0547 95.624C54.0154 82.6103 43.7215 27.8474 45.5913 18.1335C33.5953 9.27714 19.0741 25.6759 24.0636 39.1109C26.7768 46.4277 48.1571 88.1518 58.0547 95.624Z" fill="#EF6A26"/>
<path d="M48.0547 73.624C46.6055 71.1724 45.0912 68.5353 43.5267 65.7228C36.7774 53.5951 30.9456 41.5527 29.7422 38.2538C29.0402 36.3437 28.8747 34.2781 29.2508 32.1173C29.6068 30.0417 30.4492 28.0162 31.6878 26.2565C32.7157 24.7926 33.9743 23.5843 35.3182 22.7671C36.5718 22.0101 37.8304 21.624 39.0589 21.624C39.6556 21.624 40.2473 21.7193 40.839 21.9048C40.8189 24.3514 41.0095 28.0714 41.6764 33.9723C42.3935 40.3344 43.5768 48.4262 45.0962 57.3803C46.0289 62.8901 47.0468 68.43 48.0547 73.624Z" fill="#F79517"/>
<path d="M41.0547 53.624C36.7351 45.5554 33.4022 38.7262 32.5571 36.477C32.0375 35.105 31.9221 33.6005 32.2055 32.0041C32.4942 30.3924 33.1712 28.8164 34.1685 27.4394C34.9663 26.3377 35.911 25.4452 36.8978 24.8637C37.0447 24.777 37.1917 24.6954 37.3334 24.624C37.4646 27.1435 37.7323 30.1425 38.1417 33.6923C38.7873 39.2413 39.7845 46.0706 41.0547 53.624Z" fill="#F5C170"/>
<path d="M69.0547 95.624C73.0889 82.6103 83.388 27.8474 81.5182 18.1335C93.5092 9.27714 108.036 25.6759 103.046 39.1109C100.333 46.4277 78.9523 88.1518 69.0547 95.624Z" fill="#EF6A26"/>
<path d="M80.0547 73.624C81.0673 68.43 82.08 62.8901 83.0174 57.3803C84.5364 48.4262 85.7194 40.3344 86.4363 33.9723C87.098 28.0714 87.2935 24.3514 87.2685 21.9048C87.86 21.7193 88.4566 21.624 89.0481 21.624C90.2763 21.624 91.5346 22.0101 92.7878 22.7671C94.1364 23.5843 95.3896 24.7926 96.4223 26.2565C97.6555 28.0212 98.4977 30.0417 98.8587 32.1173C99.2346 34.2781 99.0692 36.3437 98.3674 38.2588C97.1592 41.5527 91.3341 53.5951 84.5865 65.7228C83.0224 68.5403 81.5085 71.1774 80.0547 73.624Z" fill="#F79517"/>
<path d="M87.0547 53.624C88.32 46.0706 89.3228 39.2413 89.9633 33.6923C90.3781 30.1425 90.6458 27.1435 90.7718 24.624C90.9188 24.6954 91.0606 24.777 91.2128 24.8637C92.1999 25.4452 93.1449 26.3377 93.943 27.4394C94.9405 28.8164 95.6178 30.3975 95.9013 32.0041C96.19 33.6005 96.0693 35.105 95.5548 36.477C94.7042 38.7262 91.3756 45.5554 87.0547 53.624Z" fill="#F5C170"/>
<path d="M73.0547 100.624C82.4799 91.034 105.914 54.5377 106.182 45.624C120.196 47.3777 124.286 65.4605 115.249 74.2839C109.696 79.7053 81.7583 97.3021 73.0547 100.624Z" fill="#EF6A26"/>
<path d="M92.0547 84.624C94.0685 81.5919 96.0188 78.55 97.7638 75.7154C101.508 69.6364 104.7 63.9574 106.997 59.2907C108.341 56.5598 109.275 54.382 109.93 52.624C110.389 52.9104 110.829 53.2364 111.245 53.6067C112.643 54.8512 113.728 56.5401 114.378 58.4907C115.092 60.6339 115.248 63.0191 114.813 65.2117C114.368 67.4388 113.347 69.3895 111.846 70.8611C109.622 73.0388 101.923 78.4216 93.1203 83.9574C92.7634 84.1796 92.4066 84.4018 92.0547 84.624Z" fill="#F79517"/>
<path d="M77.0547 104.624C86.1976 101.28 110.979 87.4 118.47 79.624C126.958 86.0892 122.599 95.369 114.027 98.5595C104.683 102.037 84.5712 103.471 77.0547 104.624Z" fill="#EF6A26"/>
<path d="M105.055 95.624C109.114 93.0799 114.026 89.8117 117.966 86.624C118.065 87.0665 118.08 87.5089 118.016 87.9564C117.677 90.214 115.405 92.5117 112.357 93.6682C110.429 94.4022 107.894 95.0508 105.055 95.624Z" fill="#F79517"/>
<path d="M51.0547 104.624C41.9166 101.28 17.1295 87.4 9.63784 79.624C1.15029 86.0892 5.51418 95.369 14.0818 98.5595C23.4251 102.037 43.538 103.471 51.0547 104.624Z" fill="#EF6A26"/>
<path d="M23.0547 95.624C20.2162 95.0508 17.6764 94.4022 15.7492 93.6682C12.7015 92.5117 10.4307 90.214 10.0921 87.9564C10.0274 87.5089 10.0473 87.0665 10.1469 86.624C14.081 89.8117 18.9911 93.0799 23.0547 95.624Z" fill="#F79517"/>
<path d="M64.1859 94.624C67.5453 88.4757 72.8371 64.348 75.6812 44.2636C77.5393 31.1522 78.4163 22.8837 77.9159 16.2243C77.2816 7.85952 70.1169 3.62402 63.8836 3.62402C57.5859 3.62402 50.1586 7.79374 50.0595 16.2243C49.9752 22.8837 51.0108 33.5053 52.5865 44.3395C55.604 65.1273 60.7818 88.081 64.1859 94.624Z" fill="#EF6A26"/>
<path d="M64.1783 77.624C63.8442 76.2752 63.5051 74.8608 63.1661 73.3958C61.0172 64.1009 59.0228 53.4419 57.5519 43.3791C55.8966 32.0686 54.9842 22.1371 55.059 16.1307C55.0889 13.8373 55.9564 12.0541 57.7115 10.68C59.3519 9.39187 61.6603 8.62402 63.8841 8.62402C67.2795 8.62402 72.4898 10.7103 72.9286 16.4591C73.4023 22.6978 72.5148 30.7147 70.7148 43.3236C69.3337 53.0227 67.3244 63.9341 65.2054 73.2594C64.8563 74.785 64.5173 76.2399 64.1783 77.624Z" fill="#F79517"/>
<path d="M63.6502 61.624C62.4518 55.5034 61.3609 49.1487 60.4657 43.0181C58.8661 32.0368 57.9856 22.44 58.0589 16.6879C58.0736 15.4577 58.4552 14.6659 59.3699 13.9438C60.4021 13.132 61.943 12.624 63.3861 12.624C64.3547 12.624 65.8173 12.9228 67.0207 13.7645C68.1947 14.5912 68.8257 15.7217 68.9382 17.2307C69.3834 23.0724 68.5273 30.7818 66.7956 42.9732C65.9445 48.9495 64.8536 55.3938 63.6502 61.624Z" fill="#F5C170"/>
</svg>
