<svg width="128" height="118" viewBox="0 0 128 118" fill="none" xmlns="http://www.w3.org/2000/svg">
<mask id="mask0_97_10" style="mask-type:luminance" maskUnits="userSpaceOnUse" x="0" y="0" width="128" height="118">
<path d="M0 0H127.07V117.443H0V0Z" fill="white"/>
</mask>
<g mask="url(#mask0_97_10)">
<path d="M30.7697 107.08C30.3635 112.845 34.4347 117.132 40.1304 116.856C49.6968 116.37 57.5985 110.449 63.214 110.524C67.7765 110.584 76.9067 115.187 81.5143 116.581C84.9087 117.603 95.6282 120 96.7112 107.08C106.618 107.726 140.808 99.4234 120.998 76.0441C124.663 76.3198 135.518 44.778 106.483 40.6216C111.908 16.4851 90.7949 6.22688 80.4314 14.3693C72.68 -6.69369 54.3796 -2.2665 46.7787 12.6847C32.5345 8.10204 17.8391 14.3593 19.5087 40.1453C7.5006 42.0054 -5.55534 56.6707 5.60037 76.736C-7.05447 92.0933 1.89016 105.651 30.7697 107.08Z" fill="#80447D"/>
</g>
<path d="M53.9006 100.584C44.4764 90.9946 21.0451 54.4966 20.7764 45.5837C6.75945 47.3372 2.6693 65.4184 11.7054 74.2411C17.2635 79.6669 45.1979 97.2621 53.9006 100.584Z" fill="#9C6991"/>
<path d="M35.9006 84.5837C35.5283 84.3616 35.1611 84.1394 34.7837 83.9122C25.6035 78.3822 17.5657 72.9954 15.2451 70.818C13.6845 69.3515 12.6135 67.3963 12.1544 65.1695C11.7005 62.9821 11.8586 60.5973 12.6033 58.4495C13.2816 56.4992 14.4138 54.8106 15.8775 53.5663C16.3059 53.2009 16.765 52.8701 17.2495 52.5837C17.9278 54.3415 18.907 56.5189 20.3044 59.2494C22.7015 63.9153 26.0319 69.5935 29.9386 75.6765C31.7644 78.5106 33.7943 81.5521 35.9006 84.5837Z" fill="#C59FB4"/>
<path d="M57.9006 95.5837C53.9816 82.5713 43.9769 27.8085 45.7932 18.0905C34.1449 9.24006 20.0335 25.6373 24.8805 39.071C27.5161 46.387 48.2858 88.1122 57.9006 95.5837Z" fill="#9C6991"/>
<path d="M47.9006 73.5837C46.4468 71.1324 44.9329 68.4955 43.3688 65.6782C36.6213 53.5517 30.7961 41.5105 29.5879 38.2169C28.8861 36.302 28.7207 34.2366 29.0967 32.076C29.4576 30.0006 30.2998 27.9753 31.533 26.2158C32.5657 24.752 33.819 23.5438 35.1625 22.7267C36.4207 21.9697 37.679 21.5837 38.9072 21.5837C39.4988 21.5837 40.0953 21.679 40.6818 21.8645C40.6618 24.3108 40.8523 28.0305 41.519 33.9308C42.2359 40.2923 43.419 48.3883 44.9379 57.3366C45.8754 62.8459 46.888 68.3852 47.9006 73.5837Z" fill="#C59FB4"/>
<path d="M40.9006 53.5837C36.5797 45.5152 33.2511 38.6859 32.4006 36.4367C31.886 35.0647 31.7653 33.5602 32.054 31.9638C32.3376 30.3521 33.0148 28.7761 34.0124 27.3991C34.8104 26.2923 35.7554 25.4049 36.7425 24.8235C36.8895 24.7316 37.0365 24.6551 37.1835 24.5837C37.3095 27.1033 37.5773 30.1022 37.992 33.652C38.6325 39.201 39.6301 46.0303 40.9006 53.5837Z" fill="#DCC3CF"/>
<path d="M69.9006 95.5837C73.8245 82.5713 83.8243 27.8085 82.0079 18.0905C93.6612 9.24006 107.767 25.6373 102.921 39.071C100.285 46.387 79.5154 88.1122 69.9006 95.5837Z" fill="#9C6991"/>
<path d="M79.9006 73.5837C80.9133 68.3852 81.9259 62.8459 82.8633 57.3366C84.3823 48.3883 85.5654 40.2923 86.2823 33.9308C86.949 28.0305 87.1395 24.3108 87.1194 21.8645C87.706 21.679 88.3025 21.5837 88.8991 21.5837C90.1223 21.5837 91.3805 21.9697 92.6388 22.7267C93.9823 23.5438 95.2356 24.752 96.2683 26.2158C97.5015 27.9803 98.3487 30.0006 98.7046 32.076C99.0806 34.2366 98.9151 36.302 98.2133 38.2169C97.0052 41.5105 91.18 53.5517 84.4324 65.6782C82.8684 68.4955 81.3544 71.1324 79.9006 73.5837Z" fill="#C59FB4"/>
<path d="M86.9006 53.5837C88.1708 46.0316 89.168 39.2036 89.8136 33.6504C90.223 30.1012 90.4907 27.1028 90.6219 24.5837C90.7636 24.6551 90.9106 24.7316 91.0576 24.8234C92.0443 25.4047 92.9891 26.2971 93.7868 27.3986C94.7841 28.7754 95.4612 30.3562 95.7498 31.9625C96.0333 33.5586 95.9178 35.0629 95.3982 36.4346C94.5479 38.6834 91.2203 45.5115 86.9006 53.5837Z" fill="#DCC3CF"/>
<path d="M72.9006 100.584C82.5264 90.9946 106.459 54.4966 106.733 45.5837C121.045 47.3372 125.222 65.4184 115.993 74.2411C110.321 79.6669 81.7895 97.2621 72.9006 100.584Z" fill="#9C6991"/>
<path d="M91.9006 84.5837C93.9192 81.5521 95.8645 78.5106 97.6094 75.6765C101.353 69.5935 104.55 63.9153 106.842 59.2494C108.186 56.5189 109.125 54.3415 109.775 52.5837C110.239 52.8701 110.674 53.196 111.089 53.5663C112.487 54.8106 113.572 56.4992 114.227 58.4495C114.941 60.5973 115.092 62.9821 114.657 65.1695C114.218 67.3963 113.191 69.3515 111.691 70.818C109.472 72.9954 101.769 78.3822 92.9661 83.9122C92.6093 84.1394 92.2525 84.3616 91.9006 84.5837Z" fill="#C59FB4"/>
<path d="M76.9006 104.584C86.0392 101.241 110.827 87.3632 118.319 79.5837C126.802 86.0526 122.443 95.3305 113.875 98.5204C104.527 102.002 84.4127 103.431 76.9006 104.584Z" fill="#9C6991"/>
<path d="M104.901 95.5837C108.965 93.0346 113.872 89.7715 117.812 86.5837C117.911 87.0262 117.926 87.4687 117.862 87.9161C117.528 90.1737 115.251 92.4715 112.203 93.6279C110.28 94.362 107.74 95.0106 104.901 95.5837Z" fill="#C59FB4"/>
<path d="M50.9006 104.584C41.7621 101.241 16.9738 87.3632 9.48182 79.5837C0.998865 86.0526 5.35795 95.3305 13.926 98.5204C23.2747 102.002 43.3836 103.431 50.9006 104.584Z" fill="#9C6991"/>
<path d="M22.9006 95.5837C20.0619 95.0106 17.5219 94.362 15.5995 93.6279C12.5516 92.4715 10.2756 90.1737 9.94191 87.9111C9.87219 87.4687 9.89211 87.0262 9.99172 86.5837C13.9311 89.7715 18.8367 93.0346 22.9006 95.5837Z" fill="#C59FB4"/>
<path d="M64.0368 94.5837C67.3912 88.4405 72.683 64.3078 75.5271 44.2233C77.3852 31.112 78.2622 22.8434 77.7618 16.184C77.1325 7.81924 69.9628 3.58374 63.7296 3.58374C57.4368 3.58374 50.0095 7.75346 49.9054 16.184C49.8212 22.8434 50.8568 33.465 52.4324 44.2992C55.4549 65.0921 60.6278 88.0458 64.0368 94.5837Z" fill="#9C6991"/>
<path d="M64.0215 77.5837C63.6874 76.2546 63.3483 74.8608 63.0091 73.4171C60.8596 64.2526 58.8698 53.7489 57.3935 43.8326C55.7378 32.6868 54.8301 22.9 54.9049 16.9811C54.9299 14.7211 55.7976 12.9638 57.5531 11.6098C59.1989 10.3404 61.503 9.58374 63.7273 9.58374C67.1236 9.58374 72.3352 11.6397 72.7741 17.3047C73.2479 23.4526 72.3651 31.3527 70.5648 43.7779C69.1783 53.3407 67.1685 64.0933 65.0489 73.2827C64.7048 74.7861 64.3607 76.2198 64.0215 77.5837Z" fill="#C59FB4"/>
<path d="M64.0046 61.5837C62.6971 55.4637 61.507 49.1047 60.5304 42.9747C58.7853 31.9945 57.83 22.3987 57.9047 16.6472C57.9207 15.4172 58.337 14.6204 59.335 13.9034C60.461 13.0917 62.1421 12.5837 63.7164 12.5837C64.7731 12.5837 66.3688 12.8825 67.6816 13.7241C68.9678 14.5457 69.6509 15.6811 69.7736 17.1899C70.2592 23.0261 69.3253 30.7396 67.4361 42.9299C66.5075 48.9055 65.3228 55.3542 64.0046 61.5837Z" fill="#DCC3CF"/>
</svg>
