<svg width="128" height="118" viewBox="0 0 128 118" fill="none" xmlns="http://www.w3.org/2000/svg">
<mask id="mask0_97_7" style="mask-type:luminance" maskUnits="userSpaceOnUse" x="0" y="0" width="128" height="118">
<path d="M0 0H127.065V117.438H0V0Z" fill="white"/>
</mask>
<g mask="url(#mask0_97_7)">
<path d="M30.7697 107.08C30.3635 112.84 34.4347 117.127 40.1304 116.852C49.6968 116.37 57.5935 110.444 63.209 110.519C67.7715 110.584 76.9017 115.187 81.5144 116.576C84.9037 117.599 95.6232 119.995 96.7112 107.08C106.613 107.721 140.803 99.4186 120.998 76.0392C124.658 76.315 135.513 44.7781 106.478 40.6217C111.903 16.4802 90.7899 6.222 80.4264 14.3644C72.675 -6.69857 54.3797 -2.27138 46.7787 12.6798C32.5345 8.09716 17.8391 14.3594 19.5087 40.1404C7.5006 42.0005 -5.55534 56.6709 5.60037 76.7311C-7.05447 92.0884 1.89015 105.646 30.7697 107.08Z" fill="#A86670"/>
</g>
<path d="M54.4521 100.85C44.8264 91.2604 20.8993 54.7624 20.6197 45.8496C6.30818 47.6031 2.13059 65.6843 11.3599 74.5119C17.0368 79.9328 45.5633 97.528 54.4521 100.85Z" fill="#F18A97"/>
<path d="M35.4521 84.8496C35.0799 84.6205 34.7076 84.3913 34.3354 84.1622C25.1514 78.4543 17.1199 72.8991 14.7996 70.6537C13.2392 69.1414 12.1684 67.1301 11.7043 64.8286C11.2505 62.573 11.4137 60.1136 12.1582 57.9038C12.8364 55.8925 13.9684 54.146 15.432 52.8629C15.8603 52.4861 16.3193 52.1449 16.8037 51.8496C17.4819 53.6623 18.4559 55.9129 19.8582 58.7235C22.2549 63.5353 25.5848 69.396 29.491 75.664C31.3165 78.5867 33.3461 81.7232 35.4521 84.8496Z" fill="#FABA95"/>
<path d="M58.4521 95.8496C54.4128 82.8367 44.119 28.0722 45.9887 18.3589C33.9928 9.50313 19.4716 25.9009 24.461 39.335C27.1742 46.6513 48.5546 88.3778 58.4521 95.8496Z" fill="#F18A97"/>
<path d="M47.4521 72.8496C46.003 70.3982 44.4887 67.7614 42.9192 64.9441C36.1748 52.8176 30.3431 40.7763 29.1396 37.4828C28.4376 35.5678 28.2722 33.5025 28.6482 31.3418C29.0043 29.2715 29.8517 27.2412 31.0852 25.4816C32.1182 24.0178 33.3718 22.8097 34.7156 21.9926C35.9692 21.2356 37.2278 20.8496 38.4564 20.8496C39.0531 20.8496 39.6448 20.9449 40.2365 21.1303C40.2164 23.5767 40.4069 27.2963 41.0739 33.1967C41.7909 39.5582 42.9743 47.6542 44.4937 56.6024C45.4263 62.1117 46.4392 67.6511 47.4521 72.8496Z" fill="#FABA95"/>
<path d="M40.4521 53.8496C36.6125 45.781 33.6499 38.9518 32.8988 36.7026C32.4369 35.3306 32.3343 33.826 32.5862 32.2297C32.8428 30.6231 33.4446 29.042 34.3311 27.6649C35.0402 26.5633 35.88 25.6707 36.7571 25.0893C36.8877 25.0026 37.0184 24.921 37.1443 24.8496C37.261 27.3691 37.4989 30.3732 37.8628 33.9178C38.4367 39.472 39.3231 46.2961 40.4521 53.8496Z" fill="#F9E4A3"/>
<path d="M69.4521 95.8496C73.4911 82.8367 83.7891 28.0722 81.9144 18.3589C93.9093 9.50313 108.429 25.9009 103.445 39.335C100.727 46.6513 79.3539 88.3778 69.4521 95.8496Z" fill="#F18A97"/>
<path d="M80.4521 72.8496C81.465 67.6511 82.4778 62.1117 83.4104 56.6074C84.9346 47.6542 86.1179 39.5582 86.8349 33.1967C87.4968 27.3014 87.6873 23.5767 87.6672 21.1303C88.2589 20.9449 88.8505 20.8496 89.4472 20.8496C90.6756 20.8496 91.9341 21.2356 93.1876 21.9926C94.5313 22.8097 95.7898 24.0178 96.8177 25.4816C98.0561 27.2462 98.8985 29.2715 99.2595 31.3418C99.6305 33.5025 99.4651 35.5678 98.7681 37.4828C97.5598 40.7763 91.7335 52.8176 84.9848 64.9441C83.4154 67.7614 81.9062 70.3982 80.4521 72.8496Z" fill="#FABA95"/>
<path d="M87.4521 53.8496C88.5812 46.2975 89.4676 39.4694 90.0415 33.9163C90.4054 30.3671 90.6433 27.3687 90.76 24.8496C90.8859 24.921 91.0166 25.0026 91.1472 25.0893C92.029 25.6706 92.8687 26.563 93.5779 27.6645C94.4597 29.0413 95.0615 30.6221 95.3181 32.2284C95.57 33.8245 95.4674 35.3288 95.0055 36.7005C94.2544 38.9493 91.2918 45.7773 87.4521 53.8496Z" fill="#F9E4A3"/>
<path d="M73.4521 100.85C82.8813 91.2604 106.308 54.7624 106.581 45.8496C120.593 47.6081 124.683 65.6843 115.647 74.5119C110.089 79.9328 82.1598 97.528 73.4521 100.85Z" fill="#F18A97"/>
<path d="M91.4521 84.8496C93.5584 81.7232 95.5881 78.5867 97.4139 75.664C101.32 69.396 104.651 63.5353 107.048 58.7235C108.445 55.9129 109.424 53.6623 110.102 51.8496C110.587 52.1449 111.046 52.4861 111.474 52.8629C112.938 54.146 114.07 55.8874 114.748 57.9038C115.493 60.1136 115.651 62.573 115.202 64.8286C114.738 67.1301 113.667 69.1414 112.107 70.6537C109.786 72.8991 101.749 78.4543 92.569 84.1622C92.1967 84.3913 91.8244 84.6205 91.4521 84.8496Z" fill="#FABA95"/>
<path d="M76.4521 104.85C85.5907 101.506 110.379 87.6256 117.871 79.8496C126.354 86.3148 121.995 95.5946 113.427 98.7851C104.083 102.267 83.9692 103.697 76.4521 104.85Z" fill="#F18A97"/>
<path d="M104.452 95.8496C108.516 93.3055 113.427 90.0373 117.361 86.8496C117.461 87.2921 117.481 87.7345 117.411 88.182C117.077 90.4396 114.806 92.7373 111.758 93.8988C109.831 94.6278 107.291 95.2764 104.452 95.8496Z" fill="#FABA95"/>
<path d="M50.4522 104.85C41.3136 101.506 16.5254 87.6256 9.03333 79.8496C0.550379 86.3148 4.90946 95.5946 13.4775 98.7851C22.8263 102.267 42.9351 103.697 50.4522 104.85Z" fill="#F18A97"/>
<path d="M22.4521 95.8496C19.6134 95.2764 17.0734 94.6278 15.1461 93.8988C12.1031 92.7373 9.82711 90.4396 9.49343 88.182C9.4237 87.7345 9.44362 87.2921 9.54323 86.8496C13.4826 90.0373 18.3882 93.3055 22.4521 95.8496Z" fill="#FABA95"/>
<path d="M64.0919 93.8496C67.5711 87.7692 73.0517 63.908 75.9972 44.0403C77.9164 31.0788 78.8298 22.8965 78.3064 16.3107C77.6547 8.03833 70.2344 3.84961 63.7737 3.84961C57.2566 3.84961 49.5643 7.97328 49.4566 16.3107C49.3744 22.8965 50.447 33.4009 52.0788 44.1154C55.2039 64.6787 60.5665 87.3789 64.0919 93.8496Z" fill="#F18A97"/>
<path d="M63.5757 77.8496C63.2367 76.5009 62.8976 75.0866 62.5636 73.6217C60.4146 64.3274 58.4203 53.6643 56.9494 43.6022C55.2891 32.2924 54.3816 22.3617 54.4564 16.3558C54.4863 14.0625 55.3539 12.2794 57.109 10.9055C58.7493 9.6174 61.0578 8.84961 63.2766 8.84961C66.677 8.84961 71.8873 10.9358 72.3261 16.6841C72.7997 22.9224 71.9122 30.9387 70.1123 43.5466C68.7262 53.25 66.7169 64.1607 64.6028 73.4853C64.2538 75.0108 63.9148 76.4656 63.5757 77.8496Z" fill="#FABA95"/>
<path d="M64.0486 61.8496C62.845 55.7296 61.7589 49.3705 60.8635 43.2406C59.2637 32.2604 58.383 22.6645 58.4564 16.913C58.4711 15.683 58.8527 14.8863 59.7676 14.1692C60.7999 13.3575 62.3362 12.8496 63.7795 12.8496C64.7531 12.8496 66.216 13.1484 67.4196 13.99C68.5938 14.8116 69.2249 15.947 69.3374 17.4558C69.7778 23.297 68.9265 31.0055 67.1945 43.1957C66.3432 49.1714 65.2522 55.62 64.0486 61.8496Z" fill="#F9E4A3"/>
</svg>
