<svg width="577" height="451" viewBox="0 0 577 451" fill="none" xmlns="http://www.w3.org/2000/svg">
<mask id="mask0_97_4" style="mask-type:luminance" maskUnits="userSpaceOnUse" x="0" y="0" width="577" height="451">
<path d="M0 0H577V450.458H0V0Z" fill="white"/>
</mask>
<g mask="url(#mask0_97_4)">
<mask id="mask1_97_4" style="mask-type:luminance" maskUnits="userSpaceOnUse" x="0" y="0" width="577" height="451">
<path d="M543.604 450.458H33.2157C14.9119 450.458 0 434.109 0 414.042V36.4167C0 16.349 14.9119 0 33.2157 0H543.604C561.908 0 576.819 16.349 576.819 36.4167V414.042C576.819 434.109 561.908 450.458 543.604 450.458Z" fill="white"/>
</mask>
<g mask="url(#mask1_97_4)">
<mask id="mask2_97_4" style="mask-type:luminance" maskUnits="userSpaceOnUse" x="-1" y="-1" width="578" height="452">
<path d="M577 -0.197998H-0.665039V450.469H577V-0.197998Z" fill="white"/>
</mask>
<g mask="url(#mask2_97_4)">
<mask id="mask3_97_4" style="mask-type:luminance" maskUnits="userSpaceOnUse" x="0" y="0" width="577" height="451">
<path d="M0 0H576.853V450.458H0V0Z" fill="white"/>
</mask>
<g mask="url(#mask3_97_4)">
<mask id="mask4_97_4" style="mask-type:luminance" maskUnits="userSpaceOnUse" x="0" y="0" width="577" height="451">
<path d="M543.604 450.458H33.2157C14.9119 450.458 0 434.109 0 414.042V36.4167C0 16.349 14.9119 0 33.2157 0H543.604C561.908 0 576.819 16.349 576.819 36.4167V414.042C576.819 434.109 561.908 450.458 543.604 450.458Z" fill="white"/>
</mask>
<g mask="url(#mask4_97_4)">
<path d="M0 0H576.173V450.458H0V0Z" fill="#F4F0DE"/>
</g>
</g>
</g>
</g>
</g>
<mask id="mask5_97_4" style="mask-type:luminance" maskUnits="userSpaceOnUse" x="66" y="78" width="129" height="119">
<path d="M66 78H194.017V196.406H66V78Z" fill="white"/>
</mask>
<g mask="url(#mask5_97_4)">
<path d="M97.0055 185.957C96.5943 191.768 100.696 196.09 106.436 195.814C116.073 195.323 124.03 189.352 129.685 189.427C134.283 189.492 143.483 194.13 148.126 195.534C151.546 196.567 162.345 198.978 163.438 185.957C173.416 186.604 207.861 178.236 187.906 154.661C191.596 154.942 202.531 123.144 173.28 118.953C178.745 94.6209 157.472 84.2774 147.033 92.485C139.227 71.2516 120.786 75.7139 113.135 90.7853C98.7804 86.1626 83.9746 92.475 85.6592 118.472C73.5609 120.347 60.4047 135.137 71.6457 155.363C58.8956 170.846 67.9104 184.513 97.0055 185.957Z" fill="#7A9C27"/>
</g>
<path d="M120.109 179.677C110.685 170.091 87.2531 133.592 86.9815 124.677C72.9687 126.436 68.8789 144.514 77.9129 153.34C83.4696 158.761 111.406 176.358 120.109 179.677Z" fill="#A6D820"/>
<path d="M102.109 163.677C101.74 163.45 101.37 163.222 100.996 162.99C91.8121 157.283 83.7778 151.728 81.4591 149.485C79.8947 147.97 78.8215 145.955 78.3608 143.657C77.9102 141.399 78.0672 138.94 78.8164 136.728C79.4948 134.717 80.6238 132.975 82.0868 131.692C82.5172 131.313 82.9728 130.975 83.4588 130.677C84.1372 132.49 85.1143 134.738 86.5166 137.551C88.9112 142.364 92.2424 148.222 96.1507 154.49C97.9732 157.414 100.003 160.551 102.109 163.677Z" fill="#C4E458"/>
<path d="M124.109 174.677C120.19 161.499 110.186 106.056 112.003 96.2162C100.353 87.2527 86.2434 103.855 91.0887 117.462C93.7245 124.864 114.492 167.108 124.109 174.677Z" fill="#A6D820"/>
<path d="M114.109 151.677C112.656 149.226 111.143 146.59 109.581 143.776C102.833 131.644 97.0057 119.601 95.7964 116.309C95.0948 114.395 94.9305 112.331 95.3038 110.168C95.667 108.095 96.508 106.071 97.7422 104.311C98.7723 102.844 100.031 101.636 101.375 100.821C102.629 100.06 103.888 99.677 105.117 99.677C105.709 99.677 106.306 99.7715 106.894 99.9604C106.874 102.407 107.063 106.126 107.73 112.023C108.446 118.388 109.631 126.483 111.148 135.433C112.084 140.942 113.099 146.481 114.109 151.677Z" fill="#C4E458"/>
<path d="M107.109 131.677C102.79 123.607 99.4599 116.777 98.6105 114.526C98.0947 113.155 97.9748 111.652 98.2614 110.053C98.548 108.445 99.2254 106.866 100.221 105.49C101.018 104.387 101.966 103.492 102.951 102.91C103.102 102.824 103.248 102.748 103.389 102.677C103.519 105.197 103.79 108.197 104.202 111.743C104.843 117.293 105.843 124.123 107.109 131.677Z" fill="#EAF5BB"/>
<path d="M136.109 174.677C140.149 161.499 150.442 106.056 148.571 96.2162C160.569 87.2527 175.089 103.855 170.101 117.462C167.388 124.864 146.009 167.108 136.109 174.677Z" fill="#A6D820"/>
<path d="M146.109 151.677C147.173 146.481 148.241 140.942 149.226 135.433C150.829 126.483 152.071 118.388 152.825 112.023C153.527 106.126 153.726 102.407 153.705 99.9604C154.328 99.7715 154.952 99.677 155.575 99.677C156.869 99.677 158.194 100.06 159.514 100.821C160.934 101.636 162.254 102.844 163.338 104.311C164.637 106.071 165.528 108.095 165.905 110.168C166.298 112.331 166.125 114.395 165.386 116.309C164.113 119.601 157.985 131.644 150.881 143.776C149.231 146.59 147.639 149.226 146.109 151.677Z" fill="#C4E458"/>
<path d="M154.109 131.677C155.24 124.12 156.124 117.291 156.699 111.742C157.064 108.191 157.301 105.196 157.417 102.677C157.542 102.748 157.671 102.824 157.806 102.91C158.686 103.491 159.524 104.387 160.233 105.489C161.117 106.865 161.719 108.444 161.974 110.052C162.229 111.651 162.122 113.153 161.664 114.524C160.909 116.775 157.949 123.604 154.109 131.677Z" fill="#EAF5BB"/>
<path d="M140.109 179.677C149.538 170.091 172.968 133.592 173.235 124.677C187.252 126.436 191.341 144.514 182.303 153.34C176.746 158.761 148.817 176.358 140.109 179.677Z" fill="#A6D820"/>
<path d="M158.109 163.677C160.215 160.551 162.245 157.414 164.067 154.49C167.975 148.222 171.306 142.364 173.701 137.551C175.103 134.738 176.08 132.49 176.763 130.677C177.244 130.975 177.7 131.313 178.13 131.692C179.593 132.975 180.727 134.717 181.405 136.728C182.149 138.94 182.311 141.399 181.856 143.657C181.395 145.955 180.322 147.97 178.763 149.485C176.444 151.728 168.406 157.283 159.223 162.99C158.848 163.217 158.479 163.45 158.109 163.677Z" fill="#C4E458"/>
<path d="M143.109 183.677C152.448 180.336 177.774 166.458 185.427 158.677C194.096 165.143 189.645 174.42 180.885 177.613C171.338 181.092 150.788 182.529 143.109 183.677Z" fill="#A6D820"/>
<path d="M171.109 174.677C175.173 172.129 180.081 168.863 184.021 165.677C184.12 166.116 184.135 166.56 184.071 167.008C183.734 169.267 181.461 171.561 178.415 172.722C176.488 173.455 173.952 174.104 171.109 174.677Z" fill="#C4E458"/>
<path d="M117.109 183.677C107.771 180.336 82.4493 166.458 74.7905 158.677C66.1216 165.143 70.5778 174.42 79.333 177.613C88.8798 181.092 109.43 182.529 117.109 183.677Z" fill="#A6D820"/>
<path d="M89.1094 174.677C86.2713 174.104 83.7349 173.455 81.8066 172.722C78.7609 171.561 76.4866 169.267 76.1504 167.003C76.0811 166.56 76.1009 166.116 76.1998 165.677C80.1404 168.863 85.0501 172.129 89.1094 174.677Z" fill="#C4E458"/>
<path d="M130.243 172.677C133.602 166.529 138.894 142.402 141.737 122.316C143.596 109.206 144.471 100.935 143.97 94.2798C143.34 85.9131 136.175 81.677 129.938 81.677C123.643 81.677 116.217 85.8478 116.114 94.2798C116.035 100.935 117.068 111.555 118.641 122.391C121.661 143.18 126.84 166.137 130.243 172.677Z" fill="#A6D820"/>
<path d="M130.231 156.677C129.895 155.31 129.558 153.876 129.216 152.387C127.068 142.959 125.073 132.142 123.603 121.936C121.945 110.459 121.039 100.385 121.114 94.291C121.138 91.9682 122.005 90.1587 123.762 88.7609C125.405 87.4597 127.712 86.677 129.934 86.677C133.33 86.677 138.542 88.7965 138.982 94.6265C139.458 100.955 138.572 109.087 136.77 121.88C135.384 131.721 133.374 142.791 131.256 152.25C130.909 153.795 130.568 155.274 130.231 156.677Z" fill="#C4E458"/>
<path d="M130.215 140.677C128.907 134.432 127.715 127.945 126.741 121.69C124.993 110.485 124.039 100.692 124.113 94.8252C124.129 93.5701 124.548 92.7587 125.544 92.0228C126.672 91.1911 128.351 90.677 129.924 90.677C130.983 90.677 132.578 90.9845 133.892 91.8413C135.173 92.678 135.862 93.8373 135.984 95.3796C136.466 101.337 135.534 109.205 133.648 121.645C132.721 127.744 131.529 134.321 130.215 140.677Z" fill="#EAF5BB"/>
<mask id="mask6_97_4" style="mask-type:luminance" maskUnits="userSpaceOnUse" x="226" y="78" width="128" height="119">
<path d="M226.657 78.8274H353.722V196.266H226.657V78.8274Z" fill="white"/>
</mask>
<g mask="url(#mask6_97_4)">
<path d="M257.427 185.907C257.021 191.668 261.092 195.955 266.788 195.679C276.354 195.198 284.251 189.271 289.866 189.347C294.429 189.412 303.559 194.014 308.172 195.403C311.561 196.426 322.28 198.823 323.368 185.907C333.271 186.549 367.46 178.246 347.655 154.867C351.315 155.142 362.17 123.606 333.135 119.449C338.56 95.3076 317.447 85.0494 307.084 93.1918C299.332 72.1288 281.037 76.556 273.436 91.5072C259.192 86.9246 244.496 93.1868 246.166 118.968C234.158 120.828 221.102 135.498 232.258 155.558C219.603 170.916 228.547 184.473 257.427 185.907Z" fill="#A86670"/>
</g>
<path d="M281.109 179.677C271.484 170.088 247.556 133.59 247.277 124.677C232.965 126.431 228.788 144.512 238.017 153.339C243.694 158.76 272.221 176.355 281.109 179.677Z" fill="#F18A97"/>
<path d="M262.109 163.677C261.737 163.448 261.365 163.219 260.993 162.99C251.809 157.282 243.777 151.727 241.457 149.481C239.896 147.969 238.826 145.958 238.362 143.656C237.908 141.4 238.071 138.941 238.815 136.731C239.494 134.72 240.626 132.973 242.089 131.69C242.518 131.313 242.976 130.972 243.461 130.677C244.139 132.49 245.113 134.74 246.515 137.551C248.912 142.363 252.242 148.223 256.148 154.491C257.974 157.414 260.003 160.551 262.109 163.677Z" fill="#FABA95"/>
<path d="M285.109 174.677C281.07 161.664 270.776 106.9 272.646 97.1863C260.65 88.3305 246.129 104.728 251.118 118.162C253.831 125.479 275.212 167.205 285.109 174.677Z" fill="#F18A97"/>
<path d="M274.109 151.677C272.66 149.226 271.146 146.589 269.576 143.771C262.832 131.645 257 119.604 255.797 116.31C255.095 114.395 254.929 112.33 255.305 110.169C255.661 108.099 256.509 106.069 257.742 104.309C258.775 102.845 260.029 101.637 261.373 100.82C262.626 100.063 263.885 99.677 265.114 99.677C265.71 99.677 266.302 99.7722 266.894 99.9577C266.874 102.404 267.064 106.124 267.731 112.024C268.448 118.386 269.632 126.482 271.151 135.43C272.084 140.939 273.096 146.479 274.109 151.677Z" fill="#FABA95"/>
<path d="M267.109 132.677C263.27 124.608 260.307 117.779 259.556 115.53C259.094 114.158 258.991 112.653 259.243 111.057C259.5 109.45 260.102 107.869 260.988 106.492C261.697 105.391 262.537 104.498 263.414 103.917C263.545 103.83 263.676 103.748 263.802 103.677C263.918 106.197 264.156 109.201 264.52 112.745C265.094 118.299 265.98 125.124 267.109 132.677Z" fill="#F9E4A3"/>
<path d="M296.109 174.677C300.148 161.664 310.446 106.9 308.572 97.1863C320.566 88.3305 335.086 104.728 330.102 118.162C327.384 125.479 306.011 167.205 296.109 174.677Z" fill="#F18A97"/>
<path d="M307.109 151.677C308.122 146.479 309.135 140.939 310.068 135.435C311.592 126.482 312.775 118.386 313.492 112.024C314.154 106.129 314.345 102.404 314.324 99.9577C314.916 99.7722 315.508 99.677 316.104 99.677C317.333 99.677 318.591 100.063 319.845 100.82C321.189 101.637 322.447 102.845 323.475 104.309C324.713 106.074 325.556 108.099 325.917 110.169C326.288 112.33 326.122 114.395 325.425 116.31C324.217 119.604 318.391 131.645 311.642 143.771C310.073 146.589 308.563 149.226 307.109 151.677Z" fill="#FABA95"/>
<path d="M314.109 132.677C315.238 125.125 316.125 118.297 316.699 112.744C317.063 109.194 317.301 106.196 317.417 103.677C317.543 103.748 317.674 103.83 317.804 103.917C318.686 104.498 319.526 105.39 320.235 106.492C321.117 107.869 321.719 109.449 321.975 111.056C322.227 112.652 322.125 114.156 321.663 115.528C320.912 117.777 317.949 124.605 314.109 132.677Z" fill="#F9E4A3"/>
<path d="M300.109 179.677C309.539 170.088 332.965 133.59 333.238 124.677C347.25 126.436 351.34 144.512 342.304 153.339C336.746 158.76 308.817 176.355 300.109 179.677Z" fill="#F18A97"/>
<path d="M318.109 163.677C320.216 160.551 322.245 157.414 324.071 154.491C327.978 148.223 331.308 142.363 333.705 137.551C335.102 134.74 336.081 132.49 336.76 130.677C337.244 130.972 337.703 131.313 338.131 131.69C339.595 132.973 340.727 134.715 341.406 136.731C342.15 138.941 342.308 141.4 341.859 143.656C341.395 145.958 340.324 147.969 338.764 149.481C336.443 151.727 328.406 157.282 319.226 162.99C318.854 163.219 318.482 163.448 318.109 163.677Z" fill="#FABA95"/>
<path d="M303.109 183.677C312.248 180.333 337.036 166.453 344.528 158.677C353.011 165.142 348.652 174.422 340.084 177.612C330.74 181.095 310.626 182.524 303.109 183.677Z" fill="#F18A97"/>
<path d="M331.109 174.677C335.173 172.133 340.084 168.865 344.018 165.677C344.118 166.119 344.138 166.562 344.068 167.009C343.734 169.267 341.463 171.565 338.415 172.726C336.488 173.455 333.948 174.104 331.109 174.677Z" fill="#FABA95"/>
<path d="M277.109 183.677C267.971 180.333 243.183 166.453 235.691 158.677C227.208 165.142 231.567 174.422 240.135 177.612C249.483 181.095 269.592 182.524 277.109 183.677Z" fill="#F18A97"/>
<path d="M249.109 174.677C246.271 174.104 243.731 173.455 241.803 172.726C238.76 171.565 236.484 169.267 236.151 167.009C236.081 166.562 236.101 166.119 236.2 165.677C240.14 168.865 245.045 172.133 249.109 174.677Z" fill="#FABA95"/>
<path d="M290.749 172.677C294.228 166.597 299.709 142.735 302.654 122.868C304.574 109.906 305.487 101.724 304.964 95.1381C304.312 86.8657 296.892 82.677 290.431 82.677C283.914 82.677 276.222 86.8007 276.114 95.1381C276.032 101.724 277.104 112.228 278.736 122.943C281.861 143.506 287.224 166.206 290.749 172.677Z" fill="#F18A97"/>
<path d="M290.233 156.677C289.894 155.328 289.555 153.914 289.221 152.449C287.072 143.155 285.077 132.492 283.607 122.43C281.946 111.12 281.039 101.189 281.114 95.1832C281.144 92.8899 282.011 91.1068 283.766 89.7329C285.407 88.4448 287.715 87.677 289.934 87.677C293.334 87.677 298.545 89.7632 298.983 95.5115C299.457 101.75 298.569 109.766 296.77 122.374C295.383 132.077 293.374 142.988 291.26 152.313C290.911 153.838 290.572 155.293 290.233 156.677Z" fill="#FABA95"/>
<path d="M290.706 140.677C289.502 134.557 288.416 128.198 287.521 122.068C285.921 111.088 285.04 101.492 285.114 95.7404C285.128 94.5104 285.51 93.7137 286.425 92.9966C287.457 92.1849 288.993 91.677 290.437 91.677C291.41 91.677 292.873 91.9758 294.077 92.8173C295.251 93.639 295.882 94.7744 295.995 96.2832C296.435 102.124 295.584 109.833 293.852 122.023C293 127.999 291.909 134.447 290.706 140.677Z" fill="#F9E4A3"/>
<mask id="mask7_97_4" style="mask-type:luminance" maskUnits="userSpaceOnUse" x="66" y="247" width="129" height="119">
<path d="M66 247.271H194.017V365.677H66V247.271Z" fill="white"/>
</mask>
<g mask="url(#mask7_97_4)">
<path d="M97.0055 355.228C96.5943 361.039 100.696 365.361 106.436 365.08C116.073 364.594 124.03 358.623 129.685 358.698C134.283 358.763 143.483 363.401 148.126 364.805C151.546 365.838 162.345 368.249 163.438 355.228C173.416 355.875 207.861 347.507 187.906 323.932C191.596 324.213 202.531 292.415 173.28 288.224C178.745 263.892 157.472 253.543 147.033 261.756C139.227 240.523 120.786 244.985 113.135 260.056C98.7804 255.434 83.9746 261.746 85.6592 287.743C73.5609 289.618 60.4047 304.403 71.6457 324.634C58.8956 340.117 67.9104 353.784 97.0055 355.228Z" fill="#6965B9"/>
</g>
<path d="M120.109 348.677C110.685 339.091 87.2531 302.592 86.9815 293.677C72.9687 295.431 68.8789 313.514 77.9129 322.34C83.4696 327.761 111.406 345.358 120.109 348.677Z" fill="#857DC6"/>
<path d="M102.109 332.677C101.74 332.45 101.37 332.217 100.996 331.985C91.8121 326.283 83.7778 320.728 81.4591 318.48C79.8947 316.97 78.8215 314.955 78.3608 312.657C77.9102 310.399 78.0672 307.94 78.8164 305.728C79.4948 303.717 80.6238 301.975 82.0868 300.692C82.5172 300.313 82.9728 299.975 83.4588 299.677C84.1372 301.49 85.1143 303.738 86.5166 306.551C88.9112 311.364 92.2424 317.222 96.1507 323.49C97.9732 326.414 100.003 329.551 102.109 332.677Z" fill="#B39CD5"/>
<path d="M124.109 343.677C120.19 330.661 110.186 275.903 112.003 266.185C100.353 257.332 86.2434 273.73 91.0887 287.163C93.7245 294.479 114.492 336.202 124.109 343.677Z" fill="#857DC6"/>
<path d="M114.109 320.677C112.656 318.226 111.143 315.59 109.581 312.771C102.833 300.644 97.0057 288.601 95.7964 285.309C95.0948 283.395 94.9305 281.326 95.3038 279.168C95.667 277.095 96.508 275.071 97.7422 273.311C98.7723 271.844 100.031 270.636 101.375 269.821C102.629 269.06 103.888 268.677 105.117 268.677C105.709 268.677 106.306 268.771 106.894 268.955C106.874 271.407 107.063 275.126 107.73 281.023C108.446 287.388 109.631 295.478 111.148 304.433C112.084 309.937 113.099 315.481 114.109 320.677Z" fill="#B39CD5"/>
<path d="M107.109 301.677C102.79 293.609 99.4599 286.78 98.6105 284.529C98.0947 283.158 97.9748 281.656 98.2614 280.057C98.548 278.449 99.2254 276.87 100.221 275.495C101.018 274.387 101.966 273.496 102.951 272.915C103.102 272.829 103.248 272.748 103.389 272.677C103.519 275.196 103.79 278.196 104.202 281.742C104.843 287.296 105.843 294.125 107.109 301.677Z" fill="#D0B9E2"/>
<path d="M136.109 343.677C140.149 330.661 150.442 275.903 148.571 266.185C160.569 257.332 175.089 273.73 170.101 287.163C167.388 294.479 146.009 336.202 136.109 343.677Z" fill="#857DC6"/>
<path d="M146.109 320.677C147.173 315.481 148.241 309.942 149.226 304.433C150.829 295.478 152.071 287.388 152.825 281.023C153.527 275.126 153.726 271.407 153.705 268.96C154.328 268.771 154.952 268.677 155.575 268.677C156.869 268.677 158.194 269.06 159.514 269.821C160.934 270.636 162.254 271.844 163.338 273.311C164.637 275.071 165.528 277.095 165.905 279.168C166.298 281.326 166.125 283.395 165.386 285.309C164.113 288.601 157.985 300.644 150.881 312.771C149.231 315.59 147.639 318.226 146.109 320.677Z" fill="#B39CD5"/>
<path d="M154.109 301.677C155.24 294.125 156.124 287.296 156.699 281.742C157.064 278.196 157.301 275.196 157.417 272.677C157.542 272.748 157.671 272.829 157.806 272.915C158.686 273.496 159.524 274.392 160.233 275.495C161.117 276.87 161.719 278.449 161.974 280.057C162.229 281.656 162.122 283.158 161.664 284.529C160.909 286.78 157.949 293.609 154.109 301.677Z" fill="#D0B9E2"/>
<path d="M140.109 348.677C149.538 339.091 172.968 302.592 173.235 293.677C187.252 295.436 191.341 313.514 182.303 322.34C176.746 327.761 148.817 345.358 140.109 348.677Z" fill="#857DC6"/>
<path d="M158.109 332.677C160.215 329.551 162.245 326.414 164.067 323.49C167.975 317.222 171.306 311.364 173.701 306.551C175.103 303.738 176.08 301.49 176.763 299.677C177.244 299.975 177.7 300.308 178.13 300.687C179.593 301.975 180.727 303.717 181.405 305.728C182.149 307.94 182.311 310.399 181.856 312.657C181.395 314.955 180.322 316.97 178.763 318.48C176.444 320.728 168.406 326.283 159.223 331.985C158.848 332.217 158.479 332.45 158.109 332.677Z" fill="#B39CD5"/>
<path d="M143.109 352.677C152.448 349.336 177.774 335.458 185.427 327.677C194.096 334.143 189.645 343.42 180.885 346.613C171.338 350.092 150.788 351.524 143.109 352.677Z" fill="#857DC6"/>
<path d="M171.109 343.677C175.173 341.129 180.081 337.863 184.021 334.677C184.12 335.116 184.135 335.56 184.071 336.003C183.734 338.267 181.461 340.561 178.415 341.722C176.488 342.455 173.952 343.104 171.109 343.677Z" fill="#B39CD5"/>
<path d="M117.109 352.677C107.771 349.336 82.4493 335.458 74.7905 327.677C66.1216 334.143 70.5778 343.42 79.333 346.613C88.8798 350.092 109.43 351.524 117.109 352.677Z" fill="#857DC6"/>
<path d="M89.1094 343.677C86.2713 343.099 83.7349 342.455 81.8066 341.722C78.7609 340.561 76.4866 338.262 76.1504 336.003C76.0811 335.56 76.1009 335.116 76.1998 334.677C80.1404 337.863 85.0501 341.129 89.1094 343.677Z" fill="#B39CD5"/>
<path d="M130.243 342.677C133.602 336.529 138.894 312.402 141.737 292.316C143.596 279.206 144.471 270.935 143.97 264.28C143.34 255.913 136.175 251.677 129.938 251.677C123.643 251.677 116.217 255.843 116.114 264.28C116.035 270.935 117.068 281.555 118.641 292.391C121.661 313.18 126.84 336.137 130.243 342.677Z" fill="#857DC6"/>
<path d="M130.231 325.677C129.895 324.329 129.558 322.916 129.216 321.448C127.068 312.155 125.073 301.493 123.603 291.433C121.945 280.12 121.039 270.189 121.114 264.182C121.138 261.888 122.005 260.109 123.762 258.731C125.405 257.444 127.712 256.677 129.934 256.677C133.33 256.677 138.542 258.766 138.982 264.513C139.458 270.751 138.572 278.767 136.77 291.377C135.384 301.077 133.374 311.989 131.256 321.313C130.909 322.836 130.568 324.294 130.231 325.677Z" fill="#B39CD5"/>
<path d="M130.215 309.677C128.907 303.432 127.715 296.945 126.741 290.69C124.993 279.485 124.039 269.692 124.113 263.825C124.129 262.57 124.548 261.754 125.544 261.023C126.672 260.191 128.351 259.677 129.924 259.677C130.983 259.677 132.578 259.979 133.892 260.841C135.173 261.678 135.862 262.837 135.984 264.375C136.466 270.332 135.534 278.205 133.648 290.645C132.721 296.744 131.529 303.321 130.215 309.677Z" fill="#D0B9E2"/>
<mask id="mask8_97_4" style="mask-type:luminance" maskUnits="userSpaceOnUse" x="226" y="248" width="128" height="118">
<path d="M226.657 248.093H353.722V365.537H226.657V248.093Z" fill="white"/>
</mask>
<g mask="url(#mask8_97_4)">
<path d="M257.427 355.178C257.021 360.939 261.092 365.225 266.788 364.95C276.354 364.468 284.251 358.542 289.866 358.617C294.429 358.677 303.559 363.28 308.172 364.674C311.561 365.697 322.28 368.093 323.368 355.178C333.271 355.82 367.46 347.517 347.655 324.137C351.315 324.413 362.17 292.871 333.135 288.715C338.56 264.578 317.447 254.32 307.084 262.463C299.332 241.4 281.037 245.827 273.436 260.778C259.192 256.195 244.496 262.453 246.166 288.239C234.158 290.099 221.102 304.764 232.258 324.829C219.603 340.187 228.547 353.744 257.427 355.178Z" fill="#B4442C"/>
</g>
<path d="M281.109 348.677C271.484 339.088 247.556 302.59 247.277 293.677C232.965 295.431 228.788 313.512 238.017 322.334C243.694 327.76 272.221 345.355 281.109 348.677Z" fill="#EF6A26"/>
<path d="M262.109 332.677C261.737 332.455 261.365 332.233 260.993 332.006C251.809 326.475 243.777 321.089 241.457 318.911C239.896 317.445 238.826 315.49 238.362 313.263C237.908 311.075 238.071 308.691 238.815 306.543C239.494 304.592 240.626 302.904 242.089 301.66C242.518 301.294 242.976 300.963 243.461 300.677C244.139 302.435 245.113 304.612 246.515 307.343C248.912 312.009 252.242 317.687 256.148 323.77C257.974 326.604 260.003 329.645 262.109 332.677Z" fill="#F19124"/>
<path d="M285.109 343.677C281.07 330.665 270.776 275.902 272.646 266.184C260.65 257.333 246.129 273.731 251.118 287.164C253.831 294.48 275.212 336.205 285.109 343.677Z" fill="#EF6A26"/>
<path d="M274.109 321.677C272.66 319.226 271.146 316.589 269.576 313.771C262.832 301.645 257 289.604 255.797 286.31C255.095 284.395 254.929 282.33 255.305 280.169C255.661 278.094 256.509 276.069 257.742 274.309C258.775 272.84 260.029 271.637 261.373 270.82C262.626 270.063 263.885 269.677 265.114 269.677C265.71 269.677 266.302 269.767 266.894 269.958C266.874 272.404 267.064 276.124 267.731 282.024C268.448 288.386 269.632 296.482 271.151 305.43C272.084 310.939 273.096 316.479 274.109 321.677Z" fill="#F19124"/>
<path d="M267.109 301.677C263.27 293.608 260.307 286.779 259.556 284.53C259.094 283.158 258.991 281.653 259.243 280.057C259.5 278.445 260.102 276.869 260.988 275.492C261.697 274.386 262.537 273.498 263.414 272.917C263.545 272.825 263.676 272.748 263.802 272.677C263.918 275.197 264.156 278.195 264.52 281.745C265.094 287.294 265.98 294.124 267.109 301.677Z" fill="#F3B625"/>
<path d="M296.109 343.677C300.148 330.665 310.446 275.902 308.572 266.184C320.566 257.333 335.086 273.731 330.102 287.164C327.384 294.48 306.011 336.205 296.109 343.677Z" fill="#EF6A26"/>
<path d="M307.109 321.677C308.122 316.479 309.135 310.939 310.068 305.43C311.592 296.482 312.775 288.386 313.492 282.024C314.154 276.124 314.345 272.404 314.324 269.958C314.916 269.772 315.508 269.677 316.104 269.677C317.333 269.677 318.591 270.058 319.845 270.82C321.189 271.637 322.447 272.845 323.475 274.309C324.713 276.074 325.556 278.094 325.917 280.169C326.288 282.33 326.122 284.395 325.425 286.31C324.217 289.604 318.391 301.645 311.642 313.771C310.073 316.589 308.563 319.226 307.109 321.677Z" fill="#F19124"/>
<path d="M314.109 301.677C315.238 294.125 316.125 287.297 316.699 281.744C317.063 278.194 317.301 275.196 317.417 272.677C317.543 272.748 317.674 272.825 317.804 272.917C318.686 273.498 319.526 274.39 320.235 275.492C321.117 276.869 321.719 278.449 321.975 280.056C322.227 281.652 322.125 283.156 321.663 284.528C320.912 286.777 317.949 293.605 314.109 301.677Z" fill="#F3B625"/>
<path d="M300.109 348.677C309.539 339.088 332.965 302.59 333.238 293.677C347.25 295.431 351.34 313.512 342.304 322.334C336.746 327.76 308.817 345.355 300.109 348.677Z" fill="#EF6A26"/>
<path d="M318.109 332.677C320.216 329.645 322.245 326.604 324.071 323.77C327.978 317.687 331.308 312.009 333.705 307.343C335.102 304.612 336.081 302.435 336.76 300.677C337.244 300.963 337.703 301.289 338.131 301.66C339.595 302.904 340.727 304.592 341.406 306.543C342.15 308.691 342.308 311.075 341.859 313.263C341.395 315.49 340.324 317.445 338.764 318.911C336.443 321.089 328.406 326.475 319.226 332.006C318.854 332.233 318.482 332.455 318.109 332.677Z" fill="#F19124"/>
<path d="M303.109 352.677C312.248 349.334 337.036 335.456 344.528 327.677C353.011 334.146 348.652 343.424 340.084 346.614C330.74 350.095 310.626 351.525 303.109 352.677Z" fill="#EF6A26"/>
<path d="M331.109 343.677C335.173 341.128 340.084 337.865 344.018 334.677C344.118 335.119 344.138 335.562 344.068 336.009C343.734 338.267 341.463 340.565 338.415 341.721C336.488 342.455 333.948 343.104 331.109 343.677Z" fill="#F19124"/>
<path d="M277.109 352.677C267.971 349.334 243.183 335.456 235.691 327.677C227.208 334.146 231.567 343.424 240.135 346.614C249.483 350.095 269.592 351.525 277.109 352.677Z" fill="#EF6A26"/>
<path d="M249.109 343.677C246.271 343.104 243.731 342.455 241.803 341.721C238.76 340.565 236.484 338.267 236.151 336.004C236.081 335.562 236.101 335.119 236.2 334.677C240.14 337.865 245.045 341.128 249.109 343.677Z" fill="#F19124"/>
<path d="M290.749 342.677C294.228 336.534 299.709 312.406 302.654 292.317C304.574 279.205 305.487 270.937 304.964 264.277C304.312 255.913 296.892 251.677 290.431 251.677C283.914 251.677 276.222 255.847 276.114 264.277C276.032 270.937 277.104 281.558 278.736 292.392C281.861 313.185 287.224 336.139 290.749 342.677Z" fill="#EF6A26"/>
<path d="M290.233 325.677C289.894 324.348 289.555 322.954 289.221 321.51C287.072 312.346 285.077 301.842 283.607 291.926C281.946 280.78 281.039 270.993 281.114 265.074C281.144 262.814 282.011 261.057 283.766 259.703C285.407 258.434 287.715 257.677 289.934 257.677C293.334 257.677 298.545 259.733 298.983 265.398C299.457 271.546 298.569 279.446 296.77 291.871C295.383 301.434 293.374 312.187 291.26 321.376C290.911 322.879 290.572 324.313 290.233 325.677Z" fill="#F19124"/>
<path d="M290.706 309.677C289.502 303.557 288.416 297.198 287.521 291.068C285.921 280.088 285.04 270.492 285.114 264.74C285.128 263.51 285.51 262.714 286.425 261.997C287.457 261.18 288.993 260.677 290.437 260.677C291.41 260.677 292.873 260.976 294.077 261.817C295.251 262.639 295.882 263.774 295.995 265.283C296.435 271.119 295.584 278.833 293.852 291.023C293 296.999 291.909 303.447 290.706 309.677Z" fill="#F3B625"/>
<mask id="mask9_97_4" style="mask-type:luminance" maskUnits="userSpaceOnUse" x="382" y="79" width="128" height="118">
<path d="M382.055 79.053H509.124V196.486H382.055V79.053Z" fill="white"/>
</mask>
<g mask="url(#mask9_97_4)">
<path d="M412.829 186.123C412.423 191.889 416.495 196.175 422.19 195.9C431.757 195.413 439.658 189.492 445.269 189.567C449.831 189.627 458.961 194.23 463.574 195.624C466.968 196.647 477.683 199.038 478.771 186.123C488.678 186.769 522.867 178.467 503.058 155.087C506.723 155.363 517.578 123.826 488.538 119.67C493.968 95.5333 472.85 85.275 462.486 93.4224C454.74 72.3595 436.439 76.7816 428.839 91.7328C414.594 87.1502 399.899 93.4124 401.568 119.193C389.56 121.054 376.504 135.719 387.66 155.779C375.005 171.136 383.95 184.694 412.829 186.123Z" fill="#D74624"/>
</g>
<path d="M436.109 179.677C426.684 170.087 403.251 133.591 402.982 124.677C388.968 126.431 384.878 144.513 393.915 153.337C399.473 158.758 427.406 176.355 436.109 179.677Z" fill="#EF6A26"/>
<path d="M417.109 163.677C416.753 163.455 416.396 163.233 416.039 163.01C407.238 157.475 399.541 152.092 397.317 149.914C395.822 148.442 394.796 146.492 394.351 144.265C393.916 142.072 394.072 139.687 394.786 137.544C395.436 135.593 396.521 133.904 397.923 132.66C398.334 132.289 398.774 131.963 399.233 131.677C399.888 133.435 400.821 135.613 402.165 138.344C404.462 143.01 407.653 148.689 411.397 154.768C413.146 157.603 415.091 160.645 417.109 163.677Z" fill="#F79517"/>
<path d="M440.109 174.677C436.07 161.663 425.776 106.9 427.646 97.1865C415.65 88.3301 401.129 104.729 406.118 118.164C408.831 125.481 430.212 167.205 440.109 174.677Z" fill="#EF6A26"/>
<path d="M430.109 152.677C428.66 150.225 427.146 147.588 425.581 144.776C418.832 132.648 413 120.606 411.797 117.307C411.095 115.397 410.929 113.331 411.305 111.17C411.661 109.095 412.504 107.069 413.742 105.309C414.77 103.846 416.029 102.637 417.373 101.82C418.626 101.063 419.885 100.677 421.114 100.677C421.71 100.677 422.302 100.772 422.894 100.958C422.874 103.404 423.064 107.124 423.731 113.025C424.448 119.387 425.632 127.479 427.151 136.433C428.084 141.943 429.101 147.483 430.109 152.677Z" fill="#F79517"/>
<path d="M423.109 132.677C418.79 124.608 415.457 117.779 414.612 115.53C414.092 114.158 413.977 112.653 414.26 111.057C414.549 109.445 415.226 107.869 416.223 106.492C417.021 105.391 417.966 104.498 418.952 103.917C419.099 103.83 419.246 103.748 419.388 103.677C419.519 106.197 419.787 109.195 420.196 112.745C420.842 118.294 421.839 125.124 423.109 132.677Z" fill="#F5C170"/>
<path d="M451.109 174.677C455.144 161.663 465.443 106.9 463.573 97.1865C475.564 88.3301 490.09 104.729 485.101 118.164C482.388 125.481 461.007 167.205 451.109 174.677Z" fill="#EF6A26"/>
<path d="M462.109 152.677C463.122 147.483 464.135 141.943 465.072 136.433C466.591 127.479 467.774 119.387 468.491 113.025C469.153 107.124 469.348 103.404 469.323 100.958C469.915 100.772 470.511 100.677 471.103 100.677C472.331 100.677 473.589 101.063 474.843 101.82C476.191 102.637 477.444 103.846 478.477 105.309C479.71 107.074 480.552 109.095 480.913 111.17C481.289 113.331 481.124 115.397 480.422 117.312C479.214 120.606 473.389 132.648 466.641 144.776C465.077 147.593 463.563 150.23 462.109 152.677Z" fill="#F79517"/>
<path d="M469.109 132.677C470.375 125.124 471.377 118.294 472.018 112.745C472.433 109.195 472.701 106.197 472.827 103.677C472.974 103.748 473.115 103.83 473.268 103.917C474.255 104.498 475.2 105.391 475.998 106.492C476.995 107.869 477.672 109.45 477.956 111.057C478.245 112.653 478.124 114.158 477.609 115.53C476.759 117.779 473.43 124.608 469.109 132.677Z" fill="#F5C170"/>
<path d="M455.109 179.677C464.535 170.087 487.968 133.591 488.237 124.677C502.25 126.431 506.341 144.513 497.304 153.337C491.75 158.758 463.813 176.355 455.109 179.677Z" fill="#EF6A26"/>
<path d="M474.109 163.677C476.123 160.645 478.074 157.603 479.818 154.768C483.563 148.689 486.754 143.01 489.052 138.344C490.396 135.613 491.33 133.435 491.985 131.677C492.444 131.963 492.884 132.289 493.299 132.66C494.697 133.904 495.783 135.593 496.433 137.544C497.146 139.687 497.303 142.072 496.868 144.265C496.423 146.492 495.401 148.442 493.901 149.914C491.677 152.092 483.978 157.475 475.175 163.01C474.818 163.233 474.461 163.455 474.109 163.677Z" fill="#F79517"/>
<path d="M459.109 183.677C468.252 180.333 493.034 166.453 500.525 158.677C509.012 165.142 504.654 174.422 496.081 177.612C486.738 181.09 466.626 182.524 459.109 183.677Z" fill="#EF6A26"/>
<path d="M487.109 174.677C491.169 172.133 496.08 168.865 500.02 165.677C500.12 166.119 500.135 166.562 500.07 167.009C499.732 169.267 497.46 171.565 494.412 172.721C492.484 173.455 489.949 174.104 487.109 174.677Z" fill="#F79517"/>
<path d="M433.109 183.677C423.971 180.333 399.184 166.453 391.693 158.677C383.205 165.142 387.569 174.422 396.136 177.612C405.48 181.09 425.593 182.524 433.109 183.677Z" fill="#EF6A26"/>
<path d="M405.109 174.677C402.271 174.104 399.731 173.455 397.804 172.721C394.756 171.565 392.485 169.267 392.147 167.009C392.082 166.562 392.102 166.119 392.202 165.677C396.136 168.865 401.046 172.133 405.109 174.677Z" fill="#F79517"/>
<path d="M446.241 173.677C449.6 167.529 454.892 143.401 457.736 123.317C459.594 110.205 460.471 101.937 459.971 95.2772C459.336 86.9125 452.172 82.677 445.938 82.677C439.641 82.677 432.213 86.8467 432.114 95.2772C432.03 101.937 433.065 112.558 434.641 123.392C437.659 144.18 442.837 167.134 446.241 173.677Z" fill="#EF6A26"/>
<path d="M446.233 156.677C445.899 155.328 445.56 153.914 445.221 152.449C443.072 143.154 441.077 132.495 439.607 122.432C437.951 111.122 437.039 101.19 437.114 95.1837C437.144 92.8903 438.011 91.107 439.766 89.733C441.407 88.4448 443.715 87.677 445.939 87.677C449.334 87.677 454.545 89.7633 454.983 95.5121C455.457 101.751 454.569 109.768 452.77 122.377C451.388 132.076 449.379 142.987 447.26 152.312C446.911 153.838 446.572 155.293 446.233 156.677Z" fill="#F79517"/>
<path d="M445.705 140.677C444.506 134.556 443.416 128.202 442.52 122.071C440.921 111.09 440.04 101.493 440.114 95.7408C440.128 94.5107 440.51 93.7189 441.425 92.9967C442.457 92.185 443.998 91.677 445.441 91.677C446.409 91.677 447.872 91.9758 449.075 92.8175C450.249 93.6442 450.88 94.7747 450.993 96.2837C451.438 102.125 450.582 109.835 448.85 122.026C447.999 128.002 446.908 134.447 445.705 140.677Z" fill="#F5C170"/>
<mask id="mask10_97_4" style="mask-type:luminance" maskUnits="userSpaceOnUse" x="385" y="248" width="128" height="118">
<path d="M385.209 248.093H512.279V365.537H385.209V248.093Z" fill="white"/>
</mask>
<g mask="url(#mask10_97_4)">
<path d="M415.978 355.173C415.572 360.939 419.643 365.225 425.339 364.95C434.905 364.463 442.807 358.542 448.423 358.617C452.985 358.677 462.115 363.28 466.723 364.674C470.117 365.697 480.837 368.093 481.92 355.173C491.827 355.82 526.016 347.517 506.207 324.137C509.872 324.413 520.727 292.871 491.692 288.715C497.117 264.578 476.004 254.32 465.64 262.463C457.889 241.4 439.588 245.827 431.987 260.778C417.743 256.195 403.048 262.453 404.717 288.239C392.709 290.099 379.653 304.764 390.809 324.829C378.154 340.187 387.099 353.744 415.978 355.173Z" fill="#80447D"/>
</g>
<path d="M439.109 348.677C429.685 339.088 406.254 302.59 405.985 293.677C391.968 295.431 387.878 313.512 396.914 322.334C402.472 327.76 430.407 345.355 439.109 348.677Z" fill="#9C6991"/>
<path d="M421.109 332.677C420.737 332.455 420.37 332.233 419.992 332.006C410.812 326.475 402.774 321.089 400.454 318.911C398.893 317.445 397.822 315.49 397.363 313.263C396.909 311.075 397.067 308.691 397.812 306.543C398.49 304.592 399.623 302.904 401.086 301.66C401.515 301.294 401.974 300.963 402.458 300.677C403.137 302.435 404.116 304.612 405.513 307.343C407.91 312.009 411.241 317.687 415.147 323.77C416.973 326.604 419.003 329.645 421.109 332.677Z" fill="#C59FB4"/>
<path d="M443.109 343.677C439.19 330.665 429.186 275.902 431.002 266.184C419.354 257.333 405.242 273.731 410.089 287.164C412.725 294.48 433.495 336.205 443.109 343.677Z" fill="#9C6991"/>
<path d="M433.109 321.677C431.656 319.226 430.142 316.589 428.578 313.771C421.83 301.645 416.005 289.604 414.797 286.31C414.095 284.395 413.929 282.33 414.305 280.169C414.666 278.094 415.509 276.069 416.742 274.309C417.774 272.845 419.028 271.637 420.371 270.82C421.629 270.063 422.888 269.677 424.116 269.677C424.707 269.677 425.304 269.772 425.891 269.958C425.871 272.404 426.061 276.124 426.728 282.024C427.445 288.386 428.628 296.482 430.147 305.43C431.084 310.939 432.097 316.479 433.109 321.677Z" fill="#C59FB4"/>
<path d="M426.109 301.677C421.788 293.608 418.46 286.779 417.609 284.53C417.095 283.158 416.974 281.653 417.263 280.057C417.546 278.445 418.224 276.869 419.221 275.492C420.019 274.386 420.964 273.498 421.951 272.917C422.098 272.825 422.245 272.748 422.392 272.677C422.518 275.197 422.786 278.195 423.201 281.745C423.841 287.294 424.839 294.124 426.109 301.677Z" fill="#DCC3CF"/>
<path d="M455.109 343.677C459.033 330.665 469.033 275.902 467.217 266.184C478.87 257.333 492.976 273.731 488.129 287.164C485.494 294.48 464.724 336.205 455.109 343.677Z" fill="#9C6991"/>
<path d="M465.109 321.677C466.122 316.479 467.135 310.939 468.072 305.43C469.591 296.482 470.774 288.386 471.491 282.024C472.158 276.124 472.348 272.404 472.328 269.958C472.915 269.772 473.511 269.677 474.108 269.677C475.331 269.677 476.589 270.063 477.848 270.82C479.191 271.637 480.444 272.845 481.477 274.309C482.71 276.074 483.557 278.094 483.913 280.169C484.289 282.33 484.124 284.395 483.422 286.31C482.214 289.604 476.389 301.645 469.641 313.771C468.077 316.589 466.563 319.226 465.109 321.677Z" fill="#C59FB4"/>
<path d="M472.109 301.677C473.38 294.125 474.377 287.297 475.022 281.744C475.432 278.194 475.699 275.196 475.831 272.677C475.972 272.748 476.119 272.825 476.266 272.917C477.253 273.498 478.198 274.39 478.996 275.492C479.993 276.869 480.67 278.449 480.959 280.056C481.242 281.652 481.127 283.156 480.607 284.528C479.757 286.777 476.429 293.605 472.109 301.677Z" fill="#DCC3CF"/>
<path d="M458.109 348.677C467.735 339.088 491.667 302.59 491.942 293.677C506.253 295.431 510.431 313.512 501.202 322.334C495.53 327.76 466.998 345.355 458.109 348.677Z" fill="#9C6991"/>
<path d="M477.109 332.677C479.128 329.645 481.073 326.604 482.818 323.77C486.562 317.687 489.759 312.009 492.051 307.343C493.395 304.612 494.333 302.435 494.983 300.677C495.448 300.963 495.883 301.289 496.298 301.66C497.696 302.904 498.781 304.592 499.436 306.543C500.15 308.691 500.301 311.075 499.866 313.263C499.426 315.49 498.4 317.445 496.899 318.911C494.68 321.089 486.977 326.475 478.175 332.006C477.818 332.233 477.461 332.455 477.109 332.677Z" fill="#C59FB4"/>
<path d="M462.109 352.677C471.248 349.334 496.036 335.456 503.528 327.677C512.011 334.146 507.652 343.424 499.084 346.614C489.735 350.095 469.621 351.525 462.109 352.677Z" fill="#9C6991"/>
<path d="M490.109 343.677C494.174 341.128 499.08 337.865 503.02 334.677C503.12 335.119 503.135 335.562 503.07 336.009C502.737 338.267 500.46 340.565 497.412 341.721C495.489 342.455 492.949 343.104 490.109 343.677Z" fill="#C59FB4"/>
<path d="M436.109 352.677C426.971 349.334 402.183 335.456 394.691 327.677C386.208 334.146 390.567 343.424 399.135 346.614C408.483 350.095 428.592 351.525 436.109 352.677Z" fill="#9C6991"/>
<path d="M408.109 343.677C405.271 343.104 402.731 342.455 400.808 341.721C397.76 340.565 395.484 338.267 395.151 336.004C395.081 335.562 395.101 335.119 395.2 334.677C399.14 337.865 404.045 341.128 408.109 343.677Z" fill="#C59FB4"/>
<path d="M449.245 342.677C452.6 336.534 457.892 312.401 460.736 292.317C462.594 279.205 463.471 270.937 462.971 264.277C462.341 255.913 455.172 251.677 448.938 251.677C442.646 251.677 435.218 255.847 435.114 264.277C435.03 270.937 436.065 281.558 437.641 292.392C440.664 313.185 445.837 336.139 449.245 342.677Z" fill="#9C6991"/>
<path d="M449.23 325.677C448.896 324.348 448.557 322.954 448.218 321.51C446.068 312.346 444.078 301.842 442.602 291.926C440.947 280.78 440.039 270.993 440.114 265.074C440.139 262.814 441.006 261.057 442.762 259.703C444.408 258.434 446.712 257.677 448.936 257.677C452.332 257.677 457.544 259.733 457.983 265.398C458.457 271.546 457.574 279.446 455.773 291.871C454.387 301.434 452.377 312.187 450.258 321.376C449.914 322.879 449.569 324.313 449.23 325.677Z" fill="#C59FB4"/>
<path d="M449.213 309.677C447.906 303.557 446.716 297.198 445.739 291.068C443.994 280.088 443.039 270.492 443.113 264.74C443.129 263.51 443.546 262.714 444.544 261.997C445.67 261.185 447.351 260.677 448.925 260.677C449.982 260.677 451.578 260.976 452.89 261.817C454.176 262.639 454.86 263.774 454.982 265.283C455.468 271.119 454.534 278.833 452.645 291.023C451.716 296.999 450.532 303.447 449.213 309.677Z" fill="#DCC3CF"/>
</svg>
