<svg width="481" height="473" viewBox="0 0 481 473" fill="none" xmlns="http://www.w3.org/2000/svg">
<path d="M187.344 43.5077C194.547 41.5552 201.835 40.0113 209.206 38.8758C216.584 37.7404 223.997 37.0194 231.447 36.713C238.902 36.4066 246.352 36.5148 253.789 37.0435C261.233 37.5721 268.622 38.5093 275.958 39.8611C283.299 41.2128 290.538 42.9731 297.676 45.1358C304.819 47.2986 311.818 49.8519 318.672 52.7956C325.533 55.7394 332.202 59.0617 338.69 62.7504C345.178 66.4451 351.438 70.4823 357.476 74.8739L370.495 56.9289C365.779 53.4925 360.937 50.2484 355.968 47.1965C351 44.1446 345.917 41.2909 340.727 38.6355C335.53 35.9861 330.243 33.541 324.86 31.3001C319.477 29.0652 314.01 27.0467 308.465 25.2383C302.926 23.436 297.321 21.85 291.65 20.4863C285.985 19.1225 280.271 17.9871 274.516 17.0739C268.754 16.1607 262.975 15.4698 257.16 15.0132C251.35 14.5567 245.529 14.3284 239.701 14.3284C233.874 14.3284 228.052 14.5627 222.243 15.0193C216.433 15.4818 210.648 16.1667 204.893 17.0799C199.137 17.9991 193.424 19.1405 187.753 20.5043C182.087 21.868 176.482 23.4541 170.937 25.2624C165.398 27.0707 159.931 29.0953 154.548 31.3301C149.165 33.565 143.879 36.0161 138.688 38.6655C133.491 41.3209 128.415 44.1746 123.446 47.2325C118.478 50.2844 113.636 53.5346 108.926 56.971L121.944 74.916C131.791 67.7187 142.208 61.4767 153.202 56.202C164.197 50.9212 175.575 46.6918 187.344 43.5077Z" fill="#39B54A"/>
<path d="M46.2652 289.769C44.9855 285.041 43.8801 280.271 42.9489 275.459C42.0177 270.647 41.2668 265.81 40.69 260.938C40.1133 256.072 39.7108 251.194 39.4945 246.297C39.2722 241.401 39.2362 236.505 39.3743 231.609C39.5125 226.706 39.8249 221.822 40.3236 216.944C40.8222 212.072 41.4951 207.217 42.3421 202.393C43.1952 197.569 44.2225 192.781 45.4241 188.029C46.6256 183.277 47.9954 178.579 49.5394 173.929C51.0833 169.279 52.8015 164.695 54.6819 160.171C56.5624 155.647 58.605 151.196 60.8098 146.822C63.0146 142.448 65.3756 138.159 67.8989 133.96C70.4161 129.76 73.0835 125.657 75.9071 121.656C78.7247 117.649 81.6865 113.756 84.7925 109.965C87.8985 106.18 91.1366 102.515 94.5069 98.9647C97.8773 95.4142 101.38 91.9958 105.002 88.7036C108.625 85.4114 112.362 82.2573 116.219 79.2415C118.099 77.7636 120.01 76.3217 121.932 74.9159L108.913 56.9709C106.775 58.5329 104.66 60.131 102.569 61.7651C98.2918 65.1234 94.1465 68.6259 90.1273 72.2846C86.1082 75.9432 82.2272 79.7461 78.4844 83.6932C74.7476 87.6342 71.155 91.7074 67.7066 95.9128C64.2642 100.124 60.978 104.45 57.854 108.895C54.724 113.341 51.7622 117.901 48.9686 122.563C46.175 127.231 43.5497 131.989 41.1046 136.843C38.6534 141.703 36.3885 146.642 34.3038 151.664C32.2132 156.687 30.3147 161.781 28.5965 166.942C26.8843 172.108 25.3584 177.323 24.0247 182.598C22.691 187.873 21.5495 193.189 20.6063 198.542C19.6571 203.901 18.9061 209.29 18.3534 214.703C17.8007 220.11 17.4463 225.541 17.2901 230.978C17.1339 236.415 17.1759 241.852 17.4162 247.289C17.6565 252.726 18.0951 258.145 18.7259 263.546C19.3627 268.952 20.1978 274.323 21.2251 279.664C22.2524 285.005 23.472 290.304 24.8898 295.561C25.857 299.147 26.9084 302.704 28.0498 306.218L49.1068 299.363C48.0855 296.197 47.1363 293.001 46.2652 289.769Z" fill="#39B54A"/>
<path d="M397.445 113.6C399.962 116.826 402.378 120.124 404.691 123.494C407.004 126.865 409.214 130.307 411.317 133.815C413.42 137.318 415.414 140.886 417.307 144.515C419.193 148.144 420.965 151.826 422.63 155.569C424.288 159.306 425.838 163.091 427.267 166.924C428.703 170.757 430.013 174.626 431.208 178.537C432.404 182.454 433.485 186.395 434.441 190.378C435.396 194.355 436.225 198.356 436.94 202.387C437.649 206.418 438.238 210.462 438.706 214.529C439.169 218.596 439.511 222.669 439.727 226.754C439.944 230.846 440.034 234.931 440.004 239.022C439.974 243.113 439.812 247.205 439.535 251.284C439.253 255.369 438.844 259.436 438.316 263.498C437.787 267.553 437.138 271.59 436.363 275.609C435.582 279.628 434.687 283.617 433.672 287.576C432.65 291.541 431.515 295.47 430.253 299.363L451.316 306.218C453.113 300.661 454.687 295.044 456.044 289.367C457.402 283.689 458.531 277.964 459.439 272.197C460.346 266.429 461.025 260.638 461.481 254.816C461.938 248.995 462.16 243.161 462.16 237.322C462.154 231.483 461.926 225.655 461.463 219.834C461.007 214.012 460.322 208.221 459.409 202.453C458.495 196.686 457.36 190.961 455.996 185.283C454.639 179.606 453.058 173.995 451.256 168.438C449.454 162.887 447.441 157.414 445.212 152.019C442.984 146.624 440.544 141.325 437.901 136.122C435.258 130.914 432.416 125.825 429.37 120.845C426.33 115.864 423.098 111.01 419.674 106.288C416.249 101.56 412.651 96.9762 408.866 92.5366C405.087 88.0909 401.134 83.8014 397.019 79.6741C392.903 75.5408 388.626 71.5757 384.198 67.7789C379.771 63.982 375.205 60.3654 370.495 56.929L357.476 74.8799C372.609 85.9101 385.935 98.8146 397.445 113.6Z" fill="#39B54A"/>
<path d="M215.436 436.573C210.732 435.996 206.052 435.257 201.402 434.344C196.746 433.437 192.132 432.362 187.561 431.124C182.983 429.887 178.453 428.487 173.977 426.931C169.501 425.369 165.08 423.657 160.724 421.782C156.369 419.908 152.085 417.883 147.874 415.708C143.662 413.528 139.529 411.203 135.48 408.733C131.431 406.264 127.478 403.651 123.615 400.899C119.752 398.148 115.985 395.264 112.326 392.242C108.668 389.226 105.123 386.078 101.681 382.81C98.2442 379.536 94.9279 376.148 91.7318 372.645C88.5358 369.137 85.4658 365.52 82.5221 361.795C79.5843 358.071 76.7787 354.25 74.1053 350.327C71.4379 346.398 68.9086 342.385 66.5176 338.281C64.1325 334.178 61.8916 329.997 59.801 325.731C57.7103 321.472 55.7758 317.14 53.9915 312.737C52.2072 308.339 50.5791 303.881 49.1073 299.363L28.0503 306.218C29.6724 311.241 31.4747 316.191 33.4512 321.081C35.4277 325.971 37.5785 330.784 39.8975 335.524C42.2164 340.258 44.6976 344.908 47.347 349.468C49.9904 354.027 52.796 358.491 55.7638 362.853C58.7256 367.208 61.8436 371.462 65.1058 375.601C68.3739 379.74 71.7803 383.753 75.3308 387.652C78.8814 391.545 82.5641 395.312 86.379 398.947C90.1999 402.582 94.1409 406.072 98.2021 409.43C102.269 412.783 106.451 415.985 110.74 419.043C115.03 422.101 119.427 424.996 123.927 427.742C128.421 430.481 133.011 433.065 137.691 435.48C142.371 437.895 147.135 440.142 151.971 442.22C156.813 444.299 161.721 446.203 166.696 447.928C171.67 449.658 176.699 451.208 181.781 452.578C186.87 453.947 191.994 455.137 197.167 456.14C202.333 457.143 207.53 457.967 212.757 458.603C221.696 459.697 230.672 460.249 239.683 460.261V438.087C231.567 438.069 223.487 437.564 215.436 436.573Z" fill="#39B54A"/>
<path d="M430.247 299.357C428.631 304.362 426.817 309.294 424.81 314.154C422.804 319.015 420.605 323.785 418.226 328.471C415.841 333.157 413.281 337.747 410.542 342.228C407.802 346.716 404.889 351.084 401.801 355.343C398.719 359.597 395.469 363.724 392.062 367.725C388.656 371.72 385.093 375.583 381.381 379.302C377.674 383.021 373.823 386.589 369.828 390.002C365.839 393.42 361.717 396.67 357.476 399.764C353.229 402.852 348.867 405.772 344.391 408.523C339.915 411.269 335.338 413.834 330.664 416.225C325.984 418.61 321.22 420.809 316.371 422.822C311.523 424.828 306.597 426.648 301.604 428.271C296.612 429.899 291.566 431.322 286.465 432.548C281.358 433.774 276.216 434.795 271.031 435.618C265.847 436.435 260.638 437.054 255.405 437.462C250.173 437.871 244.928 438.075 239.683 438.075V460.249C245.511 460.249 251.332 460.021 257.141 459.565C262.951 459.108 268.736 458.423 274.492 457.516C280.247 456.603 285.96 455.461 291.626 454.104C297.297 452.74 302.902 451.16 308.447 449.352C313.986 447.549 319.453 445.531 324.836 443.296C330.225 441.061 335.512 438.622 340.708 435.966C345.899 433.317 350.982 430.469 355.95 427.417C360.924 424.366 365.767 421.121 370.483 417.691C375.193 414.255 379.771 410.644 384.204 406.853C388.632 403.056 392.909 399.097 397.031 394.97C401.152 390.837 405.105 386.553 408.89 382.113C412.675 377.668 416.279 373.09 419.71 368.362C423.134 363.64 426.366 358.786 429.412 353.805C432.458 348.825 435.306 343.73 437.949 338.528C440.592 333.325 443.032 328.026 445.26 322.631C447.489 317.23 449.508 311.757 451.304 306.2L430.247 299.357Z" fill="#39B54A"/>
<path d="M344.451 92.8309L357.47 74.8739C353.222 71.7859 348.867 68.8602 344.391 66.1147C339.915 63.3631 335.337 60.7918 330.663 58.4068C325.989 56.0157 321.225 53.8169 316.377 51.8043C311.529 49.7857 306.609 47.9714 301.616 46.3433C296.624 44.7153 291.577 43.2914 286.471 42.0598C281.37 40.8343 276.228 39.807 271.043 38.9839C265.858 38.1669 260.65 37.5481 255.417 37.1335C250.184 36.725 244.94 36.5147 239.695 36.5208C234.444 36.5208 229.206 36.725 223.973 37.1395C218.74 37.5541 213.531 38.1729 208.347 38.9959C203.162 39.825 198.02 40.8523 192.919 42.0779C187.812 43.3095 182.766 44.7393 177.774 46.3674C172.781 47.9955 167.867 49.8158 163.019 51.8284C158.171 53.8469 153.406 56.0458 148.732 58.4368C144.058 60.8279 139.481 63.3992 135.011 66.1507C130.535 68.9022 126.174 71.822 121.932 74.9159L134.951 92.8669C198.56 46.4935 283.359 48.3139 344.451 92.8309Z" fill="#8DC63F"/>
<path d="M129.862 96.7119C131.545 95.3962 133.239 94.1106 134.951 92.867L121.932 74.916C120.004 76.3218 118.099 77.7637 116.213 79.2416C112.362 82.2574 108.631 85.4175 105.015 88.7157C101.392 92.0079 97.9015 95.4323 94.5312 98.9828C91.1609 102.533 87.9288 106.204 84.8228 109.989C81.7228 113.78 78.767 117.673 75.9494 121.68C73.1318 125.687 70.4644 129.79 67.9472 133.99C65.4299 138.189 63.0689 142.479 60.8701 146.852C58.6653 151.226 56.6227 155.671 54.7423 160.195C52.8619 164.719 51.1497 169.303 49.6057 173.953C48.0617 178.603 46.692 183.301 45.4904 188.047C44.2889 192.799 43.2616 197.587 42.4085 202.411C41.5554 207.235 40.8825 212.084 40.3839 216.956C39.8852 221.828 39.5668 226.718 39.4226 231.615C39.2845 236.511 39.3205 241.407 39.5368 246.304C39.7531 251.194 40.1436 256.078 40.7203 260.944C41.291 265.811 42.036 270.647 42.9612 275.459C43.8924 280.265 44.9918 285.041 46.2654 289.769C47.1305 293.001 48.0797 296.197 49.107 299.363L70.176 292.503C47.7012 223.198 69.2689 144.233 129.862 96.7119Z" fill="#8DC63F"/>
<path d="M349.51 377.938C341.736 384.054 333.505 389.479 324.824 394.219C316.143 398.959 307.125 402.942 297.784 406.168C288.436 409.394 278.889 411.821 269.139 413.455C259.382 415.084 249.566 415.889 239.683 415.871V438.075C244.928 438.075 250.173 437.871 255.405 437.462C260.638 437.048 265.841 436.435 271.025 435.612C276.21 434.789 281.358 433.768 286.459 432.542C291.566 431.316 296.612 429.893 301.604 428.264C306.597 426.642 311.517 424.822 316.365 422.815C321.214 420.803 325.978 418.604 330.658 416.213C335.332 413.828 339.909 411.263 344.385 408.511C348.861 405.766 353.223 402.846 357.464 399.758C361.711 396.664 365.833 393.414 369.822 389.995C373.811 386.583 377.662 383.015 381.375 379.296C385.087 375.577 388.644 371.714 392.056 367.719C395.463 363.718 398.707 359.591 401.795 355.337C404.877 351.084 407.79 346.71 410.536 342.228C413.275 337.741 415.835 333.157 418.22 328.471C420.599 323.785 422.792 319.009 424.804 314.154C426.811 309.294 428.625 304.362 430.241 299.357L409.166 292.497C406.457 300.907 403.134 309.066 399.205 316.972C395.276 324.884 390.789 332.46 385.73 339.699C380.678 346.938 375.115 353.763 369.047 360.173C362.973 366.583 356.461 372.501 349.51 377.938Z" fill="#8DC63F"/>
<path d="M99.3611 347.359C86.3965 330.802 76.6701 312.514 70.1758 292.503L49.1128 299.364C50.5727 303.881 52.1947 308.345 53.979 312.749C55.7573 317.152 57.6918 321.484 59.7764 325.749C61.8671 330.021 64.102 334.202 66.481 338.311C68.8661 342.415 71.3953 346.434 74.0627 350.363C76.7302 354.286 79.5358 358.113 82.4795 361.844C85.4173 365.568 88.4872 369.185 91.6833 372.694C94.8794 376.202 98.1957 379.596 101.632 382.865C105.074 386.139 108.619 389.287 112.284 392.303C115.942 395.324 119.703 398.208 123.572 400.96C127.435 403.711 131.394 406.325 135.443 408.794C139.493 411.263 143.626 413.588 147.843 415.763C152.055 417.937 156.344 419.962 160.7 421.83C165.061 423.705 169.477 425.417 173.959 426.973C178.44 428.529 182.97 429.923 187.548 431.154C192.126 432.386 196.74 433.455 201.396 434.362C206.052 435.264 210.732 436.003 215.442 436.573C223.492 437.565 231.578 438.063 239.689 438.075V415.871C186.803 415.835 134.488 392.321 99.3611 347.359Z" fill="#8DC63F"/>
<path d="M433.107 184.869C430.127 173.899 426.246 163.253 421.47 152.938C416.688 142.623 411.083 132.782 404.643 123.416C398.202 114.056 391.023 105.297 383.105 97.1505C375.187 89.0041 366.644 81.5786 357.47 74.88L344.452 92.837C357.909 102.654 369.762 114.134 380.011 127.279C417.944 175.845 426.811 237.935 409.173 292.503L430.248 299.364C433.227 290.136 435.528 280.752 437.156 271.193C438.778 261.635 439.716 252.011 439.956 242.32C440.202 232.63 439.746 222.976 438.598 213.351C437.457 203.721 435.624 194.229 433.113 184.869H433.107Z" fill="#8DC63F"/>
<path d="M134.951 92.8671C133.239 94.1167 131.545 95.3963 129.863 96.712C69.2689 144.233 47.7013 223.198 70.1761 292.503L239.683 237.31L134.951 92.8671Z" fill="#FF323F"/>
<path d="M239.683 415.871C244.351 415.871 249.007 415.69 253.663 415.318C258.313 414.951 262.945 414.405 267.559 413.672C272.167 412.939 276.739 412.026 281.28 410.932C285.816 409.845 290.304 408.571 294.744 407.129C299.183 405.682 303.563 404.066 307.87 402.275C312.184 400.485 316.419 398.526 320.577 396.406C324.74 394.279 328.807 391.996 332.784 389.557C336.767 387.112 340.642 384.516 344.421 381.765C348.194 379.019 351.859 376.124 355.409 373.084C358.96 370.05 362.384 366.878 365.682 363.574C368.987 360.263 372.153 356.833 375.181 353.276C378.215 349.72 381.104 346.049 383.85 342.27C386.589 338.486 389.185 334.599 391.624 330.609C394.063 326.626 396.34 322.547 398.46 318.378C400.581 314.214 402.534 309.973 404.324 305.647C406.108 301.328 407.724 296.948 409.166 292.497L239.683 237.31V415.871Z" fill="#FF323F"/>
<path d="M70.1763 292.503C76.6706 312.514 86.403 330.802 99.3616 347.359C134.489 392.32 186.804 415.835 239.683 415.871V237.31L70.1763 292.503Z" fill="#FF323F"/>
<path d="M409.172 292.497C426.811 237.929 417.943 175.845 380.011 127.273C369.762 114.128 357.909 102.653 344.451 92.8369L239.683 237.31L409.172 292.497Z" fill="#FF323F"/>
<path d="M134.951 92.867L239.683 237.31L344.445 92.825C283.359 48.314 198.561 46.4937 134.951 92.867Z" fill="#FF323F"/>
<path d="M198.356 103.921L196.158 107.646C196.037 107.85 195.869 108.018 195.665 108.139C195.455 108.265 195.232 108.331 194.992 108.337C194.752 108.349 194.524 108.301 194.307 108.193C194.091 108.091 193.911 107.934 193.773 107.742L191.279 104.216C190.865 103.639 190.54 103.014 190.306 102.347C190.072 101.674 189.94 100.983 189.904 100.275C189.868 99.5656 189.934 98.8687 190.096 98.1778C190.264 97.493 190.522 96.8381 190.877 96.2253C191.742 94.7595 192.98 93.8223 194.391 93.7682C195.797 93.7081 197.113 94.5372 198.098 95.925C198.501 96.5077 198.813 97.1385 199.035 97.8114C199.258 98.4842 199.378 99.1751 199.402 99.884C199.426 100.599 199.348 101.296 199.167 101.981C198.993 102.666 198.717 103.314 198.356 103.921Z" fill="black"/>
<path d="M194.253 108.601C193.923 108.469 193.658 108.259 193.454 107.97L190.961 104.444C190.522 103.837 190.18 103.182 189.934 102.473C189.687 101.77 189.549 101.043 189.513 100.298C189.471 99.5475 189.543 98.8145 189.717 98.0876C189.892 97.3607 190.168 96.6758 190.54 96.027C191.514 94.3809 192.883 93.4377 194.373 93.3776C195.863 93.3175 197.311 94.1406 198.417 95.7026C198.837 96.3153 199.168 96.9762 199.402 97.6851C199.636 98.394 199.768 99.1209 199.792 99.8719C199.816 100.617 199.738 101.35 199.546 102.077C199.36 102.798 199.071 103.483 198.687 104.119L196.494 107.844C196.266 108.229 195.935 108.493 195.515 108.637C195.088 108.781 194.668 108.769 194.253 108.601ZM195.701 94.3869C195.287 94.2187 194.854 94.1406 194.403 94.1586C193.178 94.2066 192.042 95.0117 191.207 96.4235C190.871 97.0062 190.625 97.625 190.468 98.2799C190.312 98.9287 190.252 99.5955 190.282 100.262C190.318 100.935 190.444 101.59 190.667 102.221C190.889 102.858 191.195 103.446 191.592 103.993L194.085 107.52C194.301 107.826 194.596 107.97 194.968 107.958C195.347 107.946 195.629 107.772 195.815 107.448L198.02 103.729C198.369 103.152 198.627 102.545 198.795 101.89C198.963 101.242 199.035 100.581 199.017 99.914C198.993 99.2411 198.879 98.5863 198.669 97.9494C198.459 97.3126 198.158 96.7179 197.78 96.1652C197.263 95.3661 196.566 94.7774 195.701 94.3869Z" fill="#231F20"/>
<path d="M240.272 95.4502L238.073 99.169C237.947 99.3792 237.785 99.5475 237.575 99.6676C237.37 99.7938 237.148 99.8599 236.908 99.8659C236.667 99.8779 236.439 99.8298 236.223 99.7217C236.007 99.6195 235.826 99.4633 235.688 99.2711L233.195 95.7386C232.78 95.1678 232.456 94.543 232.222 93.8702C231.987 93.2033 231.855 92.5124 231.819 91.8035C231.783 91.0946 231.849 90.3977 232.011 89.7069C232.18 89.016 232.438 88.3671 232.792 87.7544C233.657 86.2885 234.895 85.3513 236.307 85.2972C237.713 85.2371 239.028 86.0782 240.008 87.454C240.41 88.0367 240.729 88.6675 240.951 89.3404C241.173 90.0132 241.293 90.7041 241.317 91.413C241.341 92.1219 241.263 92.8188 241.083 93.5097C240.903 94.1946 240.632 94.8434 240.272 95.4502Z" fill="black"/>
<path d="M236.169 100.13C235.838 99.9981 235.574 99.7818 235.37 99.4934L232.87 95.9669C232.438 95.3602 232.095 94.7053 231.849 94.0024C231.603 93.2935 231.459 92.5666 231.423 91.8216C231.387 91.0767 231.459 90.3377 231.633 89.6108C231.807 88.8899 232.083 88.199 232.456 87.5562C233.429 85.904 234.799 84.9668 236.289 84.9008C237.779 84.8407 239.221 85.6697 240.332 87.2257C240.753 87.8385 241.083 88.5054 241.317 89.2143C241.552 89.9232 241.684 90.6501 241.708 91.3951C241.732 92.14 241.648 92.873 241.461 93.5999C241.275 94.3208 240.987 94.9997 240.608 95.6425L238.41 99.3673C238.175 99.7518 237.851 100.016 237.424 100.16C237.004 100.304 236.583 100.292 236.169 100.124V100.13ZM237.617 85.9161C237.202 85.7418 236.763 85.6697 236.313 85.6818C235.087 85.7358 233.958 86.5409 233.123 87.9527C232.786 88.5354 232.54 89.1482 232.384 89.803C232.228 90.4579 232.162 91.1187 232.198 91.7916C232.234 92.4584 232.36 93.1133 232.582 93.7501C232.804 94.3809 233.111 94.9697 233.501 95.5164L236.006 99.0309C236.109 99.175 236.235 99.2832 236.391 99.3613C236.553 99.4334 236.715 99.4694 236.89 99.4634C237.064 99.4514 237.226 99.4033 237.376 99.3192C237.526 99.2291 237.647 99.109 237.737 98.9588L239.942 95.252C240.29 94.6753 240.542 94.0625 240.717 93.4137C240.885 92.7648 240.957 92.104 240.933 91.4311C240.915 90.7583 240.801 90.1034 240.59 89.4666C240.38 88.8298 240.08 88.235 239.701 87.6823C239.179 86.8893 238.482 86.3005 237.617 85.9161Z" fill="#231F20"/>
<path d="M282.188 103.801L279.989 107.526C279.863 107.736 279.7 107.898 279.49 108.025C279.286 108.151 279.064 108.217 278.817 108.223C278.577 108.235 278.349 108.187 278.132 108.079C277.916 107.97 277.742 107.82 277.598 107.622L275.105 104.095C274.69 103.519 274.366 102.894 274.137 102.227C273.903 101.56 273.765 100.869 273.729 100.16C273.693 99.4515 273.759 98.7546 273.927 98.0638C274.095 97.3729 274.354 96.718 274.708 96.1053C275.573 94.6454 276.811 93.7082 278.223 93.6481C279.628 93.594 280.944 94.4291 281.923 95.8109C282.326 96.3936 282.644 97.0184 282.866 97.6913C283.089 98.3702 283.209 99.061 283.233 99.7699C283.257 100.479 283.179 101.176 282.999 101.861C282.824 102.545 282.548 103.194 282.188 103.801Z" fill="black"/>
<path d="M278.084 108.487C277.754 108.355 277.483 108.139 277.285 107.85L274.786 104.324C274.353 103.717 274.011 103.062 273.765 102.353C273.518 101.65 273.38 100.923 273.338 100.178C273.302 99.4335 273.374 98.6946 273.548 97.9676C273.723 97.2407 273.999 96.5558 274.371 95.907C275.345 94.2609 276.714 93.3177 278.204 93.2576C279.694 93.1975 281.136 94.0206 282.242 95.5826C282.668 96.1953 282.999 96.8562 283.233 97.5651C283.467 98.274 283.599 99.0009 283.623 99.7519C283.647 100.497 283.563 101.23 283.377 101.957C283.191 102.678 282.902 103.363 282.524 103.999L280.325 107.724C279.989 108.289 279.49 108.589 278.835 108.619C278.577 108.625 278.325 108.583 278.084 108.487ZM279.532 94.2669C279.118 94.0987 278.679 94.0206 278.228 94.0386C277.003 94.0927 275.867 94.8977 275.038 96.3095C274.702 96.8862 274.456 97.505 274.299 98.1599C274.137 98.8147 274.077 99.4756 274.113 100.148C274.143 100.815 274.275 101.47 274.498 102.107C274.72 102.738 275.026 103.326 275.417 103.873L277.91 107.406C278.018 107.544 278.144 107.652 278.3 107.73C278.457 107.802 278.625 107.838 278.799 107.832C278.973 107.826 279.136 107.778 279.286 107.688C279.436 107.598 279.556 107.478 279.646 107.328L281.839 103.609C282.187 103.032 282.44 102.425 282.614 101.77C282.782 101.122 282.854 100.461 282.836 99.794C282.812 99.1211 282.698 98.4663 282.488 97.8294C282.278 97.1926 281.977 96.5979 281.599 96.0452C281.082 95.2521 280.391 94.6574 279.532 94.2669Z" fill="#231F20"/>
<path d="M223.733 143.65L221.534 147.369C221.414 147.579 221.245 147.741 221.041 147.867C220.837 147.994 220.609 148.06 220.368 148.066C220.128 148.078 219.9 148.03 219.683 147.921C219.467 147.819 219.287 147.663 219.149 147.465L216.656 143.938C216.241 143.368 215.917 142.743 215.682 142.076C215.448 141.403 215.31 140.712 215.274 140.003C215.238 139.3 215.304 138.597 215.466 137.907C215.634 137.216 215.893 136.567 216.247 135.954C217.112 134.482 218.35 133.551 219.761 133.491C221.167 133.431 222.483 134.272 223.462 135.654C223.865 136.236 224.177 136.861 224.405 137.54C224.628 138.213 224.748 138.904 224.772 139.613C224.796 140.322 224.724 141.019 224.544 141.703C224.369 142.394 224.099 143.037 223.733 143.65Z" fill="black"/>
<path d="M219.629 148.33C219.305 148.198 219.034 147.982 218.83 147.693L216.337 144.173C215.898 143.566 215.556 142.905 215.309 142.202C215.063 141.499 214.925 140.772 214.889 140.021C214.853 139.276 214.919 138.544 215.099 137.817C215.273 137.09 215.55 136.405 215.922 135.756C216.889 134.11 218.265 133.167 219.755 133.107C221.245 133.047 222.687 133.87 223.792 135.432C224.219 136.044 224.543 136.705 224.778 137.414C225.012 138.123 225.144 138.856 225.162 139.601C225.186 140.346 225.108 141.079 224.916 141.806C224.729 142.527 224.441 143.206 224.057 143.848L221.87 147.561C221.642 147.946 221.311 148.21 220.891 148.354C220.464 148.498 220.043 148.486 219.629 148.318V148.33ZM221.083 134.116C220.662 133.942 220.23 133.864 219.779 133.882C218.554 133.936 217.418 134.741 216.589 136.152C216.253 136.729 216.006 137.348 215.85 138.003C215.688 138.658 215.628 139.319 215.664 139.991C215.694 140.658 215.826 141.313 216.048 141.95C216.271 142.581 216.577 143.169 216.968 143.716L219.461 147.243C219.563 147.387 219.695 147.495 219.851 147.567C220.007 147.645 220.176 147.681 220.344 147.669C220.518 147.663 220.68 147.615 220.83 147.531C220.981 147.441 221.101 147.321 221.191 147.171L223.39 143.452C223.738 142.875 223.997 142.262 224.165 141.613C224.333 140.965 224.405 140.304 224.387 139.631C224.363 138.958 224.249 138.303 224.039 137.666C223.828 137.03 223.528 136.435 223.149 135.882C222.633 135.095 221.942 134.5 221.077 134.116H221.083Z" fill="#231F20"/>
<path d="M258.271 143.752L256.084 147.477C255.964 147.681 255.796 147.849 255.592 147.975C255.381 148.096 255.159 148.168 254.919 148.174C254.679 148.186 254.45 148.138 254.234 148.03C254.018 147.921 253.837 147.771 253.699 147.573L251.206 144.046C250.792 143.47 250.467 142.845 250.233 142.178C249.999 141.505 249.866 140.82 249.83 140.111C249.794 139.403 249.86 138.7 250.029 138.009C250.191 137.324 250.455 136.669 250.81 136.056C251.675 134.59 252.912 133.653 254.318 133.599C255.73 133.539 257.04 134.38 258.025 135.756C258.427 136.345 258.74 136.969 258.956 137.642C259.178 138.321 259.298 139.012 259.323 139.721C259.347 140.43 259.268 141.127 259.088 141.812C258.908 142.496 258.638 143.145 258.271 143.752Z" fill="black"/>
<path d="M254.168 148.438C253.837 148.3 253.573 148.09 253.369 147.801L250.875 144.269C250.443 143.662 250.1 143.007 249.854 142.304C249.608 141.595 249.47 140.874 249.434 140.123C249.392 139.379 249.464 138.646 249.638 137.919C249.818 137.192 250.088 136.507 250.461 135.858C251.434 134.212 252.804 133.269 254.294 133.209C255.784 133.143 257.232 133.972 258.337 135.534C258.758 136.146 259.088 136.807 259.328 137.516C259.563 138.225 259.689 138.952 259.713 139.703C259.737 140.448 259.659 141.181 259.466 141.908C259.28 142.629 258.998 143.314 258.613 143.95L256.415 147.675C256.078 148.24 255.585 148.54 254.931 148.564C254.666 148.576 254.414 148.534 254.168 148.438ZM255.615 134.224C255.201 134.05 254.768 133.972 254.312 133.99C253.086 134.038 251.957 134.843 251.122 136.255C250.785 136.837 250.539 137.456 250.383 138.111C250.227 138.76 250.161 139.427 250.197 140.093C250.233 140.766 250.359 141.421 250.581 142.052C250.803 142.689 251.11 143.278 251.5 143.824L253.999 147.345C254.102 147.489 254.234 147.597 254.39 147.675C254.546 147.747 254.714 147.783 254.889 147.777C255.063 147.765 255.225 147.717 255.375 147.633C255.525 147.543 255.646 147.423 255.736 147.273L257.928 143.554C258.277 142.977 258.535 142.364 258.703 141.716C258.872 141.067 258.944 140.406 258.926 139.733C258.902 139.066 258.788 138.411 258.577 137.774C258.367 137.132 258.073 136.537 257.688 135.99C257.171 135.197 256.481 134.608 255.615 134.224Z" fill="#231F20"/>
<path d="M242.957 183.475L240.759 187.2C240.639 187.41 240.47 187.572 240.266 187.698C240.056 187.825 239.833 187.891 239.593 187.897C239.353 187.909 239.125 187.861 238.908 187.753C238.692 187.644 238.512 187.494 238.374 187.296L235.88 183.769C235.466 183.193 235.141 182.568 234.907 181.901C234.673 181.234 234.541 180.543 234.505 179.834C234.469 179.125 234.535 178.429 234.703 177.738C234.865 177.047 235.129 176.398 235.484 175.779C236.343 174.319 237.587 173.382 238.992 173.322C240.404 173.268 241.714 174.103 242.699 175.485C243.102 176.068 243.414 176.692 243.636 177.365C243.859 178.044 243.979 178.735 244.003 179.444C244.027 180.153 243.949 180.85 243.775 181.535C243.594 182.219 243.324 182.868 242.957 183.475Z" fill="black"/>
<path d="M238.854 188.155C238.524 188.029 238.259 187.812 238.055 187.524L235.562 183.998C235.123 183.391 234.781 182.736 234.535 182.027C234.288 181.324 234.15 180.597 234.114 179.852C234.078 179.101 234.144 178.368 234.324 177.641C234.498 176.915 234.769 176.23 235.147 175.581C236.115 173.935 237.49 172.991 238.98 172.931C240.47 172.871 241.912 173.694 243.017 175.256C243.444 175.869 243.774 176.53 244.009 177.239C244.243 177.948 244.369 178.681 244.393 179.426C244.417 180.171 244.339 180.91 244.153 181.631C243.961 182.351 243.678 183.036 243.294 183.673L241.095 187.398C240.764 187.969 240.266 188.263 239.611 188.287C239.347 188.299 239.1 188.257 238.854 188.155ZM240.302 173.947C239.887 173.772 239.455 173.694 239.004 173.712C237.773 173.766 236.643 174.572 235.808 175.977C235.472 176.56 235.225 177.179 235.069 177.834C234.913 178.483 234.853 179.149 234.883 179.816C234.919 180.489 235.045 181.144 235.267 181.775C235.49 182.412 235.796 183 236.187 183.547L238.686 187.074C238.902 187.38 239.196 187.53 239.569 187.512C239.947 187.494 240.23 187.32 240.416 186.989L242.615 183.271C242.957 182.694 243.216 182.081 243.384 181.432C243.558 180.783 243.63 180.123 243.606 179.45C243.588 178.777 243.468 178.122 243.258 177.485C243.047 176.848 242.753 176.254 242.369 175.701C241.852 174.914 241.161 174.325 240.302 173.947Z" fill="#231F20"/>
<path d="M100.305 235.484L103.164 238.734C103.326 238.914 103.435 239.118 103.489 239.359C103.543 239.593 103.537 239.827 103.471 240.061C103.404 240.29 103.284 240.494 103.116 240.668C102.948 240.842 102.75 240.963 102.521 241.035L98.4001 242.32C97.7272 242.537 97.0363 242.657 96.3274 242.669C95.6185 242.687 94.9276 242.603 94.2427 242.416C93.5579 242.23 92.915 241.954 92.3143 241.581C91.7075 241.209 91.1728 240.758 90.6982 240.236C89.5748 238.956 89.0701 237.49 89.4486 236.126C89.8271 234.763 91.0106 233.777 92.6447 233.255C93.3236 233.057 94.0145 232.954 94.7234 232.948C95.4263 232.948 96.1232 233.044 96.802 233.243C97.4809 233.441 98.1177 233.729 98.7125 234.108C99.3072 234.492 99.8359 234.949 100.305 235.484Z" fill="black"/>
<path d="M103.477 240.837C103.248 241.113 102.966 241.299 102.63 241.407L98.5084 242.693C97.7995 242.921 97.0726 243.041 96.3216 243.059C95.5767 243.077 94.8437 242.987 94.1288 242.789C93.4079 242.597 92.729 242.302 92.0922 241.912C91.4614 241.515 90.8907 241.041 90.392 240.488C89.1304 239.052 88.6558 237.466 89.0643 236.018C89.4668 234.571 90.6924 233.459 92.5188 232.888C93.2337 232.672 93.9606 232.564 94.7056 232.558C95.4505 232.558 96.1834 232.66 96.8984 232.864C97.6133 233.075 98.2861 233.381 98.9169 233.784C99.5417 234.186 100.1 234.673 100.587 235.237L103.453 238.476C103.885 238.974 104.017 239.539 103.843 240.17C103.765 240.422 103.645 240.644 103.477 240.837ZM90.4341 235.063C90.1457 235.406 89.9354 235.796 89.8153 236.229C89.4849 237.412 89.8994 238.74 90.9808 239.971C91.4314 240.47 91.936 240.897 92.5067 241.245C93.0775 241.6 93.6903 241.858 94.3331 242.038C94.9819 242.212 95.6428 242.29 96.3096 242.278C96.9825 242.26 97.6313 242.152 98.2741 241.948L102.389 240.656C102.558 240.602 102.702 240.512 102.822 240.386C102.942 240.266 103.026 240.116 103.068 239.947C103.116 239.779 103.122 239.611 103.086 239.443C103.044 239.269 102.972 239.118 102.858 238.986L99.9923 235.742C99.5538 235.231 99.0491 234.799 98.4844 234.438C97.9197 234.072 97.3189 233.802 96.6761 233.615C96.0272 233.429 95.3724 233.333 94.6995 233.339C94.0327 233.339 93.3779 233.441 92.735 233.633C91.8279 233.886 91.0649 234.366 90.4341 235.063Z" fill="#231F20"/>
<path d="M105.213 192.919L108.072 196.163C108.235 196.344 108.343 196.554 108.397 196.788C108.451 197.023 108.445 197.257 108.379 197.491C108.313 197.725 108.199 197.93 108.03 198.104C107.862 198.272 107.664 198.398 107.43 198.47L103.314 199.756C102.635 199.972 101.945 200.092 101.236 200.104C100.533 200.123 99.8358 200.038 99.151 199.852C98.4661 199.666 97.8233 199.39 97.2225 199.017C96.6157 198.645 96.081 198.2 95.6064 197.671C94.483 196.392 93.9783 194.926 94.3568 193.562C94.7353 192.204 95.9188 191.213 97.5529 190.696C98.2318 190.492 98.9227 190.39 99.6316 190.384C100.334 190.384 101.031 190.48 101.71 190.678C102.389 190.877 103.026 191.165 103.621 191.544C104.215 191.928 104.744 192.385 105.213 192.919Z" fill="black"/>
<path d="M108.385 198.278C108.157 198.548 107.875 198.741 107.538 198.843L103.417 200.128C102.708 200.357 101.975 200.477 101.23 200.495C100.485 200.513 99.7524 200.423 99.0315 200.225C98.3166 200.026 97.6377 199.732 97.0009 199.341C96.3701 198.945 95.7994 198.47 95.3007 197.918C94.0391 196.482 93.5645 194.89 93.973 193.442C94.3815 191.994 95.6011 190.883 97.4274 190.312C98.1424 190.096 98.8693 189.987 99.6203 189.987C100.365 189.981 101.092 190.084 101.813 190.294C102.528 190.498 103.201 190.804 103.826 191.207C104.456 191.616 105.009 192.096 105.502 192.661L108.361 195.905C108.662 196.241 108.812 196.638 108.812 197.083C108.818 197.533 108.68 197.93 108.391 198.278H108.385ZM95.3428 192.505C95.0544 192.847 94.8441 193.232 94.724 193.664C94.3936 194.848 94.8081 196.175 95.8895 197.407C96.3401 197.906 96.8447 198.332 97.4154 198.687C97.9862 199.035 98.5989 199.299 99.2418 199.474C99.8906 199.648 100.551 199.726 101.218 199.714C101.891 199.696 102.54 199.588 103.183 199.383L107.298 198.098C107.466 198.044 107.61 197.954 107.731 197.827C107.851 197.701 107.935 197.551 107.983 197.383C108.025 197.215 108.031 197.046 107.995 196.878C107.959 196.71 107.881 196.554 107.767 196.422L104.901 193.178C104.462 192.673 103.964 192.24 103.399 191.874C102.834 191.513 102.228 191.237 101.585 191.051C100.942 190.865 100.281 190.774 99.6142 190.774C98.9414 190.78 98.2865 190.877 97.6437 191.075C96.7366 191.327 95.9736 191.802 95.3428 192.505Z" fill="#231F20"/>
<path d="M126.096 155.563L128.955 158.802C129.117 158.988 129.226 159.192 129.28 159.426C129.334 159.667 129.328 159.901 129.262 160.129C129.195 160.364 129.081 160.568 128.913 160.742C128.745 160.916 128.547 161.036 128.312 161.108L124.197 162.394C123.518 162.61 122.827 162.725 122.118 162.743C121.416 162.761 120.719 162.676 120.034 162.49C119.349 162.304 118.706 162.028 118.105 161.655C117.499 161.283 116.964 160.832 116.489 160.309C115.366 159.03 114.861 157.558 115.24 156.2C115.618 154.836 116.802 153.851 118.436 153.329C119.115 153.124 119.805 153.022 120.514 153.022C121.217 153.016 121.914 153.112 122.593 153.31C123.272 153.509 123.909 153.803 124.503 154.182C125.098 154.566 125.627 155.023 126.096 155.563Z" fill="black"/>
<path d="M129.28 160.916C129.051 161.186 128.769 161.373 128.432 161.481L124.311 162.766C123.596 162.995 122.869 163.121 122.124 163.133C121.379 163.151 120.646 163.061 119.926 162.869C119.211 162.67 118.532 162.376 117.895 161.985C117.258 161.595 116.693 161.12 116.195 160.568C114.933 159.132 114.459 157.54 114.867 156.092C115.27 154.644 116.495 153.533 118.315 152.962C119.03 152.746 119.763 152.637 120.508 152.637C121.253 152.631 121.986 152.734 122.701 152.944C123.416 153.154 124.089 153.455 124.714 153.857C125.344 154.26 125.903 154.746 126.39 155.311L129.255 158.555C129.55 158.891 129.7 159.288 129.706 159.739C129.712 160.183 129.568 160.58 129.28 160.928V160.916ZM116.237 155.143C115.942 155.485 115.738 155.87 115.612 156.302C115.282 157.492 115.696 158.819 116.784 160.045C117.228 160.544 117.739 160.97 118.309 161.319C118.88 161.673 119.487 161.937 120.136 162.112C120.785 162.286 121.439 162.364 122.112 162.352C122.779 162.334 123.434 162.226 124.071 162.021L128.192 160.736C128.354 160.682 128.499 160.592 128.619 160.465C128.739 160.339 128.823 160.189 128.871 160.027C128.919 159.859 128.925 159.684 128.889 159.516C128.847 159.348 128.775 159.192 128.661 159.06L125.795 155.822C125.356 155.311 124.852 154.878 124.287 154.512C123.722 154.151 123.122 153.875 122.479 153.689C121.83 153.503 121.175 153.412 120.502 153.412C119.835 153.418 119.181 153.515 118.538 153.713C117.631 153.965 116.856 154.44 116.225 155.143H116.237Z" fill="#231F20"/>
<path d="M145.848 223.577L148.714 226.821C148.87 227.001 148.978 227.205 149.033 227.445C149.087 227.68 149.081 227.914 149.015 228.148C148.948 228.377 148.834 228.581 148.666 228.755C148.498 228.929 148.3 229.05 148.071 229.122L143.95 230.413C143.277 230.63 142.586 230.744 141.877 230.756C141.168 230.774 140.472 230.69 139.787 230.503C139.108 230.317 138.459 230.041 137.858 229.668C137.257 229.302 136.717 228.851 136.242 228.323C135.119 227.043 134.614 225.577 134.993 224.219C135.377 222.856 136.555 221.87 138.189 221.348C138.868 221.143 139.558 221.041 140.267 221.041C140.976 221.035 141.667 221.131 142.346 221.33C143.025 221.528 143.662 221.816 144.256 222.201C144.857 222.579 145.386 223.042 145.848 223.577Z" fill="black"/>
<path d="M149.027 228.929C148.799 229.205 148.517 229.392 148.174 229.5L144.053 230.791C143.344 231.014 142.617 231.14 141.872 231.152C141.127 231.17 140.394 231.08 139.673 230.888C138.952 230.689 138.274 230.395 137.643 230.004C137.006 229.614 136.441 229.139 135.943 228.587C134.681 227.151 134.206 225.559 134.609 224.111C135.017 222.663 136.243 221.552 138.063 220.981C138.778 220.765 139.511 220.657 140.256 220.657C141.001 220.65 141.734 220.753 142.449 220.963C143.164 221.173 143.837 221.474 144.462 221.876C145.092 222.285 145.651 222.765 146.138 223.33L149.003 226.574C149.298 226.911 149.448 227.307 149.454 227.758C149.46 228.202 149.316 228.605 149.027 228.947V228.929ZM135.979 223.156C135.69 223.498 135.486 223.889 135.36 224.321C135.029 225.505 135.444 226.832 136.525 228.058C136.976 228.557 137.487 228.983 138.057 229.338C138.628 229.686 139.235 229.95 139.884 230.125C140.526 230.299 141.187 230.383 141.854 230.365C142.527 230.347 143.182 230.239 143.819 230.035L147.934 228.749C148.102 228.695 148.246 228.605 148.367 228.479C148.487 228.352 148.571 228.208 148.619 228.04C148.667 227.872 148.667 227.704 148.631 227.529C148.595 227.361 148.517 227.211 148.403 227.079L145.543 223.835C145.104 223.324 144.6 222.891 144.035 222.531C143.47 222.164 142.863 221.894 142.221 221.708C141.578 221.516 140.923 221.425 140.25 221.431C139.577 221.431 138.922 221.534 138.28 221.726C137.378 221.978 136.609 222.459 135.979 223.156Z" fill="#231F20"/>
<path d="M156.621 190.696L159.487 193.94C159.643 194.121 159.751 194.331 159.805 194.565C159.859 194.8 159.853 195.034 159.787 195.268C159.721 195.502 159.607 195.701 159.439 195.875C159.27 196.049 159.066 196.169 158.838 196.241L154.716 197.527C154.044 197.743 153.353 197.863 152.644 197.881C151.941 197.894 151.244 197.809 150.559 197.623C149.874 197.443 149.231 197.161 148.631 196.788C148.024 196.422 147.489 195.971 147.015 195.442C145.891 194.169 145.387 192.697 145.765 191.333C146.15 189.975 147.327 188.99 148.961 188.467C149.64 188.263 150.331 188.161 151.04 188.155C151.749 188.155 152.44 188.251 153.118 188.449C153.797 188.648 154.434 188.936 155.029 189.321C155.624 189.699 156.158 190.162 156.621 190.696Z" fill="black"/>
<path d="M159.799 196.049C159.57 196.326 159.288 196.512 158.945 196.614L154.83 197.918C154.115 198.14 153.388 198.26 152.643 198.278C151.898 198.29 151.171 198.2 150.451 198.008C149.73 197.809 149.057 197.515 148.42 197.119C147.789 196.728 147.224 196.254 146.726 195.701C145.464 194.265 144.99 192.679 145.392 191.231C145.801 189.783 147.026 188.672 148.853 188.095C149.561 187.885 150.294 187.771 151.039 187.771C151.784 187.765 152.517 187.867 153.232 188.077C153.947 188.287 154.62 188.594 155.251 188.996C155.876 189.399 156.434 189.879 156.921 190.444L159.787 193.688C160.087 194.025 160.237 194.421 160.243 194.872C160.249 195.322 160.105 195.719 159.817 196.061L159.799 196.049ZM146.756 190.276C146.461 190.618 146.257 191.003 146.137 191.435C145.801 192.625 146.215 193.953 147.297 195.184C147.747 195.683 148.258 196.103 148.828 196.458C149.399 196.806 150.006 197.071 150.655 197.245C151.298 197.419 151.958 197.503 152.625 197.485C153.298 197.473 153.953 197.359 154.59 197.155L158.705 195.869C158.873 195.815 159.018 195.725 159.138 195.599C159.258 195.473 159.342 195.328 159.39 195.16C159.432 194.992 159.438 194.824 159.402 194.649C159.366 194.481 159.288 194.331 159.174 194.199L156.308 190.955C155.87 190.444 155.371 190.012 154.806 189.651C154.241 189.291 153.641 189.014 152.998 188.828C152.355 188.642 151.7 188.552 151.033 188.552C150.366 188.558 149.712 188.654 149.069 188.846C148.156 189.098 147.387 189.573 146.756 190.276Z" fill="#231F20"/>
<path d="M189.597 217.563L192.457 220.807C192.619 220.987 192.727 221.198 192.781 221.432C192.835 221.666 192.829 221.9 192.763 222.135C192.697 222.369 192.583 222.567 192.415 222.741C192.247 222.916 192.048 223.042 191.814 223.114L187.681 224.4C187.008 224.616 186.317 224.73 185.608 224.748C184.905 224.76 184.208 224.676 183.524 224.496C182.839 224.31 182.196 224.027 181.595 223.661C180.988 223.288 180.454 222.838 179.979 222.309C178.856 221.035 178.351 219.563 178.729 218.206C179.114 216.842 180.291 215.857 181.925 215.334C182.604 215.13 183.295 215.028 184.004 215.022C184.713 215.022 185.41 215.118 186.089 215.316C186.768 215.514 187.404 215.803 188.005 216.187C188.6 216.566 189.129 217.028 189.597 217.563Z" fill="black"/>
<path d="M192.769 222.915C192.541 223.192 192.259 223.378 191.922 223.486L187.801 224.772C187.092 225 186.365 225.12 185.62 225.138C184.869 225.156 184.136 225.066 183.421 224.868C182.7 224.676 182.022 224.381 181.385 223.991C180.754 223.6 180.183 223.126 179.685 222.567C178.423 221.131 177.948 219.545 178.357 218.097C178.759 216.649 179.985 215.538 181.811 214.967C182.526 214.751 183.253 214.643 183.998 214.637C184.743 214.637 185.476 214.739 186.191 214.943C186.906 215.154 187.579 215.46 188.209 215.862C188.834 216.265 189.393 216.752 189.88 217.316L192.745 220.554C193.04 220.897 193.19 221.287 193.196 221.738C193.202 222.189 193.064 222.585 192.775 222.927L192.769 222.915ZM179.727 217.142C179.438 217.484 179.228 217.875 179.108 218.308C178.777 219.491 179.192 220.819 180.273 222.05C180.724 222.549 181.228 222.976 181.799 223.324C182.37 223.678 182.983 223.937 183.626 224.117C184.274 224.291 184.935 224.369 185.602 224.351C186.269 224.339 186.924 224.231 187.567 224.027L191.682 222.735C191.85 222.681 191.988 222.591 192.114 222.465C192.235 222.339 192.313 222.195 192.361 222.026C192.409 221.858 192.415 221.69 192.379 221.522C192.337 221.347 192.265 221.197 192.15 221.065L189.285 217.821C188.846 217.316 188.342 216.878 187.783 216.517C187.218 216.157 186.611 215.88 185.969 215.694C185.326 215.508 184.665 215.412 183.998 215.418C183.325 215.424 182.67 215.52 182.028 215.712C181.12 215.965 180.357 216.445 179.727 217.142Z" fill="#231F20"/>
<path d="M194.872 369.587L198.831 367.875C199.053 367.779 199.288 367.737 199.528 367.761C199.768 367.785 199.985 367.857 200.189 367.995C200.387 368.128 200.543 368.302 200.657 368.512C200.772 368.728 200.826 368.957 200.82 369.197L200.772 373.523C200.766 374.231 200.663 374.922 200.459 375.607C200.255 376.286 199.96 376.923 199.576 377.518C199.185 378.106 198.723 378.635 198.188 379.098C197.648 379.554 197.053 379.933 196.404 380.221C194.842 380.894 193.298 380.924 192.12 380.143C190.949 379.356 190.372 377.914 190.396 376.208C190.408 375.499 190.522 374.808 190.739 374.135C190.955 373.456 191.261 372.826 191.658 372.237C192.054 371.648 192.529 371.131 193.076 370.681C193.622 370.23 194.223 369.864 194.872 369.587Z" fill="black"/>
<path d="M200.939 368.206C201.119 368.512 201.21 368.836 201.198 369.191L201.149 373.516C201.143 374.261 201.035 374.994 200.819 375.709C200.603 376.424 200.29 377.091 199.882 377.716C199.479 378.341 198.987 378.893 198.422 379.38C197.851 379.861 197.232 380.257 196.548 380.557C194.799 381.32 193.141 381.278 191.892 380.443C190.642 379.608 189.969 378.094 189.987 376.19C190.005 375.439 190.125 374.712 190.354 373.997C190.576 373.288 190.9 372.621 191.321 372.002C191.735 371.384 192.234 370.837 192.811 370.362C193.388 369.888 194.018 369.503 194.703 369.209L198.668 367.497C199.269 367.232 199.846 367.28 200.392 367.653C200.615 367.797 200.795 367.983 200.939 368.206ZM191.429 378.851C191.663 379.236 191.964 379.554 192.336 379.8C193.357 380.485 194.751 380.497 196.247 379.849C196.86 379.578 197.419 379.224 197.929 378.785C198.44 378.353 198.885 377.854 199.251 377.289C199.618 376.725 199.894 376.124 200.086 375.475C200.278 374.832 200.374 374.177 200.38 373.504L200.429 369.179C200.429 369.005 200.392 368.842 200.308 368.686C200.224 368.536 200.11 368.41 199.966 368.314C199.822 368.218 199.666 368.158 199.491 368.14C199.317 368.121 199.149 368.152 198.987 368.218L195.028 369.936C194.409 370.2 193.844 370.543 193.327 370.969C192.805 371.396 192.36 371.882 191.982 372.441C191.609 372.994 191.315 373.594 191.111 374.231C190.906 374.868 190.798 375.529 190.786 376.196C190.738 377.145 190.954 378.034 191.429 378.851Z" fill="#231F20"/>
<path d="M155.99 351.75L159.955 350.02C160.171 349.924 160.405 349.888 160.646 349.912C160.886 349.93 161.108 350.008 161.306 350.146C161.511 350.279 161.667 350.453 161.775 350.663C161.889 350.879 161.943 351.108 161.943 351.348L161.889 355.673C161.889 356.382 161.781 357.079 161.577 357.758C161.379 358.437 161.078 359.074 160.694 359.669C160.309 360.257 159.841 360.786 159.306 361.249C158.765 361.705 158.17 362.084 157.528 362.372C155.966 363.045 154.404 363.069 153.244 362.288C152.085 361.507 151.49 360.065 151.514 358.359C151.532 357.65 151.646 356.959 151.862 356.286C152.079 355.607 152.385 354.977 152.782 354.394C153.178 353.805 153.647 353.288 154.193 352.838C154.74 352.387 155.341 352.027 155.99 351.75Z" fill="black"/>
<path d="M162.058 350.375C162.244 350.675 162.334 351.005 162.334 351.36L162.28 355.685C162.274 356.43 162.166 357.163 161.95 357.878C161.739 358.593 161.427 359.266 161.018 359.891C160.61 360.516 160.123 361.068 159.552 361.549C158.988 362.036 158.363 362.426 157.678 362.732C155.93 363.489 154.272 363.447 153.022 362.618C151.772 361.783 151.1 360.269 151.124 358.359C151.136 357.614 151.262 356.881 151.484 356.172C151.712 355.457 152.031 354.79 152.451 354.172C152.872 353.553 153.365 353.006 153.941 352.531C154.518 352.057 155.149 351.672 155.834 351.384L159.799 349.666C160.4 349.401 160.976 349.455 161.523 349.822C161.739 349.966 161.919 350.152 162.058 350.375ZM152.547 361.02C152.782 361.405 153.088 361.723 153.461 361.97C154.482 362.654 155.87 362.672 157.366 362.018C157.978 361.747 158.537 361.393 159.048 360.954C159.558 360.522 159.997 360.023 160.364 359.458C160.73 358.894 161.012 358.293 161.205 357.65C161.397 357.007 161.493 356.346 161.493 355.673L161.547 351.354C161.547 351.18 161.505 351.011 161.421 350.861C161.343 350.705 161.229 350.579 161.084 350.483C160.934 350.387 160.778 350.333 160.604 350.315C160.43 350.297 160.267 350.321 160.105 350.387L156.146 352.111C155.527 352.369 154.963 352.712 154.446 353.138C153.929 353.565 153.479 354.057 153.106 354.61C152.728 355.169 152.439 355.764 152.235 356.406C152.031 357.043 151.917 357.698 151.905 358.371C151.863 359.314 152.073 360.203 152.547 361.02Z" fill="#231F20"/>
<path d="M126.985 320.3L130.944 318.588C131.166 318.492 131.395 318.45 131.635 318.474C131.875 318.498 132.098 318.576 132.296 318.708C132.5 318.84 132.656 319.015 132.77 319.231C132.879 319.441 132.939 319.669 132.933 319.91L132.879 324.235C132.879 324.944 132.776 325.635 132.572 326.32C132.368 326.999 132.074 327.636 131.683 328.23C131.299 328.819 130.836 329.348 130.295 329.81C129.755 330.267 129.166 330.646 128.517 330.934C126.955 331.607 125.405 331.637 124.234 330.856C123.056 330.069 122.485 328.627 122.503 326.921C122.521 326.212 122.636 325.521 122.852 324.848C123.068 324.169 123.374 323.538 123.771 322.95C124.167 322.361 124.636 321.844 125.183 321.394C125.729 320.943 126.33 320.577 126.985 320.3Z" fill="black"/>
<path d="M133.046 318.931C133.233 319.231 133.329 319.561 133.323 319.916L133.269 324.241C133.269 324.986 133.161 325.719 132.944 326.434C132.728 327.149 132.416 327.816 132.007 328.441C131.599 329.066 131.112 329.618 130.547 330.105C129.977 330.585 129.352 330.982 128.673 331.282C126.919 332.045 125.266 332.003 124.017 331.174C122.767 330.339 122.088 328.825 122.112 326.909C122.13 326.164 122.251 325.437 122.479 324.722C122.701 324.007 123.026 323.346 123.44 322.727C123.861 322.109 124.359 321.562 124.936 321.087C125.507 320.607 126.138 320.228 126.828 319.934L130.788 318.216C131.202 318.041 131.617 318.017 132.049 318.15C132.476 318.288 132.806 318.54 133.046 318.925V318.931ZM123.536 329.576C123.771 329.961 124.077 330.279 124.449 330.525C125.471 331.21 126.859 331.222 128.354 330.573C128.967 330.303 129.532 329.949 130.043 329.51C130.553 329.072 130.986 328.573 131.352 328.014C131.719 327.449 132.001 326.849 132.193 326.2C132.386 325.557 132.482 324.902 132.488 324.229L132.536 319.904C132.536 319.73 132.494 319.567 132.416 319.411C132.332 319.261 132.217 319.135 132.073 319.039C131.929 318.943 131.767 318.888 131.593 318.87C131.424 318.852 131.256 318.876 131.094 318.943L127.129 320.661C126.516 320.925 125.945 321.268 125.429 321.694C124.912 322.121 124.467 322.613 124.089 323.166C123.71 323.719 123.422 324.319 123.218 324.956C123.014 325.599 122.905 326.254 122.887 326.927C122.845 327.87 123.062 328.753 123.536 329.576Z" fill="#231F20"/>
<path d="M197.647 322.493L201.606 320.775C201.829 320.679 202.057 320.643 202.297 320.667C202.537 320.685 202.76 320.763 202.958 320.901C203.162 321.033 203.318 321.208 203.427 321.418C203.541 321.634 203.595 321.862 203.595 322.103L203.541 326.428C203.541 327.137 203.439 327.828 203.234 328.507C203.03 329.192 202.736 329.829 202.345 330.417C201.961 331.012 201.498 331.541 200.957 332.003C200.417 332.46 199.822 332.832 199.179 333.121C197.611 333.8 196.067 333.83 194.896 333.043C193.718 332.262 193.147 330.814 193.165 329.114C193.177 328.405 193.298 327.714 193.508 327.035C193.724 326.362 194.031 325.731 194.427 325.143C194.83 324.554 195.298 324.037 195.845 323.587C196.392 323.136 196.992 322.77 197.647 322.493Z" fill="black"/>
<path d="M203.709 321.123C203.896 321.424 203.98 321.754 203.968 322.109L203.92 326.428C203.914 327.179 203.805 327.906 203.589 328.621C203.379 329.336 203.067 330.009 202.658 330.634C202.249 331.258 201.763 331.811 201.192 332.298C200.627 332.778 200.003 333.175 199.318 333.475C197.569 334.232 195.911 334.196 194.662 333.361C193.412 332.532 192.739 331.012 192.763 329.102C192.781 328.357 192.901 327.624 193.13 326.915C193.358 326.2 193.682 325.533 194.103 324.92C194.524 324.301 195.022 323.755 195.599 323.28C196.176 322.806 196.813 322.427 197.497 322.139L201.462 320.414C201.871 320.24 202.292 320.216 202.718 320.354C203.151 320.487 203.481 320.745 203.721 321.123H203.709ZM194.199 331.757C194.433 332.141 194.74 332.454 195.112 332.706C196.134 333.391 197.521 333.403 199.017 332.754C199.63 332.484 200.189 332.129 200.699 331.691C201.21 331.258 201.649 330.754 202.015 330.195C202.382 329.63 202.658 329.029 202.85 328.387C203.042 327.744 203.145 327.083 203.145 326.41L203.193 322.085C203.193 321.91 203.151 321.748 203.073 321.598C202.988 321.442 202.874 321.316 202.73 321.219C202.586 321.123 202.424 321.069 202.249 321.051C202.081 321.033 201.913 321.057 201.751 321.129L197.792 322.842C197.173 323.106 196.608 323.448 196.092 323.875C195.569 324.301 195.124 324.794 194.746 325.347C194.373 325.899 194.079 326.5 193.875 327.137C193.67 327.78 193.562 328.435 193.544 329.108C193.508 330.051 193.725 330.94 194.199 331.757Z" fill="#231F20"/>
<path d="M169.766 302.067L173.725 300.349C173.947 300.253 174.181 300.216 174.422 300.24C174.662 300.259 174.878 300.337 175.083 300.475C175.281 300.607 175.437 300.781 175.551 300.991C175.659 301.208 175.719 301.436 175.713 301.676L175.665 306.002C175.659 306.711 175.557 307.402 175.353 308.081C175.149 308.765 174.854 309.402 174.464 309.991C174.079 310.586 173.617 311.114 173.076 311.577C172.535 312.034 171.947 312.406 171.298 312.694C169.736 313.373 168.186 313.397 167.014 312.616C165.843 311.835 165.266 310.387 165.284 308.687C165.302 307.978 165.416 307.288 165.633 306.609C165.849 305.936 166.155 305.299 166.552 304.716C166.948 304.127 167.423 303.611 167.97 303.16C168.516 302.71 169.117 302.343 169.766 302.067Z" fill="black"/>
<path d="M175.833 300.697C176.02 300.998 176.11 301.328 176.104 301.682L176.056 306.002C176.05 306.753 175.942 307.48 175.725 308.195C175.509 308.91 175.197 309.583 174.788 310.207C174.38 310.832 173.893 311.385 173.328 311.872C172.757 312.352 172.133 312.749 171.454 313.049C169.7 313.806 168.047 313.77 166.798 312.935C165.548 312.1 164.875 310.586 164.893 308.675C164.911 307.93 165.032 307.198 165.26 306.489C165.482 305.774 165.807 305.107 166.227 304.488C166.642 303.869 167.14 303.323 167.717 302.848C168.294 302.373 168.925 301.989 169.609 301.7L173.569 299.982C174.175 299.724 174.752 299.772 175.299 300.138C175.515 300.283 175.695 300.469 175.833 300.697ZM166.317 311.343C166.558 311.721 166.858 312.04 167.23 312.292C168.252 312.971 169.639 312.989 171.135 312.334C171.748 312.064 172.313 311.709 172.818 311.277C173.328 310.838 173.767 310.34 174.133 309.775C174.5 309.216 174.782 308.609 174.974 307.967C175.167 307.324 175.263 306.669 175.269 305.996L175.317 301.67C175.317 301.496 175.275 301.334 175.191 301.178C175.113 301.028 174.998 300.901 174.848 300.805C174.704 300.709 174.548 300.649 174.374 300.631C174.199 300.613 174.031 300.643 173.875 300.709L169.91 302.427C169.297 302.692 168.726 303.034 168.21 303.461C167.693 303.881 167.242 304.374 166.87 304.933C166.491 305.485 166.203 306.086 165.999 306.723C165.795 307.36 165.68 308.021 165.668 308.687C165.626 309.637 165.843 310.52 166.317 311.343Z" fill="#231F20"/>
<path d="M205.458 278.949L209.417 277.231C209.639 277.135 209.867 277.099 210.108 277.117C210.348 277.141 210.57 277.219 210.769 277.351C210.973 277.49 211.129 277.664 211.243 277.874C211.351 278.09 211.411 278.319 211.405 278.559L211.357 282.878C211.351 283.593 211.249 284.284 211.045 284.963C210.841 285.642 210.546 286.279 210.156 286.874C209.771 287.468 209.309 287.997 208.768 288.454C208.233 288.916 207.639 289.289 206.99 289.577C205.428 290.256 203.866 290.28 202.706 289.499C201.541 288.712 200.958 287.27 200.976 285.57C200.994 284.861 201.108 284.164 201.324 283.491C201.541 282.812 201.847 282.182 202.244 281.599C202.64 281.01 203.115 280.493 203.661 280.043C204.208 279.592 204.803 279.226 205.458 278.949Z" fill="black"/>
<path d="M211.519 277.58C211.711 277.88 211.801 278.204 211.795 278.559L211.747 282.884C211.741 283.635 211.633 284.362 211.417 285.077C211.2 285.792 210.888 286.465 210.479 287.09C210.071 287.714 209.584 288.267 209.02 288.748C208.449 289.234 207.824 289.625 207.145 289.931C205.391 290.688 203.739 290.646 202.489 289.817C201.24 288.982 200.567 287.468 200.585 285.558C200.603 284.813 200.723 284.08 200.951 283.371C201.18 282.656 201.504 281.995 201.919 281.376C202.339 280.758 202.838 280.211 203.414 279.736C203.991 279.262 204.622 278.877 205.313 278.589L209.272 276.871C209.873 276.612 210.449 276.66 210.996 277.027C211.212 277.171 211.387 277.357 211.519 277.58ZM202.009 288.219C202.243 288.604 202.549 288.922 202.922 289.168C203.943 289.853 205.331 289.871 206.827 289.216C207.44 288.946 207.998 288.592 208.509 288.153C209.02 287.72 209.458 287.222 209.825 286.657C210.191 286.098 210.473 285.492 210.666 284.849C210.858 284.206 210.954 283.545 210.954 282.878L211.008 278.553C211.008 278.379 210.966 278.21 210.882 278.06C210.804 277.904 210.69 277.778 210.546 277.682C210.395 277.586 210.239 277.531 210.065 277.513C209.891 277.495 209.723 277.519 209.56 277.592L205.607 279.316C204.994 279.58 204.424 279.923 203.907 280.349C203.39 280.776 202.94 281.262 202.567 281.821C202.189 282.374 201.901 282.974 201.696 283.611C201.492 284.254 201.384 284.909 201.366 285.576C201.324 286.525 201.54 287.402 202.009 288.219Z" fill="#231F20"/>
<path d="M351.384 320.895L350.976 316.587C350.958 316.347 350.994 316.113 351.084 315.89C351.18 315.668 351.324 315.482 351.51 315.332C351.703 315.182 351.913 315.091 352.153 315.049C352.394 315.007 352.622 315.025 352.85 315.103L356.941 316.485C357.614 316.708 358.239 317.026 358.822 317.428C359.404 317.831 359.915 318.312 360.36 318.864C360.804 319.417 361.165 320.018 361.435 320.679C361.699 321.333 361.874 322.012 361.946 322.715C362.108 324.409 361.651 325.899 360.546 326.776C359.441 327.654 357.897 327.756 356.286 327.209C355.614 326.975 354.995 326.65 354.418 326.236C353.841 325.821 353.337 325.335 352.904 324.776C352.472 324.217 352.123 323.604 351.865 322.944C351.607 322.283 351.444 321.604 351.384 320.895Z" fill="black"/>
<path d="M351.949 314.689C352.291 314.605 352.634 314.617 352.97 314.731L357.055 316.119C357.764 316.353 358.425 316.684 359.032 317.11C359.644 317.537 360.185 318.035 360.654 318.618C361.122 319.201 361.495 319.838 361.777 320.528C362.066 321.219 362.246 321.934 362.318 322.679C362.498 324.584 361.951 326.152 360.774 327.083C359.596 328.014 357.95 328.194 356.142 327.581C355.439 327.335 354.784 326.993 354.177 326.554C353.571 326.122 353.042 325.611 352.585 325.016C352.123 324.427 351.756 323.785 351.486 323.088C351.216 322.397 351.047 321.676 350.981 320.931L350.573 316.623C350.513 315.969 350.741 315.44 351.252 315.031C351.462 314.863 351.69 314.749 351.949 314.689ZM359.11 327.041C359.548 326.939 359.945 326.746 360.293 326.47C361.255 325.707 361.705 324.379 361.549 322.757C361.477 322.084 361.315 321.442 361.062 320.823C360.804 320.198 360.468 319.627 360.047 319.105C359.62 318.582 359.14 318.131 358.587 317.747C358.034 317.362 357.44 317.068 356.803 316.858L352.718 315.47C352.549 315.416 352.381 315.41 352.213 315.44C352.039 315.47 351.889 315.536 351.75 315.644C351.612 315.752 351.51 315.891 351.438 316.047C351.372 316.209 351.342 316.377 351.36 316.551L351.762 320.859C351.822 321.526 351.973 322.175 352.219 322.799C352.459 323.424 352.79 324.001 353.198 324.536C353.613 325.064 354.087 325.527 354.634 325.917C355.175 326.308 355.764 326.614 356.4 326.837C357.283 327.173 358.185 327.239 359.11 327.041Z" fill="#231F20"/>
<path d="M322.433 352.435L322.031 348.128C322.007 347.888 322.043 347.659 322.139 347.437C322.229 347.215 322.373 347.029 322.559 346.878C322.752 346.728 322.962 346.632 323.202 346.59C323.442 346.548 323.671 346.566 323.899 346.644L327.99 348.032C328.663 348.254 329.288 348.566 329.871 348.969C330.453 349.372 330.964 349.852 331.409 350.405C331.853 350.958 332.214 351.558 332.484 352.219C332.754 352.874 332.923 353.553 333.001 354.256C333.157 355.956 332.706 357.44 331.595 358.317C330.489 359.194 328.946 359.296 327.335 358.75C326.669 358.515 326.044 358.191 325.467 357.776C324.896 357.362 324.392 356.875 323.953 356.316C323.521 355.758 323.172 355.145 322.914 354.484C322.655 353.823 322.499 353.144 322.433 352.435Z" fill="black"/>
<path d="M323.004 346.23C323.346 346.146 323.689 346.164 324.019 346.278L328.11 347.659C328.819 347.894 329.48 348.224 330.093 348.651C330.706 349.077 331.246 349.576 331.715 350.159C332.178 350.741 332.556 351.378 332.838 352.069C333.127 352.76 333.307 353.481 333.379 354.22C333.559 356.124 333.013 357.692 331.835 358.623C330.658 359.555 329.018 359.735 327.203 359.122C326.5 358.876 325.845 358.533 325.239 358.101C324.632 357.662 324.103 357.152 323.641 356.563C323.184 355.974 322.818 355.331 322.547 354.634C322.277 353.937 322.109 353.217 322.043 352.472L321.634 348.164C321.574 347.509 321.796 346.981 322.313 346.572C322.523 346.41 322.752 346.296 323.004 346.23ZM330.171 358.581C330.604 358.479 331 358.287 331.349 358.011C332.316 357.248 332.76 355.926 332.604 354.298C332.532 353.625 332.37 352.982 332.118 352.363C331.859 351.739 331.523 351.168 331.102 350.645C330.682 350.123 330.195 349.672 329.642 349.288C329.09 348.909 328.495 348.609 327.858 348.398L323.773 347.017C323.605 346.963 323.436 346.951 323.268 346.981C323.094 347.011 322.938 347.083 322.806 347.191C322.667 347.299 322.565 347.431 322.493 347.593C322.427 347.756 322.397 347.918 322.409 348.092L322.818 352.4C322.878 353.066 323.028 353.715 323.268 354.34C323.514 354.965 323.845 355.542 324.253 356.076C324.668 356.605 325.143 357.068 325.689 357.458C326.236 357.849 326.825 358.155 327.456 358.377C328.339 358.714 329.246 358.786 330.171 358.581Z" fill="#231F20"/>
<path d="M283.623 370.375L283.221 366.067C283.197 365.827 283.233 365.592 283.329 365.37C283.419 365.148 283.563 364.962 283.749 364.817C283.942 364.667 284.152 364.571 284.392 364.529C284.632 364.487 284.861 364.505 285.089 364.583L289.18 365.971C289.853 366.193 290.478 366.506 291.061 366.908C291.643 367.311 292.154 367.791 292.599 368.344C293.043 368.897 293.404 369.497 293.668 370.152C293.938 370.807 294.113 371.492 294.185 372.195C294.347 373.889 293.896 375.379 292.791 376.256C291.679 377.133 290.129 377.235 288.525 376.689C287.853 376.454 287.234 376.13 286.657 375.715C286.08 375.301 285.576 374.814 285.143 374.255C284.71 373.697 284.362 373.084 284.104 372.423C283.845 371.762 283.689 371.077 283.623 370.375Z" fill="black"/>
<path d="M284.206 364.163C284.549 364.072 284.891 364.09 285.222 364.199L289.313 365.586C290.022 365.821 290.683 366.151 291.295 366.578C291.908 367.004 292.449 367.509 292.917 368.086C293.38 368.668 293.759 369.305 294.041 369.996C294.329 370.687 294.509 371.408 294.588 372.147C294.762 374.051 294.215 375.619 293.038 376.55C291.86 377.482 290.214 377.662 288.406 377.049C287.703 376.803 287.048 376.46 286.441 376.028C285.834 375.589 285.306 375.079 284.843 374.49C284.387 373.901 284.02 373.258 283.75 372.561C283.479 371.864 283.305 371.143 283.245 370.399L282.837 366.097C282.776 365.442 283.005 364.908 283.521 364.499C283.726 364.337 283.954 364.223 284.206 364.163ZM291.367 376.514C291.806 376.406 292.203 376.214 292.557 375.938C293.512 375.175 293.963 373.847 293.807 372.225C293.734 371.558 293.572 370.909 293.32 370.29C293.062 369.672 292.725 369.095 292.305 368.572C291.884 368.05 291.397 367.599 290.845 367.214C290.292 366.836 289.697 366.536 289.061 366.325L284.975 364.944C284.807 364.889 284.639 364.877 284.471 364.908C284.296 364.938 284.146 365.01 284.008 365.118C283.87 365.226 283.768 365.358 283.696 365.52C283.63 365.676 283.6 365.845 283.618 366.019L284.02 370.326C284.08 370.993 284.23 371.642 284.477 372.267C284.717 372.892 285.047 373.468 285.456 374.003C285.87 374.532 286.345 374.994 286.892 375.385C287.432 375.781 288.021 376.088 288.658 376.31C289.535 376.641 290.442 376.707 291.361 376.514H291.367Z" fill="#231F20"/>
<path d="M307.54 303.701L307.138 299.393C307.114 299.153 307.15 298.925 307.24 298.703C307.336 298.48 307.48 298.294 307.666 298.144C307.859 297.994 308.069 297.898 308.309 297.855C308.543 297.813 308.778 297.831 309.006 297.91L313.097 299.297C313.77 299.52 314.395 299.832 314.978 300.234C315.56 300.643 316.071 301.118 316.516 301.67C316.96 302.223 317.321 302.83 317.585 303.485C317.855 304.14 318.03 304.824 318.102 305.527C318.264 307.221 317.807 308.705 316.702 309.582C315.602 310.46 314.046 310.562 312.436 310.015C311.77 309.781 311.151 309.456 310.574 309.048C309.997 308.633 309.493 308.147 309.06 307.582C308.628 307.023 308.279 306.416 308.021 305.756C307.762 305.095 307.6 304.41 307.54 303.701Z" fill="black"/>
<path d="M308.111 297.501C308.453 297.411 308.796 297.429 309.132 297.543L313.217 298.925C313.926 299.159 314.587 299.49 315.2 299.916C315.813 300.343 316.353 300.847 316.822 301.43C317.291 302.007 317.669 302.644 317.951 303.335C318.234 304.026 318.414 304.746 318.492 305.485C318.672 307.396 318.126 308.958 316.948 309.889C315.771 310.82 314.125 311 312.316 310.388C311.607 310.141 310.952 309.799 310.352 309.366C309.745 308.928 309.21 308.417 308.754 307.828C308.297 307.24 307.931 306.597 307.66 305.9C307.384 305.203 307.216 304.482 307.15 303.737L306.747 299.436C306.705 298.991 306.813 298.583 307.072 298.216C307.33 297.85 307.678 297.609 308.111 297.501ZM315.278 309.853C315.717 309.745 316.107 309.553 316.462 309.276C317.423 308.513 317.867 307.192 317.717 305.564C317.645 304.897 317.483 304.254 317.225 303.629C316.972 303.01 316.63 302.44 316.209 301.917C315.789 301.394 315.302 300.938 314.755 300.559C314.203 300.175 313.608 299.88 312.971 299.67L308.88 298.282C308.718 298.228 308.549 298.216 308.375 298.246C308.207 298.276 308.051 298.348 307.913 298.456C307.78 298.565 307.678 298.697 307.606 298.859C307.534 299.021 307.51 299.183 307.522 299.358L307.931 303.665C307.985 304.332 308.141 304.981 308.381 305.606C308.628 306.23 308.952 306.813 309.366 307.342C309.775 307.87 310.256 308.333 310.796 308.724C311.343 309.12 311.932 309.426 312.563 309.649C313.452 309.979 314.353 310.039 315.278 309.841V309.853Z" fill="#231F20"/>
<path d="M279.538 323.959L279.13 319.651C279.106 319.411 279.142 319.183 279.238 318.96C279.334 318.738 279.478 318.552 279.664 318.402C279.851 318.252 280.067 318.155 280.307 318.113C280.542 318.071 280.776 318.089 281.004 318.167L285.089 319.555C285.762 319.778 286.393 320.09 286.976 320.492C287.553 320.895 288.069 321.376 288.514 321.928C288.958 322.481 289.313 323.082 289.583 323.737C289.854 324.397 290.028 325.076 290.1 325.779C290.262 327.479 289.805 328.963 288.7 329.84C287.595 330.718 286.045 330.814 284.441 330.273C283.768 330.039 283.149 329.714 282.572 329.3C281.995 328.885 281.491 328.399 281.058 327.84C280.62 327.281 280.277 326.668 280.019 326.007C279.761 325.347 279.598 324.662 279.538 323.959Z" fill="black"/>
<path d="M280.109 317.753C280.452 317.669 280.794 317.681 281.13 317.795L285.216 319.183C285.925 319.417 286.585 319.747 287.198 320.174C287.811 320.601 288.352 321.099 288.82 321.682C289.289 322.265 289.661 322.902 289.95 323.592C290.232 324.283 290.412 324.998 290.49 325.743C290.671 327.648 290.118 329.21 288.94 330.147C287.763 331.078 286.123 331.252 284.308 330.645C283.606 330.399 282.951 330.057 282.344 329.624C281.737 329.186 281.209 328.675 280.752 328.08C280.289 327.491 279.923 326.849 279.653 326.152C279.382 325.461 279.214 324.74 279.148 323.995L278.739 319.687C278.679 319.033 278.908 318.504 279.424 318.089C279.629 317.933 279.857 317.819 280.109 317.753ZM287.276 330.105C287.715 330.003 288.105 329.81 288.46 329.534C289.421 328.771 289.866 327.443 289.709 325.815C289.643 325.148 289.475 324.506 289.223 323.887C288.964 323.262 288.628 322.691 288.207 322.169C287.787 321.646 287.3 321.195 286.748 320.811C286.195 320.432 285.606 320.132 284.969 319.922L280.878 318.54C280.716 318.486 280.542 318.474 280.373 318.504C280.199 318.534 280.049 318.606 279.911 318.714C279.773 318.822 279.671 318.954 279.604 319.117C279.532 319.273 279.508 319.441 279.52 319.615L279.923 323.923C279.983 324.59 280.133 325.239 280.379 325.863C280.626 326.488 280.95 327.065 281.365 327.6C281.773 328.128 282.254 328.591 282.795 328.981C283.341 329.372 283.93 329.678 284.561 329.901C285.45 330.237 286.351 330.303 287.276 330.105Z" fill="#231F20"/>
<path d="M268.623 282.8L268.214 278.499C268.196 278.258 268.232 278.024 268.322 277.802C268.418 277.58 268.562 277.393 268.749 277.243C268.941 277.093 269.151 276.997 269.391 276.955C269.626 276.919 269.86 276.931 270.088 277.009L274.174 278.397C274.846 278.619 275.477 278.931 276.06 279.334C276.643 279.742 277.153 280.217 277.598 280.77C278.043 281.322 278.397 281.929 278.667 282.584C278.938 283.239 279.112 283.918 279.184 284.627C279.346 286.321 278.89 287.805 277.784 288.682C276.679 289.559 275.135 289.661 273.525 289.114C272.852 288.88 272.233 288.556 271.656 288.147C271.086 287.733 270.581 287.246 270.142 286.681C269.71 286.122 269.361 285.516 269.103 284.855C268.845 284.194 268.683 283.509 268.623 282.8Z" fill="black"/>
<path d="M269.193 276.6C269.541 276.516 269.878 276.528 270.214 276.642L274.299 278.024C275.008 278.258 275.669 278.589 276.282 279.015C276.895 279.442 277.435 279.947 277.904 280.529C278.373 281.112 278.751 281.749 279.033 282.44C279.316 283.131 279.496 283.846 279.574 284.591C279.754 286.495 279.202 288.057 278.03 288.988C276.853 289.919 275.206 290.1 273.398 289.487C272.695 289.241 272.04 288.898 271.434 288.466C270.827 288.027 270.292 287.516 269.836 286.928C269.379 286.339 269.013 285.696 268.742 284.999C268.466 284.302 268.298 283.581 268.232 282.836L267.829 278.535C267.763 277.88 267.991 277.345 268.508 276.937C268.712 276.775 268.94 276.66 269.193 276.6ZM276.36 288.952C276.798 288.844 277.189 288.652 277.543 288.375C278.505 287.612 278.949 286.291 278.793 284.663C278.727 283.996 278.565 283.353 278.306 282.728C278.054 282.109 277.712 281.533 277.291 281.01C276.871 280.487 276.384 280.037 275.831 279.652C275.285 279.274 274.69 278.979 274.053 278.769L269.962 277.381C269.8 277.327 269.631 277.315 269.457 277.345C269.289 277.375 269.133 277.447 268.994 277.556C268.856 277.664 268.754 277.796 268.688 277.958C268.616 278.12 268.592 278.283 268.604 278.457L269.013 282.764C269.067 283.437 269.217 284.08 269.463 284.711C269.709 285.336 270.034 285.912 270.448 286.441C270.857 286.97 271.337 287.432 271.884 287.829C272.425 288.219 273.014 288.526 273.65 288.748C274.534 289.078 275.435 289.15 276.36 288.952Z" fill="#231F20"/>
<path d="M353.529 156.711L349.312 155.761C349.077 155.713 348.867 155.605 348.687 155.449C348.506 155.287 348.374 155.095 348.29 154.866C348.206 154.644 348.182 154.41 348.212 154.169C348.248 153.929 348.338 153.713 348.482 153.521L351.06 150.054C351.48 149.483 351.973 148.979 352.532 148.552C353.096 148.12 353.709 147.777 354.37 147.525C355.031 147.273 355.716 147.122 356.425 147.068C357.128 147.014 357.83 147.056 358.521 147.207C360.179 147.579 361.447 148.468 361.94 149.796C362.432 151.118 362.048 152.625 361.033 153.989C360.606 154.554 360.107 155.047 359.537 155.467C358.966 155.888 358.347 156.218 357.68 156.458C357.013 156.699 356.328 156.843 355.62 156.885C354.917 156.927 354.22 156.867 353.529 156.711Z" fill="black"/>
<path d="M347.816 154.248C347.84 153.893 347.96 153.575 348.17 153.286L350.747 149.82C351.192 149.219 351.709 148.691 352.303 148.24C352.892 147.783 353.541 147.429 354.238 147.159C354.935 146.894 355.656 146.732 356.401 146.678C357.139 146.618 357.878 146.672 358.605 146.828C360.468 147.243 361.783 148.246 362.306 149.658C362.829 151.07 362.486 152.692 361.345 154.224C360.894 154.818 360.372 155.341 359.771 155.786C359.17 156.224 358.521 156.579 357.818 156.831C357.115 157.083 356.395 157.234 355.65 157.282C354.905 157.324 354.166 157.264 353.439 157.095L349.227 156.152C348.789 156.056 348.44 155.822 348.17 155.461C347.906 155.101 347.786 154.698 347.816 154.254V154.248ZM361.753 151.238C361.789 150.787 361.729 150.355 361.573 149.928C361.147 148.775 360.029 147.946 358.437 147.585C357.782 147.447 357.121 147.405 356.449 147.453C355.782 147.507 355.139 147.657 354.514 147.898C353.889 148.132 353.307 148.456 352.778 148.865C352.243 149.273 351.781 149.748 351.384 150.289L348.807 153.755C348.705 153.899 348.639 154.055 348.621 154.23C348.597 154.398 348.615 154.566 348.675 154.734C348.735 154.897 348.831 155.035 348.963 155.149C349.089 155.263 349.239 155.341 349.408 155.383L353.619 156.326C354.274 156.483 354.935 156.537 355.608 156.495C356.274 156.459 356.923 156.32 357.554 156.092C358.185 155.864 358.774 155.551 359.314 155.155C359.855 154.758 360.324 154.29 360.732 153.755C361.315 153.016 361.657 152.175 361.753 151.238Z" fill="#231F20"/>
<path d="M374.52 194.03L370.309 193.093C370.074 193.039 369.864 192.931 369.684 192.775C369.504 192.613 369.371 192.42 369.287 192.198C369.203 191.97 369.179 191.736 369.209 191.495C369.245 191.261 369.335 191.039 369.48 190.846L372.057 187.38C372.477 186.809 372.964 186.305 373.529 185.878C374.087 185.451 374.7 185.109 375.361 184.857C376.022 184.604 376.707 184.448 377.41 184.394C378.113 184.34 378.815 184.382 379.506 184.532C381.164 184.899 382.432 185.794 382.925 187.122C383.411 188.443 383.033 189.951 382.018 191.315C381.591 191.88 381.092 192.372 380.522 192.787C379.951 193.207 379.332 193.538 378.671 193.778C378.004 194.024 377.32 194.163 376.617 194.205C375.908 194.253 375.211 194.193 374.52 194.03Z" fill="black"/>
<path d="M368.806 191.573C368.836 191.219 368.956 190.895 369.167 190.612L371.744 187.146C372.183 186.545 372.699 186.016 373.294 185.566C373.889 185.109 374.532 184.749 375.228 184.484C375.925 184.22 376.646 184.058 377.391 184.004C378.136 183.944 378.869 183.992 379.602 184.148C381.464 184.563 382.78 185.572 383.303 186.984C383.825 188.395 383.483 190.017 382.342 191.549C381.891 192.144 381.368 192.667 380.768 193.105C380.167 193.55 379.512 193.898 378.815 194.157C378.112 194.409 377.385 194.559 376.64 194.601C375.895 194.649 375.162 194.589 374.435 194.421L370.224 193.478C369.786 193.382 369.437 193.154 369.167 192.793C368.896 192.433 368.776 192.024 368.806 191.579V191.573ZM382.75 188.558C382.78 188.113 382.72 187.674 382.57 187.254C382.143 186.1 381.026 185.271 379.428 184.905C378.773 184.767 378.112 184.725 377.445 184.779C376.778 184.827 376.13 184.977 375.505 185.211C374.874 185.452 374.297 185.776 373.763 186.185C373.234 186.593 372.765 187.068 372.369 187.608L369.792 191.075C369.689 191.213 369.629 191.369 369.605 191.543C369.581 191.718 369.599 191.886 369.659 192.048C369.719 192.21 369.816 192.348 369.948 192.463C370.074 192.577 370.224 192.655 370.392 192.697L374.604 193.64C375.259 193.796 375.919 193.85 376.586 193.808C377.259 193.772 377.908 193.634 378.539 193.412C379.17 193.184 379.752 192.871 380.293 192.469C380.834 192.072 381.308 191.61 381.711 191.075C382.3 190.336 382.648 189.495 382.75 188.558Z" fill="#231F20"/>
<path d="M379.543 236.559L375.337 235.616C375.103 235.562 374.899 235.46 374.712 235.297C374.532 235.141 374.4 234.949 374.316 234.721C374.232 234.492 374.208 234.258 374.244 234.024C374.274 233.784 374.364 233.567 374.508 233.375L377.085 229.903C377.506 229.332 377.999 228.833 378.557 228.401C379.122 227.974 379.735 227.632 380.396 227.379C381.056 227.127 381.741 226.971 382.45 226.917C383.153 226.863 383.856 226.911 384.547 227.055C386.205 227.427 387.479 228.317 387.965 229.644C388.452 230.972 388.073 232.474 387.058 233.844C386.632 234.408 386.133 234.901 385.556 235.321C384.986 235.742 384.367 236.072 383.7 236.313C383.033 236.553 382.348 236.697 381.639 236.739C380.936 236.775 380.233 236.721 379.543 236.559Z" fill="black"/>
<path d="M373.829 234.096C373.859 233.741 373.979 233.423 374.189 233.135L376.767 229.668C377.205 229.067 377.722 228.539 378.317 228.088C378.911 227.638 379.554 227.277 380.251 227.007C380.948 226.742 381.669 226.58 382.414 226.526C383.159 226.466 383.898 226.52 384.625 226.676C386.487 227.091 387.803 228.094 388.325 229.506C388.848 230.918 388.506 232.54 387.364 234.072C386.914 234.667 386.391 235.189 385.79 235.634C385.189 236.072 384.535 236.427 383.838 236.679C383.135 236.931 382.408 237.082 381.663 237.13C380.924 237.172 380.185 237.112 379.458 236.943L375.247 236.006C374.604 235.862 374.171 235.484 373.943 234.865C373.853 234.618 373.811 234.36 373.829 234.096ZM387.773 231.086C387.803 230.635 387.749 230.203 387.592 229.782C387.166 228.629 386.048 227.794 384.468 227.433C383.814 227.289 383.153 227.247 382.48 227.301C381.813 227.349 381.164 227.493 380.539 227.734C379.915 227.974 379.332 228.298 378.803 228.707C378.268 229.115 377.8 229.59 377.409 230.131L374.826 233.597C374.598 233.898 374.556 234.222 374.688 234.576C374.814 234.931 375.06 235.147 375.433 235.225L379.644 236.168C380.293 236.319 380.96 236.379 381.627 236.337C382.294 236.301 382.948 236.162 383.579 235.934C384.204 235.706 384.793 235.393 385.334 234.997C385.874 234.6 386.349 234.132 386.751 233.597C387.334 232.858 387.677 232.023 387.773 231.086Z" fill="#231F20"/>
<path d="M323.665 193.172L319.454 192.228C319.213 192.174 319.009 192.066 318.829 191.91C318.642 191.748 318.51 191.555 318.426 191.327C318.342 191.105 318.318 190.871 318.354 190.63C318.39 190.39 318.474 190.174 318.618 189.981L321.196 186.515C321.616 185.944 322.109 185.44 322.674 185.013C323.232 184.581 323.845 184.238 324.512 183.986C325.173 183.733 325.852 183.583 326.561 183.529C327.264 183.469 327.966 183.517 328.657 183.667C330.315 184.04 331.589 184.929 332.076 186.251C332.568 187.578 332.184 189.086 331.169 190.45C330.742 191.015 330.243 191.507 329.673 191.928C329.102 192.348 328.483 192.679 327.816 192.919C327.149 193.16 326.464 193.304 325.762 193.346C325.053 193.388 324.356 193.328 323.665 193.172Z" fill="black"/>
<path d="M317.951 190.709C317.975 190.354 318.095 190.03 318.306 189.747L320.883 186.281C321.328 185.68 321.844 185.151 322.439 184.695C323.034 184.244 323.677 183.884 324.374 183.619C325.07 183.355 325.791 183.193 326.536 183.133C327.281 183.079 328.014 183.127 328.741 183.283C330.61 183.704 331.919 184.707 332.442 186.119C332.965 187.524 332.628 189.147 331.481 190.684C331.03 191.279 330.507 191.796 329.907 192.24C329.306 192.685 328.657 193.033 327.954 193.292C327.251 193.544 326.53 193.694 325.785 193.736C325.04 193.784 324.307 193.724 323.581 193.556L319.357 192.607C318.714 192.463 318.282 192.084 318.053 191.465C317.969 191.219 317.933 190.967 317.951 190.709ZM331.889 187.699C331.925 187.248 331.865 186.816 331.715 186.389C331.282 185.242 330.171 184.406 328.573 184.046C327.918 183.902 327.257 183.86 326.584 183.914C325.918 183.962 325.269 184.106 324.644 184.346C324.019 184.587 323.436 184.911 322.908 185.32C322.373 185.728 321.91 186.203 321.514 186.743L318.931 190.21C318.828 190.354 318.768 190.51 318.744 190.684C318.72 190.853 318.738 191.021 318.798 191.189C318.858 191.351 318.955 191.49 319.087 191.604C319.219 191.724 319.369 191.802 319.537 191.838L323.749 192.781C324.404 192.931 325.064 192.991 325.731 192.949C326.404 192.913 327.053 192.775 327.684 192.547C328.315 192.319 328.897 192.006 329.438 191.61C329.979 191.213 330.453 190.745 330.856 190.21C331.445 189.471 331.793 188.636 331.889 187.699Z" fill="#231F20"/>
<path d="M334.238 226.112L330.033 225.174C329.799 225.12 329.589 225.012 329.408 224.856C329.228 224.694 329.09 224.502 329.006 224.279C328.922 224.051 328.898 223.817 328.934 223.576C328.97 223.336 329.054 223.12 329.198 222.928L331.781 219.461C332.202 218.89 332.689 218.386 333.253 217.959C333.818 217.527 334.431 217.184 335.092 216.932C335.752 216.68 336.437 216.529 337.14 216.475C337.849 216.415 338.546 216.463 339.237 216.614C340.895 216.98 342.169 217.875 342.655 219.203C343.148 220.525 342.763 222.032 341.748 223.396C341.322 223.961 340.823 224.454 340.252 224.874C339.681 225.295 339.063 225.625 338.396 225.865C337.729 226.106 337.038 226.25 336.335 226.292C335.626 226.334 334.923 226.274 334.238 226.112Z" fill="black"/>
<path d="M328.524 223.649C328.549 223.294 328.669 222.976 328.879 222.693L331.456 219.227C331.901 218.626 332.417 218.097 333.006 217.641C333.601 217.19 334.25 216.83 334.947 216.565C335.644 216.301 336.365 216.139 337.103 216.085C337.848 216.025 338.587 216.073 339.314 216.229C341.177 216.65 342.492 217.653 343.015 219.065C343.538 220.476 343.195 222.099 342.06 223.631C341.603 224.225 341.081 224.748 340.48 225.187C339.879 225.631 339.23 225.98 338.527 226.238C337.824 226.49 337.103 226.64 336.359 226.682C335.614 226.73 334.875 226.67 334.148 226.502L329.936 225.553C329.299 225.415 328.861 225.03 328.639 224.412C328.543 224.165 328.506 223.913 328.524 223.649ZM342.462 220.639C342.498 220.194 342.438 219.756 342.282 219.335C341.856 218.182 340.744 217.352 339.158 216.986C338.503 216.848 337.842 216.806 337.176 216.854C336.503 216.908 335.86 217.052 335.229 217.292C334.604 217.533 334.028 217.857 333.493 218.266C332.958 218.674 332.496 219.149 332.099 219.689L329.522 223.156C329.42 223.294 329.354 223.456 329.33 223.625C329.305 223.799 329.324 223.967 329.384 224.129C329.444 224.291 329.54 224.436 329.672 224.55C329.804 224.664 329.954 224.742 330.123 224.784L334.334 225.727C334.989 225.877 335.65 225.937 336.316 225.895C336.989 225.859 337.638 225.721 338.269 225.493C338.9 225.265 339.483 224.952 340.023 224.556C340.564 224.159 341.039 223.691 341.441 223.156C342.024 222.417 342.366 221.576 342.462 220.639Z" fill="#231F20"/>
<path d="M291.8 223.799L287.589 222.855C287.355 222.801 287.144 222.693 286.964 222.537C286.784 222.375 286.652 222.183 286.568 221.954C286.483 221.732 286.459 221.498 286.489 221.257C286.525 221.017 286.616 220.801 286.76 220.609L289.337 217.142C289.758 216.571 290.25 216.067 290.815 215.64C291.374 215.208 291.986 214.871 292.647 214.619C293.314 214.367 293.993 214.21 294.702 214.156C295.405 214.102 296.108 214.15 296.799 214.295C298.457 214.667 299.724 215.556 300.217 216.884C300.71 218.212 300.325 219.713 299.31 221.077C298.883 221.642 298.385 222.135 297.814 222.555C297.243 222.976 296.624 223.306 295.958 223.546C295.291 223.787 294.6 223.931 293.897 223.973C293.188 224.015 292.491 223.955 291.8 223.799Z" fill="black"/>
<path d="M286.087 221.336C286.111 220.981 286.231 220.663 286.441 220.374L289.018 216.908C289.463 216.307 289.98 215.778 290.574 215.328C291.163 214.871 291.812 214.517 292.509 214.246C293.206 213.982 293.927 213.82 294.672 213.766C295.41 213.706 296.149 213.76 296.876 213.916C298.745 214.331 300.06 215.334 300.577 216.746C301.1 218.158 300.763 219.78 299.622 221.312C299.171 221.906 298.643 222.429 298.042 222.874C297.441 223.318 296.792 223.667 296.089 223.919C295.392 224.177 294.666 224.321 293.921 224.369C293.176 224.412 292.443 224.351 291.716 224.183L287.504 223.24C287.066 223.144 286.711 222.91 286.447 222.549C286.177 222.189 286.056 221.786 286.087 221.342V221.336ZM300.024 218.326C300.06 217.875 300 217.443 299.844 217.016C299.418 215.869 298.306 215.034 296.72 214.673C296.065 214.529 295.404 214.487 294.738 214.541C294.071 214.589 293.422 214.739 292.797 214.979C292.166 215.22 291.59 215.538 291.055 215.947C290.52 216.355 290.058 216.83 289.661 217.37L287.084 220.837C286.982 220.981 286.916 221.137 286.892 221.312C286.874 221.48 286.892 221.648 286.952 221.816C287.012 221.978 287.108 222.117 287.234 222.231C287.366 222.351 287.516 222.429 287.685 222.465L291.896 223.408C292.551 223.564 293.212 223.618 293.879 223.582C294.551 223.54 295.2 223.408 295.831 223.18C296.462 222.952 297.045 222.639 297.585 222.243C298.126 221.84 298.601 221.378 299.009 220.843C299.592 220.104 299.928 219.263 300.024 218.326Z" fill="#231F20"/>
<mask id="mask0_27_5087" style="mask-type:luminance" maskUnits="userSpaceOnUse" x="0" y="0" width="481" height="473">
<path d="M0 0H481V472.926H0V0Z" fill="white"/>
</mask>
<g mask="url(#mask0_27_5087)">
<path d="M414.885 99.9257C417.138 102.797 419.319 105.723 421.427 108.703C423.536 111.683 425.567 114.711 427.531 117.793C429.49 120.875 431.37 123.999 433.179 127.171C434.987 130.343 436.711 133.557 438.363 136.819C440.009 140.075 441.577 143.373 443.067 146.708C444.551 150.042 445.957 153.412 447.279 156.812C448.6 160.219 449.838 163.649 450.991 167.116C452.145 170.582 453.208 174.072 454.193 177.593C455.173 181.107 456.068 184.646 456.879 188.209C457.684 191.771 458.405 195.352 459.042 198.95C459.672 202.543 460.219 206.153 460.67 209.782C461.126 213.405 461.493 217.039 461.775 220.68C462.051 224.321 462.238 227.967 462.334 231.62C462.436 235.273 462.442 238.919 462.364 242.572C462.28 246.225 462.112 249.871 461.853 253.518C461.595 257.159 461.246 260.793 460.808 264.422C460.369 268.045 459.841 271.661 459.228 275.26C458.609 278.858 457.906 282.445 457.119 286.008C456.326 289.576 455.449 293.121 454.482 296.641C453.521 300.162 452.469 303.658 451.334 307.131C450.198 310.603 448.979 314.039 447.669 317.452C446.365 320.864 444.978 324.24 443.506 327.581C442.034 330.921 440.484 334.225 438.85 337.493C437.222 340.756 435.509 343.982 433.719 347.16C431.923 350.344 430.061 353.48 428.114 356.568C426.168 359.656 424.149 362.696 422.058 365.687C419.962 368.679 417.793 371.617 415.558 374.501C413.317 377.378 411.01 380.208 408.637 382.977C406.258 385.747 403.819 388.456 401.308 391.106C398.797 393.755 396.225 396.339 393.588 398.862C390.95 401.385 388.253 403.842 385.495 406.233C382.744 408.624 379.926 410.943 377.055 413.19C374.189 415.443 371.263 417.624 368.283 419.732C365.31 421.835 362.282 423.872 359.2 425.83C356.124 427.789 353 429.669 349.834 431.471C346.662 433.274 343.454 434.998 340.198 436.644C336.941 438.29 333.649 439.858 330.321 441.342C326.987 442.826 323.622 444.226 320.222 445.547C316.822 446.863 313.391 448.095 309.931 449.248C306.47 450.396 302.986 451.459 299.471 452.432C295.963 453.411 292.43 454.301 288.874 455.106C285.317 455.911 281.743 456.626 278.15 457.25C274.557 457.881 270.953 458.416 267.336 458.866C263.72 459.317 260.091 459.677 256.456 459.948C252.822 460.218 249.181 460.404 245.54 460.495C241.894 460.585 238.253 460.591 234.606 460.501C230.966 460.41 227.325 460.236 223.684 459.972C220.05 459.701 216.427 459.347 212.804 458.902C209.188 458.452 205.583 457.923 201.991 457.298C198.398 456.674 194.823 455.965 191.267 455.166C187.71 454.367 184.178 453.478 180.663 452.504C177.149 451.531 173.664 450.474 170.198 449.326C166.737 448.185 163.307 446.953 159.907 445.638C156.506 444.328 153.136 442.928 149.808 441.45C146.474 439.972 143.175 438.41 139.919 436.764C136.663 435.124 133.449 433.4 130.283 431.604C127.111 429.801 123.981 427.927 120.905 425.968C117.823 424.016 114.795 421.985 111.815 419.883C108.835 417.78 105.904 415.605 103.032 413.358C100.16 411.111 97.3427 408.792 94.5851 406.407C91.8216 404.016 89.1241 401.565 86.4868 399.048C83.8434 396.525 81.2721 393.941 78.7549 391.298C76.2436 388.649 73.7985 385.945 71.4195 383.176C69.0404 380.412 66.7275 377.589 64.4866 374.705C62.2337 371.833 60.0529 368.907 57.9442 365.928C55.8355 362.948 53.8049 359.92 51.8464 356.838C49.8819 353.762 48.0015 350.632 46.1932 347.46C44.3849 344.288 42.6607 341.074 41.0086 337.818C39.3624 334.562 37.7944 331.263 36.3105 327.929C34.8206 324.595 33.4148 321.225 32.0931 317.818C30.7715 314.418 29.5339 310.981 28.3804 307.515C27.2269 304.049 26.1636 300.558 25.1783 297.044C24.199 293.523 23.3039 289.985 22.4929 286.422C21.6878 282.86 20.9669 279.279 20.3301 275.686C19.6993 272.088 19.1526 268.477 18.702 264.854C18.2454 261.232 17.8789 257.597 17.6026 253.957C17.3202 250.31 17.134 246.663 17.0379 243.017C16.9357 239.364 16.9297 235.711 17.0078 232.059C17.0919 228.406 17.2602 224.759 17.5185 221.119C17.7768 217.472 18.1253 213.837 18.5638 210.215C19.0024 206.586 19.5311 202.975 20.1438 199.371C20.7626 195.772 21.4655 192.192 22.2525 188.623C23.0456 185.061 23.9227 181.516 24.8899 177.995C25.8512 174.469 26.9025 170.973 28.038 167.5C29.1734 164.034 30.399 160.591 31.7026 157.179C33.0063 153.773 34.3941 150.396 35.866 147.05C37.3379 143.71 38.8878 140.405 40.5219 137.143C42.15 133.875 43.8622 130.649 45.6525 127.471C47.4488 124.287 49.3172 121.151 51.2577 118.063C53.2042 114.975 55.2227 111.935 57.3194 108.943C59.4101 105.957 61.5789 103.02 63.8137 100.136C66.0546 97.2523 68.3616 94.4227 70.7346 91.6532C73.1136 88.8836 75.5528 86.1742 78.064 83.5248C80.5752 80.8754 83.1465 78.2921 85.7839 75.7689C88.4212 73.2456 91.1187 70.7885 93.8762 68.4035C96.6277 66.0124 99.4453 63.6934 102.317 61.4406C105.183 59.1877 108.108 57.0069 111.088 54.9042C114.062 52.7955 117.09 50.7649 120.172 48.8064C123.248 46.8479 126.372 44.9675 129.538 43.1592C132.71 41.3569 135.924 39.6327 139.174 37.9866C142.43 36.3405 145.723 34.7725 149.051 33.2886C152.385 31.8047 155.749 30.4049 159.15 29.0892C162.55 27.7675 165.981 26.536 169.441 25.3885C172.901 24.241 176.386 23.1777 179.9 22.1984C183.409 21.2192 186.947 20.33 190.498 19.525C194.054 18.726 197.629 18.005 201.222 17.3803C204.814 16.7555 208.419 16.2148 212.035 15.7642C215.652 15.3136 219.281 14.9531 222.915 14.6828C226.55 14.4125 230.191 14.2322 233.831 14.1361C237.478 14.046 241.119 14.046 244.765 14.1301C248.412 14.2202 252.047 14.3944 255.687 14.6648C259.322 14.9291 262.945 15.2896 266.567 15.7341C270.184 16.1787 273.789 16.7134 277.381 17.3322C280.974 17.957 284.548 18.6719 288.105 19.4709C291.661 20.2699 295.194 21.1531 298.708 22.1263C302.223 23.0996 305.713 24.1569 309.174 25.3044C312.634 26.4518 316.065 27.6774 319.465 28.9931C322.865 30.3088 326.236 31.7026 329.57 33.1865C332.898 34.6643 336.196 36.2263 339.453 37.8664C342.709 39.5065 345.923 41.2307 349.095 43.033C352.267 44.8293 355.391 46.7097 358.467 48.6622C361.549 50.6147 364.577 52.6453 367.557 54.748C370.536 56.8507 373.468 59.0315 376.34 61.2783C379.211 63.5252 382.029 65.8382 384.787 68.2292C387.55 70.6143 390.248 73.0654 392.885 75.5886C395.528 78.1059 398.1 80.6892 400.617 83.3325C403.128 85.9819 405.573 88.6854 407.952 91.4549C410.331 94.2245 412.644 97.0481 414.885 99.9257Z" stroke="black" stroke-width="4.74517" stroke-miterlimit="10"/>
</g>
<path d="M239.683 237.316L70.1699 292.503L49.1069 299.364L28.0439 306.218" fill="black"/>
<mask id="mask1_27_5087" style="mask-type:luminance" maskUnits="userSpaceOnUse" x="0" y="159" width="318" height="226">
<path d="M0 159.63H317.855V384.174H0V159.63Z" fill="white"/>
</mask>
<g mask="url(#mask1_27_5087)">
<path d="M239.683 237.315L70.1699 292.502L49.1069 299.363L28.0439 306.217" stroke="black" stroke-width="4.74517" stroke-miterlimit="10"/>
</g>
<path d="M239.683 237.315V460.26" stroke="black" stroke-width="4.74517" stroke-miterlimit="10"/>
<path d="M239.683 237.316L409.172 292.497L430.247 299.358L451.31 306.212" fill="black"/>
<mask id="mask2_27_5087" style="mask-type:luminance" maskUnits="userSpaceOnUse" x="160" y="159" width="321" height="226">
<path d="M160.982 159.63H481V384.174H160.982V159.63Z" fill="white"/>
</mask>
<g mask="url(#mask2_27_5087)">
<path d="M239.683 237.315L409.172 292.496L430.247 299.357L451.309 306.211" stroke="black" stroke-width="4.74517" stroke-miterlimit="10"/>
</g>
<path d="M239.683 237.316L344.451 92.8311L357.47 74.8741L370.483 56.9231" fill="black"/>
<mask id="mask3_27_5087" style="mask-type:luminance" maskUnits="userSpaceOnUse" x="160" y="0" width="289" height="315">
<path d="M160.982 0H448.582V314.965H160.982V0Z" fill="white"/>
</mask>
<g mask="url(#mask3_27_5087)">
<path d="M239.683 237.315L344.451 92.8307L357.469 74.8738L370.482 56.9229" stroke="black" stroke-width="4.74517" stroke-miterlimit="10"/>
</g>
<path d="M239.683 237.316L134.945 92.8669L121.932 74.9159L108.914 56.9709" fill="black"/>
<mask id="mask4_27_5087" style="mask-type:luminance" maskUnits="userSpaceOnUse" x="30" y="0" width="288" height="315">
<path d="M30.2549 0H317.855V314.965H30.2549V0Z" fill="white"/>
</mask>
<g mask="url(#mask4_27_5087)">
<path d="M239.683 237.315L134.945 92.8667L121.933 74.9158L108.914 56.9708" stroke="black" stroke-width="4.74517" stroke-miterlimit="10"/>
</g>
</svg>
