<svg width="458" height="466" viewBox="0 0 458 466" fill="none" xmlns="http://www.w3.org/2000/svg">
<path d="M187.886 46.8884C195.064 44.8437 202.331 43.2064 209.687 41.9766C217.049 40.7466 224.453 39.9307 231.898 39.5289C239.349 39.1269 246.799 39.1395 254.243 39.5728C261.693 40.006 269.093 40.8484 276.446 42.106C283.804 43.3635 291.065 45.0308 298.229 47.1019C305.4 49.1729 312.431 51.6362 319.323 54.4919C326.221 57.3474 332.931 60.5839 339.466 64.1892C346.001 67.8004 352.313 71.757 358.406 76.0708L371.194 57.9604C366.434 54.5848 361.551 51.403 356.544 48.415C351.536 45.427 346.418 42.6388 341.194 40.0501C335.963 37.4676 330.646 35.0904 325.234 32.9188C319.823 30.7531 314.331 28.8048 308.763 27.0677C303.201 25.3365 297.576 23.8225 291.888 22.5316C286.206 21.2406 280.478 20.1785 274.712 19.3392C268.939 18.4999 263.151 17.8832 257.331 17.5012C251.516 17.1191 245.692 16.9655 239.865 17.0402C234.038 17.1149 228.22 17.4238 222.417 17.9549C216.614 18.4919 210.838 19.2509 205.094 20.2378C199.351 21.2306 193.653 22.4453 188 23.8816C182.352 25.3179 176.768 26.9756 171.247 28.8549C165.731 30.7341 160.291 32.8286 154.937 35.1323C149.583 37.436 144.328 39.9547 139.172 42.6704C134.01 45.3922 128.97 48.3107 124.041 51.4321C119.113 54.5474 114.312 57.8594 109.647 61.3559L122.894 79.1325C132.648 71.8096 142.984 65.4346 153.91 60.0193C164.835 54.5981 176.159 50.2231 187.886 46.8884Z" fill="#39B54A"/>
<path d="M49.9763 294.939C48.6362 290.227 47.4697 285.472 46.4769 280.672C45.4841 275.872 44.6712 271.046 44.032 266.182C43.393 261.323 42.9279 256.45 42.6489 251.557C42.3639 246.664 42.2651 241.769 42.3404 236.871C42.4158 231.968 42.6655 227.08 43.1016 222.195C43.5377 217.317 44.1483 212.455 44.9334 207.62C45.7246 202.785 46.6905 197.985 47.831 193.217C48.9715 188.45 50.2809 183.735 51.7651 179.066C53.2494 174.396 54.9087 169.791 56.7309 165.243C58.5532 160.696 60.5386 156.218 62.6871 151.817C64.8357 147.415 67.1415 143.096 69.6107 138.864C72.0739 134.633 74.6885 130.496 77.4606 126.459C80.2266 122.416 83.1382 118.486 86.1953 114.655C89.2525 110.831 92.4434 107.125 95.768 103.531C99.0925 99.938 102.551 96.475 106.131 93.1366C109.711 89.7982 113.407 86.5965 117.225 83.5314C119.086 82.0295 120.978 80.5633 122.883 79.133L109.635 61.3564C107.516 62.9457 105.422 64.5707 103.353 66.2315C99.1186 69.6443 95.0186 73.1997 91.0467 76.9096C87.0748 80.6195 83.2429 84.4718 79.551 88.4665C75.865 92.4552 72.3249 96.5741 68.9307 100.823C65.5426 105.079 62.3121 109.446 59.2454 113.931C56.1726 118.417 53.2695 123.014 50.5359 127.712C47.8024 132.415 45.2383 137.206 42.8556 142.091C40.467 146.983 38.2656 151.95 36.2454 156.998C34.2193 162.047 32.3864 167.166 30.7345 172.348C29.0887 177.536 27.6297 182.77 26.3637 188.061C25.0977 193.353 24.0245 198.684 23.15 204.048C22.2696 209.419 21.5878 214.817 21.1045 220.236C20.6212 225.65 20.3364 231.085 20.2499 236.524C20.1634 241.962 20.2752 247.398 20.5852 252.832C20.8951 258.265 21.4031 263.678 22.1031 269.07C22.8092 274.469 23.7131 279.828 24.8088 285.155C25.9045 290.483 27.1919 295.765 28.677 301.004C29.6901 304.577 30.787 308.12 31.9734 311.62L52.9408 304.496C51.8789 301.343 50.8888 298.159 49.9763 294.939Z" fill="#39B54A"/>
<path d="M221.015 439.562C216.304 439.045 211.615 438.366 206.954 437.513C202.286 436.666 197.659 435.649 193.072 434.471C188.478 433.292 183.931 431.95 179.436 430.452C174.94 428.947 170.497 427.292 166.118 425.473C161.738 423.655 157.429 421.685 153.19 419.565C148.951 417.438 144.789 415.166 140.708 412.749C136.628 410.332 132.641 407.77 128.744 405.068C124.846 402.366 121.042 399.531 117.345 396.556C113.648 393.588 110.063 390.485 106.579 387.262C103.101 384.032 99.7418 380.686 96.5011 377.225C93.2603 373.758 90.1442 370.181 87.1529 366.494C84.1677 362.807 81.3133 359.023 78.5898 355.134C75.8723 351.24 73.2918 347.259 70.8483 343.187C68.4108 339.115 66.1165 334.962 63.9714 330.724C61.8262 326.492 59.8364 322.185 57.9958 317.805C56.1553 313.431 54.4702 308.994 52.9405 304.496L31.9731 311.62C33.6595 316.621 35.5251 321.548 37.5642 326.412C39.6032 331.277 41.8155 336.061 44.195 340.771C46.5745 345.475 49.1151 350.093 51.8227 354.618C54.5244 359.144 57.387 363.571 60.4104 367.894C63.4278 372.212 66.6001 376.425 69.9151 380.522C73.236 384.619 76.6936 388.588 80.2938 392.441C83.894 396.288 87.6247 400.008 91.4859 403.593C95.353 407.179 99.3385 410.618 103.442 413.924C107.552 417.224 111.774 420.372 116.103 423.375C120.431 426.378 124.865 429.217 129.4 431.904C133.929 434.586 138.551 437.11 143.262 439.465C147.972 441.82 152.765 444.006 157.627 446.022C162.496 448.039 167.428 449.88 172.424 451.54C177.42 453.206 182.468 454.692 187.568 455.996C192.673 457.301 197.813 458.424 202.998 459.361C208.177 460.298 213.384 461.055 218.618 461.624C227.571 462.603 236.553 463.041 245.564 462.937L245.279 440.765C237.163 440.851 229.077 440.45 221.015 439.562Z" fill="#39B54A"/>
<path d="M345.613 94.1931L358.4 76.0706C354.113 73.0374 349.721 70.1677 345.21 67.4798C340.7 64.7859 336.089 62.2735 331.385 59.9486C326.681 57.6176 321.889 55.4801 317.015 53.5298C312.141 51.5735 307.198 49.8225 302.185 48.2585C297.173 46.6946 292.108 45.3356 286.986 44.1695C281.871 43.0095 276.715 42.0482 271.52 41.2916C266.326 40.5411 261.11 39.9892 255.872 39.6418C250.634 39.3004 245.387 39.1573 240.143 39.2306C234.893 39.2979 229.657 39.5693 224.43 40.0509C219.203 40.5325 214.003 41.218 208.829 42.1075C203.656 43.0029 198.527 44.0961 193.442 45.3869C188.352 46.6839 183.324 48.1783 178.353 49.8702C173.382 51.5622 168.492 53.4454 163.67 55.52C158.848 57.6005 154.112 59.8602 149.469 62.311C144.826 64.7618 140.282 67.3916 135.848 70.2002C131.408 73.0089 127.084 75.9843 122.882 79.1324L136.13 96.915C199.14 49.7299 283.955 50.4629 345.613 94.1931Z" fill="#8DC63F"/>
<path d="M131.091 100.826C132.757 99.4888 134.434 98.1816 136.13 96.9161L122.883 79.1335C120.972 80.5639 119.086 82.0301 117.219 83.532C113.407 86.597 109.717 89.8046 106.143 93.149C102.563 96.4873 99.1168 99.9562 95.7923 103.55C92.4677 107.143 89.2829 110.855 86.2257 114.679C83.1746 118.51 80.269 122.44 77.503 126.483C74.737 130.526 72.1224 134.663 69.6592 138.894C67.196 143.126 64.8902 147.445 62.7476 151.847C60.599 156.248 58.6136 160.72 56.7913 165.267C54.9691 169.815 53.3158 174.42 51.8316 179.089C50.3473 183.759 49.0379 188.474 47.8973 193.235C46.7568 198.002 45.791 202.803 44.9998 207.638C44.2086 212.473 43.598 217.329 43.1618 222.207C42.7257 227.085 42.47 231.979 42.3886 236.877C42.3132 241.775 42.412 246.67 42.6911 251.563C42.97 256.45 43.4231 261.329 44.0622 266.188C44.6953 271.046 45.5021 275.872 46.4889 280.672C47.4817 285.466 48.6422 290.228 49.9764 294.939C50.8828 298.16 51.873 301.344 52.9408 304.496L73.9201 297.366C50.5586 228.355 71.1121 149.12 131.091 100.826Z" fill="#8DC63F"/>
<path d="M103.806 351.843C90.6301 335.454 80.67 317.292 73.9196 297.366L52.9464 304.496C54.464 308.995 56.1432 313.437 57.9838 317.818C59.8184 322.198 61.8082 326.504 63.9474 330.743C66.0927 334.987 68.381 339.14 70.8125 343.218C73.25 347.29 75.8305 351.277 78.5481 355.171C81.2656 359.06 84.12 362.85 87.1114 366.543C90.0966 370.23 93.2127 373.807 96.4535 377.274C99.6943 380.741 103.054 384.093 106.532 387.317C110.016 390.547 113.601 393.649 117.304 396.617C121.001 399.592 124.798 402.427 128.702 405.129C132.6 407.831 136.592 410.393 140.673 412.81C144.753 415.227 148.916 417.499 153.161 419.62C157.4 421.74 161.715 423.71 166.094 425.522C170.479 427.34 174.917 428.996 179.418 430.494C183.919 431.993 188.467 433.328 193.06 434.501C197.653 435.674 202.28 436.684 206.948 437.531C211.615 438.373 216.304 439.052 221.021 439.562C229.083 440.45 237.175 440.845 245.285 440.753L245 418.55C192.119 419.192 139.506 396.351 103.806 351.843Z" fill="#8DC63F"/>
<path d="M136.13 96.9156C134.434 98.1871 132.756 99.4883 131.091 100.825C71.1119 149.119 50.5584 228.354 73.9199 297.365L242.705 240.004L136.13 96.9156Z" fill="#FF323F"/>
<path d="M73.92 297.366C80.6703 317.293 90.6365 335.454 103.806 351.843C139.507 396.351 192.119 419.192 244.995 418.551L242.706 240.005L73.92 297.366Z" fill="#FF323F"/>
<path d="M136.131 96.9156L242.706 240.004L345.608 94.1878C283.956 50.4636 199.141 49.7306 136.131 96.9156Z" fill="#FF323F"/>
<path d="M199.672 107.156L197.522 110.909C197.404 111.115 197.238 111.285 197.035 111.408C196.827 111.537 196.605 111.605 196.365 111.615C196.125 111.63 195.896 111.584 195.678 111.479C195.461 111.38 195.279 111.226 195.138 111.035L192.6 107.541C192.178 106.97 191.845 106.349 191.603 105.685C191.36 105.016 191.219 104.326 191.174 103.618C191.128 102.91 191.186 102.212 191.339 101.519C191.498 100.832 191.748 100.174 192.095 99.5568C192.941 98.0799 194.167 97.1269 195.578 97.0548C196.982 96.9767 198.309 97.7888 199.312 99.1638C199.722 99.7414 200.042 100.368 200.273 101.038C200.504 101.708 200.633 102.397 200.666 103.106C200.699 103.82 200.63 104.518 200.459 105.205C200.293 105.892 200.025 106.545 199.672 107.156Z" fill="black"/>
<path d="M195.63 111.888C195.298 111.76 195.031 111.553 194.823 111.268L192.284 107.773C191.838 107.172 191.487 106.522 191.232 105.816C190.977 105.116 190.829 104.391 190.784 103.647C190.732 102.896 190.795 102.163 190.959 101.434C191.124 100.704 191.392 100.016 191.756 99.3626C192.708 97.7041 194.066 96.7434 195.555 96.6642C197.044 96.5851 198.502 97.3895 199.627 98.9372C200.056 99.5445 200.395 100.201 200.638 100.907C200.881 101.613 201.023 102.338 201.056 103.089C201.09 103.833 201.021 104.567 200.838 105.296C200.661 106.02 200.382 106.708 200.006 107.35L197.861 111.102C197.637 111.49 197.31 111.758 196.892 111.908C196.467 112.058 196.046 112.051 195.63 111.888ZM196.895 97.6564C196.479 97.4935 196.045 97.421 195.595 97.4448C194.37 97.5086 193.245 98.3281 192.428 99.7505C192.099 100.337 191.861 100.959 191.713 101.616C191.565 102.267 191.513 102.935 191.552 103.601C191.597 104.273 191.731 104.926 191.962 105.554C192.192 106.188 192.506 106.773 192.909 107.315L195.448 110.809C195.668 111.112 195.964 111.253 196.336 111.236C196.715 111.219 196.995 111.041 197.177 110.715L199.334 106.968C199.675 106.387 199.925 105.777 200.085 105.12C200.245 104.469 200.309 103.807 200.282 103.141C200.249 102.468 200.127 101.815 199.908 101.181C199.69 100.547 199.382 99.9557 198.996 99.4079C198.47 98.6156 197.765 98.0358 196.895 97.6564Z" fill="#231F20"/>
<path d="M241.476 98.1483L239.325 101.895C239.202 102.107 239.042 102.277 238.833 102.4C238.63 102.529 238.409 102.598 238.169 102.607C237.929 102.622 237.7 102.577 237.482 102.471C237.265 102.372 237.082 102.218 236.942 102.028L234.403 98.5273C233.982 97.962 233.649 97.3414 233.406 96.6716C233.163 96.0078 233.022 95.3186 232.977 94.6103C232.932 93.9019 232.989 93.2042 233.143 92.5113C233.302 91.8183 233.552 91.1662 233.899 90.5489C234.745 89.0721 235.97 88.1191 237.381 88.0469C238.786 87.9688 240.113 88.793 241.109 90.1561C241.519 90.7336 241.846 91.3603 242.077 92.0302C242.308 92.7002 242.437 93.3895 242.47 94.098C242.503 94.8066 242.434 95.5044 242.262 96.1975C242.091 96.8847 241.829 97.5369 241.476 98.1483Z" fill="black"/>
<path d="M237.433 102.88C237.101 102.752 236.834 102.54 236.626 102.254L234.082 98.7596C233.641 98.1584 233.29 97.508 233.035 96.8083C232.78 96.1026 232.626 95.3776 232.581 94.6332C232.535 93.8888 232.598 93.1489 232.763 92.4198C232.928 91.6967 233.195 91.0024 233.559 90.3548C234.511 88.6904 235.869 87.7357 237.358 87.6505C238.847 87.5713 240.299 88.3818 241.43 89.9235C241.859 90.5308 242.198 91.1934 242.441 91.8992C242.685 92.6051 242.826 93.3302 242.86 94.0748C242.893 94.8194 242.818 95.5534 242.642 96.2826C242.465 97.0059 242.185 97.6884 241.815 98.336L239.664 102.089C239.434 102.476 239.113 102.745 238.689 102.894C238.27 103.044 237.85 103.037 237.433 102.874L237.433 102.88ZM238.698 88.6487C238.282 88.4798 237.842 88.4133 237.392 88.4311C236.167 88.5009 235.048 89.3204 234.231 90.7428C233.902 91.3298 233.664 91.9457 233.516 92.6024C233.368 93.2592 233.311 93.9209 233.355 94.5932C233.4 95.2596 233.534 95.9127 233.765 96.5466C233.995 97.1745 234.309 97.7593 234.707 98.301L237.257 101.783C237.361 101.926 237.488 102.032 237.645 102.109C237.808 102.179 237.971 102.213 238.145 102.204C238.319 102.19 238.481 102.14 238.63 102.054C238.779 101.962 238.898 101.84 238.986 101.689L241.143 97.9541C241.484 97.3729 241.728 96.757 241.894 96.1059C242.054 95.455 242.118 94.7933 242.085 94.1208C242.058 93.4482 241.936 92.7949 241.718 92.1608C241.499 91.5268 241.191 90.9359 240.806 90.3881C240.273 89.6018 239.568 89.0221 238.698 88.6487Z" fill="#231F20"/>
<path d="M283.495 105.961L281.344 109.714C281.221 109.926 281.061 110.09 280.852 110.219C280.65 110.348 280.428 110.416 280.182 110.426C279.942 110.441 279.713 110.396 279.495 110.29C279.278 110.185 279.102 110.037 278.955 109.841L276.417 106.346C275.995 105.775 275.662 105.154 275.426 104.49C275.183 103.827 275.036 103.138 274.991 102.429C274.945 101.721 275.003 101.023 275.162 100.33C275.321 99.6372 275.571 98.9791 275.918 98.3618C276.764 96.8909 277.989 95.938 279.4 95.8598C280.805 95.7877 282.132 96.6058 283.129 97.9749C283.539 98.5525 283.865 99.1731 284.096 99.8431C284.327 100.519 284.456 101.208 284.489 101.917C284.522 102.625 284.453 103.323 284.281 104.01C284.116 104.697 283.848 105.35 283.495 105.961Z" fill="black"/>
<path d="M279.452 110.7C279.12 110.572 278.847 110.359 278.645 110.073L276.101 106.579C275.66 105.978 275.31 105.327 275.054 104.622C274.799 103.922 274.651 103.197 274.6 102.453C274.554 101.708 274.617 100.968 274.782 100.239C274.947 99.5101 275.214 98.8217 275.578 98.1682C276.53 96.5097 277.888 95.549 279.377 95.4699C280.866 95.3907 282.318 96.1952 283.444 97.7429C283.878 98.3502 284.217 99.0067 284.46 99.7126C284.703 100.418 284.845 101.144 284.879 101.894C284.912 102.639 284.837 103.373 284.661 104.102C284.484 104.825 284.204 105.514 283.834 106.155L281.683 109.908C281.354 110.477 280.859 110.784 280.205 110.822C279.946 110.832 279.693 110.793 279.452 110.7ZM280.717 96.4621C280.301 96.2992 279.861 96.2267 279.411 96.2505C278.186 96.3203 277.061 97.1398 276.25 98.5621C275.921 99.1431 275.683 99.765 275.535 100.422C275.381 101.079 275.33 101.74 275.374 102.413C275.413 103.079 275.553 103.732 275.784 104.366C276.014 104.994 276.328 105.579 276.726 106.12L279.264 109.621C279.374 109.757 279.501 109.864 279.659 109.94C279.816 110.01 279.984 110.044 280.158 110.036C280.333 110.027 280.494 109.977 280.643 109.885C280.792 109.793 280.911 109.672 280.999 109.52L283.144 105.774C283.485 105.193 283.729 104.583 283.895 103.926C284.055 103.275 284.119 102.613 284.092 101.946C284.06 101.274 283.937 100.62 283.719 99.9864C283.5 99.3524 283.192 98.7615 282.807 98.2137C282.28 97.4274 281.581 96.8415 280.717 96.4621Z" fill="#231F20"/>
<path d="M225.556 146.557L223.405 150.303C223.288 150.515 223.121 150.679 222.919 150.808C222.716 150.937 222.489 151.006 222.249 151.015C222.008 151.03 221.78 150.985 221.562 150.88C221.344 150.78 221.162 150.626 221.021 150.43L218.483 146.936C218.061 146.37 217.729 145.75 217.486 145.086C217.243 144.416 217.096 143.727 217.051 143.019C217.006 142.316 217.063 141.613 217.216 140.92C217.376 140.227 217.626 139.575 217.972 138.957C218.819 137.474 220.044 136.527 221.455 136.449C222.86 136.371 224.186 137.195 225.183 138.564C225.593 139.142 225.914 139.763 226.15 140.439C226.381 141.109 226.51 141.798 226.543 142.506C226.577 143.215 226.513 143.913 226.342 144.6C226.177 145.293 225.915 145.939 225.556 146.557Z" fill="black"/>
<path d="M221.513 151.288C221.187 151.16 220.914 150.948 220.706 150.662L218.167 147.174C217.721 146.573 217.37 145.916 217.115 145.216C216.86 144.517 216.712 143.792 216.667 143.041C216.621 142.297 216.678 141.563 216.849 140.834C217.013 140.105 217.281 139.416 217.645 138.763C218.591 137.105 219.955 136.144 221.444 136.065C222.933 135.985 224.385 136.79 225.51 138.338C225.945 138.945 226.278 139.602 226.521 140.307C226.764 141.013 226.906 141.744 226.933 142.489C226.967 143.234 226.898 143.968 226.715 144.697C226.538 145.42 226.259 146.103 225.883 146.75L223.744 150.491C223.52 150.878 223.193 151.147 222.775 151.296C222.35 151.446 221.929 151.439 221.513 151.276L221.513 151.288ZM222.784 137.057C222.362 136.888 221.928 136.815 221.478 136.839C220.253 136.909 219.128 137.729 218.317 139.151C217.988 139.732 217.75 140.354 217.602 141.011C217.448 141.667 217.396 142.329 217.441 143.001C217.48 143.668 217.62 144.321 217.851 144.955C218.081 145.583 218.395 146.167 218.792 146.709L221.331 150.203C221.435 150.346 221.568 150.453 221.725 150.523C221.882 150.599 222.051 150.633 222.219 150.618C222.393 150.61 222.555 150.56 222.704 150.474C222.853 150.382 222.972 150.26 223.06 150.109L225.211 146.362C225.552 145.781 225.802 145.165 225.962 144.514C226.122 143.863 226.186 143.202 226.159 142.529C226.126 141.857 226.004 141.203 225.785 140.569C225.567 139.935 225.259 139.344 224.873 138.796C224.347 138.016 223.648 137.43 222.778 137.057L222.784 137.057Z" fill="#231F20"/>
<path d="M260.093 146.216L257.954 149.968C257.837 150.174 257.671 150.344 257.468 150.473C257.259 150.596 257.038 150.671 256.798 150.68C256.558 150.695 256.329 150.65 256.111 150.545C255.893 150.439 255.711 150.291 255.571 150.095L253.032 146.601C252.61 146.029 252.278 145.409 252.035 144.745C251.792 144.075 251.651 143.392 251.606 142.684C251.561 141.975 251.618 141.272 251.778 140.579C251.931 139.892 252.187 139.234 252.533 138.616C253.38 137.139 254.605 136.186 256.01 136.114C257.421 136.036 258.741 136.86 259.744 138.223C260.154 138.807 260.475 139.428 260.7 140.098C260.931 140.774 261.06 141.463 261.093 142.171C261.126 142.88 261.057 143.578 260.885 144.265C260.714 144.952 260.452 145.604 260.093 146.216Z" fill="black"/>
<path d="M256.05 150.954C255.718 150.82 255.451 150.613 255.243 150.328L252.705 146.827C252.264 146.226 251.914 145.576 251.658 144.876C251.403 144.171 251.255 143.451 251.21 142.701C251.158 141.957 251.221 141.223 251.386 140.494C251.557 139.765 251.818 139.076 252.182 138.423C253.134 136.764 254.492 135.804 255.981 135.724C257.47 135.639 258.928 136.45 260.054 137.997C260.482 138.605 260.821 139.261 261.07 139.967C261.314 140.673 261.449 141.398 261.483 142.149C261.516 142.893 261.448 143.627 261.265 144.357C261.088 145.08 260.814 145.768 260.438 146.41L258.287 150.163C257.958 150.732 257.469 151.038 256.815 151.071C256.55 151.086 256.298 151.047 256.05 150.954ZM257.316 136.723C256.899 136.554 256.465 136.481 256.009 136.505C254.784 136.569 253.665 137.388 252.848 138.811C252.519 139.398 252.281 140.02 252.133 140.676C251.985 141.327 251.928 141.995 251.972 142.661C252.017 143.334 252.152 143.987 252.382 144.615C252.612 145.249 252.926 145.833 253.324 146.375L255.868 149.863C255.972 150.006 256.105 150.112 256.263 150.189C256.42 150.259 256.588 150.292 256.762 150.284C256.936 150.27 257.098 150.22 257.247 150.134C257.396 150.042 257.515 149.92 257.603 149.769L259.748 146.022C260.089 145.441 260.339 144.825 260.499 144.174C260.659 143.523 260.723 142.861 260.696 142.189C260.664 141.522 260.541 140.869 260.323 140.235C260.104 139.595 259.802 139.004 259.411 138.462C258.884 137.676 258.186 137.096 257.316 136.723Z" fill="#231F20"/>
<path d="M245.29 186.132L243.139 189.885C243.021 190.097 242.855 190.261 242.653 190.39C242.444 190.519 242.222 190.587 241.982 190.597C241.742 190.612 241.513 190.566 241.296 190.461C241.078 190.356 240.896 190.208 240.755 190.011L238.217 186.517C237.795 185.946 237.463 185.325 237.22 184.661C236.977 183.998 236.836 183.308 236.791 182.6C236.746 181.892 236.803 181.194 236.962 180.501C237.116 179.808 237.372 179.156 237.718 178.533C238.558 177.062 239.79 176.109 241.195 176.031C242.606 175.959 243.926 176.777 244.929 178.146C245.339 178.723 245.659 179.344 245.89 180.014C246.121 180.69 246.25 181.379 246.283 182.088C246.316 182.796 246.247 183.494 246.082 184.181C245.91 184.868 245.648 185.521 245.29 186.132Z" fill="black"/>
<path d="M241.247 190.864C240.915 190.742 240.648 190.529 240.44 190.243L237.901 186.749C237.455 186.148 237.104 185.497 236.849 184.792C236.594 184.092 236.446 183.367 236.4 182.622C236.355 181.872 236.412 181.138 236.582 180.409C236.747 179.68 237.009 178.992 237.379 178.338C238.325 176.68 239.689 175.719 241.178 175.64C242.667 175.561 244.119 176.365 245.244 177.913C245.679 178.52 246.017 179.177 246.261 179.882C246.504 180.588 246.64 181.32 246.673 182.064C246.707 182.809 246.638 183.549 246.461 184.272C246.278 184.995 246.005 185.684 245.628 186.325L243.478 190.078C243.155 190.653 242.66 190.954 242.005 190.986C241.741 191.002 241.494 190.963 241.247 190.864ZM242.512 176.638C242.095 176.469 241.662 176.397 241.212 176.42C239.981 176.49 238.862 177.31 238.045 178.726C237.716 179.313 237.478 179.935 237.33 180.592C237.182 181.243 237.13 181.91 237.169 182.577C237.214 183.249 237.348 183.902 237.579 184.53C237.809 185.164 238.123 185.749 238.52 186.29L241.065 189.785C241.285 190.088 241.581 190.235 241.953 190.212C242.331 190.189 242.612 190.011 242.794 189.678L244.945 185.932C245.28 185.35 245.53 184.734 245.69 184.084C245.856 183.433 245.919 182.771 245.887 182.098C245.86 181.426 245.732 180.772 245.513 180.138C245.295 179.504 244.993 178.913 244.601 178.366C244.074 177.585 243.376 177.005 242.512 176.638Z" fill="#231F20"/>
<path d="M103.315 239.965L106.216 243.178C106.38 243.356 106.491 243.559 106.548 243.798C106.605 244.032 106.602 244.266 106.539 244.501C106.476 244.731 106.358 244.936 106.192 245.113C106.026 245.289 105.83 245.412 105.602 245.487L101.498 246.825C100.828 247.05 100.139 247.179 99.43 247.2C98.7214 247.227 98.0295 247.152 97.3422 246.975C96.655 246.797 96.0087 246.529 95.4032 246.164C94.7917 245.8 94.2513 245.356 93.77 244.839C92.6303 243.574 92.1069 242.115 92.4679 240.747C92.8288 239.378 93.9996 238.378 95.6269 237.834C96.3031 237.627 96.9927 237.516 97.7014 237.501C98.4043 237.492 99.1023 237.579 99.7837 237.769C100.465 237.958 101.106 238.239 101.705 238.609C102.305 238.986 102.839 239.436 103.315 239.965Z" fill="black"/>
<path d="M106.555 245.277C106.331 245.556 106.051 245.746 105.716 245.858L101.611 247.197C100.905 247.434 100.18 247.564 99.4293 247.591C98.6846 247.619 97.9506 247.538 97.2332 247.349C96.5099 247.166 95.8273 246.88 95.1855 246.498C94.5497 246.11 93.9729 245.642 93.4672 245.096C92.1873 243.677 91.6924 242.097 92.0823 240.644C92.4662 239.191 93.6775 238.064 95.4963 237.47C96.2084 237.244 96.9339 237.127 97.6787 237.111C98.4236 237.102 99.1578 237.195 99.8753 237.39C100.593 237.591 101.27 237.888 101.905 238.283C102.535 238.677 103.1 239.157 103.594 239.715L106.501 242.916C106.94 243.409 107.079 243.972 106.913 244.605C106.838 244.859 106.721 245.082 106.555 245.277ZM93.4397 239.671C93.1558 240.017 92.9505 240.41 92.8359 240.844C92.5207 242.032 92.9522 243.354 94.0493 244.572C94.5062 245.065 95.0163 245.485 95.5915 245.826C96.1667 246.173 96.7827 246.424 97.4278 246.596C98.0788 246.761 98.7406 246.831 99.4073 246.81C100.08 246.784 100.727 246.667 101.367 246.455L105.466 245.111C105.633 245.054 105.776 244.962 105.895 244.835C106.013 244.713 106.096 244.562 106.135 244.393C106.181 244.224 106.185 244.056 106.147 243.888C106.103 243.715 106.029 243.565 105.913 243.435L103.006 240.227C102.561 239.722 102.051 239.296 101.481 238.943C100.912 238.584 100.308 238.321 99.6626 238.143C99.0115 237.965 98.3554 237.878 97.6827 237.892C97.0159 237.901 96.3624 238.011 95.7221 238.212C94.8183 238.476 94.0615 238.966 93.4397 239.671Z" fill="#231F20"/>
<path d="M107.677 197.342L110.578 200.549C110.742 200.727 110.853 200.936 110.91 201.169C110.967 201.403 110.964 201.637 110.901 201.872C110.838 202.108 110.727 202.313 110.561 202.49C110.395 202.66 110.198 202.789 109.965 202.864L105.866 204.202C105.19 204.427 104.501 204.556 103.792 204.577C103.09 204.604 102.392 204.529 101.705 204.352C101.017 204.174 100.371 203.906 99.7655 203.541C99.154 203.177 98.6137 202.739 98.1323 202.216C96.9926 200.951 96.4692 199.492 96.8302 198.123C97.1912 196.761 98.3619 195.755 99.9893 195.217C100.665 195.004 101.355 194.893 102.064 194.878C102.767 194.869 103.465 194.956 104.146 195.146C104.827 195.335 105.468 195.615 106.067 195.986C106.667 196.363 107.202 196.813 107.677 197.342Z" fill="black"/>
<path d="M110.918 202.659C110.693 202.932 110.413 203.128 110.078 203.235L105.974 204.573C105.268 204.811 104.536 204.94 103.792 204.968C103.047 204.995 102.313 204.914 101.59 204.725C100.872 204.536 100.19 204.251 99.5478 203.868C98.912 203.48 98.3352 203.013 97.8295 202.467C96.5496 201.047 96.0546 199.461 96.4445 198.008C96.8345 196.555 98.0397 195.428 99.8586 194.834C100.571 194.609 101.296 194.491 102.047 194.482C102.792 194.466 103.52 194.559 104.244 194.76C104.961 194.955 105.638 195.253 106.268 195.647C106.904 196.048 107.463 196.521 107.962 197.079L110.863 200.287C111.168 200.619 111.323 201.014 111.329 201.458C111.341 201.909 111.208 202.307 110.924 202.659L110.918 202.659ZM97.8022 197.054C97.5182 197.4 97.3129 197.787 97.1983 198.221C96.8831 199.409 97.3146 200.731 98.4117 201.948C98.8686 202.441 99.3787 202.861 99.9539 203.208C100.529 203.549 101.145 203.806 101.79 203.972C102.441 204.138 103.103 204.207 103.77 204.187C104.442 204.16 105.09 204.044 105.73 203.831L109.828 202.493C109.996 202.437 110.139 202.345 110.257 202.217C110.376 202.089 110.458 201.938 110.504 201.769C110.544 201.601 110.548 201.432 110.509 201.265C110.471 201.097 110.391 200.942 110.275 200.811L107.368 197.604C106.923 197.105 106.419 196.679 105.85 196.319C105.28 195.966 104.67 195.698 104.025 195.52C103.38 195.342 102.718 195.26 102.051 195.269C101.378 195.283 100.725 195.388 100.085 195.594C99.1807 195.858 98.4239 196.343 97.8022 197.054Z" fill="#231F20"/>
<path d="M128.079 159.721L130.98 162.922C131.144 163.106 131.255 163.309 131.312 163.543C131.369 163.782 131.366 164.017 131.303 164.246C131.24 164.481 131.129 164.687 130.963 164.863C130.797 165.039 130.6 165.162 130.367 165.237L126.268 166.575C125.592 166.8 124.903 166.923 124.194 166.95C123.492 166.977 122.794 166.902 122.106 166.725C121.419 166.547 120.773 166.279 120.167 165.915C119.556 165.55 119.015 165.106 118.534 164.59C117.394 163.325 116.871 161.859 117.232 160.497C117.593 159.128 118.764 158.128 120.391 157.584C121.067 157.371 121.757 157.26 122.466 157.251C123.168 157.236 123.866 157.324 124.548 157.513C125.229 157.703 125.87 157.989 126.469 158.36C127.069 158.736 127.603 159.186 128.079 159.721Z" fill="black"/>
<path d="M131.332 165.032C131.107 165.305 130.827 165.495 130.492 165.608L126.387 166.946C125.676 167.183 124.95 167.319 124.206 167.34C123.461 167.368 122.727 167.287 122.004 167.104C121.286 166.915 120.604 166.63 119.962 166.247C119.32 165.865 118.749 165.398 118.244 164.851C116.964 163.432 116.469 161.846 116.859 160.393C117.243 158.94 118.454 157.813 120.267 157.219C120.979 156.994 121.71 156.876 122.455 156.867C123.2 156.851 123.934 156.944 124.652 157.145C125.369 157.346 126.046 157.638 126.676 158.032C127.312 158.426 127.877 158.906 128.37 159.464L131.277 162.671C131.576 163.004 131.731 163.399 131.743 163.849C131.755 164.294 131.616 164.692 131.332 165.044L131.332 165.032ZM118.216 159.426C117.926 159.772 117.727 160.16 117.606 160.594C117.291 161.787 117.723 163.11 118.826 164.321C119.277 164.814 119.793 165.234 120.368 165.575C120.943 165.922 121.553 166.179 122.204 166.345C122.855 166.511 123.511 166.58 124.184 166.56C124.85 166.533 125.504 166.417 126.138 166.204L130.242 164.866C130.404 164.81 130.547 164.718 130.665 164.59C130.784 164.462 130.866 164.311 130.912 164.148C130.958 163.979 130.962 163.805 130.923 163.637C130.879 163.47 130.805 163.314 130.689 163.184L127.782 159.983C127.337 159.478 126.827 159.052 126.258 158.692C125.688 158.339 125.084 158.071 124.439 157.893C123.788 157.715 123.132 157.633 122.459 157.642C121.792 157.656 121.139 157.761 120.499 157.967C119.595 158.231 118.826 158.716 118.204 159.426L118.216 159.426Z" fill="#231F20"/>
<path d="M148.703 227.475L151.61 230.682C151.769 230.86 151.88 231.063 151.937 231.302C151.994 231.536 151.991 231.77 151.928 232.006C151.865 232.235 151.753 232.44 151.587 232.617C151.421 232.793 151.224 232.916 150.997 232.991L146.893 234.335C146.223 234.56 145.533 234.683 144.825 234.704C144.116 234.731 143.418 234.656 142.731 234.479C142.05 234.301 141.397 234.033 140.792 233.668C140.186 233.31 139.64 232.866 139.159 232.343C138.019 231.078 137.495 229.619 137.857 228.257C138.224 226.888 139.388 225.888 141.016 225.344C141.692 225.131 142.381 225.02 143.09 225.011C143.799 224.996 144.491 225.083 145.172 225.273C145.854 225.462 146.494 225.743 147.094 226.119C147.699 226.49 148.234 226.946 148.703 227.475Z" fill="black"/>
<path d="M151.95 232.787C151.725 233.066 151.445 233.256 151.104 233.368L147 234.713C146.294 234.944 145.569 235.08 144.824 235.101C144.079 235.129 143.345 235.048 142.622 234.865C141.899 234.676 141.216 234.39 140.58 234.008C139.938 233.626 139.368 233.158 138.862 232.612C137.582 231.192 137.087 229.607 137.471 228.154C137.861 226.701 139.072 225.574 140.885 224.98C141.597 224.754 142.329 224.637 143.074 224.627C143.818 224.612 144.553 224.704 145.27 224.905C145.988 225.107 146.664 225.398 147.294 225.793C147.93 226.193 148.495 226.667 148.989 227.225L151.896 230.432C152.195 230.765 152.35 231.159 152.362 231.61C152.373 232.054 152.234 232.459 151.95 232.805L151.95 232.787ZM138.828 227.181C138.544 227.527 138.345 227.92 138.225 228.354C137.909 229.542 138.341 230.864 139.438 232.076C139.895 232.569 140.411 232.989 140.986 233.336C141.561 233.677 142.171 233.933 142.822 234.099C143.467 234.265 144.129 234.341 144.796 234.314C145.468 234.288 146.122 234.171 146.756 233.959L150.854 232.62C151.022 232.564 151.165 232.472 151.284 232.345C151.402 232.217 151.484 232.072 151.53 231.903C151.576 231.734 151.574 231.566 151.536 231.392C151.497 231.224 151.417 231.075 151.302 230.944L148.401 227.737C147.956 227.232 147.445 226.806 146.876 226.453C146.307 226.094 145.697 225.831 145.051 225.653C144.406 225.469 143.75 225.388 143.077 225.402C142.405 225.411 141.751 225.521 141.111 225.722C140.213 225.986 139.45 226.476 138.828 227.181Z" fill="#231F20"/>
<path d="M159.053 194.459L161.96 197.666C162.119 197.844 162.229 198.053 162.286 198.287C162.343 198.52 162.34 198.755 162.277 198.99C162.214 199.225 162.103 199.425 161.937 199.601C161.771 199.777 161.568 199.9 161.341 199.975L157.236 201.313C156.566 201.538 155.877 201.667 155.168 201.694C154.466 201.715 153.768 201.64 153.081 201.463C152.393 201.291 151.747 201.017 151.142 200.653C150.53 200.294 149.99 199.85 149.508 199.328C148.369 198.069 147.845 196.603 148.206 195.235C148.573 193.872 149.738 192.872 151.365 192.328C152.041 192.115 152.731 192.004 153.44 191.989C154.149 191.98 154.841 192.068 155.522 192.257C156.203 192.447 156.844 192.727 157.443 193.104C158.043 193.474 158.584 193.93 159.053 194.459Z" fill="black"/>
<path d="M162.299 199.771C162.074 200.051 161.794 200.24 161.453 200.347L157.355 201.703C156.643 201.935 155.918 202.064 155.173 202.092C154.428 202.113 153.7 202.033 152.977 201.85C152.253 201.661 151.577 201.375 150.935 200.987C150.299 200.604 149.729 200.137 149.223 199.591C147.943 198.171 147.448 196.591 147.832 195.138C148.222 193.685 149.433 192.558 151.252 191.958C151.958 191.739 152.689 191.615 153.434 191.606C154.179 191.59 154.913 191.683 155.631 191.884C156.348 192.085 157.025 192.383 157.661 192.777C158.291 193.172 158.856 193.645 159.35 194.204L162.257 197.411C162.561 197.743 162.717 198.138 162.728 198.588C162.74 199.039 162.601 199.437 162.317 199.783L162.299 199.771ZM149.183 194.166C148.893 194.512 148.694 194.899 148.579 195.333C148.258 196.527 148.69 197.849 149.787 199.067C150.244 199.559 150.76 199.973 151.335 200.321C151.91 200.662 152.52 200.918 153.171 201.084C153.816 201.25 154.478 201.326 155.145 201.299C155.817 201.278 156.471 201.156 157.105 200.943L161.203 199.605C161.371 199.549 161.514 199.457 161.632 199.329C161.751 199.202 161.833 199.056 161.879 198.888C161.919 198.719 161.923 198.551 161.885 198.377C161.846 198.209 161.766 198.06 161.651 197.929L158.743 194.722C158.298 194.217 157.794 193.791 157.225 193.438C156.656 193.085 156.051 192.816 155.406 192.638C154.761 192.46 154.105 192.378 153.438 192.387C152.772 192.401 152.118 192.506 151.478 192.706C150.568 192.97 149.805 193.455 149.183 194.166Z" fill="#231F20"/>
<path d="M192.371 220.901L195.272 224.108C195.436 224.286 195.547 224.495 195.604 224.729C195.661 224.962 195.658 225.197 195.595 225.432C195.532 225.667 195.42 225.867 195.254 226.043C195.088 226.22 194.892 226.348 194.658 226.423L190.542 227.762C189.872 227.987 189.183 228.11 188.474 228.137C187.771 228.158 187.073 228.083 186.386 227.911C185.699 227.734 185.053 227.46 184.447 227.101C183.836 226.736 183.295 226.293 182.814 225.77C181.674 224.511 181.151 223.046 181.512 221.683C181.879 220.315 183.044 219.314 184.671 218.771C185.347 218.558 186.037 218.447 186.745 218.432C187.454 218.423 188.152 218.51 188.834 218.699C189.515 218.889 190.155 219.169 190.761 219.546C191.361 219.917 191.895 220.372 192.371 220.901Z" fill="black"/>
<path d="M195.612 226.212C195.387 226.492 195.107 226.682 194.772 226.794L190.667 228.132C189.961 228.37 189.236 228.499 188.491 228.527C187.741 228.554 187.007 228.474 186.289 228.285C185.566 228.102 184.883 227.816 184.242 227.434C183.606 227.051 183.029 226.584 182.523 226.032C181.243 224.612 180.749 223.032 181.138 221.579C181.522 220.127 182.734 218.999 184.552 218.405C185.265 218.18 185.99 218.062 186.735 218.047C187.48 218.037 188.214 218.13 188.931 218.325C189.649 218.526 190.326 218.824 190.962 219.218C191.592 219.613 192.156 220.092 192.65 220.651L195.557 223.852C195.856 224.191 196.011 224.579 196.023 225.03C196.035 225.48 195.902 225.878 195.618 226.224L195.612 226.212ZM182.496 220.607C182.212 220.953 182.007 221.346 181.892 221.78C181.577 222.968 182.008 224.29 183.105 225.508C183.562 226 184.072 226.42 184.648 226.762C185.223 227.109 185.839 227.359 186.484 227.531C187.135 227.697 187.797 227.767 188.463 227.74C189.13 227.719 189.783 227.603 190.424 227.39L194.522 226.046C194.689 225.99 194.826 225.898 194.951 225.77C195.069 225.643 195.146 225.497 195.192 225.329C195.238 225.16 195.241 224.991 195.203 224.824C195.159 224.65 195.085 224.501 194.969 224.37L192.062 221.163C191.617 220.664 191.107 220.232 190.544 219.879C189.974 219.525 189.364 219.257 188.719 219.079C188.074 218.901 187.412 218.813 186.745 218.828C186.072 218.843 185.419 218.947 184.778 219.147C183.874 219.411 183.118 219.902 182.496 220.607Z" fill="#231F20"/>
<path d="M199.594 372.845L203.531 371.082C203.752 370.983 203.985 370.938 204.226 370.959C204.467 370.98 204.684 371.049 204.89 371.185C205.09 371.314 205.248 371.487 205.365 371.695C205.482 371.91 205.539 372.138 205.536 372.378L205.543 376.704C205.546 377.413 205.453 378.105 205.258 378.792C205.062 379.474 204.776 380.114 204.399 380.714C204.016 381.308 203.56 381.842 203.032 382.312C202.497 382.775 201.907 383.161 201.262 383.458C199.709 384.151 198.165 384.201 196.978 383.435C195.796 382.663 195.201 381.228 195.203 379.522C195.206 378.813 195.312 378.121 195.519 377.445C195.727 376.764 196.025 376.129 196.414 375.535C196.803 374.941 197.271 374.419 197.812 373.961C198.353 373.504 198.949 373.129 199.594 372.845Z" fill="black"/>
<path d="M205.643 371.386C205.828 371.69 205.922 372.013 205.914 372.368L205.922 376.693C205.925 377.438 205.827 378.173 205.619 378.89C205.412 379.608 205.109 380.279 204.708 380.909C204.314 381.539 203.828 382.098 203.27 382.591C202.705 383.079 202.091 383.484 201.41 383.793C199.672 384.578 198.014 384.557 196.753 383.738C195.493 382.919 194.801 381.414 194.795 379.51C194.803 378.759 194.914 378.03 195.133 377.312C195.346 376.601 195.662 375.93 196.075 375.306C196.481 374.681 196.973 374.128 197.543 373.646C198.114 373.164 198.74 372.772 199.421 372.469L203.364 370.706C203.961 370.434 204.538 370.475 205.09 370.84C205.314 370.981 205.496 371.165 205.643 371.386ZM196.27 382.152C196.51 382.534 196.814 382.848 197.19 383.09C198.22 383.762 199.614 383.756 201.101 383.088C201.71 382.81 202.264 382.448 202.769 382.003C203.274 381.564 203.713 381.06 204.072 380.49C204.431 379.921 204.7 379.317 204.884 378.665C205.068 378.02 205.155 377.364 205.153 376.691L205.145 372.365C205.143 372.191 205.105 372.029 205.019 371.874C204.933 371.725 204.817 371.601 204.672 371.506C204.526 371.412 204.369 371.354 204.195 371.338C204.02 371.322 203.853 371.355 203.691 371.423L199.754 373.192C199.139 373.464 198.579 373.813 198.068 374.247C197.551 374.68 197.112 375.172 196.741 375.736C196.376 376.293 196.089 376.898 195.893 377.537C195.697 378.176 195.597 378.838 195.594 379.505C195.558 380.455 195.785 381.341 196.27 382.152Z" fill="#231F20"/>
<path d="M160.487 355.508L164.429 353.727C164.644 353.628 164.878 353.589 165.119 353.61C165.359 353.625 165.582 353.7 165.782 353.836C165.988 353.965 166.147 354.137 166.258 354.346C166.374 354.561 166.431 354.789 166.435 355.029L166.436 359.355C166.445 360.064 166.346 360.762 166.15 361.443C165.961 362.125 165.669 362.765 165.292 363.365C164.915 363.959 164.453 364.493 163.924 364.963C163.389 365.426 162.8 365.812 162.161 366.109C160.607 366.802 159.046 366.846 157.876 366.08C156.707 365.314 156.094 363.879 156.096 362.173C156.105 361.464 156.21 360.772 156.418 360.096C156.625 359.415 156.924 358.78 157.313 358.192C157.702 357.598 158.163 357.076 158.704 356.618C159.245 356.161 159.841 355.792 160.487 355.508Z" fill="black"/>
<path d="M166.536 354.055C166.726 354.353 166.821 354.682 166.825 355.037L166.827 359.362C166.83 360.107 166.731 360.842 166.524 361.559C166.323 362.277 166.019 362.954 165.619 363.584C165.219 364.214 164.739 364.773 164.174 365.26C163.616 365.754 162.996 366.153 162.315 366.468C160.577 367.247 158.919 367.226 157.658 366.413C156.398 365.594 155.706 364.089 155.705 362.179C155.708 361.434 155.825 360.699 156.038 359.987C156.257 359.27 156.567 358.599 156.979 357.975C157.392 357.351 157.878 356.798 158.448 356.316C159.019 355.834 159.645 355.441 160.326 355.144L164.268 353.375C164.866 353.103 165.443 353.15 165.995 353.509C166.213 353.651 166.395 353.834 166.536 354.055ZM157.163 364.822C157.403 365.203 157.713 365.518 158.089 365.759C159.119 366.431 160.506 366.431 161.994 365.757C162.603 365.479 163.157 365.117 163.662 364.672C164.167 364.233 164.599 363.729 164.959 363.16C165.318 362.59 165.593 361.986 165.776 361.341C165.96 360.695 166.048 360.033 166.039 359.361L166.038 355.041C166.036 354.866 165.992 354.699 165.906 354.55C165.826 354.395 165.71 354.27 165.564 354.176C165.413 354.081 165.256 354.029 165.082 354.014C164.907 353.998 164.745 354.024 164.584 354.092L160.647 355.867C160.032 356.133 159.472 356.483 158.961 356.916C158.449 357.349 158.005 357.847 157.64 358.405C157.269 358.968 156.988 359.567 156.792 360.212C156.596 360.852 156.49 361.508 156.487 362.181C156.457 363.124 156.678 364.011 157.163 364.822Z" fill="#231F20"/>
<path d="M131.08 324.433L135.017 322.67C135.238 322.571 135.466 322.526 135.707 322.547C135.947 322.568 136.171 322.643 136.37 322.773C136.576 322.902 136.735 323.074 136.852 323.289C136.963 323.498 137.026 323.725 137.023 323.966L137.024 328.292C137.033 329.001 136.94 329.693 136.744 330.38C136.549 331.062 136.263 331.702 135.88 332.302C135.503 332.895 135.047 333.43 134.512 333.9C133.978 334.363 133.394 334.749 132.749 335.046C131.195 335.739 129.646 335.788 128.465 335.023C127.277 334.251 126.688 332.816 126.684 331.11C126.693 330.401 126.798 329.709 127.006 329.033C127.213 328.351 127.512 327.717 127.901 327.123C128.29 326.529 128.751 326.007 129.292 325.549C129.833 325.091 130.429 324.717 131.08 324.433Z" fill="black"/>
<path d="M137.124 322.985C137.314 323.283 137.414 323.612 137.413 323.966L137.414 328.292C137.424 329.037 137.325 329.772 137.118 330.489C136.911 331.207 136.607 331.878 136.207 332.508C135.806 333.138 135.327 333.696 134.768 334.19C134.204 334.678 133.584 335.083 132.909 335.392C131.165 336.177 129.512 336.156 128.252 335.343C126.992 334.524 126.294 333.019 126.293 331.103C126.302 330.357 126.412 329.629 126.632 328.911C126.845 328.194 127.161 327.529 127.567 326.905C127.98 326.28 128.471 325.727 129.042 325.245C129.606 324.758 130.232 324.371 130.919 324.068L134.856 322.299C135.268 322.119 135.683 322.09 136.117 322.217C136.545 322.349 136.879 322.597 137.124 322.979L137.124 322.985ZM127.751 333.752C127.99 334.133 128.301 334.447 128.676 334.689C129.706 335.361 131.094 335.355 132.582 334.687C133.191 334.409 133.751 334.047 134.256 333.602C134.761 333.157 135.187 332.653 135.546 332.089C135.906 331.52 136.18 330.916 136.364 330.264C136.548 329.619 136.636 328.963 136.633 328.29L136.626 323.965C136.624 323.79 136.58 323.629 136.499 323.474C136.413 323.324 136.298 323.2 136.152 323.105C136.007 323.011 135.844 322.959 135.67 322.943C135.501 322.928 135.333 322.954 135.172 323.022L131.229 324.791C130.62 325.063 130.053 325.413 129.542 325.846C129.031 326.279 128.593 326.777 128.222 327.335C127.85 327.892 127.57 328.497 127.373 329.136C127.177 329.781 127.078 330.438 127.068 331.111C127.038 332.054 127.266 332.935 127.751 333.752Z" fill="#231F20"/>
<path d="M201.766 325.719L205.702 323.95C205.923 323.852 206.151 323.813 206.392 323.833C206.632 323.848 206.855 323.924 207.056 324.059C207.261 324.189 207.42 324.361 207.531 324.57C207.648 324.785 207.705 325.012 207.708 325.253L207.709 329.578C207.718 330.287 207.625 330.979 207.429 331.661C207.234 332.348 206.948 332.989 206.565 333.583C206.188 334.182 205.732 334.717 205.197 335.186C204.663 335.65 204.073 336.03 203.434 336.326C201.874 337.025 200.331 337.075 199.149 336.303C197.962 335.537 197.373 334.097 197.369 332.397C197.372 331.688 197.483 330.995 197.685 330.314C197.892 329.638 198.191 329.004 198.58 328.41C198.975 327.816 199.437 327.293 199.977 326.836C200.518 326.378 201.114 326.004 201.766 325.719Z" fill="black"/>
<path d="M207.809 324.272C207.999 324.569 208.088 324.899 208.08 325.253L208.088 329.573C208.091 330.324 207.992 331.052 207.785 331.77C207.584 332.488 207.28 333.164 206.88 333.794C206.479 334.424 206 334.983 205.436 335.477C204.877 335.965 204.257 336.369 203.576 336.679C201.838 337.458 200.18 337.443 198.919 336.624C197.659 335.811 196.967 334.3 196.966 332.389C196.975 331.644 197.086 330.91 197.305 330.198C197.524 329.48 197.84 328.809 198.252 328.191C198.665 327.567 199.157 327.014 199.727 326.532C200.298 326.05 200.93 325.663 201.611 325.366L205.554 323.591C205.96 323.412 206.38 323.383 206.808 323.515C207.242 323.642 207.576 323.896 207.821 324.271L207.809 324.272ZM198.436 335.026C198.675 335.408 198.986 335.716 199.361 335.964C200.391 336.635 201.779 336.63 203.267 335.962C203.876 335.683 204.43 335.322 204.935 334.877C205.44 334.438 205.872 333.927 206.232 333.364C206.591 332.795 206.859 332.19 207.043 331.545C207.227 330.9 207.321 330.238 207.312 329.565L207.305 325.239C207.303 325.065 207.259 324.903 207.179 324.754C207.092 324.599 206.977 324.474 206.831 324.38C206.686 324.286 206.523 324.234 206.349 324.218C206.18 324.202 206.012 324.228 205.851 324.303L201.914 326.065C201.299 326.338 200.739 326.687 200.227 327.12C199.71 327.554 199.272 328.052 198.901 328.609C198.535 329.167 198.249 329.771 198.053 330.411C197.857 331.056 197.757 331.712 197.747 332.385C197.724 333.329 197.951 334.215 198.436 335.026Z" fill="#231F20"/>
<path d="M173.624 305.652L177.561 303.883C177.782 303.784 178.016 303.745 178.257 303.766C178.497 303.781 178.714 303.856 178.92 303.992C179.12 304.121 179.279 304.294 179.396 304.502C179.506 304.717 179.569 304.945 179.567 305.185L179.574 309.511C179.577 310.22 179.484 310.912 179.288 311.593C179.093 312.281 178.807 312.921 178.424 313.515C178.047 314.115 177.591 314.649 177.056 315.119C176.522 315.582 175.938 315.962 175.293 316.259C173.739 316.958 172.19 317.002 171.008 316.236C169.827 315.47 169.232 314.03 169.228 312.329C169.237 311.62 169.342 310.928 169.55 310.246C169.757 309.571 170.056 308.93 170.445 308.342C170.833 307.749 171.301 307.226 171.842 306.768C172.383 306.311 172.979 305.937 173.624 305.652Z" fill="black"/>
<path d="M179.674 304.205C179.864 304.503 179.959 304.832 179.957 305.187L179.965 309.506C179.968 310.257 179.869 310.986 179.662 311.703C179.455 312.421 179.151 313.098 178.751 313.728C178.351 314.358 177.871 314.917 177.313 315.41C176.748 315.898 176.128 316.303 175.453 316.612C173.709 317.391 172.057 317.376 170.796 316.557C169.536 315.738 168.844 314.233 168.838 312.323C168.846 311.578 168.957 310.843 169.176 310.131C169.389 309.414 169.705 308.743 170.117 308.119C170.524 307.494 171.016 306.941 171.586 306.459C172.157 305.977 172.783 305.585 173.464 305.288L177.4 303.519C178.004 303.253 178.581 303.294 179.133 303.653C179.351 303.794 179.533 303.978 179.674 304.205ZM170.295 314.972C170.541 315.347 170.845 315.661 171.221 315.909C172.251 316.575 173.639 316.575 175.126 315.901C175.735 315.623 176.295 315.261 176.794 314.822C177.299 314.377 177.731 313.873 178.091 313.304C178.45 312.74 178.725 312.13 178.909 311.485C179.093 310.839 179.18 310.183 179.178 309.51L179.17 305.185C179.168 305.01 179.124 304.849 179.038 304.694C178.958 304.544 178.842 304.42 178.691 304.326C178.545 304.231 178.388 304.173 178.214 304.157C178.039 304.142 177.871 304.174 177.716 304.242L173.773 306.011C173.164 306.283 172.598 306.633 172.087 307.066C171.575 307.493 171.131 307.991 170.766 308.555C170.395 309.112 170.114 309.717 169.918 310.356C169.722 310.996 169.616 311.658 169.613 312.325C169.583 313.274 169.81 314.155 170.295 314.972Z" fill="#231F20"/>
<path d="M209.017 282.079L212.954 280.31C213.175 280.211 213.403 280.172 213.643 280.187C213.884 280.208 214.107 280.283 214.307 280.413C214.513 280.549 214.671 280.721 214.788 280.93C214.899 281.144 214.962 281.372 214.959 281.612L214.966 285.932C214.97 286.647 214.876 287.339 214.681 288.021C214.485 288.702 214.199 289.343 213.816 289.942C213.439 290.542 212.984 291.076 212.449 291.54C211.92 292.009 211.33 292.389 210.685 292.686C209.132 293.385 207.57 293.429 206.401 292.663C205.226 291.891 204.624 290.457 204.621 288.756C204.629 288.047 204.735 287.349 204.942 286.673C205.15 285.992 205.448 285.357 205.837 284.769C206.226 284.176 206.694 283.653 207.235 283.195C207.776 282.738 208.366 282.364 209.017 282.079Z" fill="black"/>
<path d="M215.06 280.632C215.256 280.929 215.351 281.253 215.349 281.607L215.357 285.933C215.36 286.684 215.261 287.412 215.054 288.13C214.847 288.847 214.544 289.524 214.143 290.154C213.743 290.784 213.263 291.343 212.705 291.831C212.14 292.325 211.52 292.723 210.845 293.038C209.101 293.818 207.449 293.797 206.188 292.984C204.928 292.165 204.236 290.66 204.23 288.749C204.238 288.004 204.349 287.27 204.568 286.558C204.787 285.84 205.103 285.175 205.51 284.551C205.922 283.927 206.414 283.374 206.984 282.892C207.555 282.41 208.181 282.017 208.868 281.72L212.805 279.951C213.402 279.685 213.979 279.726 214.531 280.086C214.749 280.227 214.925 280.411 215.06 280.632ZM205.687 291.392C205.927 291.774 206.237 292.088 206.613 292.33C207.643 293.001 209.031 293.002 210.518 292.328C211.127 292.049 211.681 291.688 212.186 291.243C212.691 290.804 213.124 290.299 213.483 289.73C213.842 289.167 214.117 288.556 214.301 287.911C214.485 287.266 214.572 286.604 214.564 285.937L214.562 281.611C214.56 281.437 214.516 281.269 214.43 281.12C214.35 280.965 214.234 280.84 214.088 280.746C213.937 280.652 213.78 280.6 213.606 280.584C213.431 280.568 213.263 280.594 213.102 280.669L209.172 282.443C208.562 282.716 207.996 283.065 207.485 283.498C206.974 283.932 206.529 284.424 206.164 284.987C205.793 285.545 205.512 286.149 205.316 286.789C205.12 287.434 205.02 288.09 205.011 288.757C204.981 289.707 205.208 290.581 205.687 291.392Z" fill="#231F20"/>
<path d="M247.377 462.624C243.735 462.581 233.207 463.07 229.563 462.853C225.925 462.629 222.298 462.321 218.67 461.923C215.048 461.519 211.437 461.036 207.836 460.458C204.236 459.879 200.653 459.216 197.086 458.463C193.52 457.709 189.976 456.866 186.449 455.937C182.923 455.009 179.425 453.997 175.944 452.894C172.469 451.797 169.024 450.609 165.607 449.337C162.19 448.071 158.802 446.715 155.455 445.28C152.102 443.845 148.784 442.325 145.507 440.721C142.23 439.123 138.994 437.44 135.805 435.684C132.61 433.923 129.457 432.089 126.356 430.17C123.249 428.257 120.195 426.265 117.189 424.201C114.182 422.137 111.223 420 108.323 417.79C105.422 415.58 102.575 413.297 99.7874 410.948C96.9934 408.592 94.2648 406.176 91.5954 403.693C88.9199 401.204 86.3156 398.654 83.7647 396.043C81.2198 393.426 78.7402 390.754 76.3258 388.015C73.9115 385.282 71.5626 382.489 69.2849 379.634C66.9954 376.791 64.7773 373.894 62.6306 370.941C60.4838 367.989 58.4146 364.987 56.4167 361.931C54.4129 358.88 52.4926 355.774 50.6437 352.626C48.7949 349.477 47.0296 346.285 45.3359 343.051C43.6482 339.816 42.038 336.538 40.5115 333.223C38.979 329.908 37.5301 326.556 36.1648 323.167C34.7996 319.784 33.5181 316.364 32.3203 312.912C31.1225 309.461 30.0144 305.984 28.9842 302.483C27.9599 298.975 27.0195 295.449 26.1628 291.897C25.3122 288.345 24.5454 284.774 23.8626 281.19C23.1857 277.599 22.5927 273.996 22.0958 270.38C21.5928 266.763 21.1797 263.133 20.8567 259.497C20.5276 255.854 20.2947 252.21 20.1518 248.565C20.0028 244.914 19.95 241.261 19.9813 237.608C20.0185 233.955 20.14 230.306 20.3516 226.662C20.5632 223.013 20.865 219.374 21.2571 215.746C21.6491 212.112 22.1314 208.495 22.698 204.883C23.2706 201.276 23.9275 197.687 24.6687 194.109C25.416 190.536 26.2476 186.981 27.1696 183.448C28.0855 179.91 29.092 176.4 30.1828 172.913C31.2737 169.433 32.4551 165.975 33.7149 162.546C34.9748 159.123 36.3192 155.729 37.748 152.365C39.177 149.006 40.6844 145.682 42.2766 142.399C43.8626 139.11 45.5333 135.862 47.2827 132.662C49.0381 129.455 50.8661 126.295 52.7668 123.183C54.6736 120.07 56.653 117.004 58.7112 113.986C60.7634 110.974 62.8943 108.008 65.092 105.096C67.2957 102.184 69.5662 99.3251 71.9036 96.5253C74.2469 93.7255 76.6511 90.985 79.1281 88.3036C81.6052 85.6223 84.1431 83.0062 86.7479 80.4494C89.3528 77.8926 92.0185 75.401 94.7452 72.9808C97.4658 70.5547 100.253 68.1998 103.096 65.9103C105.933 63.6209 108.83 61.4027 111.783 59.262C114.729 57.1154 117.731 55.0461 120.787 53.0483C123.838 51.0505 126.938 49.1302 130.08 47.2814C133.229 45.4386 136.421 43.6734 139.65 41.9857C142.884 40.298 146.156 38.6879 149.465 37.1615C152.78 35.635 156.126 34.1921 159.509 32.833C162.892 31.4678 166.307 30.1923 169.752 29.0006C173.198 27.8089 176.668 26.7009 180.17 25.6767C183.666 24.6525 187.192 23.7181 190.732 22.8676C194.278 22.0231 197.843 21.2564 201.428 20.5856C205.012 19.9148 208.609 19.3279 212.22 18.831C215.83 18.3341 219.454 17.9272 223.085 17.6102C226.716 17.2933 230.354 17.0664 233.993 16.9236C237.638 16.7868 241.279 16.7401 244.926 16.7775C248.574 16.8208 252.21 16.9484 255.854 17.1721C259.492 17.3898 263.119 17.7038 266.747 18.1019C270.369 18.5 273.98 18.9885 277.58 19.5611C281.181 20.1398 284.764 20.8089 288.33 21.5622C291.897 22.3156 295.441 23.1533 298.967 24.0814C302.494 25.0095 305.998 26.0221 309.473 27.1251C312.947 28.2281 316.393 29.4096 319.81 30.6815C323.227 31.9535 326.615 33.304 329.968 34.745C333.315 36.1801 336.633 37.6997 339.91 39.2979C343.187 40.8961 346.423 42.579 349.618 44.3405C352.812 46.096 355.96 47.9362 359.061 49.8491C362.168 51.7619 369.713 57.4476 372.719 59.5119" stroke="black" stroke-width="4.74517" stroke-miterlimit="10"/>
<path d="M242.705 240.01L73.9135 297.366L52.9402 304.496L31.9669 311.62" fill="black"/>
<path d="M242.705 240.009L73.914 297.365L52.9407 304.495L31.9673 311.619" stroke="black" stroke-width="4.74517" stroke-miterlimit="10"/>
<path d="M242.706 240.01L245.564 462.936" stroke="black" stroke-width="4.74517" stroke-miterlimit="10"/>
<path d="M242.706 240.01L412.889 293.013L434.05 299.603L455.199 306.187" fill="black"/>
<path d="M242.706 240.01L345.613 94.1937L358.401 76.0713L371.182 57.9549" fill="black"/>
<path d="M242.706 240.009L345.613 94.1926L358.4 76.0702L371.182 57.954" stroke="black" stroke-width="4.74517" stroke-miterlimit="10"/>
<path d="M242.706 240.01L136.124 96.9157L122.882 79.133L109.635 61.3564" fill="black"/>
<path d="M242.706 240.01L136.125 96.9156L122.883 79.133L109.636 61.3564" stroke="black" stroke-width="4.74517" stroke-miterlimit="10"/>
</svg>
