<svg width="758" height="933" viewBox="0 0 758 933" fill="none" xmlns="http://www.w3.org/2000/svg">
<path d="M379 5C483.403 5 577.769 14.4944 645.899 29.7744C680.005 37.4235 707.264 46.464 725.874 56.332C735.183 61.2683 742.087 66.286 746.606 71.2393C751.1 76.1647 753 80.7464 753 85C753 89.2536 751.1 93.8353 746.606 98.7607C742.087 103.714 735.183 108.732 725.874 113.668C707.264 123.536 680.005 132.577 645.899 140.226C577.769 155.506 483.403 165 379 165C274.597 165 180.231 155.506 112.101 140.226C77.9948 132.577 50.7363 123.536 32.126 113.668C22.8165 108.732 15.913 103.714 11.3936 98.7607C6.89958 93.8353 5 89.2536 5 85C5 80.7464 6.89958 76.1647 11.3936 71.2393C15.913 66.286 22.8165 61.2683 32.126 56.332C50.7363 46.464 77.9948 37.4235 112.101 29.7744C180.231 14.4944 274.597 5 379 5Z" stroke="black" stroke-width="10"/>
<ellipse cx="384" cy="466.5" rx="332" ry="74.5" fill="#63A9D5"/>
<path d="M388.5 807.5C466.935 807.5 537.867 814.654 589.123 826.185C614.771 831.954 635.357 838.79 649.469 846.296C656.527 850.05 661.846 853.908 665.371 857.784C668.884 861.646 670.5 865.386 670.5 869C670.5 872.614 668.884 876.354 665.371 880.216C661.846 884.092 656.527 887.95 649.469 891.704C635.357 899.21 614.771 906.046 589.123 911.815C537.867 923.346 466.935 930.5 388.5 930.5C310.065 930.5 239.133 923.346 187.877 911.815C162.229 906.046 141.643 899.21 127.531 891.704C120.473 887.95 115.154 884.092 111.629 880.216C108.116 876.354 106.5 872.614 106.5 869C106.5 865.386 108.116 861.646 111.629 857.784C115.154 853.908 120.473 850.05 127.531 846.296C141.643 838.79 162.229 831.954 187.877 826.185C239.133 814.654 310.065 807.5 388.5 807.5Z" fill="#63A9D5" stroke="black" stroke-width="5"/>
<line x1="2.47829" y1="84.6712" x2="106.478" y2="868.671" stroke="black" stroke-width="5"/>
<line x1="755.485" y1="84.2691" x2="670.485" y2="869.269" stroke="black" stroke-width="5"/>
<path d="M108 864L56 466.5H712L668.5 864H108Z" fill="#63A9D5"/>
<path d="M384 394.5C475.552 394.5 558.359 402.829 618.212 416.26C648.158 422.98 672.222 430.948 688.738 439.71C696.998 444.092 703.249 448.61 707.407 453.17C711.552 457.716 713.5 462.164 713.5 466.5C713.5 470.836 711.552 475.284 707.407 479.83C703.249 484.39 696.998 488.908 688.738 493.29C672.222 502.052 648.158 510.02 618.212 516.74C558.359 530.171 475.552 538.5 384 538.5C292.448 538.5 209.641 530.171 149.788 516.74C119.842 510.02 95.7777 502.052 79.2617 493.29C71.0018 488.908 64.7508 484.39 60.5928 479.83C56.4475 475.284 54.5 470.836 54.5 466.5C54.5 462.164 56.4475 457.716 60.5928 453.17C64.7508 448.61 71.0018 444.092 79.2617 439.71C95.7777 430.948 119.842 422.98 149.788 416.26C209.641 402.829 292.448 394.5 384 394.5Z" fill="#63A9D5" stroke="black" stroke-width="5"/>
<path d="M384 394.5C475.552 394.5 558.359 402.829 618.212 416.26C648.158 422.98 672.222 430.948 688.738 439.71C696.998 444.092 703.249 448.61 707.407 453.17C711.552 457.716 713.5 462.164 713.5 466.5C713.5 470.836 711.552 475.284 707.407 479.83C703.249 484.39 696.998 488.908 688.738 493.29C672.222 502.052 648.158 510.02 618.212 516.74C558.359 530.171 475.552 538.5 384 538.5C292.448 538.5 209.641 530.171 149.788 516.74C119.842 510.02 95.7777 502.052 79.2617 493.29C71.0018 488.908 64.7508 484.39 60.5928 479.83C56.4475 475.284 54.5 470.836 54.5 466.5C54.5 462.164 56.4475 457.716 60.5928 453.17C64.7508 448.61 71.0018 444.092 79.2617 439.71C95.7777 430.948 119.842 422.98 149.788 416.26C209.641 402.829 292.448 394.5 384 394.5Z" fill="#63A9D5" stroke="black" stroke-width="5"/>
</svg>
