<svg width="461" height="173" viewBox="0 0 461 173" fill="none" xmlns="http://www.w3.org/2000/svg">
<mask id="mask0_131_276" style="mask-type:luminance" maskUnits="userSpaceOnUse" x="1" y="0" width="460" height="148">
<path d="M1.00635 0H460.803V147.422H1.00635V0Z" fill="white"/>
</mask>
<g mask="url(#mask0_131_276)">
<path d="M454.23 127.196C454.118 127.703 454.065 128.224 454.065 128.732C454.065 131.29 455.45 133.716 457.777 134.982C460.645 136.524 460.995 140.48 458.469 142.524L454.955 145.352C453.393 146.618 451.435 147.291 449.404 147.277L417.858 146.948L411.159 146.869L401.263 146.77L387.959 146.618L380.641 146.539L374.385 146.48L367.066 146.401L353.736 146.262L343.847 146.15L337.155 146.084L110.764 143.678L104.191 143.599L102.688 143.585C99.9911 143.566 97.3078 143.526 94.6113 143.46C93.1741 143.434 91.7368 143.407 90.293 143.361C87.6888 143.308 85.0649 143.249 82.4607 143.144C80.8719 143.104 79.2764 143.058 77.6875 142.979C77.4436 142.979 77.1931 142.979 76.9359 142.952C71.9781 142.774 67.0005 142.55 62.0362 142.28C61.8581 142.267 61.6801 142.267 61.5021 142.247C59.9133 142.168 58.3244 142.076 56.7355 141.99C53.7556 141.812 50.7954 141.621 47.8286 141.41C46.7869 141.344 45.7387 141.271 44.697 141.179C41.5193 140.961 38.3218 140.724 35.144 140.454C33.5156 140.329 31.8871 140.19 30.2587 140.052L28.5907 139.9L24.3911 139.531C11.4758 139.531 1.00635 129.101 1.00635 116.232V106.507C1.00635 105.215 1.08546 103.936 1.25028 102.67C1.68541 99.1827 2.72708 95.794 4.30276 92.6426L9.37924 82.5028C10.9945 79.2921 11.8318 75.7452 11.8318 72.1455V52.1297C11.8318 51.2133 11.99 50.3232 12.2801 49.4926C12.7284 48.1872 13.5129 46.9939 14.5678 46.0577L42.851 20.8006C42.917 20.7412 42.9565 20.6489 42.9565 20.5632C42.9565 20.5237 42.9433 20.4709 42.9301 20.438C42.495 19.4622 42.2774 18.4337 42.2774 17.4053C42.2774 16.001 42.673 14.6033 43.4642 13.3902C44.3014 12.0717 45.653 11.1684 47.1891 10.9047C64.9897 7.74677 139.238 -1.27881 187.241 0.151833C237.92 1.66159 254.356 6.6194 254.356 6.6194C292.357 16.8844 331.445 42.5437 343.266 50.6924C345.64 52.3407 348.415 53.3428 351.316 53.5999C388.137 56.7908 412.946 63.3441 429.534 70.227C444.69 76.5034 452.984 83.0566 457.349 87.5859C457.415 87.6452 457.474 87.7244 457.527 87.7837C460.296 90.7768 461.377 94.9633 460.5 98.9519L458.825 106.521L454.23 127.196Z" fill="#FFC533"/>
</g>
<mask id="mask1_131_276" style="mask-type:luminance" maskUnits="userSpaceOnUse" x="0" y="86" width="461" height="63">
<path d="M0.531738 86.1353H460.724V148.583H0.531738V86.1353Z" fill="white"/>
</mask>
<g mask="url(#mask1_131_276)">
<path d="M449.464 147.277C449.444 147.277 449.424 147.277 449.404 147.277L417.858 146.948C418.576 143.888 418.959 140.698 418.959 137.414C418.959 114.649 400.453 96.2025 377.602 96.2025C354.764 96.2025 336.238 114.649 336.238 137.414C336.238 140.394 336.555 143.295 337.155 146.084L110.764 143.677C111.074 141.634 111.238 139.544 111.238 137.414C111.238 114.649 92.7258 96.2025 69.875 96.2025C47.0375 96.2025 28.5116 114.649 28.5116 137.414C28.5116 138.252 28.538 139.076 28.5907 139.9L24.3911 139.531C11.4758 139.531 1.00635 129.101 1.00635 116.232V106.507C1.00635 105.215 1.08546 103.936 1.25028 102.67H25.8349C28.9072 102.67 31.8871 101.536 34.1287 99.433C39.1854 94.706 50.9932 86.4518 71.8858 86.4518C92.0137 86.4518 103.063 95.0224 108.008 100.376C110.414 102.987 113.77 104.529 117.324 104.529C117.363 104.529 117.396 104.529 117.429 104.529L331.597 102.723C335.342 102.69 338.974 101.365 341.803 98.9122C347.347 94.1258 359.696 86.4518 382.039 86.4518C396.754 86.4518 407.124 95.0949 412.517 101.035C415.649 104.49 420.06 106.52 424.734 106.52H458.825L454.23 127.195C454.118 127.703 454.065 128.224 454.065 128.732C454.065 131.29 455.45 133.716 457.777 134.982C459.353 135.832 460.164 137.401 460.164 138.99C460.164 140.289 459.61 141.601 458.469 142.524L454.955 145.352C453.406 146.605 451.468 147.277 449.464 147.277Z" fill="#F6A916"/>
</g>
<mask id="mask2_131_276" style="mask-type:luminance" maskUnits="userSpaceOnUse" x="336" y="95" width="84" height="78">
<path d="M336.239 95.9521H419.058V172.145H336.239V95.9521Z" fill="white"/>
</mask>
<g mask="url(#mask2_131_276)">
<path d="M418.959 137.414C418.959 140.698 418.577 143.888 417.858 146.948L411.16 146.868C407.026 161.458 393.57 172.145 377.602 172.145C361.377 172.145 347.743 161.096 343.847 146.15L337.155 146.084C336.555 143.295 336.239 140.394 336.239 137.414C336.239 114.649 354.765 96.2026 377.602 96.2026C400.453 96.2026 418.959 114.649 418.959 137.414Z" fill="black"/>
</g>
<mask id="mask3_131_276" style="mask-type:luminance" maskUnits="userSpaceOnUse" x="342" y="102" width="71" height="71">
<path d="M342.693 102.664H412.604V172.145H342.693V102.664Z" fill="white"/>
</mask>
<g mask="url(#mask3_131_276)">
<path d="M412.472 137.414C412.472 140.684 412.017 143.869 411.16 146.868C407.026 161.458 393.57 172.145 377.603 172.145C361.378 172.145 347.744 161.096 343.847 146.15C343.122 143.348 342.74 140.434 342.74 137.414C342.74 118.223 358.352 102.67 377.603 102.67C396.867 102.67 412.472 118.223 412.472 137.414Z" fill="#333333"/>
</g>
<path d="M403.064 137.414C403.064 151.424 391.665 162.784 377.602 162.784C363.54 162.784 352.141 151.424 352.141 137.414C352.141 123.398 363.54 112.045 377.602 112.045C391.665 112.045 403.064 123.398 403.064 137.414Z" fill="#DFDFDF"/>
<path d="M391.427 137.414C391.427 145.049 385.217 151.24 377.556 151.24C369.889 151.24 363.678 145.049 363.678 137.414C363.678 129.78 369.889 123.589 377.556 123.589C385.217 123.589 391.427 129.78 391.427 137.414Z" fill="#929292"/>
<path d="M363.73 119.904C363.73 119.904 366.341 115.368 374.028 115.368L375.439 131.336L363.73 119.904Z" fill="#333333"/>
<path d="M379.6 115.922C379.6 115.922 384.669 114.564 390.102 119.976L379.771 132.259L379.6 115.922Z" fill="#333333"/>
<path d="M394.255 124.018C394.255 124.018 398.626 126.912 398.125 134.553L382.039 134.922L394.255 124.018Z" fill="#333333"/>
<path d="M355.714 135.549C355.714 135.549 354.231 130.538 359.538 125L372.104 135.008L355.714 135.549Z" fill="#333333"/>
<path d="M389.957 155.611C389.957 155.611 387.346 160.146 379.659 160.146L378.248 144.179L389.957 155.611Z" fill="#333333"/>
<path d="M374.081 159.593C374.081 159.593 369.018 160.951 363.585 155.538L373.916 143.256L374.081 159.593Z" fill="#333333"/>
<path d="M359.432 151.497C359.432 151.497 355.061 148.602 355.562 140.961L371.648 140.599L359.432 151.497Z" fill="#333333"/>
<path d="M397.974 139.966C397.974 139.966 399.457 144.976 394.15 150.521L381.584 140.506L397.974 139.966Z" fill="#333333"/>
<path d="M377.556 147.033C376.283 147.033 375.064 146.783 373.949 146.334L373.916 143.256L372.136 145.372C371.049 144.64 370.126 143.691 369.414 142.583L371.649 140.599L368.471 140.671C368.102 139.649 367.904 138.555 367.904 137.414C367.904 136.63 367.996 135.865 368.174 135.14L372.103 135.008L369.163 132.661C370.053 131.092 371.385 129.8 372.98 128.943L375.439 131.336L375.149 128.092C375.921 127.901 376.725 127.795 377.556 127.795C378.301 127.795 379.026 127.881 379.725 128.039L379.771 132.259L382.421 129.107C383.621 129.806 384.65 130.749 385.447 131.876L382.039 134.922L386.852 134.81C387.082 135.641 387.208 136.511 387.208 137.414C387.208 138.43 387.049 139.412 386.753 140.335L381.584 140.506L385.151 143.348C384.003 144.805 382.448 145.919 380.654 146.526L378.248 144.179L378.498 146.987C378.189 147.014 377.872 147.033 377.556 147.033Z" fill="#9B9B9B"/>
<path d="M375.44 131.336L372.98 128.943C373.66 128.573 374.391 128.29 375.15 128.092L375.44 131.336Z" fill="#5B5B5B"/>
<path d="M379.771 132.259L379.725 128.039C380.687 128.257 381.597 128.62 382.421 129.107L379.771 132.259Z" fill="#5B5B5B"/>
<path d="M382.039 134.922L385.447 131.876C386.073 132.76 386.548 133.749 386.851 134.81L382.039 134.922Z" fill="#5B5B5B"/>
<path d="M368.174 135.14C368.385 134.256 368.721 133.426 369.163 132.661L372.103 135.008L368.174 135.14Z" fill="#5B5B5B"/>
<path d="M378.499 146.987L378.248 144.179L380.654 146.526C379.969 146.756 379.244 146.915 378.499 146.987Z" fill="#5B5B5B"/>
<path d="M373.95 146.334C373.31 146.077 372.704 145.754 372.137 145.372L373.917 143.256L373.95 146.334Z" fill="#5B5B5B"/>
<path d="M369.413 142.583C369.031 141.99 368.715 141.344 368.471 140.671L371.648 140.599L369.413 142.583Z" fill="#5B5B5B"/>
<path d="M385.151 143.348L381.584 140.506L386.753 140.335C386.403 141.443 385.85 142.458 385.151 143.348Z" fill="#5B5B5B"/>
<path d="M380.088 137.428C380.088 138.819 378.954 139.946 377.556 139.946C376.158 139.946 375.024 138.819 375.024 137.428C375.024 136.036 376.158 134.903 377.556 134.903C378.954 134.903 380.088 136.036 380.088 137.428Z" fill="#333333"/>
<path d="M376.56 131.27C376.56 130.716 377.002 130.274 377.556 130.274C378.103 130.274 378.551 130.716 378.551 131.27C378.551 131.817 378.103 132.259 377.556 132.259C377.002 132.259 376.56 131.817 376.56 131.27Z" fill="#333333"/>
<path d="M376.56 144.179C376.56 143.631 377.002 143.183 377.556 143.183C378.103 143.183 378.551 143.631 378.551 144.179C378.551 144.726 378.103 145.174 377.556 145.174C377.002 145.174 376.56 144.726 376.56 144.179Z" fill="#333333"/>
<path d="M384.082 138.423C383.535 138.423 383.087 137.975 383.087 137.427C383.087 136.88 383.535 136.432 384.082 136.432C384.63 136.432 385.078 136.88 385.078 137.427C385.078 137.975 384.63 138.423 384.082 138.423Z" fill="#333333"/>
<path d="M370.58 138.423C370.026 138.423 369.578 137.975 369.578 137.427C369.578 136.88 370.026 136.432 370.58 136.432C371.134 136.432 371.576 136.88 371.576 137.427C371.576 137.975 371.134 138.423 370.58 138.423Z" fill="#333333"/>
<mask id="mask4_131_276" style="mask-type:luminance" maskUnits="userSpaceOnUse" x="28" y="95" width="84" height="78">
<path d="M28.2412 95.9521H111.344V172.145H28.2412V95.9521Z" fill="white"/>
</mask>
<g mask="url(#mask4_131_276)">
<path d="M111.238 137.414C111.238 139.544 111.073 141.634 110.763 143.678L104.19 143.598C103.999 144.699 103.742 145.807 103.439 146.868C99.305 161.458 85.8425 172.145 69.8746 172.145C53.6563 172.145 40.0157 161.096 36.1194 146.15C35.6381 144.297 35.3216 142.412 35.1436 140.454C33.5152 140.328 31.8868 140.19 30.2583 140.051L28.5903 139.9C28.5376 139.076 28.5112 138.252 28.5112 137.414C28.5112 114.649 47.0371 96.2026 69.8746 96.2026C92.7254 96.2026 111.238 114.649 111.238 137.414Z" fill="black"/>
</g>
<mask id="mask5_131_276" style="mask-type:luminance" maskUnits="userSpaceOnUse" x="34" y="102" width="71" height="71">
<path d="M34.9795 102.664H104.89V172.145H34.9795V102.664Z" fill="white"/>
</mask>
<g mask="url(#mask5_131_276)">
<path d="M104.751 137.414C104.751 139.517 104.56 141.588 104.191 143.598C104 144.699 103.743 145.807 103.439 146.868C99.3057 161.458 85.8432 172.145 69.8753 172.145C53.657 172.145 40.0164 161.096 36.12 146.15C35.6388 144.297 35.3223 142.412 35.1443 140.454C35.052 139.458 35.019 138.443 35.019 137.414C35.019 118.223 50.6243 102.67 69.8753 102.67C89.1396 102.67 104.751 118.223 104.751 137.414Z" fill="#333333"/>
</g>
<path d="M95.3429 137.414C95.3429 151.424 83.9439 162.784 69.8814 162.784C55.8189 162.784 44.4199 151.424 44.4199 137.414C44.4199 123.398 55.8189 112.045 69.8814 112.045C83.9439 112.045 95.3429 123.398 95.3429 137.414Z" fill="#DFDFDF"/>
<path d="M83.7138 137.414C83.7138 145.049 77.4968 151.24 69.8359 151.24C62.1685 151.24 55.958 145.049 55.958 137.414C55.958 129.78 62.1685 123.589 69.8359 123.589C77.4968 123.589 83.7138 129.78 83.7138 137.414Z" fill="#929292"/>
<path d="M56.0039 119.904C56.0039 119.904 58.6213 115.368 66.3085 115.368L67.7194 131.336L56.0039 119.904Z" fill="#333333"/>
<path d="M71.8794 115.922C71.8794 115.922 76.9493 114.564 82.3818 119.976L72.0442 132.259L71.8794 115.922Z" fill="#333333"/>
<path d="M86.5354 124.018C86.5354 124.018 90.8998 126.912 90.4053 134.553L74.3188 134.922L86.5354 124.018Z" fill="#333333"/>
<path d="M47.9935 135.549C47.9935 135.549 46.5101 130.538 51.8173 125L64.3832 135.008L47.9935 135.549Z" fill="#333333"/>
<path d="M82.2367 155.611C82.2367 155.611 79.6259 160.146 71.9387 160.146L70.5278 144.179L82.2367 155.611Z" fill="#333333"/>
<path d="M66.3615 159.593C66.3615 159.593 61.2982 160.951 55.8657 155.538L66.1967 143.256L66.3615 159.593Z" fill="#333333"/>
<path d="M51.7122 151.497C51.7122 151.497 47.3412 148.602 47.8423 140.961L63.9222 140.599L51.7122 151.497Z" fill="#333333"/>
<path d="M90.254 139.966C90.254 139.966 91.7374 144.976 86.4302 150.521L73.8643 140.506L90.254 139.966Z" fill="#333333"/>
<path d="M69.8355 147.033C68.5631 147.033 67.3434 146.783 66.2292 146.334L66.1963 143.256L64.4162 145.372C63.3284 144.64 62.4054 143.691 61.6934 142.583L63.9217 140.599L60.7506 140.671C60.3814 139.649 60.1836 138.555 60.1836 137.414C60.1836 136.63 60.2759 135.865 60.4539 135.14L64.3832 135.008L61.4362 132.661C62.3329 131.092 63.6646 129.8 65.2601 128.943L67.7192 131.336L67.4291 128.092C68.2005 127.901 69.0048 127.795 69.8355 127.795C70.5805 127.795 71.3057 127.881 72.0045 128.039L72.0441 132.259L74.701 129.107C75.9009 129.806 76.9294 130.749 77.7271 131.876L74.3186 134.922L79.1314 134.81C79.3621 135.641 79.4874 136.511 79.4874 137.414C79.4874 138.43 79.3292 139.412 79.0325 140.335L73.8637 140.506L77.4304 143.348C76.2833 144.805 74.7274 145.919 72.9341 146.526L70.5277 144.179L70.7783 146.987C70.4684 147.014 70.1519 147.033 69.8355 147.033Z" fill="#9B9B9B"/>
<path d="M67.7194 131.336L65.2603 128.943C65.9393 128.573 66.6645 128.29 67.4293 128.092L67.7194 131.336Z" fill="#5B5B5B"/>
<path d="M72.0444 132.259L72.0049 128.039C72.9674 128.257 73.8772 128.62 74.7013 129.107L72.0444 132.259Z" fill="#5B5B5B"/>
<path d="M74.3188 134.922L77.7273 131.876C78.3537 132.76 78.8283 133.749 79.1316 134.81L74.3188 134.922Z" fill="#5B5B5B"/>
<path d="M60.4541 135.14C60.6651 134.256 61.0013 133.426 61.4364 132.661L64.3834 135.008L60.4541 135.14Z" fill="#5B5B5B"/>
<path d="M70.7784 146.987L70.5278 144.179L72.9342 146.526C72.2486 146.756 71.5234 146.915 70.7784 146.987Z" fill="#5B5B5B"/>
<path d="M66.229 146.334C65.5895 146.077 64.983 145.754 64.416 145.372L66.1961 143.256L66.229 146.334Z" fill="#5B5B5B"/>
<path d="M61.6938 142.583C61.3114 141.99 60.9949 141.344 60.751 140.671L63.9221 140.599L61.6938 142.583Z" fill="#5B5B5B"/>
<path d="M77.431 143.348L73.8643 140.506L79.033 140.335C78.677 141.443 78.1298 142.458 77.431 143.348Z" fill="#5B5B5B"/>
<path d="M72.367 137.428C72.367 138.819 71.233 139.946 69.8354 139.946C68.4377 139.946 67.3037 138.819 67.3037 137.428C67.3037 136.036 68.4377 134.903 69.8354 134.903C71.233 134.903 72.367 136.036 72.367 137.428Z" fill="#333333"/>
<path d="M68.8403 131.27C68.8403 130.716 69.282 130.274 69.8358 130.274C70.3831 130.274 70.8314 130.716 70.8314 131.27C70.8314 131.817 70.3831 132.259 69.8358 132.259C69.282 132.259 68.8403 131.817 68.8403 131.27Z" fill="#333333"/>
<path d="M68.8403 144.179C68.8403 143.631 69.282 143.183 69.8358 143.183C70.3831 143.183 70.8314 143.631 70.8314 144.179C70.8314 144.726 70.3831 145.174 69.8358 145.174C69.282 145.174 68.8403 144.726 68.8403 144.179Z" fill="#333333"/>
<path d="M76.3627 138.423C75.8089 138.423 75.3672 137.975 75.3672 137.427C75.3672 136.88 75.8089 136.432 76.3627 136.432C76.9165 136.432 77.3582 136.88 77.3582 137.427C77.3582 137.975 76.9165 138.423 76.3627 138.423Z" fill="#333333"/>
<path d="M62.8603 138.423C62.3065 138.423 61.8647 137.975 61.8647 137.427C61.8647 136.88 62.3065 136.432 62.8603 136.432C63.4075 136.432 63.8558 136.88 63.8558 137.427C63.8558 137.975 63.4075 138.423 62.8603 138.423Z" fill="#333333"/>
<path d="M50.0572 27.2284L12.2803 49.4924C12.7286 48.187 13.5131 46.9937 14.568 46.0575L42.8512 20.8004C42.9171 20.7411 42.9567 20.6488 42.9567 20.5631C42.9567 20.5235 42.9435 20.4708 42.9303 20.4378L50.0572 27.2284Z" fill="#BFD9CD"/>
<path d="M57.3423 37.7243L48.6464 48.9584C45.884 52.5252 42.159 55.2414 37.9133 56.7775L11.832 66.2251V52.1296L51.8109 27.6175C53.9075 26.3319 56.6633 27.2812 57.5071 29.5887L58.2785 31.6918C59.0301 33.729 58.6741 36.0035 57.3423 37.7243Z" fill="#FF1D25"/>
<path d="M11.832 52.1296H26.6066C27.5296 52.1296 27.8394 53.3493 27.0351 53.7976L12.2803 61.8606L11.832 52.1296Z" fill="white"/>
<path d="M17.2117 123.352H10.309C9.14204 123.352 8.08059 122.686 7.57954 121.638L5.58191 117.464C5.12042 116.495 5.83244 115.368 6.91366 115.368H20.607C21.6882 115.368 22.4002 116.495 21.9387 117.464L19.9411 121.638C19.44 122.686 18.3786 123.352 17.2117 123.352Z" fill="#FF1D25"/>
<path d="M72.2685 25.5407L83.5883 39.5636C85.7178 42.2008 88.856 43.8424 92.2447 44.0995L348.257 63.4429C348.257 63.4429 282.969 6.83685 193.313 6.83685C138.256 6.83685 90.3262 16.0536 74.1342 20.0291C71.6751 20.6356 70.6796 23.576 72.2685 25.5407Z" fill="#333333"/>
<path d="M76.9427 27.1954L82.6587 33.7552C83.173 34.3486 84.1157 34.2497 84.4981 33.5772L90.7811 22.5211C91.2492 21.6904 90.5372 20.6883 89.5944 20.8597L78.4789 22.8441C76.4483 23.2067 75.5846 25.6395 76.9427 27.1954Z" fill="#BFD9CD"/>
<path d="M183.529 47.7058L172.169 46.7301L160.375 45.7148L148.007 44.6599L127.753 42.926L119.407 42.2008L95.3958 40.1504C93.7806 40.0054 92.8378 38.2583 93.6157 36.8408L100.828 23.7079L103.142 19.4621L104.263 17.4315C104.573 16.8711 105.107 16.469 105.727 16.3174C109.353 15.4932 113.289 14.7812 117.396 14.1747C123.771 13.1989 130.549 12.4605 137.227 11.9067C146.708 11.109 155.984 10.6475 163.526 10.397C170.692 10.1531 176.303 10.0937 179.112 10.0805C180.245 10.0805 181.188 10.9046 181.34 12.0188L183.937 30.7293L185.948 45.1676C186.139 46.585 184.966 47.8311 183.529 47.7058Z" fill="#BFD9CD"/>
<path d="M297.255 36.788V54.1007C297.255 55.182 296.609 56.105 295.679 56.5269C295.284 56.7049 294.842 56.7906 294.367 56.7511L281.313 55.6764L269.051 54.6611L260.77 53.9755L242.587 52.4723L217.956 50.4285L208.463 49.644C207.355 49.5517 206.425 48.7935 206.122 47.7255L202.443 34.975L196.253 13.5153C195.752 11.8012 197.064 10.0804 198.857 10.12C199.279 10.1266 199.701 10.1266 200.116 10.153C206.241 10.3178 212.267 10.7991 218.161 11.5243C221.16 11.8935 224.114 12.322 227.028 12.8033C231.834 13.5878 236.515 14.5306 241.038 15.5525C247.664 17.0491 253.92 18.7632 259.695 20.5235C278.043 26.1274 291.44 32.3115 295.765 34.408C296.681 34.8497 297.255 35.7727 297.255 36.788Z" fill="#BFD9CD"/>
<path d="M455.787 94.5544C433.707 94.8709 386.569 70.0884 385.118 69.3171C404.455 73.576 421.702 71.585 429.534 70.2269C444.691 76.5033 452.985 83.0565 457.349 87.5858C457.415 87.6451 457.474 87.7243 457.527 87.7836C457.778 90.4735 457.349 92.9985 455.787 94.5544Z" fill="white"/>
<path d="M314.252 136.109H144.566C139.661 136.109 134.96 133.788 131.986 129.905C122.888 118.005 100.631 88.9504 90.4846 76.1208C77.3517 59.5134 86.7597 42.5567 86.852 42.3919C87.0036 42.1216 87.3464 42.0293 87.6168 42.1809C87.8871 42.3325 87.986 42.6754 87.8343 42.9391C87.7354 43.1039 78.7098 59.4211 91.3681 75.4285C101.514 88.2648 123.778 117.326 132.883 129.226C135.639 132.839 140.01 134.995 144.566 134.995H314.252C320.212 134.995 325.202 130.729 326.112 124.855C328.67 108.274 333.648 69.0005 324.537 62.3088C324.293 62.1242 324.24 61.7748 324.418 61.5309C324.603 61.2803 324.952 61.2276 325.202 61.4122C334.465 68.2094 330.444 104.186 327.22 125.026C326.224 131.448 320.772 136.109 314.252 136.109Z" fill="#333333"/>
<path d="M197.538 136.109H197.472C197.169 136.076 196.945 135.799 196.978 135.489C203.696 73.576 193.227 52.2218 193.115 52.0174C192.976 51.7405 193.088 51.4043 193.365 51.2658C193.642 51.1274 193.978 51.2329 194.117 51.5032C194.558 52.3668 204.856 73.2727 198.092 135.614C198.066 135.898 197.822 136.109 197.538 136.109Z" fill="#333333"/>
<path d="M136.173 63.4428H107.421C106.96 63.4428 106.584 63.067 106.584 62.6055V57.6015C106.584 57.1334 106.96 56.7643 107.421 56.7643H136.173C136.634 56.7643 137.01 57.1334 137.01 57.6015V62.6055C137.01 63.067 136.634 63.4428 136.173 63.4428Z" fill="#333333"/>
<path d="M250.677 73.6353H221.926C221.464 73.6353 221.088 73.2661 221.088 72.8046V67.7941C221.088 67.3326 221.464 66.9568 221.926 66.9568H250.677C251.138 66.9568 251.514 67.3326 251.514 67.7941V72.8046C251.514 73.2661 251.138 73.6353 250.677 73.6353Z" fill="#333333"/>
<path d="M385.118 69.8774C385.032 69.8774 384.946 69.8576 384.861 69.8114C380.358 67.504 348.521 64.0361 348.198 63.9966C347.888 63.9636 347.671 63.6933 347.703 63.3834C347.73 63.0736 348.027 62.856 348.317 62.889C349.642 63.0274 380.687 66.4096 385.375 68.8159C385.652 68.961 385.764 69.2972 385.619 69.5741C385.52 69.7653 385.322 69.8774 385.118 69.8774Z" fill="#333333"/>
<path d="M127.753 42.9259L119.407 42.2007L100.828 23.7078L103.142 19.462L127.753 42.9259Z" fill="#EBEBEB"/>
<path d="M160.375 45.7148L148.007 44.6599L117.396 14.1747L127.411 12.8693L160.375 45.7148Z" fill="#EBEBEB"/>
<path d="M183.529 47.7058L172.17 46.7301L137.228 11.9068C146.708 11.109 155.984 10.6475 163.526 10.397L183.938 30.7293L185.949 45.1676C186.14 46.585 184.966 47.8311 183.529 47.7058Z" fill="#EBEBEB"/>
<path d="M269.051 54.6612L260.771 53.9756L218.161 11.5244C221.161 11.8936 224.114 12.3221 227.028 12.8034L269.051 54.6612Z" fill="#EBEBEB"/>
<path d="M295.679 56.5269C295.284 56.7049 294.842 56.7907 294.367 56.7511L281.314 55.6765L241.038 15.5525C247.664 17.0491 253.92 18.7632 259.696 20.5235C271.405 32.3774 288.005 49.11 295.679 56.5269Z" fill="#EBEBEB"/>
<path d="M299.866 60.3047C299.866 60.364 299.727 60.2651 299.444 60.0212C299.714 60.1003 299.866 60.186 299.866 60.3047Z" fill="#EBEBEB"/>
<path d="M242.587 52.4723L217.956 50.4285C213.849 46.3344 207.995 40.4997 202.443 34.975L196.253 13.5153C195.752 11.8012 197.064 10.0804 198.857 10.12C199.279 10.1266 199.701 10.1266 200.116 10.153L242.587 52.4723Z" fill="#EBEBEB"/>
<path d="M313.632 50.5538L312.768 52.5184L311.852 54.6018C311.291 55.894 309.953 56.6785 308.542 56.5664L287.623 54.7534C286.1 54.6084 284.867 53.4612 284.65 51.9515L283.786 46.1168C283.707 45.6092 283.76 45.1015 283.911 44.6334L284.089 44.1917C284.294 43.7698 284.597 43.394 284.966 43.0907L290.768 38.3571C291.763 37.5593 293.121 37.3945 294.269 37.9285L312.003 46.2553C313.619 47.02 314.344 48.9188 313.632 50.5538Z" fill="#FFC533"/>
<path d="M308.813 56.5731C308.727 56.5731 308.635 56.5731 308.542 56.5665L294.46 55.3402L287.623 54.7535C286.1 54.6084 284.867 53.4613 284.65 51.9515L283.786 46.1169C283.76 45.9587 283.747 45.8004 283.747 45.6422C283.747 45.2994 283.806 44.9565 283.911 44.6335L284.089 44.1918L312.768 52.4921V52.5185L311.852 54.6018C311.324 55.8083 310.124 56.5731 308.813 56.5731Z" fill="#F6A916"/>
</svg>
