<svg width="117" height="107" viewBox="0 0 117 107" fill="none" xmlns="http://www.w3.org/2000/svg">
<mask id="mask0_99_41" style="mask-type:luminance" maskUnits="userSpaceOnUse" x="6" y="67" width="106" height="40">
<path d="M6.13477 67.7344H111.468V107H6.13477V67.7344Z" fill="white"/>
</mask>
<g mask="url(#mask0_99_41)">
<path d="M110.478 100.516C110.478 104.094 107.567 107 103.984 107H94.2388C90.6502 107 87.7388 104.094 87.7388 100.516V74.5729C87.7388 70.9948 90.6502 68.0886 94.2388 68.0886H103.984C107.567 68.0886 110.478 70.9948 110.478 74.5729V100.516ZM29.2648 100.516C29.2648 104.094 26.3534 107 22.7648 107H13.02C9.43148 107 6.52002 104.094 6.52002 100.516V74.5729C6.52002 70.9948 9.43148 68.0886 13.02 68.0886H22.7648C26.3534 68.0886 29.2648 70.9948 29.2648 74.5729V100.516Z" fill="#292F33"/>
</g>
<path d="M29.2656 9.72919C42.2603 6.4844 74.7447 6.4844 87.7395 9.72919C100.349 12.8698 103.984 45.3959 103.984 45.3959C103.984 45.3959 110.479 45.3959 110.479 58.3646V84.3021C110.479 84.3021 110.88 97.2709 97.4843 97.2709H19.5156C6.12493 97.2709 6.52076 84.3021 6.52076 84.3021V58.3646C6.52076 58.3646 6.52076 45.3959 13.0208 45.3959C13.0208 45.3959 16.6562 12.8698 29.2656 9.72919Z" fill="#FFCC4D"/>
<path d="M58.5 42.1511C71.1875 42.1511 86.5156 42.7969 97.4844 43.9688L94.2396 25.9375C90.9896 16.2136 71.4948 16.2136 58.5 16.2136C45.5052 16.2136 26.0156 16.2136 22.7656 25.9375L19.5156 43.9688C30.4896 42.7969 45.8177 42.1511 58.5 42.1511Z" fill="#55ACEE"/>
<mask id="mask1_99_41" style="mask-type:luminance" maskUnits="userSpaceOnUse" x="0" y="38" width="117" height="41">
<path d="M0 38.4011H117V78.4011H0V38.4011Z" fill="white"/>
</mask>
<g mask="url(#mask1_99_41)">
<path d="M16.2707 43.7708C16.2707 46.4583 14.0884 48.6354 11.3957 48.6354H4.89567C2.20296 48.6354 0.0258789 46.4583 0.0258789 43.7708C0.0258789 41.0833 2.20296 38.9062 4.89567 38.9062H11.3957C14.0884 38.9062 16.2707 41.0833 16.2707 43.7708ZM100.734 43.7708C100.734 46.4583 102.917 48.6354 105.609 48.6354H112.104C114.797 48.6354 116.979 46.4583 116.979 43.7708C116.979 41.0833 114.797 38.9062 112.104 38.9062H105.609C102.917 38.9062 100.734 41.0833 100.734 43.7708ZM35.7603 68.0885C35.7603 73.4635 31.3957 77.8177 26.0155 77.8177H22.7655C17.3853 77.8177 13.0207 73.4635 13.0207 68.0885C13.0207 62.7188 17.3853 58.3646 22.7655 58.3646H26.0155C31.3957 58.3646 35.7603 62.7188 35.7603 68.0885ZM103.984 68.0885C103.984 73.4635 99.6196 77.8177 94.2394 77.8177H90.9894C85.6092 77.8177 81.2446 73.4635 81.2446 68.0885C81.2446 62.7188 85.6092 58.3646 90.9894 58.3646H94.2394C99.6196 58.3646 103.984 62.7188 103.984 68.0885Z" fill="#FFCC4D"/>
</g>
<path d="M81.2442 64.849H35.7599C27.7807 64.849 21.187 54.0313 19.9474 51.8646C19.0567 50.3125 19.5984 48.3334 21.1557 47.4479C22.7078 46.5521 24.6922 47.0938 25.588 48.6459C27.838 52.5625 32.6297 58.3646 35.7599 58.3646H81.2442C84.437 58.3646 89.2338 52.9948 91.4682 49.3698C92.4057 47.8438 94.4005 47.3698 95.937 48.3073C97.4682 49.25 97.9422 51.2448 96.9995 52.7709C96.239 54.0052 89.3224 64.849 81.2442 64.849Z" fill="#FFAC33"/>
<path d="M6.52051 71.3333H19.5153V84.3021H6.52051V71.3333ZM97.4841 71.3333H110.479V84.3021H97.4841V71.3333Z" fill="#F4900C"/>
<path d="M32.5101 77.8177C32.5101 81.3958 29.5986 84.3021 26.0153 84.3021H19.5153C15.932 84.3021 13.0205 81.3958 13.0205 77.8177C13.0205 74.2396 15.932 71.3333 19.5153 71.3333H26.0153C29.5986 71.3333 32.5101 74.2396 32.5101 77.8177ZM103.984 77.8177C103.984 74.2396 101.073 71.3333 97.4841 71.3333H90.9893C87.4007 71.3333 84.4893 74.2396 84.4893 77.8177C84.4893 81.3958 87.4007 84.3021 90.9893 84.3021H97.4841C101.073 84.3021 103.984 81.3958 103.984 77.8177Z" fill="white"/>
<path d="M81.2441 77.8177C81.2441 81.3958 78.3327 84.3021 74.7441 84.3021H42.2598C38.6712 84.3021 35.7598 81.3958 35.7598 77.8177C35.7598 74.2396 38.6712 71.3333 42.2598 71.3333H74.7441C78.3327 71.3333 81.2441 74.2396 81.2441 77.8177Z" fill="#66757F"/>
<mask id="mask2_99_41" style="mask-type:luminance" maskUnits="userSpaceOnUse" x="35" y="0" width="48" height="11">
<path d="M35.4688 0H82.1354V10.401H35.4688V0Z" fill="white"/>
</mask>
<g mask="url(#mask2_99_41)">
<path d="M71.4946 0H45.505C40.1248 0 35.7603 4.35417 35.7603 9.72917H81.2446C81.2446 4.35417 76.88 0 71.4946 0Z" fill="#FFE8B6"/>
</g>
<path d="M45.5049 3.23959H71.4945V9.72918H45.5049V3.23959Z" fill="#CCD6DD"/>
<path d="M52.0049 6.48438H64.9997V9.72917H52.0049V6.48438Z" fill="#99AAB5"/>
</svg>
