<svg width="461" height="159" viewBox="0 0 461 159" fill="none" xmlns="http://www.w3.org/2000/svg">
<mask id="mask0_131_279" style="mask-type:luminance" maskUnits="userSpaceOnUse" x="10" y="0" width="451" height="137">
<path d="M10.0786 0.772156H460.712V136.545H10.0786V0.772156Z" fill="white"/>
</mask>
<g mask="url(#mask0_131_279)">
<path d="M457.494 125.469L459.228 126.497C460.514 127.256 460.883 128.04 460.303 129.405C459.393 131.541 458.108 133.216 455.47 133.499C446.016 134.527 436.529 135.253 427.036 135.754C423.357 135.952 419.678 136.05 416.006 136.176C415.254 136.202 414.476 136.314 413.771 135.905C413.112 135.114 413.329 134.191 413.448 133.328C414.694 124.177 413.613 115.389 409.406 107.082C407.752 103.818 405.583 100.917 403.13 98.2274C401.798 96.7638 401.818 96.1243 403.512 95.0628C408.978 91.6346 414.555 88.3777 420.008 84.9296C420.548 84.5934 421.148 84.4088 421.735 84.1978C422.48 84.0198 423.179 84.2836 423.884 84.4616C427.873 85.668 431.967 86.4526 436.022 87.4349C440.584 88.5359 445.12 89.782 449.86 90.7841C449.623 89.6633 448.924 88.8919 448.37 88.1008C445.634 84.1517 442.661 80.3938 439.12 77.1303C436.411 74.6317 433.035 73.3724 429.528 72.5088C423.126 70.9397 416.652 69.7859 410.072 69.2255C408.741 69.1135 407.396 69.0871 406.064 68.8366C404.936 68.619 404.752 68.9091 405.095 70.043C405.622 71.3023 406.499 72.3373 407.376 73.3329C410.468 76.8205 414.054 79.6884 418.135 81.9365C418.913 82.3584 419.797 82.6881 420.093 83.6638C420.113 84.7582 419.249 85.1736 418.498 85.6483C415.122 87.7712 411.674 89.782 408.253 91.8455C406.525 92.8806 404.851 94.0146 403.104 95.0167C401.449 95.966 400.915 95.966 399.451 94.8321C394.902 91.2983 389.964 88.5425 384.314 87.2042C381.117 86.446 377.866 85.9186 374.59 86.0306C365.07 86.3405 356.604 89.5512 349.418 95.854C341.995 102.368 337.789 110.642 336.536 120.386C335.943 125.027 336.186 129.682 336.846 134.31C336.931 134.883 337.083 135.477 336.483 135.899C335.83 136.156 335.151 136.064 334.486 136.064C267.258 136.07 200.031 136.07 132.804 136.064C131.644 136.064 130.47 136.222 129.323 135.905C128.723 135.207 128.835 134.369 128.948 133.585C129.33 130.921 129.488 128.245 129.422 125.555C129.231 116.892 126.627 109.026 121.603 101.959C116.777 95.1749 110.237 90.7313 102.51 87.936C99.6424 86.9009 96.6163 86.4658 93.5638 86.2087C86.3974 85.6021 79.6464 87.013 73.2645 90.2039C70.1857 91.7334 67.3771 93.6454 64.8389 95.9529C64.3115 96.4473 63.7313 96.8561 63.0852 97.1857C62.4127 97.3308 61.8655 97.0341 61.3447 96.6649C53.1037 90.8104 44.9615 84.811 36.76 78.9038C34.98 77.6248 33.134 76.4315 31.3473 75.1525C30.6023 74.6251 29.7189 74.1438 29.6464 73.0428C30.0617 71.9418 30.9979 71.2693 31.8286 70.5441C35.3821 67.4455 38.5467 63.9513 41.9156 60.6549C42.5156 60.0681 42.9111 59.3231 42.5485 58.4726C42.1859 57.6156 41.3684 57.5826 40.5971 57.576C36.826 57.5562 33.0351 57.3519 29.2838 57.6156C23.6733 58.0111 18.0694 57.6947 12.4721 57.8265C11.1469 57.8595 10.9689 57.6156 10.9491 56.2245C10.9227 53.7324 11.1139 51.2403 10.5338 48.7746C10.5272 48.4186 10.5008 48.0626 10.5074 47.7C10.5338 45.2211 11.5095 44.0673 13.962 43.7706C18.0562 43.2696 22.1701 42.8938 26.2577 42.3334C32.1253 41.5357 37.9929 40.6918 43.7155 39.1359C43.9726 39.0568 44.2231 38.9579 44.467 38.8524C46.2141 38.1272 48.047 38.1074 49.8666 38.3777C50.8291 38.5161 51.6137 38.3052 52.4312 37.8898C55.754 36.2152 59.024 34.4484 62.3534 32.7936C73.5546 27.2029 84.9404 22.0407 96.5174 17.2938C100.823 15.5204 105.141 13.7535 109.518 12.158C109.894 12.0196 110.283 11.9075 110.672 11.5647C110.329 11.0438 109.499 10.8592 109.499 10.0879C110.066 9.2374 111.035 9.2308 111.872 9.00665C123.686 5.76298 135.765 4.10159 147.948 2.9808C166.573 1.26667 185.237 0.765615 203.928 0.904064C218.122 1.00955 232.297 1.71498 246.412 3.30385C256.097 4.39167 265.716 5.93439 275.15 8.42648C276.798 8.86161 278.407 9.44177 280.029 9.95602C280.464 10.0945 280.879 10.2659 281.136 10.6746C280.873 11.1691 280.398 11.3339 279.897 11.3603C278.868 11.4262 277.847 11.4658 277.022 11.6174C278.789 12.0525 280.55 13.0283 282.356 13.8787C291.863 18.3553 301.139 23.2537 310.198 28.5873C320.12 34.389 329.627 40.8302 339.311 47.0011C340.109 47.5088 340.973 47.9175 341.705 48.5043C343.504 49.9481 345.535 50.0074 347.698 49.7437C350.908 49.3613 354.119 49.6778 357.33 49.902C363.916 50.7854 370.515 51.5831 377.088 52.5721C387.353 54.1148 397.566 55.9344 407.686 58.2485C416.184 60.1868 424.609 62.3888 432.765 65.5006C437.663 67.3729 442.252 69.7991 446.359 73.0823C446.979 73.5834 447.671 74.0449 447.908 74.8888C447.374 75.6997 446.465 75.5019 445.713 75.6469C444.085 75.9568 443.986 76.1216 444.961 77.5193C446.339 79.5103 447.882 81.3761 449.379 83.2814C451.759 86.3141 454.165 89.3271 456.855 92.0961C457.422 92.6762 457.738 93.4476 458.305 94.0277C459.545 95.7683 459.973 97.7461 460.006 99.8492C460.059 103.198 460.158 106.548 460.184 109.903C460.191 110.675 460.31 111.545 459.518 112.105C459.004 112.395 458.497 112.29 457.963 112.151C449.062 109.798 440.05 108.011 430.965 106.594C429.686 106.396 429.172 106.772 429.449 107.866C430.629 112.521 431.987 117.109 434.334 121.348C435.797 123.999 438.224 124.724 440.986 124.948C445.832 125.33 450.664 124.724 455.503 124.948C456.196 124.988 456.96 124.796 457.494 125.469Z" fill="#049EDA"/>
</g>
<path d="M336.489 135.899C335.87 131.679 335.5 127.453 335.659 123.175C336.358 104.616 351.033 88.4106 369.467 85.912C380.971 84.3495 391.17 87.3492 400.13 94.6409C400.921 95.2935 401.501 95.3529 402.371 94.8189C407.745 91.4895 413.157 88.1997 418.557 84.9032C419.091 84.5736 419.632 84.2506 420.02 83.7429C420.818 83.1232 421.293 83.3473 421.59 84.4945C418.161 86.9338 414.502 89.0238 410.909 91.2192C408.384 92.7619 405.866 94.3178 403.327 95.8407C402.569 96.2957 402.325 96.6253 403.077 97.4098C412.722 107.464 415.715 119.582 414.094 133.11C413.981 134.04 413.876 134.976 413.764 135.905C411.812 136.261 409.835 136.064 407.87 136.097C406.802 136.11 406.255 136.387 405.833 137.468C400.288 151.517 387.742 159.804 372.691 158.565C358.925 157.418 349.266 150.113 344.084 137.204C343.702 136.242 343.26 135.958 342.258 135.978C340.34 136.011 338.408 136.162 336.489 135.899Z" fill="#302F2F"/>
<path d="M62.815 96.9155C70.4429 89.7688 79.3696 85.622 89.9313 85.4703C106.4 85.2396 121.082 95.3002 127.062 110.648C129.95 118.065 130.635 125.667 129.561 133.492C129.449 134.29 129.403 135.101 129.33 135.899C127.313 135.886 125.289 135.925 123.278 135.833C122.216 135.787 121.722 136.116 121.353 137.158C118.201 145.986 112.255 152.315 103.691 156.053C85.3493 164.063 64.0808 153.91 58.7736 134.686C58.5428 133.875 58.233 133.545 57.3364 133.512C55.4178 133.46 53.4993 133.242 51.5808 133.09C50.8688 129.412 51.0732 125.706 51.2907 122.001C51.4226 119.72 51.8841 117.492 52.3654 115.257C53.1763 111.486 54.8377 108.064 56.8023 104.8C57.844 103.08 58.8857 101.346 60.2965 99.8691C60.7448 99.3944 61.1866 98.8208 61.3118 98.1483C61.4766 97.2715 62.037 96.988 62.815 96.9155Z" fill="#302F2E"/>
<mask id="mask1_131_279" style="mask-type:luminance" maskUnits="userSpaceOnUse" x="0" y="72" width="63" height="62">
<path d="M0.519043 72.4099H62.3993V133.169H0.519043V72.4099Z" fill="white"/>
</mask>
<g mask="url(#mask1_131_279)">
<path d="M51.2443 133.044C49.4313 133.097 47.7106 132.543 45.9503 132.24C35.7314 130.512 25.5059 128.811 15.3068 126.985C8.78651 125.812 4.68577 121.731 2.46399 115.632C1.66626 113.424 1.2641 111.116 1.1652 108.782C0.914675 103.317 0.954234 97.8516 1.28387 92.3861C1.40914 90.4214 2.10139 88.7535 3.27491 87.2107C5.7604 83.9539 7.46795 80.3344 8.41072 76.3524C8.74695 75.5217 9.38646 75.3107 10.2369 75.3107C13.7773 75.3371 17.3176 75.2975 20.858 75.3305C23.205 75.3502 25.5059 75.1986 27.6618 74.1372C27.9453 73.9987 28.2617 73.9855 28.5782 73.9855C29.3034 73.9262 29.8506 74.3284 30.4044 74.7107C40.3793 81.7255 50.1433 89.0172 60.0919 96.0649C60.349 96.2429 60.5864 96.4473 60.8237 96.6517C61.8192 97.5219 61.9247 98.1944 61.0676 99.1701C58.4041 102.242 56.3076 105.671 54.6264 109.349C53.3804 112.085 52.6288 114.96 52.0355 117.914C51.3037 121.54 51.2311 125.179 51.2707 128.838C51.2773 129.596 51.2839 130.348 51.4685 131.106C51.6201 131.732 51.7124 132.444 51.2443 133.044Z" fill="#049DD9"/>
</g>
<path d="M8.70752 75.1393C9.2745 70.6825 9.84149 66.2192 10.4085 61.7624C10.5601 60.5691 10.7117 59.3758 10.87 58.1825C11.2853 57.7078 11.8523 57.8331 12.3797 57.8331C17.4035 57.8331 22.4206 57.754 27.4377 57.6485C31.8747 57.5628 36.3051 57.4177 40.7421 57.4177C41.5728 57.4177 42.4628 57.4045 42.8122 58.3012C43.155 59.2044 42.7793 60.0021 42.0738 60.7076C38.3225 64.4457 34.5778 68.1706 30.7078 71.7703C30.2858 72.1659 29.8573 72.5615 29.5606 73.0757C27.7674 74.6646 25.6181 75.2777 23.2777 75.3239C18.8407 75.4096 14.4037 75.5216 9.96016 75.4557C9.51844 75.4557 9.05035 75.548 8.70752 75.1393Z" fill="#ED4238"/>
<path d="M357.323 49.9018C353.42 50.0666 349.518 50.1853 345.621 50.4226C344.23 50.5083 343.103 50.1062 341.975 49.3744C333.978 44.2122 326.008 39.017 317.944 33.9603C305.906 26.4247 293.465 19.6077 280.543 13.694C278.77 12.8831 276.95 12.1381 274.821 11.2283L281.137 10.6745C282.429 10.5492 283.451 11.2942 284.558 11.7359C294.942 15.9092 304.924 20.9329 314.681 26.3786C324.194 31.699 333.563 37.2633 342.793 43.0782C345.819 45.0033 348.911 46.8295 351.963 48.7151C353.018 49.3809 354.165 49.6974 355.412 49.6644C356.038 49.6578 356.743 49.4007 357.323 49.9018Z" fill="#DFE1E0"/>
<path d="M457.495 125.469C456.156 125.502 454.811 125.594 453.473 125.555C449.392 125.436 445.318 125.799 441.223 125.614C437.215 125.436 434.426 123.729 432.857 119.997C431.229 116.153 429.818 112.237 428.862 108.169C428.4 106.192 428.836 105.671 430.734 105.967C440.136 107.444 449.478 109.172 458.642 111.769C458.938 111.868 459.228 111.98 459.512 112.112C458.839 116.562 458.167 121.019 457.495 125.469Z" fill="#2B2B29"/>
<path d="M109.499 10.0879C110.277 10.5296 111.061 10.9713 111.833 11.413C111.905 11.4592 111.938 11.5449 112.004 11.624C111.918 12.0064 111.549 12.0196 111.285 12.125C93.6693 18.731 76.4818 26.3194 59.6767 34.7714C57.5934 35.8131 55.51 36.8877 53.486 38.0348C52.1081 38.8128 50.7368 39.2216 49.1282 38.8919C47.592 38.5689 46.0295 38.4766 44.4736 38.8458C44.4868 38.7996 44.4802 38.7271 44.5066 38.7139C52.8399 35.5823 60.4415 30.9542 68.4583 27.1567C80.9979 21.2165 93.61 15.4808 106.657 10.7142C107.567 10.3845 108.45 9.83733 109.499 10.0879Z" fill="#DEE1DE"/>
<path d="M458.299 94.0276C456.927 93.2892 456.024 92.0431 455.009 90.9356C451.264 86.8282 447.882 82.4242 444.579 77.9543C444.368 77.6642 444.17 77.3675 443.992 77.0577C443.188 75.6534 443.392 75.2512 444.961 75.126L447.908 74.8886C451.739 79.5827 454.818 84.7185 457 90.3752C457.468 91.5882 457.87 92.8145 458.299 94.0276Z" fill="#272726"/>
<path d="M51.2444 133.044C51.1587 130.895 51.0005 128.752 50.9873 126.603C50.9213 116.219 54.0332 106.936 60.8897 99.0317C61.6347 98.168 61.4039 97.7461 60.5798 97.1527C49.972 89.5446 39.3773 81.9167 28.7958 74.2756C28.2948 73.4845 29.0463 73.379 29.4551 73.0889C29.6661 73.0823 29.8309 73.1614 29.9496 73.3328C36.4237 77.9939 42.8913 82.6551 49.3654 87.3162C53.5453 90.3291 57.7251 93.3486 61.8984 96.3682C62.1885 96.5791 62.5115 96.7374 62.8214 96.9154C62.2478 97.3439 61.9577 97.8977 61.6545 98.5702C61.1732 99.6382 60.2238 100.489 59.525 101.471C56.7692 105.367 54.3958 109.468 53.1102 114.096C52.2267 117.287 51.6531 120.557 51.574 123.867C51.5081 126.458 51.3301 129.062 51.7784 131.646C51.8575 132.101 51.6531 132.609 51.5806 133.09L51.2444 133.044Z" fill="#173843"/>
<path d="M29.9496 73.3329L29.4353 73.1615C29.2639 73.0297 29.2903 72.9044 29.4287 72.7726C30.8264 71.065 32.4548 69.5882 34.0701 68.1114C36.7797 65.6259 39.3312 62.9888 41.9551 60.411C42.5089 59.8638 42.8254 59.2375 42.5419 58.4859C42.2188 57.6486 41.4475 57.6816 40.7157 57.6948C31.4857 57.8662 22.2491 58.0376 13.0192 58.209C12.3006 58.2222 11.5885 58.1892 10.8699 58.1826C10.8897 55.0378 10.9029 51.8931 10.5469 48.7681C11.3182 50.8712 11.1534 53.06 11.1534 55.229C11.1534 57.4904 11.1402 57.5036 13.4609 57.4772C22.3019 57.3651 31.1495 57.253 39.9904 57.141C41.1376 57.1278 42.4825 56.8245 43.0693 58.1958C43.6692 59.6001 42.7067 60.556 41.7837 61.4527C38.2104 64.9205 34.6371 68.3883 31.0703 71.8627C30.6286 72.2979 30.088 72.6605 29.9496 73.3329Z" fill="#87677A"/>
<path d="M29.4286 72.7723C29.4286 72.8976 29.4286 73.0295 29.4352 73.1613C29.1781 73.5107 28.5188 73.6228 28.7957 74.2755C22.9149 76.761 16.711 75.4095 10.6522 75.7655C9.85447 75.8116 9.04356 75.7193 8.41064 76.3522C8.50954 75.9501 8.60843 75.5479 8.70732 75.1458C14.008 75.2842 19.2954 75.0403 24.5894 74.9018C26.4684 74.8491 27.9847 73.8536 29.4286 72.7723Z" fill="#936475"/>
<path d="M245.944 10.8527C250.335 11.2417 254.627 12.1779 258.919 13.1207C270.931 15.7776 282.152 20.498 292.918 26.3525C305.682 33.2881 317.727 41.3116 329.139 50.2778C330.062 50.9964 330.952 51.7546 331.677 52.6776C332.271 53.4292 332.534 54.2731 332.106 55.1895C331.704 56.0531 330.879 56.1125 330.049 56.1586C328.486 56.2509 326.911 55.9213 325.368 56.3103C324.709 56.8047 324.115 56.5146 323.542 56.1454C319.329 55.9543 315.116 55.7565 310.91 55.5587C300.328 55.084 289.753 54.6093 279.179 54.1346C278.783 54.1214 278.394 54.0094 277.998 53.95C278.295 53.3633 278.915 53.4754 279.528 53.2973C277.689 50.8778 275.796 48.5769 273.957 46.2364C266.145 36.3208 258.246 26.4777 250.355 16.6214C248.99 14.9139 247.764 13.0745 246.168 11.5582C245.97 11.3736 245.792 11.156 245.944 10.8527Z" fill="#DDDDE0"/>
<path d="M156.143 10.5624C158.642 10.0152 161.187 9.79764 163.725 9.5603C174.003 8.60434 184.321 8.20877 194.645 8.13625C195.997 8.12306 196.399 8.51204 196.485 9.81742C197.012 17.6827 197.619 25.5413 198.199 33.4066C198.588 38.727 198.977 44.0408 199.359 49.3612C199.392 49.8161 199.656 50.4358 198.799 50.3831C194.909 50.1391 191.019 49.8952 187.136 49.6381C185.547 46.9218 183.371 44.6407 181.44 42.1882C173.706 32.3649 165.933 22.5745 158.371 12.6128C157.732 11.7623 156.881 11.2547 156.143 10.5624Z" fill="#DDDEE0"/>
<path d="M257.508 53.0797C254.805 53.2511 252.134 52.8621 249.438 52.7566C239.384 52.3611 229.336 51.8732 219.276 51.471C218.148 51.4249 217.647 51.0952 217.384 49.9547C214.206 36.4657 210.995 22.9834 207.745 9.51427C207.508 8.51875 207.547 8.08363 208.787 8.14296C212.419 8.32097 216.059 8.3803 219.698 8.49897C220.093 8.51216 220.489 8.62424 220.878 8.69016C220.581 9.27693 220.898 9.67909 221.247 10.1208C227.312 17.7223 233.358 25.3371 239.391 32.965C244.164 38.9578 248.838 45.0298 253.565 51.0557C254.238 51.9127 254.956 52.3611 256.064 52.3281C256.611 52.3083 257.382 52.1567 257.508 53.0797Z" fill="#DDDEE0"/>
<path d="M128.578 46.8823C126.014 47.0999 123.469 46.7834 120.917 46.6516C115.848 46.3944 110.778 46.223 105.728 45.6099C105.016 45.5242 104.317 45.3726 103.605 45.2539C103.17 45.3132 102.833 45.2275 102.814 44.6935C100.447 42.1289 99.0029 39.0896 98.0997 35.747C97.0712 31.9232 97.9283 29.5234 101.244 27.3016C103.71 25.6402 106.453 24.4997 109.143 23.2536C114.239 20.8868 119.586 19.1727 124.893 17.3596C125.143 17.2739 125.414 17.2739 125.684 17.2344C126.205 17.5113 126.449 17.9794 126.488 18.5463C126.699 21.6318 127.069 24.6975 127.332 27.7697C127.715 32.1869 128.137 36.5909 128.598 40.9949C128.756 42.5113 129.013 44.021 128.974 45.5506C128.961 46.0252 129.106 46.5593 128.578 46.8823Z" fill="#DDDEE0"/>
<path d="M102.814 44.7002L103.611 45.254C101.891 49.8294 100.645 54.4576 101.396 59.4352C102.003 63.4502 103.987 66.7664 106.453 69.8321C113.956 79.1741 121.478 88.4963 129.027 97.7988C134.097 104.029 139.265 110.174 144.355 116.384C147.968 120.795 152.702 122.733 158.299 122.852C173.073 123.168 187.855 123.03 202.636 123.142C204.66 123.155 206.684 123.109 208.701 123.161C209.631 123.181 210.006 122.931 210.119 121.915C210.857 115.356 211.259 108.782 211.608 102.203C212.09 93.1047 212.083 84 211.925 74.8953C211.806 67.3268 210.784 59.8835 208.853 52.5654C208.78 52.3083 208.714 52.0446 208.661 51.7809C208.602 51.3787 208.246 50.8579 208.938 50.6733C209.598 50.5019 209.921 50.8579 210.072 51.4842C210.784 54.3521 211.47 57.2266 211.978 60.1472C213.098 66.6213 213.389 73.1548 213.415 79.7081C213.448 90.5665 213.263 101.412 212.485 112.244C212.281 115.158 212.044 118.059 211.773 120.959C211.569 123.161 211.622 123.254 213.797 123.28C216.395 123.306 219.006 123.313 221.61 123.326C229.97 123.366 238.329 123.326 246.682 123.458C262.63 123.709 278.578 123.577 294.526 123.709C303.783 123.781 313.033 123.808 322.289 123.946C323.746 123.966 324.385 123.583 324.728 122.087C327.959 107.774 329.198 93.3025 328.354 78.6664C327.913 70.9265 326.429 63.3777 323.535 56.1388C324.155 56.0596 324.781 55.9344 325.361 56.297C326.198 59.7384 327.497 63.048 328.203 66.529C329.824 74.5855 330.148 82.7342 329.969 90.9027C329.785 99.4338 329 107.912 327.398 116.298C326.943 118.678 326.297 121.019 325.875 123.399C325.605 124.902 324.952 125.41 323.377 125.39C313.665 125.284 303.961 125.311 294.256 125.265C271.254 125.152 248.245 125.034 225.242 124.909C210.547 124.829 195.852 124.737 181.163 124.645C173.924 124.599 166.692 124.454 159.459 124.467C152.642 124.48 147.164 121.988 142.753 116.707C133.022 105.071 123.482 93.2761 113.942 81.4816C110.699 77.4731 107.409 73.5043 104.304 69.3771C98.6865 61.9207 98.6602 53.9895 101.983 45.6957C102.148 45.2804 102.326 44.8584 102.814 44.7002Z" fill="#1A3641"/>
<path d="M128.618 16.4104C130.595 15.4677 132.725 15.0325 134.861 14.6304C135.632 14.749 136.087 15.2765 136.542 15.8566C142.35 23.3593 148.218 30.8026 154.158 38.1997C156.426 41.0281 158.655 43.8827 160.87 46.7506C161.265 47.2583 161.839 47.7396 161.542 48.5241C156.387 48.3131 151.224 48.1219 146.069 47.8912C141.671 47.7 137.274 47.4627 132.877 47.2451C132.481 47.2253 132.052 47.3242 131.743 46.9682C130.622 46.3155 130.932 45.1156 130.839 44.1794C130.147 37.4613 129.475 30.7366 128.829 24.012C128.644 22.0077 128.473 19.9969 128.182 18.0059C128.097 17.3994 128.097 16.839 128.618 16.4104Z" fill="#DEDFE1"/>
<path d="M257.507 53.0796C257.303 53.0071 257.079 52.8422 256.888 52.8818C254.738 53.2774 253.545 52.0379 252.358 50.5084C245.423 41.5751 238.461 32.6682 231.466 23.7942C227.728 19.0606 223.897 14.3995 220.113 9.69877C219.935 9.47461 219.513 9.27023 219.744 8.934C220.001 8.57139 220.508 8.82192 220.878 8.69006L221.675 8.72303C223.014 9.03948 224.385 8.63073 225.717 8.94718C226.983 8.99993 228.255 8.83511 229.488 9.25705C230.681 9.7581 231.294 10.8459 232.033 11.7887C239.357 21.1307 246.886 30.3211 254.178 39.7027C257.257 43.665 260.395 47.5812 263.527 51.5039C263.731 51.7478 263.896 52.0115 264.008 52.3082C264.206 52.862 264.206 53.3037 263.415 53.2576C262.076 53.1785 260.731 53.4026 259.399 53.1389L257.507 53.0796Z" fill="#FBFBFB"/>
<path d="M404.811 70.366C404.409 70.1748 404.264 69.8253 404.125 69.4298C403.816 68.5397 404.066 68.1574 405.029 68.2431C407.976 68.5134 410.936 68.6782 413.87 69.054C419.836 69.8187 425.757 70.7945 431.552 72.4757C435.448 73.603 438.758 75.6138 441.487 78.6136C444.612 82.0419 447.533 85.602 449.985 89.5313C450.368 90.1313 450.677 90.7773 451.185 91.6938C449.576 91.3443 448.251 91.074 446.933 90.7576C439.661 88.9841 432.389 87.204 425.11 85.424C424.682 85.3185 424.22 85.2921 423.891 84.9295C423.62 84.5867 423.594 84.1911 423.627 83.7824C424.062 77.8224 421.794 74.6315 415.979 73.0954C412.947 72.2911 409.841 71.8098 406.769 71.1703C406.064 71.0186 405.345 70.9132 404.811 70.366Z" fill="#FCFCFB"/>
<path d="M245.943 10.8527C247.11 11.301 247.691 12.3624 248.403 13.2525C254.87 21.3551 261.325 29.4642 267.759 37.5932C271.801 42.6565 275.862 47.7 279.91 52.7501C280.134 53.027 280.292 53.35 280.582 53.8247L277.991 53.9434C276.106 53.9236 274.214 54.0027 272.341 53.6599C271.583 53.3171 271.023 52.7699 270.508 52.1238C266.005 46.4803 261.608 40.7577 257.066 35.1407C250.895 27.4996 244.816 19.7794 238.711 12.0921C238.395 11.7032 238.065 11.3274 237.88 10.8659C237.584 10.1011 237.762 9.71871 238.658 10.0352C241.104 10.1604 243.53 10.4373 245.943 10.8527Z" fill="#FBFBFB"/>
<path d="M238.659 10.0285C237.775 10.1208 238.184 10.49 238.474 10.8592C240.353 13.2458 242.219 15.6456 244.111 18.019C247.981 22.8845 251.851 27.7434 255.728 32.6023C260.606 38.7205 265.479 44.8452 270.344 50.9634C271.036 51.8402 271.676 52.7566 272.342 53.6598C268.023 53.6269 263.705 53.5478 259.4 53.139H264.028C262.855 51.6161 261.905 50.3502 260.923 49.1108C256.427 43.4212 251.917 37.7316 247.408 32.0551C243.261 26.8336 239.035 21.6648 234.947 16.3972C233.108 14.0369 231.071 11.8218 229.488 9.25714C232.561 9.32966 235.626 9.47471 238.659 10.0285Z" fill="#DEDFE1"/>
<path d="M161.549 48.5241L134.861 14.6304C137.492 13.7667 140.182 13.1207 142.918 12.6987C143.669 12.6064 144.052 13.1338 144.441 13.6217C149.392 19.8849 154.317 26.1613 159.215 32.464C162.96 37.2768 166.876 41.9577 170.535 46.843C170.733 47.0803 170.917 47.3374 171.076 47.6077C171.63 48.6362 171.458 48.9461 170.285 48.9329C169.711 48.9263 169.118 49.0713 168.557 48.834L166.922 48.7813C165.393 48.4714 163.83 48.8736 162.307 48.5637L161.549 48.5241Z" fill="#FBFBFB"/>
<path d="M156.143 10.5625C157.198 10.4438 157.798 10.9581 158.431 11.7953C164.496 19.6672 170.601 27.506 176.739 35.3186C180.134 39.6566 183.582 43.9486 186.958 48.2998C187.182 48.5899 188.138 49.0778 187.123 49.6382C184.696 49.6645 182.27 49.5591 179.851 49.3283C178.98 49.1305 178.361 48.6229 177.807 47.924C170.509 38.5424 163.065 29.2729 155.793 19.8781C154.04 17.6102 152.194 15.4148 150.473 13.1139C150.084 12.5931 149.563 11.9931 150.473 11.4327C152.365 11.1097 154.218 10.5889 156.143 10.5625Z" fill="#FBFBFB"/>
<path d="M150.487 11.4263C150.117 11.9933 150.546 12.3097 150.856 12.6987C157.508 21.1902 164.167 29.6818 170.819 38.18C173.522 41.6346 176.403 44.9508 178.981 48.5109C179.211 48.8274 179.567 49.0581 179.864 49.3284C176.093 49.2691 172.322 49.1372 168.564 48.834L171.142 48.7087C169.771 46.5792 168.274 44.7596 166.817 42.907C163.006 38.0547 159.182 33.209 155.345 28.3632C151.205 23.1351 147.065 17.9136 142.918 12.6987C145.39 11.9933 147.915 11.5713 150.487 11.4263Z" fill="#DEDFE1"/>
<path d="M404.811 70.3661C409.848 71.1309 414.964 71.6913 419.638 73.8801C423.416 75.6536 425.374 81.0202 423.891 84.9297C423.086 85.0022 422.361 84.6396 421.59 84.4946C421.214 83.9342 420.647 83.7694 420.021 83.7364C418.227 82.6354 416.388 81.6003 414.641 80.4202C411.199 78.1061 408.074 75.4228 405.635 72.0275C405.266 71.5133 404.87 71.0254 404.811 70.3661Z" fill="#F5A721"/>
<path d="M229.317 62.8567C233.496 62.8502 236.892 63.0545 240.287 63.3644C240.828 63.4171 241.355 63.5094 241.876 63.6413C243.432 64.0303 243.972 64.7423 243.86 66.1993C243.761 67.4651 243.142 68.0387 241.599 68.1706C236.134 68.6452 230.668 68.4211 225.209 68.0519C224.088 67.9794 222.981 67.8475 221.88 67.6497C220.462 67.3926 219.783 66.5355 219.856 65.2499C219.922 64.0237 220.746 63.2128 222.157 63.0809C224.537 62.8765 226.923 62.804 229.317 62.8567Z" fill="#2A2C2B"/>
<path d="M123.554 65.4082C120.284 65.2302 116.995 65.3686 113.731 64.9863C111.912 64.7753 111.206 64.1819 111.16 62.837C111.107 61.3206 111.819 60.5493 113.652 60.2856C115.749 59.9691 117.871 60.0285 119.975 60.0285C124.24 60.035 128.519 59.8636 132.745 60.6548C133.767 60.8394 134.677 61.1492 134.907 62.3359C135.217 63.9446 134.63 64.9071 132.976 65.0786C130.971 65.2961 128.941 65.3291 126.923 65.4016C125.803 65.4412 124.682 65.4082 123.554 65.4082Z" fill="#292A29"/>
<path d="M128.618 16.4105C129.66 26.5964 130.701 36.7823 131.743 46.9682C130.675 47.2979 129.627 47.2649 128.578 46.8825C127.794 38.7865 127.016 30.6839 126.231 22.5748C126.06 20.7947 125.869 19.0146 125.684 17.2346C126.607 16.7467 127.57 16.4171 128.618 16.4105Z" fill="#2B2B2A"/>
<path d="M89.8586 59.1911C89.8586 65.151 85.0985 70.0495 79.3166 70.0429C73.693 70.0363 68.8538 65.0324 68.834 59.2043C68.8143 53.2444 73.6732 48.2602 79.4881 48.2668C85.0854 48.28 89.8652 53.3103 89.8586 59.1911Z" fill="#025B84"/>
<path d="M162.301 48.5635C163.844 48.5437 165.399 48.3394 166.916 48.7811C165.373 48.8536 163.83 48.8932 162.301 48.5635Z" fill="#DEDFE1"/>
<path d="M225.724 8.94725C224.365 8.94725 223.007 9.18459 221.682 8.7231C223.034 8.64398 224.385 8.61102 225.724 8.94725Z" fill="#DDDEE0"/>
<path d="M355.721 125.746C355.74 115.21 364.621 106.429 375.209 106.482C385.85 106.528 394.454 115.27 394.414 125.977C394.368 136.571 385.718 145.373 375.348 145.359C364.522 145.346 355.708 136.538 355.721 125.746Z" fill="#D4D4D4"/>
<path d="M109.881 125.99C109.881 136.657 101.165 145.412 90.5638 145.399C79.8966 145.379 71.2139 136.525 71.2271 125.673C71.2337 115.125 79.9823 106.429 90.5638 106.449C101.271 106.468 109.881 115.178 109.881 125.99Z" fill="#D5D5D5"/>
<path d="M437.103 116.892C437.09 113.945 439.312 111.538 442.015 111.578C444.672 111.617 446.795 113.978 446.781 116.879C446.768 119.779 444.645 122.06 441.922 122.067C439.186 122.093 437.11 119.865 437.103 116.892Z" fill="#D9D9D9"/>
<path d="M309.69 54.9521C307.811 54.84 305.912 54.9059 304.073 54.4313C302.174 53.95 301.02 52.7303 300.697 50.825C300.222 47.9637 300.255 45.109 300.796 42.2609C301.145 40.4083 301.989 39.5842 303.783 39.5381C308.74 39.4062 313.441 40.3292 317.522 43.3685C319.513 44.8453 320.766 46.6913 320.456 49.3218C320.146 51.9194 318.583 53.4028 316.223 54.1939C314.1 54.9125 311.885 54.873 309.69 54.9521Z" fill="#059EDA"/>
<path d="M79.3106 69.3045C74.5045 69.6539 69.5467 65.3027 69.4214 59.2175C69.3093 53.7125 74.0232 48.8931 79.3766 48.9459C84.8882 48.992 89.2328 53.4092 89.2065 59.112C89.1735 65.5862 83.9784 69.621 79.3106 69.3045Z" fill="#049ED8"/>
<path d="M390.334 126.867C390.057 129.378 389.411 131.739 388.191 133.927C387.677 134.857 387.281 135.187 386.358 134.257C385.323 133.215 384.11 132.339 382.917 131.462C382.356 131.046 382.264 130.723 382.646 130.15C383.194 129.319 383.589 128.376 383.635 127.394C383.682 126.398 384.051 126.115 385.013 126.141C386.49 126.188 387.974 126.108 389.457 126.049C390.09 126.029 390.571 126.082 390.334 126.867Z" fill="#2B2A2B"/>
<path d="M380.068 111.538C380.22 111.591 380.477 111.664 380.734 111.749C383.437 112.646 385.395 114.525 387.221 116.602C387.656 117.096 387.465 117.347 386.971 117.617C385.514 118.415 384.07 119.219 382.639 120.056C382.178 120.327 381.848 120.32 381.472 119.911C380.707 119.061 379.791 118.434 378.73 118.012C378.136 117.782 378.182 117.432 378.295 116.958C378.677 115.342 379.039 113.727 379.402 112.112C379.475 111.802 379.508 111.472 380.068 111.538Z" fill="#282828"/>
<path d="M363.231 126.042C364.213 126.089 365.353 125.845 366.145 126.26C366.903 126.662 366.731 127.928 367.028 128.798C367.285 129.57 368.241 130.268 367.799 131.053C367.443 131.693 366.553 132.029 365.901 132.51C365.175 133.037 364.371 133.492 363.758 134.132C362.875 135.055 362.486 134.607 362.024 133.763C360.864 131.64 360.231 129.378 359.974 126.985C359.895 126.22 359.987 125.779 360.943 125.95C361.688 126.075 362.466 126.036 363.231 126.075V126.042Z" fill="#292929"/>
<path d="M375.176 141.18C373.713 141.199 372.269 141.021 370.851 140.639C370.245 140.481 370.139 140.283 370.469 139.729C371.293 138.345 371.873 136.842 372.407 135.325C372.625 134.692 372.902 134.363 373.673 134.567C374.603 134.811 375.539 134.824 376.475 134.613C377.418 134.396 377.807 134.653 378.104 135.569C378.519 136.894 379.046 138.167 379.692 139.4C380.207 140.389 379.811 140.619 378.954 140.778C377.675 141.021 376.403 141.252 375.176 141.18Z" fill="#2B2B2B"/>
<path d="M370.094 111.637C370.581 111.611 370.509 112.026 370.588 112.296C371.03 113.839 371.419 115.408 371.92 116.938C372.151 117.636 371.92 117.874 371.333 118.151C370.694 118.454 369.949 118.757 369.533 119.285C368.492 120.603 367.562 120.293 366.415 119.463C365.472 118.784 364.404 118.276 363.369 117.742C362.782 117.445 362.723 117.142 363.092 116.601C364.773 114.182 367.087 112.659 369.836 111.723L370.094 111.637Z" fill="#282827"/>
<path d="M90.4193 141.193C89.0282 141.246 87.7097 141.021 86.3911 140.751C85.7977 140.632 85.534 140.454 85.9098 139.795C86.7273 138.358 87.3009 136.802 87.8349 135.24C88.0459 134.613 88.3294 134.409 89.0216 134.567C90.0831 134.804 91.1511 134.798 92.2126 134.554C92.8718 134.402 93.1751 134.534 93.4125 135.187C93.9662 136.749 94.6058 138.266 95.4299 139.703C95.7331 140.217 95.6342 140.474 95.0145 140.626C93.4916 140.995 91.962 141.259 90.4193 141.193Z" fill="#2A2929"/>
<path d="M105.833 126.722C105.543 129.451 104.857 131.884 103.558 134.132C103.149 134.824 102.846 135.121 102.075 134.409C100.928 133.354 99.6486 132.431 98.3828 131.501C97.8422 131.106 97.7235 130.803 98.0861 130.196C98.6861 129.227 99.0223 128.165 99.1014 127.032C99.1476 126.333 99.464 126.141 100.117 126.128C101.732 126.102 103.347 126.076 104.956 125.924C105.833 125.851 106.004 126.135 105.833 126.722Z" fill="#2B2B2B"/>
<path d="M95.4889 111.591L96.1284 111.808C98.7194 112.699 100.697 114.426 102.504 116.404C103.018 116.957 102.919 117.234 102.273 117.59C100.862 118.362 99.4776 119.199 98.1063 120.05C97.6118 120.359 97.2756 120.392 96.8405 119.931C96.0559 119.107 95.1461 118.467 94.1044 118.012C93.6627 117.815 93.4913 117.584 93.6166 117.089C94.0319 115.441 94.4143 113.78 94.8231 112.125C94.8824 111.855 94.8626 111.439 95.4889 111.591Z" fill="#282826"/>
<path d="M75.4405 127.157C75.1306 126.174 75.3746 125.772 76.5876 125.93C78.0512 126.115 79.5412 126.095 81.0246 126.108C81.6707 126.108 81.9608 126.286 82.0663 126.985C82.1981 127.816 82.3893 128.699 82.8113 129.405C83.4969 130.545 83.253 131.172 82.1586 131.844C81.0114 132.536 79.9566 133.4 78.9545 134.284C78.315 134.844 78.0447 134.725 77.6557 134.059C76.4228 131.937 75.6383 129.682 75.4405 127.157Z" fill="#282827"/>
<path d="M85.3954 111.604C85.8635 111.552 85.8569 111.96 85.936 112.217C86.4173 113.8 86.859 115.395 87.3403 116.977C87.5051 117.511 87.36 117.775 86.8656 118.032C86.1931 118.375 85.4086 118.692 84.9668 119.252C83.9318 120.577 83.022 120.294 81.8748 119.45C80.9782 118.79 79.9497 118.303 78.9476 117.808C78.3279 117.505 78.1564 117.195 78.5718 116.595C80.2266 114.235 82.4616 112.672 85.1382 111.697C85.2174 111.664 85.3031 111.637 85.3954 111.604Z" fill="#252525"/>
</svg>
